  0
SECTION
  2
HEADER
  9
$ACADVER
  1
AC1027
  9
$ACADMAINTVER
 70
   105
  9
$DWGCODEPAGE
  3
ANSI_932
  9
$REQUIREDVERSIONS
160
                 0
  9
$INSBASE
 10
0.0
 20
0.0
 30
0.0
  9
$EXTMIN
 10
10.0
 20
10.0
 30
0.0
  9
$EXTMAX
 10
410.0
 20
287.0
 30
0.0
  9
$LIMMIN
 10
10.0
 20
10.0
  9
$LIMMAX
 10
410.0
 20
287.0
  9
$ORTHOMODE
 70
     0
  9
$REGENMODE
 70
     1
  9
$FILLMODE
 70
     1
  9
$QTEXTMODE
 70
     0
  9
$MIRRTEXT
 70
     1
  9
$LTSCALE
 40
1.0
  9
$ATTMODE
 70
     1
  9
$TEXTSIZE
 40
2.5
  9
$TRACEWID
 40
1.0
  9
$TEXTSTYLE
  7
Standard
  9
$CLAYER
  8
0
  9
$CELTYPE
  6
ByLayer
  9
$CECOLOR
 62
   256
  9
$CELTSCALE
 40
1.0
  9
$DISPSILH
 70
     0
  9
$DIMSCALE
 40
1.0
  9
$DIMASZ
 40
2.5
  9
$DIMEXO
 40
0.625
  9
$DIMDLI
 40
3.75
  9
$DIMRND
 40
0.0
  9
$DIMDLE
 40
0.0
  9
$DIMEXE
 40
1.25
  9
$DIMTP
 40
0.0
  9
$DIMTM
 40
0.0
  9
$DIMTXT
 40
2.5
  9
$DIMCEN
 40
2.5
  9
$DIMTSZ
 40
0.0
  9
$DIMTOL
 70
     0
  9
$DIMLIM
 70
     0
  9
$DIMTIH
 70
     0
  9
$DIMTOH
 70
     0
  9
$DIMSE1
 70
     0
  9
$DIMSE2
 70
     0
  9
$DIMTAD
 70
     1
  9
$DIMZIN
 70
     8
  9
$DIMBLK
  1

  9
$DIMASO
 70
     1
  9
$DIMSHO
 70
     1
  9
$DIMPOST
  1

  9
$DIMAPOST
  1

  9
$DIMALT
 70
     0
  9
$DIMALTD
 70
     3
  9
$DIMALTF
 40
0.03937007874016
  9
$DIMLFAC
 40
1.0
  9
$DIMTOFL
 70
     1
  9
$DIMTVP
 40
0.0
  9
$DIMTIX
 70
     0
  9
$DIMSOXD
 70
     0
  9
$DIMSAH
 70
     0
  9
$DIMBLK1
  1

  9
$DIMBLK2
  1

  9
$DIMSTYLE
  2
ISO-25
  9
$DIMCLRD
 70
     0
  9
$DIMCLRE
 70
     0
  9
$DIMCLRT
 70
     0
  9
$DIMTFAC
 40
1.0
  9
$DIMGAP
 40
0.625
  9
$DIMJUST
 70
     0
  9
$DIMSD1
 70
     0
  9
$DIMSD2
 70
     0
  9
$DIMTOLJ
 70
     0
  9
$DIMTZIN
 70
     8
  9
$DIMALTZ
 70
     0
  9
$DIMALTTZ
 70
     0
  9
$DIMUPT
 70
     0
  9
$DIMDEC
 70
     2
  9
$DIMTDEC
 70
     2
  9
$DIMALTU
 70
     2
  9
$DIMALTTD
 70
     3
  9
$DIMTXSTY
  7
Standard
  9
$DIMAUNIT
 70
     0
  9
$DIMADEC
 70
     0
  9
$DIMALTRND
 40
0.0
  9
$DIMAZIN
 70
     0
  9
$DIMDSEP
 70
    44
  9
$DIMATFIT
 70
     3
  9
$DIMFRAC
 70
     0
  9
$DIMLDRBLK
  1

  9
$DIMLUNIT
 70
     2
  9
$DIMLWD
 70
    -2
  9
$DIMLWE
 70
    -2
  9
$DIMTMOVE
 70
     0
  9
$DIMFXL
 40
1.0
  9
$DIMFXLON
 70
     0
  9
$DIMJOGANG
 40
0.7853981633974483
  9
$DIMTFILL
 70
     0
  9
$DIMTFILLCLR
 70
     0
  9
$DIMARCSYM
 70
     0
  9
$DIMLTYPE
  6

  9
$DIMLTEX1
  6

  9
$DIMLTEX2
  6

  9
$DIMTXTDIRECTION
 70
     0
  9
$LUNITS
 70
     2
  9
$LUPREC
 70
     4
  9
$SKETCHINC
 40
1.0
  9
$FILLETRAD
 40
10.0
  9
$AUNITS
 70
     0
  9
$AUPREC
 70
     0
  9
$MENU
  1
.
  9
$ELEVATION
 40
0.0
  9
$PELEVATION
 40
0.0
  9
$THICKNESS
 40
0.0
  9
$LIMCHECK
 70
     0
  9
$CHAMFERA
 40
0.0
  9
$CHAMFERB
 40
0.0
  9
$CHAMFERC
 40
0.0
  9
$CHAMFERD
 40
0.0
  9
$SKPOLY
 70
     0
  9
$TDCREATE
 40
2460851.762132477
  9
$TDUCREATE
 40
2460851.387132477
  9
$TDUPDATE
 40
2460851.762135937
  9
$TDUUPDATE
 40
2460851.387135937
  9
$TDINDWG
 40
0.0000000116
  9
$TDUSRTIMER
 40
0.0000000116
  9
$USRTIMER
 70
     1
  9
$ANGBASE
 50
0.0
  9
$ANGDIR
 70
     0
  9
$PDMODE
 70
     0
  9
$PDSIZE
 40
0.0
  9
$PLINEWID
 40
0.0
  9
$SPLFRAME
 70
     0
  9
$SPLINETYPE
 70
     6
  9
$SPLINESEGS
 70
     8
  9
$HANDSEED
  5
235
  9
$SURFTAB1
 70
     6
  9
$SURFTAB2
 70
     6
  9
$SURFTYPE
 70
     6
  9
$SURFU
 70
     6
  9
$SURFV
 70
     6
  9
$UCSBASE
  2

  9
$UCSNAME
  2

  9
$UCSORG
 10
0.0
 20
0.0
 30
0.0
  9
$UCSXDIR
 10
1.0
 20
0.0
 30
0.0
  9
$UCSYDIR
 10
0.0
 20
1.0
 30
0.0
  9
$UCSORTHOREF
  2

  9
$UCSORTHOVIEW
 70
     0
  9
$UCSORGTOP
 10
0.0
 20
0.0
 30
0.0
  9
$UCSORGBOTTOM
 10
0.0
 20
0.0
 30
0.0
  9
$UCSORGLEFT
 10
0.0
 20
0.0
 30
0.0
  9
$UCSORGRIGHT
 10
0.0
 20
0.0
 30
0.0
  9
$UCSORGFRONT
 10
0.0
 20
0.0
 30
0.0
  9
$UCSORGBACK
 10
0.0
 20
0.0
 30
0.0
  9
$PUCSBASE
  2

  9
$PUCSNAME
  2

  9
$PUCSORG
 10
0.0
 20
0.0
 30
0.0
  9
$PUCSXDIR
 10
1.0
 20
0.0
 30
0.0
  9
$PUCSYDIR
 10
0.0
 20
1.0
 30
0.0
  9
$PUCSORTHOREF
  2

  9
$PUCSORTHOVIEW
 70
     0
  9
$PUCSORGTOP
 10
0.0
 20
0.0
 30
0.0
  9
$PUCSORGBOTTOM
 10
0.0
 20
0.0
 30
0.0
  9
$PUCSORGLEFT
 10
0.0
 20
0.0
 30
0.0
  9
$PUCSORGRIGHT
 10
0.0
 20
0.0
 30
0.0
  9
$PUCSORGFRONT
 10
0.0
 20
0.0
 30
0.0
  9
$PUCSORGBACK
 10
0.0
 20
0.0
 30
0.0
  9
$USERI1
 70
     0
  9
$USERI2
 70
     0
  9
$USERI3
 70
     0
  9
$USERI4
 70
     0
  9
$USERI5
 70
     0
  9
$USERR1
 40
0.0
  9
$USERR2
 40
0.0
  9
$USERR3
 40
0.0
  9
$USERR4
 40
0.0
  9
$USERR5
 40
0.0
  9
$WORLDVIEW
 70
     1
  9
$SHADEDGE
 70
     3
  9
$SHADEDIF
 70
    70
  9
$TILEMODE
 70
     1
  9
$MAXACTVP
 70
    64
  9
$PINSBASE
 10
0.0
 20
0.0
 30
0.0
  9
$PLIMCHECK
 70
     0
  9
$PEXTMIN
 10
1.000000000000000E+20
 20
1.000000000000000E+20
 30
1.000000000000000E+20
  9
$PEXTMAX
 10
-1.000000000000000E+20
 20
-1.000000000000000E+20
 30
-1.000000000000000E+20
  9
$PLIMMIN
 10
0.0
 20
0.0
  9
$PLIMMAX
 10
420.0
 20
297.0
  9
$UNITMODE
 70
     0
  9
$VISRETAIN
 70
     1
  9
$PLINEGEN
 70
     0
  9
$PSLTSCALE
 70
     1
  9
$TREEDEPTH
 70
  3020
  9
$CMLSTYLE
  2
Standard
  9
$CMLJUST
 70
     0
  9
$CMLSCALE
 40
20.0
  9
$PROXYGRAPHICS
 70
     1
  9
$MEASUREMENT
 70
     1
  9
$CELWEIGHT
370
    -1
  9
$ENDCAPS
280
     0
  9
$JOINSTYLE
280
     0
  9
$LWDISPLAY
290
     0
  9
$INSUNITS
 70
     4
  9
$HYPERLINKBASE
  1

  9
$STYLESHEET
  1

  9
$XEDIT
290
     1
  9
$CEPSNTYPE
380
     0
  9
$PSTYLEMODE
290
     1
  9
$FINGERPRINTGUID
  2
{69a38256-3b58-44e6-8e89-515a5da9232e}
  9
$VERSIONGUID
  2
{FAEB1C32-E019-11D5-929B-00C0DF256EC4}
  9
$EXTNAMES
290
     1
  9
$PSVPSCALE
 40
0.0
  9
$OLESTARTUP
290
     0
  9
$SORTENTS
280
   127
  9
$INDEXCTL
280
     0
  9
$HIDETEXT
280
     1
  9
$XCLIPFRAME
280
     2
  9
$HALOGAP
280
     0
  9
$OBSCOLOR
 70
   257
  9
$OBSLTYPE
280
     0
  9
$INTERSECTIONDISPLAY
280
     0
  9
$INTERSECTIONCOLOR
 70
   257
  9
$DIMASSOC
280
     2
  9
$PROJECTNAME
  1

  9
$CAMERADISPLAY
290
     0
  9
$LENSLENGTH
 40
50.0
  9
$CAMERAHEIGHT
 40
0.0
  9
$STEPSPERSEC
 40
2.0
  9
$STEPSIZE
 40
6.0
  9
$3DDWFPREC
 40
2.0
  9
$PSOLWIDTH
 40
5.0
  9
$PSOLHEIGHT
 40
80.0
  9
$LOFTANG1
 40
1.570796326794897
  9
$LOFTANG2
 40
1.570796326794897
  9
$LOFTMAG1
 40
0.0
  9
$LOFTMAG2
 40
0.0
  9
$LOFTPARAM
 70
     7
  9
$LOFTNORMALS
280
     1
  9
$LATITUDE
 40
37.795
  9
$LONGITUDE
 40
-122.394
  9
$NORTHDIRECTION
 40
0.0
  9
$TIMEZONE
 70
 -8000
  9
$LIGHTGLYPHDISPLAY
280
     1
  9
$TILEMODELIGHTSYNCH
280
     1
  9
$CMATERIAL
347
44
  9
$SOLIDHIST
280
     0
  9
$SHOWHIST
280
     1
  9
$DWFFRAME
280
     2
  9
$DGNFRAME
280
     2
  9
$REALWORLDSCALE
290
     1
  9
$INTERFERECOLOR
 62
   256
  9
$CSHADOW
280
     0
  9
$SHADOWPLANELOCATION
 40
0.0
  0
ENDSEC
  0
SECTION
  2
CLASSES
  0
CLASS
  1
ACDBDICTIONARYWDFLT
  2
AcDbDictionaryWithDefault
  3
ObjectDBX Classes
 90
        0
 91
        3
280
     0
281
     0
  0
CLASS
  1
VISUALSTYLE
  2
AcDbVisualStyle
  3
ObjectDBX Classes
 90
     4095
 91
        3
280
     0
281
     0
  0
CLASS
  1
MATERIAL
  2
AcDbMaterial
  3
ObjectDBX Classes
 90
     1153
 91
        3
280
     0
281
     0
  0
CLASS
  1
SCALE
  2
AcDbScale
  3
ObjectDBX Classes
 90
     1153
 91
        3
280
     0
281
     0
  0
CLASS
  1
TABLESTYLE
  2
AcDbTableStyle
  3
ObjectDBX Classes
 90
     4095
 91
        3
280
     0
281
     0
  0
CLASS
  1
MLEADERSTYLE
  2
AcDbMLeaderStyle
  3
ACDB_MLEADERSTYLE_CLASS
 90
     4095
 91
        3
280
     0
281
     0
  0
CLASS
  1
SUN
  2
AcDbSun
  3
SCENEOE
 90
     1153
 91
        3
280
     0
281
     0
  0
CLASS
  1
DICTIONARYVAR
  2
AcDbDictionaryVar
  3
ObjectDBX Classes
 90
        0
 91
        3
280
     0
281
     0
  0
CLASS
  1
CELLSTYLEMAP
  2
AcDbCellStyleMap
  3
ObjectDBX Classes
 90
     1152
 91
        3
280
     0
281
     0
  0
ENDSEC
  0
SECTION
  2
TABLES
  0
TABLE
  2
VPORT
  5
8
330
0
100
AcDbSymbolTable
 70
     1
  0
VPORT
  5
29
330
8
100
AcDbSymbolTableRecord
100
AcDbViewportTableRecord
  2
*Active
 70
     0
 10
0.0
 20
0.0
 11
1.0
 21
1.0
 12
210.0
 22
148.5
 13
0.0
 23
0.0
 14
10.0
 24
10.0
 15
10.0
 25
10.0
 16
0.0
 26
0.0
 36
1.0
 17
0.0
 27
0.0
 37
0.0
 40
282.54
 41
1.444043321299639
 42
50.0
 43
0.0
 44
0.0
 50
0.0
 51
0.0
 71
     0
 72
   100
 73
     1
 74
     3
 75
     0
 76
     0
 77
     0
 78
     0
281
     0
 65
     1
110
0.0
120
0.0
130
0.0
111
1.0
121
0.0
131
0.0
112
0.0
122
1.0
132
0.0
 79
     0
146
0.0
348
2F
 60
     3
 61
     5
292
     1
282
     1
141
0.0
142
0.0
 63
   250
361
6D
  0
ENDTAB
  0
TABLE
  2
LTYPE
  5
5
330
0
100
AcDbSymbolTable
 70
     3
  0
LTYPE
  5
14
330
5
100
AcDbSymbolTableRecord
100
AcDbLinetypeTableRecord
  2
ByBlock
 70
     0
  3

 72
    65
 73
     0
 40
0.0
  0
LTYPE
  5
15
330
5
100
AcDbSymbolTableRecord
100
AcDbLinetypeTableRecord
  2
ByLayer
 70
     0
  3

 72
    65
 73
     0
 40
0.0
  0
LTYPE
  5
16
330
5
100
AcDbSymbolTableRecord
100
AcDbLinetypeTableRecord
  2
Continuous
 70
     0
  3
Solid line
 72
    65
 73
     0
 40
0.0
  0
LTYPE
  5
6E
330
5
100
AcDbSymbolTableRecord
100
AcDbLinetypeTableRecord
  2
dotted
 70
     0
  3
_   _   _   _   _   _   _   _
 72
    65
 73
     2
 40
1.8
 49
0.25
 74
     4
 75
     0
340
0
 46
1.0
 50
0.0
 44
0.0
 45
0.0
 49
-1.5
 74
     4
 75
     0
340
0
 46
1.0
 50
0.0
 44
0.0
 45
0.0
  0
LTYPE
  5
6F
330
5
100
AcDbSymbolTableRecord
100
AcDbLinetypeTableRecord
  2
chain
 70
     0
  3
_____ __ _____ __ _____
 72
    65
 73
     4
 40
18.5
 49
12.0
 74
     4
 75
     0
340
0
 46
1.0
 50
0.0
 44
0.0
 45
0.0
 49
-1.5
 74
     4
 75
     0
340
0
 46
1.0
 50
0.0
 44
0.0
 45
0.0
 49
3.5
 74
     4
 75
     0
340
0
 46
1.0
 50
0.0
 44
0.0
 45
0.0
 49
-1.5
 74
     4
 75
     0
340
0
 46
1.0
 50
0.0
 44
0.0
 45
0.0
  0
ENDTAB
  0
TABLE
  2
LAYER
  5
2
330
0
100
AcDbSymbolTable
 70
     5
  0
LAYER
  5
10
330
2
100
AcDbSymbolTableRecord
100
AcDbLayerTableRecord
  2
0
 70
     0
 62
     7
  6
Continuous
370
    -3
390
F
347
46
348
0
  0
LAYER
  5
70
330
2
100
AcDbSymbolTableRecord
100
AcDbLayerTableRecord
  2
LAYER1
 70
     0
 62
    14
  6
Continuous
370
    -3
390
F
347
46
348
0
  0
LAYER
  5
71
330
2
100
AcDbSymbolTableRecord
100
AcDbLayerTableRecord
  2
LAYER5
 70
     0
 62
   214
  6
Continuous
370
    -3
390
F
347
46
348
0
  0
LAYER
  5
72
330
2
100
AcDbSymbolTableRecord
100
AcDbLayerTableRecord
  2
LAYER6
 70
     0
 62
   252
  6
Continuous
370
    -3
390
F
347
46
348
0
  0
LAYER
  5
73
330
2
100
AcDbSymbolTableRecord
100
AcDbLayerTableRecord
  2
LAYER7
 70
     0
 62
    16
  6
Continuous
370
    -3
390
F
347
46
348
0
  0
ENDTAB
  0
TABLE
  2
STYLE
  5
3
330
0
100
AcDbSymbolTable
 70
     3
  0
STYLE
  5
11
330
3
100
AcDbSymbolTableRecord
100
AcDbTextStyleTableRecord
  2
Standard
 70
     0
 40
0.0
 41
1.0
 50
0.0
 71
     0
 42
2.5
  3
txt
  4

  0
STYLE
  5
74
330
3
100
AcDbSymbolTableRecord
100
AcDbTextStyleTableRecord
  2
STANDARD-FC
 70
     0
 40
0.0
 41
1.0
 50
0.0
 71
     0
 42
2.5
  3
txt
  4
bigfont
  0
STYLE
  5
75
330
3
100
AcDbSymbolTableRecord
100
AcDbTextStyleTableRecord
  2
ＭＳ ゴシック
 70
     0
 40
0.0
 41
1.0
 50
0.0
 71
     0
 42
2.5
  3
msgothic.ttc
  4

1001
ACAD
1000
MS Gothic
1071
    32817
  0
ENDTAB
  0
TABLE
  2
VIEW
  5
6
330
0
100
AcDbSymbolTable
 70
     0
  0
ENDTAB
  0
TABLE
  2
UCS
  5
7
330
0
100
AcDbSymbolTable
 70
     0
  0
ENDTAB
  0
TABLE
  2
APPID
  5
9
330
0
100
AcDbSymbolTable
 70
     1
  0
APPID
  5
12
330
9
100
AcDbSymbolTableRecord
100
AcDbRegAppTableRecord
  2
ACAD
 70
     0
  0
ENDTAB
  0
TABLE
  2
DIMSTYLE
  5
A
330
0
100
AcDbSymbolTable
 70
     1
100
AcDbDimStyleTable
  0
DIMSTYLE
105
27
330
A
100
AcDbSymbolTableRecord
100
AcDbDimStyleTableRecord
  2
ISO-25
 70
     0
 41
2.5
 42
0.625
 43
3.75
 44
1.25
 73
     0
 74
     0
 77
     1
 78
     8
140
2.5
141
2.5
143
0.03937007874016
147
0.625
171
     3
172
     1
178
     0
271
     2
272
     2
274
     3
278
    44
283
     0
284
     8
340
11
  0
ENDTAB
  0
TABLE
  2
BLOCK_RECORD
  5
1
330
0
100
AcDbSymbolTable
 70
     3
  0
BLOCK_RECORD
  5
1F
330
1
100
AcDbSymbolTableRecord
100
AcDbBlockTableRecord
  2
*Model_Space
340
22
 70
     0
280
     1
281
     0
  0
BLOCK_RECORD
  5
1B
330
1
100
AcDbSymbolTableRecord
100
AcDbBlockTableRecord
  2
*Paper_Space
340
1E
 70
     0
280
     1
281
     0
  0
BLOCK_RECORD
  5
23
330
1
100
AcDbSymbolTableRecord
100
AcDbBlockTableRecord
  2
*Paper_Space0
340
26
 70
     0
280
     1
281
     0
  0
BLOCK_RECORD
  5
76
330
1
100
AcDbSymbolTableRecord
100
AcDbBlockTableRecord
  2
FcPack%d0
340
0
102
{BLKREFS
331
1D2
102
}
 70
     0
280
     1
281
     0
  0
BLOCK_RECORD
  5
1F5
330
1
100
AcDbSymbolTableRecord
100
AcDbBlockTableRecord
  2
FcPack%d1
340
0
102
{BLKREFS
331
210
102
}
 70
     0
280
     1
281
     0
  0
ENDTAB
  0
ENDSEC
  0
SECTION
  2
BLOCKS
  0
BLOCK
  5
20
330
1F
100
AcDbEntity
  8
0
100
AcDbBlockBegin
  2
*Model_Space
 70
     0
 10
0.0
 20
0.0
 30
0.0
  3
*Model_Space
  1

  0
ENDBLK
  5
21
330
1F
100
AcDbEntity
  8
0
100
AcDbBlockEnd
  0
BLOCK
  5
1C
330
1B
100
AcDbEntity
 67
     1
  8
0
100
AcDbBlockBegin
  2
*Paper_Space
 70
     0
 10
0.0
 20
0.0
 30
0.0
  3
*Paper_Space
  1

  0
ENDBLK
  5
1D
330
1B
100
AcDbEntity
 67
     1
  8
0
100
AcDbBlockEnd
  0
BLOCK
  5
24
330
23
100
AcDbEntity
  8
0
100
AcDbBlockBegin
  2
*Paper_Space0
 70
     0
 10
0.0
 20
0.0
 30
0.0
  3
*Paper_Space0
  1

  0
ENDBLK
  5
25
330
23
100
AcDbEntity
  8
0
100
AcDbBlockEnd
  0
BLOCK
  5
77
330
76
100
AcDbEntity
  8
0
100
AcDbBlockBegin
  2
FcPack%d0
 70
     0
 10
0.0
 20
0.0
 30
0.0
  3
FcPack%d0
  1

  0
TEXT
  5
79
330
76
100
AcDbEntity
  8
LAYER6
  6
Continuous
 62
     1
370
    13
100
AcDbText
 10
-48.61945366607968
 20
-113.6322963171269
 30
0.0
 40
3.2
  1
配
  7
ＭＳ ゴシック
 11
-48.61945366607968
 21
-114.2170656056101
 31
0.0
100
AcDbText
 73
     1
  0
TEXT
  5
7A
330
76
100
AcDbEntity
  8
LAYER6
  6
Continuous
 62
     1
370
    13
100
AcDbText
 10
-43.61945366607969
 20
-113.6322963171269
 30
0.0
 40
3.2
  1
置
  7
ＭＳ ゴシック
 11
-43.61945366607969
 21
-114.2170656056101
 31
0.0
100
AcDbText
 73
     1
  0
TEXT
  5
7B
330
76
100
AcDbEntity
  8
LAYER6
  6
Continuous
 62
     1
370
    13
100
AcDbText
 10
-38.61945366607969
 20
-113.6322963171269
 30
0.0
 40
3.2
  1
図
  7
ＭＳ ゴシック
 11
-38.61945366607969
 21
-114.2170656056101
 31
0.0
100
AcDbText
 73
     1
  0
TEXT
  5
7C
330
76
100
AcDbEntity
  8
LAYER6
  6
Continuous
 62
     1
370
    13
100
AcDbText
 10
-34.61945366607969
 20
-113.6322963171269
 30
0.0
 40
3.2
  1
 
  7
ＭＳ ゴシック
 11
-34.61945366607969
 21
-114.2170656056101
 31
0.0
100
AcDbText
 73
     1
  0
TEXT
  5
7D
330
76
100
AcDbEntity
  8
LAYER6
  6
Continuous
 62
     1
370
    13
100
AcDbText
 10
-31.61945366607969
 20
-113.6322963171269
 30
0.0
 40
3.2
  1
S
  7
ＭＳ ゴシック
 11
-31.61945366607969
 21
-114.2170656056101
 31
0.0
100
AcDbText
 73
     1
  0
TEXT
  5
7E
330
76
100
AcDbEntity
  8
LAYER6
  6
Continuous
 62
     1
370
    13
100
AcDbText
 10
-28.61945366607969
 20
-113.6322963171269
 30
0.0
 40
3.2
  1
:
  7
ＭＳ ゴシック
 11
-28.61945366607969
 21
-114.2170656056101
 31
0.0
100
AcDbText
 73
     1
  0
TEXT
  5
7F
330
76
100
AcDbEntity
  8
LAYER6
  6
Continuous
 62
     1
370
    13
100
AcDbText
 10
-25.61945366607969
 20
-113.6322963171269
 30
0.0
 40
3.2
  1
1
  7
ＭＳ ゴシック
 11
-25.61945366607969
 21
-114.2170656056101
 31
0.0
100
AcDbText
 73
     1
  0
TEXT
  5
80
330
76
100
AcDbEntity
  8
LAYER6
  6
Continuous
 62
     1
370
    13
100
AcDbText
 10
-22.61945366607969
 20
-113.6322963171269
 30
0.0
 40
3.2
  1
/
  7
ＭＳ ゴシック
 11
-22.61945366607969
 21
-114.2170656056101
 31
0.0
100
AcDbText
 73
     1
  0
TEXT
  5
81
330
76
100
AcDbEntity
  8
LAYER6
  6
Continuous
 62
     1
370
    13
100
AcDbText
 10
-19.61945366607969
 20
-113.6322963171269
 30
0.0
 40
3.2
  1
1
  7
ＭＳ ゴシック
 11
-19.61945366607969
 21
-114.2170656056101
 31
0.0
100
AcDbText
 73
     1
  0
TEXT
  5
82
330
76
100
AcDbEntity
  8
LAYER6
  6
Continuous
 62
     1
370
    13
100
AcDbText
 10
-16.61945366607969
 20
-113.6322963171269
 30
0.0
 40
3.2
  1
0
  7
ＭＳ ゴシック
 11
-16.61945366607969
 21
-114.2170656056101
 31
0.0
100
AcDbText
 73
     1
  0
TEXT
  5
83
330
76
100
AcDbEntity
  8
LAYER6
  6
Continuous
 62
     1
370
    13
100
AcDbText
 10
-13.61945366607969
 20
-113.6322963171269
 30
0.0
 40
3.2
  1
0
  7
ＭＳ ゴシック
 11
-13.61945366607969
 21
-114.2170656056101
 31
0.0
100
AcDbText
 73
     1
  0
LINE
  5
84
330
76
100
AcDbEntity
  8
LAYER6
  6
Continuous
 62
     1
370
    13
100
AcDbLine
 10
-49.61945366607968
 20
-115.2170656056101
 30
0.0
 11
-49.61945366607968
 21
-109.2170656056101
 31
0.0
  0
LINE
  5
85
330
76
100
AcDbEntity
  8
LAYER6
  6
Continuous
 62
     1
370
    13
100
AcDbLine
 10
-49.61945366607968
 20
-109.2170656056101
 30
0.0
 11
-10.61945366607969
 21
-109.2170656056101
 31
0.0
  0
LINE
  5
86
330
76
100
AcDbEntity
  8
LAYER6
  6
Continuous
 62
     1
370
    13
100
AcDbLine
 10
-10.61945366607969
 20
-109.2170656056101
 30
0.0
 11
-10.61945366607969
 21
-115.2170656056101
 31
0.0
  0
LINE
  5
87
330
76
100
AcDbEntity
  8
LAYER6
  6
Continuous
 62
     1
370
    13
100
AcDbLine
 10
-10.61945366607969
 20
-115.2170656056101
 30
0.0
 11
-49.61945366607969
 21
-115.2170656056101
 31
0.0
  0
LINE
  5
88
330
76
100
AcDbEntity
  8
LAYER6
  6
Continuous
 62
     1
370
    13
100
AcDbLine
 10
-133.9467391004827
 20
84.97419121275152
 30
0.0
 11
-133.9430239129419
 21
84.3779810121789
 31
0.0
  0
LINE
  5
89
330
76
100
AcDbEntity
  8
LAYER6
  6
Continuous
 62
     1
370
    13
100
AcDbLine
 10
-134.5467274519484
 20
84.97045248227374
 30
0.0
 11
-134.5392735339297
 21
83.77425393023549
 31
0.0
  0
LINE
  5
8A
330
76
100
AcDbEntity
  8
LAYER6
  6
Continuous
 62
     1
370
    13
100
AcDbLine
 10
-135.1467158034141
 20
84.96671375179602
 30
0.0
 11
-135.1355231549175
 21
83.17052684829216
 31
0.0
  0
LINE
  5
8B
330
76
100
AcDbEntity
  8
LAYER6
  6
Continuous
 62
     1
370
    13
100
AcDbLine
 10
-135.7427847706054
 20
84.33399549915148
 30
0.0
 11
-135.7317727759053
 21
82.56679976634868
 31
0.0
  0
LINE
  5
8C
330
76
100
AcDbEntity
  8
LAYER6
  6
Continuous
 62
     1
370
    13
100
AcDbLine
 10
-136.3380707194537
 20
83.57561911530624
 30
0.0
 11
-136.3280223968932
 21
81.96307268440529
 31
0.0
  0
LINE
  5
8D
330
76
100
AcDbEntity
  8
LAYER6
  6
Continuous
 62
     1
370
    13
100
AcDbLine
 10
-136.9333566683019
 20
82.81724273146091
 30
0.0
 11
-136.924272017881
 21
81.35934560246187
 31
0.0
  0
LINE
  5
8E
330
76
100
AcDbEntity
  8
LAYER6
  6
Continuous
 62
     1
370
    13
100
AcDbLine
 10
-137.5286426171501
 20
82.05886634761555
 30
0.0
 11
-137.5205216388689
 21
80.75561852051842
 31
0.0
  0
LINE
  5
8F
330
76
100
AcDbEntity
  8
LAYER6
  6
Continuous
 62
     1
370
    13
100
AcDbLine
 10
-138.1239285659984
 20
81.30048996377033
 30
0.0
 11
-138.1167712598567
 21
80.15189143857506
 31
0.0
  0
LINE
  5
90
330
76
100
AcDbEntity
  8
LAYER6
  6
Continuous
 62
     1
370
    13
100
AcDbLine
 10
-138.7192145148467
 20
80.54211357992503
 30
0.0
 11
-138.7130208808446
 21
79.54816435663162
 31
0.0
  0
LINE
  5
91
330
76
100
AcDbEntity
  8
LAYER6
  6
Continuous
 62
     1
370
    13
100
AcDbLine
 10
-139.3145004636949
 20
79.78373719607978
 30
0.0
 11
-139.3092705018324
 21
78.94443727468823
 31
0.0
  0
LINE
  5
92
330
76
100
AcDbEntity
  8
LAYER6
  6
Continuous
 62
     1
370
    13
100
AcDbLine
 10
-139.9097864125432
 20
79.0253608122344
 30
0.0
 11
-139.9055201228203
 21
78.3407101927447
 31
0.0
  0
LINE
  5
93
330
76
100
AcDbEntity
  8
LAYER6
  6
Continuous
 62
     1
370
    13
100
AcDbLine
 10
-140.5050723613914
 20
78.26698442838915
 30
0.0
 11
-140.5017697438081
 21
77.73698311080136
 31
0.0
  0
LINE
  5
94
330
76
100
AcDbEntity
  8
LAYER6
  6
Continuous
 62
     1
370
    13
100
AcDbLine
 10
-141.1003583102397
 20
77.50860804454382
 30
0.0
 11
-141.098019364796
 21
77.13325602885789
 31
0.0
  0
LINE
  5
95
330
76
100
AcDbEntity
  8
LAYER6
  6
Continuous
 62
     1
370
    13
100
AcDbLine
 10
-141.6956442590879
 20
76.75023166069857
 30
0.0
 11
-141.6942689857838
 21
76.52952894691452
 31
0.0
  0
LINE
  5
96
330
76
100
AcDbEntity
  8
LAYER6
  6
Continuous
 62
     1
370
    13
100
AcDbLine
 10
-142.2909302079361
 20
75.99185527685324
 30
0.0
 11
-142.2905186067716
 21
75.92580186497116
 31
0.0
  0
LINE
  5
97
330
76
100
AcDbEntity
  8
LAYER6
  6
Continuous
 62
     1
370
    13
100
AcDbLine
 10
-133.64674492475
 20
84.97606057799052
 30
0.0
 11
-133.6448991024479
 21
84.67984455315067
 31
0.0
  0
LINE
  5
98
330
76
100
AcDbEntity
  8
LAYER6
  6
Continuous
 62
     1
370
    13
100
AcDbLine
 10
-134.2467332762156
 20
84.97232184751266
 30
0.0
 11
-134.2411487234358
 21
84.07611747120723
 31
0.0
  0
LINE
  5
99
330
76
100
AcDbEntity
  8
LAYER6
  6
Continuous
 62
     1
370
    13
100
AcDbLine
 10
-134.8467216276811
 20
84.96858311703488
 30
0.0
 11
-134.8373983444236
 21
83.47239038926386
 31
0.0
  0
LINE
  5
9A
330
76
100
AcDbEntity
  8
LAYER6
  6
Continuous
 62
     1
370
    13
100
AcDbLine
 10
-135.4451417961814
 20
84.71318369107416
 30
0.0
 11
-135.4336479654115
 21
82.86866330732045
 31
0.0
  0
LINE
  5
9B
330
76
100
AcDbEntity
  8
LAYER6
  6
Continuous
 62
     1
370
    13
100
AcDbLine
 10
-136.0404277450296
 20
83.9548073072288
 30
0.0
 11
-136.0298975863993
 21
82.264936225377
 31
0.0
  0
LINE
  5
9C
330
76
100
AcDbEntity
  8
LAYER6
  6
Continuous
 62
     1
370
    13
100
AcDbLine
 10
-136.6357136938779
 20
83.19643092338356
 30
0.0
 11
-136.6261472073872
 21
81.66120914343355
 31
0.0
  0
LINE
  5
9D
330
76
100
AcDbEntity
  8
LAYER6
  6
Continuous
 62
     1
370
    13
100
AcDbLine
 10
-137.230999642726
 20
82.43805453953829
 30
0.0
 11
-137.222396828375
 21
81.05748206149019
 31
0.0
  0
LINE
  5
9E
330
76
100
AcDbEntity
  8
LAYER6
  6
Continuous
 62
     1
370
    13
100
AcDbLine
 10
-137.8262855915744
 20
81.67967815569298
 30
0.0
 11
-137.8186464493629
 21
80.45375497954674
 31
0.0
  0
LINE
  5
9F
330
76
100
AcDbEntity
  8
LAYER6
  6
Continuous
 62
     1
370
    13
100
AcDbLine
 10
-138.4215715404226
 20
80.92130177184771
 30
0.0
 11
-138.4148960703507
 21
79.85002789760333
 31
0.0
  0
LINE
  5
A0
330
76
100
AcDbEntity
  8
LAYER6
  6
Continuous
 62
     1
370
    13
100
AcDbLine
 10
-139.0168574892709
 20
80.16292538800246
 30
0.0
 11
-139.0111456913386
 21
79.24630081565994
 31
0.0
  0
LINE
  5
A1
330
76
100
AcDbEntity
  8
LAYER6
  6
Continuous
 62
     1
370
    13
100
AcDbLine
 10
-139.6121434381191
 20
79.40454900415713
 30
0.0
 11
-139.6073953123264
 21
78.64257373371652
 31
0.0
  0
LINE
  5
A2
330
76
100
AcDbEntity
  8
LAYER6
  6
Continuous
 62
     1
370
    13
100
AcDbLine
 10
-140.2074293869673
 20
78.64617262031183
 30
0.0
 11
-140.2036449333142
 21
78.03884665177307
 31
0.0
  0
LINE
  5
A3
330
76
100
AcDbEntity
  8
LAYER6
  6
Continuous
 62
     1
370
    13
100
AcDbLine
 10
-140.8027153358156
 20
77.8877962364665
 30
0.0
 11
-140.7998945543021
 21
77.43511956982965
 31
0.0
  0
LINE
  5
A4
330
76
100
AcDbEntity
  8
LAYER6
  6
Continuous
 62
     1
370
    13
100
AcDbLine
 10
-141.3980012846638
 20
77.12941985262123
 30
0.0
 11
-141.3961441752898
 21
76.83139248788623
 31
0.0
  0
LINE
  5
A5
330
76
100
AcDbEntity
  8
LAYER6
  6
Continuous
 62
     1
370
    13
100
AcDbLine
 10
-141.993287233512
 20
76.37104346877592
 30
0.0
 11
-141.9923937962777
 21
76.22766540594284
 31
0.0
  0
LINE
  5
A6
330
76
100
AcDbEntity
  8
LAYER6
  6
Continuous
 62
     1
370
    13
100
AcDbLine
 10
-125.721824228258
 20
77.4437273579926
 30
0.0
 11
-125.7216721526373
 21
77.4193223891157
 31
0.0
  0
LINE
  5
A7
330
76
100
AcDbEntity
  8
LAYER6
  6
Continuous
 62
     1
370
    13
100
AcDbLine
 10
-126.3255512901959
 20
78.03997376850367
 30
0.0
 11
-126.3245195144684
 21
77.87439525956219
 31
0.0
  0
LINE
  5
A8
330
76
100
AcDbEntity
  8
LAYER6
  6
Continuous
 62
     1
370
    13
100
AcDbLine
 10
-126.9292783521337
 20
78.63622017901469
 30
0.0
 11
-126.9273668762994
 21
78.32946813000873
 31
0.0
  0
LINE
  5
A9
330
76
100
AcDbEntity
  8
LAYER6
  6
Continuous
 62
     1
370
    13
100
AcDbLine
 10
-127.5330054140717
 20
79.23246658952576
 30
0.0
 11
-127.5302142381304
 21
78.78454100045522
 31
0.0
  0
LINE
  5
AA
330
76
100
AcDbEntity
  8
LAYER6
  6
Continuous
 62
     1
370
    13
100
AcDbLine
 10
-128.1367324760094
 20
79.82871300003677
 30
0.0
 11
-128.1330615999613
 21
79.2396138709017
 31
0.0
  0
LINE
  5
AB
330
76
100
AcDbEntity
  8
LAYER6
  6
Continuous
 62
     1
370
    13
100
AcDbLine
 10
-128.7404595379473
 20
80.42495941054784
 30
0.0
 11
-128.7359089617923
 21
79.6946867413483
 31
0.0
  0
LINE
  5
AC
330
76
100
AcDbEntity
  8
LAYER6
  6
Continuous
 62
     1
370
    13
100
AcDbLine
 10
-129.3441865998851
 20
81.02120582105883
 30
0.0
 11
-129.3387563236233
 21
80.14975961179485
 31
0.0
  0
LINE
  5
AD
330
76
100
AcDbEntity
  8
LAYER6
  6
Continuous
 62
     1
370
    13
100
AcDbLine
 10
-129.947913661823
 20
81.61745223156984
 30
0.0
 11
-129.9416036854544
 21
80.60483248224133
 31
0.0
  0
LINE
  5
AE
330
76
100
AcDbEntity
  8
LAYER6
  6
Continuous
 62
     1
370
    13
100
AcDbLine
 10
-130.5516407237608
 20
82.21369864208094
 30
0.0
 11
-130.5444510472853
 21
81.05990535268785
 31
0.0
  0
LINE
  5
AF
330
76
100
AcDbEntity
  8
LAYER6
  6
Continuous
 62
     1
370
    13
100
AcDbLine
 10
-131.1553677856987
 20
82.80994505259196
 30
0.0
 11
-131.1472984091163
 21
81.51497822313434
 31
0.0
  0
LINE
  5
B0
330
76
100
AcDbEntity
  8
LAYER6
  6
Continuous
 62
     1
370
    13
100
AcDbLine
 10
-131.7590948476365
 20
83.40619146310303
 30
0.0
 11
-131.7501457709473
 21
81.97005109358088
 31
0.0
  0
LINE
  5
B1
330
76
100
AcDbEntity
  8
LAYER6
  6
Continuous
 62
     1
370
    13
100
AcDbLine
 10
-132.3628219095744
 20
84.00243787361401
 30
0.0
 11
-132.3529931327783
 21
82.42512396402739
 31
0.0
  0
LINE
  5
B2
330
76
100
AcDbEntity
  8
LAYER6
  6
Continuous
 62
     1
370
    13
100
AcDbLine
 10
-132.9665489715122
 20
84.59868428412508
 30
0.0
 11
-132.9558404946092
 21
82.88019683447396
 31
0.0
  0
LINE
  5
B3
330
76
100
AcDbEntity
  8
LAYER6
  6
Continuous
 62
     1
370
    13
100
AcDbLine
 10
-126.0236877592269
 20
77.74185056324805
 30
0.0
 11
-126.0230958335528
 21
77.64685882433886
 31
0.0
  0
LINE
  5
B4
330
76
100
AcDbEntity
  8
LAYER6
  6
Continuous
 62
     1
370
    13
100
AcDbLine
 10
-126.6274148211648
 20
78.3380969737591
 30
0.0
 11
-126.6259431953838
 21
78.10193169478538
 31
0.0
  0
LINE
  5
B5
330
76
100
AcDbEntity
  8
LAYER6
  6
Continuous
 62
     1
370
    13
100
AcDbLine
 10
-127.2311418831026
 20
78.93434338427016
 30
0.0
 11
-127.2287905572148
 21
78.55700456523192
 31
0.0
  0
LINE
  5
B6
330
76
100
AcDbEntity
  8
LAYER6
  6
Continuous
 62
     1
370
    13
100
AcDbLine
 10
-127.8348689450405
 20
79.53058979478124
 30
0.0
 11
-127.8316379190458
 21
79.01207743567846
 31
0.0
  0
LINE
  5
B7
330
76
100
AcDbEntity
  8
LAYER6
  6
Continuous
 62
     1
370
    13
100
AcDbLine
 10
-128.4385960069783
 20
80.12683620529222
 30
0.0
 11
-128.4344852808768
 21
79.46715030612503
 31
0.0
  0
LINE
  5
B8
330
76
100
AcDbEntity
  8
LAYER6
  6
Continuous
 62
     1
370
    13
100
AcDbLine
 10
-129.0423230689162
 20
80.72308261580329
 30
0.0
 11
-129.0373326427078
 21
79.92222317657152
 31
0.0
  0
LINE
  5
B9
330
76
100
AcDbEntity
  8
LAYER6
  6
Continuous
 62
     1
370
    13
100
AcDbLine
 10
-129.646050130854
 20
81.3193290263143
 30
0.0
 11
-129.6401800045387
 21
80.37729604701804
 31
0.0
  0
LINE
  5
BA
330
76
100
AcDbEntity
  8
LAYER6
  6
Continuous
 62
     1
370
    13
100
AcDbLine
 10
-130.2497771927919
 20
81.9155754368254
 30
0.0
 11
-130.2430273663697
 21
80.83236891746455
 31
0.0
  0
LINE
  5
BB
330
76
100
AcDbEntity
  8
LAYER6
  6
Continuous
 62
     1
370
    13
100
AcDbLine
 10
-130.8535042547297
 20
82.51182184733636
 30
0.0
 11
-130.8458747282007
 21
81.28744178791104
 31
0.0
  0
LINE
  5
BC
330
76
100
AcDbEntity
  8
LAYER6
  6
Continuous
 62
     1
370
    13
100
AcDbLine
 10
-131.4572313166675
 20
83.1080682578474
 30
0.0
 11
-131.4487220900318
 21
81.74251465835755
 31
0.0
  0
LINE
  5
BD
330
76
100
AcDbEntity
  8
LAYER6
  6
Continuous
 62
     1
370
    13
100
AcDbLine
 10
-132.0609583786054
 20
83.70431466835853
 30
0.0
 11
-132.0515694518627
 21
82.19758752880409
 31
0.0
  0
LINE
  5
BE
330
76
100
AcDbEntity
  8
LAYER6
  6
Continuous
 62
     1
370
    13
100
AcDbLine
 10
-132.6646854405433
 20
84.30056107886952
 30
0.0
 11
-132.6544168136937
 21
82.65266039925066
 31
0.0
  0
LINE
  5
BF
330
76
100
AcDbEntity
  8
LAYER6
  6
Continuous
 62
     1
370
    13
100
AcDbLine
 10
-133.2684125024811
 20
84.89680748938056
 30
0.0
 11
-133.2572641755247
 21
83.10773326969715
 31
0.0
  0
LINE
  5
C0
330
76
100
AcDbEntity
  8
LAYER6
  6
Continuous
 62
     1
370
    13
100
AcDbLine
 10
-124.4291231831275
 20
94.01119388700488
 30
0.0
 11
-124.428707929032
 21
93.94455425580657
 31
0.0
  0
LINE
  5
C1
330
76
100
AcDbEntity
  8
LAYER6
  6
Continuous
 62
     1
370
    13
100
AcDbLine
 10
-125.0253728041153
 20
93.40746680506146
 30
0.0
 11
-125.0240514466468
 21
93.19541645963949
 31
0.0
  0
LINE
  5
C2
330
76
100
AcDbEntity
  8
LAYER6
  6
Continuous
 62
     1
370
    13
100
AcDbLine
 10
-125.6216224251031
 20
92.80373972311804
 30
0.0
 11
-125.6193949642615
 21
92.44627866347236
 31
0.0
  0
LINE
  5
C3
330
76
100
AcDbEntity
  8
LAYER6
  6
Continuous
 62
     1
370
    13
100
AcDbLine
 10
-126.217872046091
 20
92.20001264117462
 30
0.0
 11
-126.2147384818763
 21
91.69714086730517
 31
0.0
  0
LINE
  5
C4
330
76
100
AcDbEntity
  8
LAYER6
  6
Continuous
 62
     1
370
    13
100
AcDbLine
 10
-126.8141216670789
 20
91.5962855592312
 30
0.0
 11
-126.8100819994911
 21
90.94800307113803
 31
0.0
  0
LINE
  5
C5
330
76
100
AcDbEntity
  8
LAYER6
  6
Continuous
 62
     1
370
    13
100
AcDbLine
 10
-127.4103712880666
 20
90.99255847728784
 30
0.0
 11
-127.4054255171058
 21
90.19886527497096
 31
0.0
  0
LINE
  5
C6
330
76
100
AcDbEntity
  8
LAYER6
  6
Continuous
 62
     1
370
    13
100
AcDbLine
 10
-128.0066209090545
 20
90.38883139534437
 30
0.0
 11
-128.0007690347206
 21
89.44972747880377
 31
0.0
  0
LINE
  5
C7
330
76
100
AcDbEntity
  8
LAYER6
  6
Continuous
 62
     1
370
    13
100
AcDbLine
 10
-128.6028705300424
 20
89.785104313401
 30
0.0
 11
-128.5961125523355
 21
88.70058968263666
 31
0.0
  0
LINE
  5
C8
330
76
100
AcDbEntity
  8
LAYER6
  6
Continuous
 62
     1
370
    13
100
AcDbLine
 10
-129.1991201510301
 20
89.18137723145762
 30
0.0
 11
-129.1914560699501
 21
87.95145188646961
 31
0.0
  0
LINE
  5
C9
330
76
100
AcDbEntity
  8
LAYER6
  6
Continuous
 62
     1
370
    13
100
AcDbLine
 10
-129.7953697720181
 20
88.57765014951414
 30
0.0
 11
-129.7867995464656
 21
87.2023074947069
 31
0.0
  0
LINE
  5
CA
330
76
100
AcDbEntity
  8
LAYER6
  6
Continuous
 62
     1
370
    13
100
AcDbLine
 10
-130.3916193930059
 20
87.97392306757072
 30
0.0
 11
-130.3821428740502
 21
86.45313920266315
 31
0.0
  0
LINE
  5
CB
330
76
100
AcDbEntity
  8
LAYER6
  6
Continuous
 62
     1
370
    13
100
AcDbLine
 10
-130.9878690139937
 20
87.37019598562736
 30
0.0
 11
-130.9774862167147
 21
85.70397333061618
 31
0.0
  0
LINE
  5
CC
330
76
100
AcDbEntity
  8
LAYER6
  6
Continuous
 62
     1
370
    13
100
AcDbLine
 10
-131.5841186349816
 20
86.76646890368394
 30
0.0
 11
-131.573055625672
 21
84.99108638886992
 31
0.0
  0
LINE
  5
CD
330
76
100
AcDbEntity
  8
LAYER6
  6
Continuous
 62
     1
370
    13
100
AcDbLine
 10
-132.1803682559695
 20
86.1627418217405
 30
0.0
 11
-132.1730395518996
 21
84.98663749987168
 31
0.0
  0
LINE
  5
CE
330
76
100
AcDbEntity
  8
LAYER6
  6
Continuous
 62
     1
370
    13
100
AcDbLine
 10
-132.7766178769572
 20
85.55901473979708
 30
0.0
 11
-132.7730234781272
 21
84.98218861087352
 31
0.0
  0
LINE
  5
CF
330
76
100
AcDbEntity
  8
LAYER6
  6
Continuous
 62
     1
370
    13
100
AcDbLine
 10
-124.7272479936214
 20
93.7093303460332
 30
0.0
 11
-124.7263796878394
 21
93.56998535772311
 31
0.0
  0
LINE
  5
D0
330
76
100
AcDbEntity
  8
LAYER6
  6
Continuous
 62
     1
370
    13
100
AcDbLine
 10
-125.3234976146092
 20
93.10560326408984
 30
0.0
 11
-125.3217232054541
 21
92.82084756155592
 31
0.0
  0
LINE
  5
D1
330
76
100
AcDbEntity
  8
LAYER6
  6
Continuous
 62
     1
370
    13
100
AcDbLine
 10
-125.919747235597
 20
92.50187618214648
 30
0.0
 11
-125.9170667230689
 21
92.0717097653889
 31
0.0
  0
LINE
  5
D2
330
76
100
AcDbEntity
  8
LAYER6
  6
Continuous
 62
     1
370
    13
100
AcDbLine
 10
-126.5159968565849
 20
91.898149100203
 30
0.0
 11
-126.5124102406837
 21
91.32257196922171
 31
0.0
  0
LINE
  5
D3
330
76
100
AcDbEntity
  8
LAYER6
  6
Continuous
 62
     1
370
    13
100
AcDbLine
 10
-127.1122464775727
 20
91.29442201825952
 30
0.0
 11
-127.1077537582985
 21
90.57343417305452
 31
0.0
  0
LINE
  5
D4
330
76
100
AcDbEntity
  8
LAYER6
  6
Continuous
 62
     1
370
    13
100
AcDbLine
 10
-127.7084960985605
 20
90.69069493631616
 30
0.0
 11
-127.7030972759132
 21
89.82429637688747
 31
0.0
  0
LINE
  5
D5
330
76
100
AcDbEntity
  8
LAYER6
  6
Continuous
 62
     1
370
    13
100
AcDbLine
 10
-128.3047457195484
 20
90.08696785437274
 30
0.0
 11
-128.2984407935279
 21
89.07515858072028
 31
0.0
  0
LINE
  5
D6
330
76
100
AcDbEntity
  8
LAYER6
  6
Continuous
 62
     1
370
    13
100
AcDbLine
 10
-128.9009953405363
 20
89.48324077242933
 30
0.0
 11
-128.8937843111427
 21
88.32602078455324
 31
0.0
  0
LINE
  5
D7
330
76
100
AcDbEntity
  8
LAYER6
  6
Continuous
 62
     1
370
    13
100
AcDbLine
 10
-129.497244961524
 20
88.87951369048594
 30
0.0
 11
-129.4891278287575
 21
87.5768829883861
 31
0.0
  0
LINE
  5
D8
330
76
100
AcDbEntity
  8
LAYER6
  6
Continuous
 62
     1
370
    13
100
AcDbLine
 10
-130.093494582512
 20
88.27578660854252
 30
0.0
 11
-130.0844712102579
 21
86.82772334868514
 31
0.0
  0
LINE
  5
D9
330
76
100
AcDbEntity
  8
LAYER6
  6
Continuous
 62
     1
370
    13
100
AcDbLine
 10
-130.6897442034997
 20
87.67205952659913
 30
0.0
 11
-130.6798145378424
 21
86.07855505664142
 31
0.0
  0
LINE
  5
DA
330
76
100
AcDbEntity
  8
LAYER6
  6
Continuous
 62
     1
370
    13
100
AcDbLine
 10
-131.2859938244875
 20
87.06833244465568
 30
0.0
 11
-131.2751581889318
 21
85.3294386803687
 31
0.0
  0
LINE
  5
DB
330
76
100
AcDbEntity
  8
LAYER6
  6
Continuous
 62
     1
370
    13
100
AcDbLine
 10
-131.8822434454755
 20
86.46460536271229
 30
0.0
 11
-131.8730475887858
 21
84.9888619443708
 31
0.0
  0
LINE
  5
DC
330
76
100
AcDbEntity
  8
LAYER6
  6
Continuous
 62
     1
370
    13
100
AcDbLine
 10
-132.4784930664633
 20
85.86087828076887
 30
0.0
 11
-132.4730315150133
 21
84.98441305537261
 31
0.0
  0
LINE
  5
DD
330
76
100
AcDbEntity
  8
LAYER6
  6
Continuous
 62
     1
370
    13
100
AcDbLine
 10
-133.0747426874511
 20
85.25715119882543
 30
0.0
 11
-133.0730154412408
 21
84.97996416637443
 31
0.0
  0
LINE
  5
DE
330
76
100
AcDbEntity
  8
LAYER6
  6
Continuous
 62
     1
370
    13
100
AcDbLine
 10
-133.7517754897352
 20
87.19505331184408
 30
0.0
 11
-133.7403587724476
 21
85.36290803547172
 31
0.0
  0
LINE
  5
DF
330
76
100
AcDbEntity
  8
LAYER6
  6
Continuous
 62
     1
370
    13
100
AcDbLine
 10
-134.3548768183227
 20
87.69088255573797
 30
0.0
 11
-134.3440858543911
 21
85.95915765645955
 31
0.0
  0
LINE
  5
E0
330
76
100
AcDbEntity
  8
LAYER6
  6
Continuous
 62
     1
370
    13
100
AcDbLine
 10
-134.9579781469102
 20
88.1867117996319
 30
0.0
 11
-134.9478129363345
 21
86.55540727744736
 31
0.0
  0
LINE
  5
E1
330
76
100
AcDbEntity
  8
LAYER6
  6
Continuous
 62
     1
370
    13
100
AcDbLine
 10
-135.5610794754978
 20
88.68254104352587
 30
0.0
 11
-135.5515400182779
 21
87.15165689843522
 31
0.0
  0
LINE
  5
E2
330
76
100
AcDbEntity
  8
LAYER6
  6
Continuous
 62
     1
370
    13
100
AcDbLine
 10
-136.1641808040853
 20
89.1783702874198
 30
0.0
 11
-136.1552671002213
 21
87.74790651942303
 31
0.0
  0
LINE
  5
E3
330
76
100
AcDbEntity
  8
LAYER6
  6
Continuous
 62
     1
370
    13
100
AcDbLine
 10
-136.7672821326727
 20
89.6741995313138
 30
0.0
 11
-136.7589941821647
 21
88.34415614041092
 31
0.0
  0
LINE
  5
E4
330
76
100
AcDbEntity
  8
LAYER6
  6
Continuous
 62
     1
370
    13
100
AcDbLine
 10
-137.3703834612602
 20
90.1700287752077
 30
0.0
 11
-137.3627212641081
 21
88.9404057613987
 31
0.0
  0
LINE
  5
E5
330
76
100
AcDbEntity
  8
LAYER6
  6
Continuous
 62
     1
370
    13
100
AcDbLine
 10
-137.9734847898478
 20
90.66585801910173
 30
0.0
 11
-137.9664483460516
 21
89.53665538238667
 31
0.0
  0
LINE
  5
E6
330
76
100
AcDbEntity
  8
LAYER6
  6
Continuous
 62
     1
370
    13
100
AcDbLine
 10
-138.5765861184353
 20
91.16168726299566
 30
0.0
 11
-138.570175427995
 21
90.13290500337442
 31
0.0
  0
LINE
  5
E7
330
76
100
AcDbEntity
  8
LAYER6
  6
Continuous
 62
     1
370
    13
100
AcDbLine
 10
-139.1796874470228
 20
91.65751650688958
 30
0.0
 11
-139.1739025099384
 21
90.7291546243622
 31
0.0
  0
LINE
  5
E8
330
76
100
AcDbEntity
  8
LAYER6
  6
Continuous
 62
     1
370
    13
100
AcDbLine
 10
-139.7827887756103
 20
92.15334575078356
 30
0.0
 11
-139.7776295918818
 21
91.32540424535006
 31
0.0
  0
LINE
  5
E9
330
76
100
AcDbEntity
  8
LAYER6
  6
Continuous
 62
     1
370
    13
100
AcDbLine
 10
-140.3858901041979
 20
92.64917499467754
 30
0.0
 11
-140.3813566738252
 21
91.92165386633792
 31
0.0
  0
LINE
  5
EA
330
76
100
AcDbEntity
  8
LAYER6
  6
Continuous
 62
     1
370
    13
100
AcDbLine
 10
-140.9889914327853
 20
93.1450042385714
 30
0.0
 11
-140.9850837557686
 21
92.51790348732578
 31
0.0
  0
LINE
  5
EB
330
76
100
AcDbEntity
  8
LAYER6
  6
Continuous
 62
     1
370
    13
100
AcDbLine
 10
-141.5920927613729
 20
93.64083348246538
 30
0.0
 11
-141.588810837712
 21
93.11415310831364
 31
0.0
  0
LINE
  5
EC
330
76
100
AcDbEntity
  8
LAYER6
  6
Continuous
 62
     1
370
    13
100
AcDbLine
 10
-142.1951940899605
 20
94.13666272635936
 30
0.0
 11
-142.1925379196555
 21
93.7104027293015
 31
0.0
  0
LINE
  5
ED
330
76
100
AcDbEntity
  8
LAYER6
  6
Continuous
 62
     1
370
    13
100
AcDbLine
 10
-142.798295418548
 20
94.63249197025323
 30
0.0
 11
-142.7962650015989
 21
94.30665235028926
 31
0.0
  0
LINE
  5
EE
330
76
100
AcDbEntity
  8
LAYER6
  6
Continuous
 62
     1
370
    13
100
AcDbLine
 10
-143.4013967471354
 20
95.1283212141472
 30
0.0
 11
-143.3999920835423
 21
94.90290197127712
 31
0.0
  0
LINE
  5
EF
330
76
100
AcDbEntity
  8
LAYER6
  6
Continuous
 62
     1
370
    13
100
AcDbLine
 10
-144.0044980757229
 20
95.62415045804119
 30
0.0
 11
-144.0037191654856
 21
95.49915159226504
 31
0.0
  0
LINE
  5
F0
330
76
100
AcDbEntity
  8
LAYER6
  6
Continuous
 62
     1
370
    13
100
AcDbLine
 10
-144.6075994043104
 20
96.11997970193511
 30
0.0
 11
-144.6074462474292
 21
96.09540121325284
 31
0.0
  0
LINE
  5
F1
330
76
100
AcDbEntity
  8
LAYER6
  6
Continuous
 62
     1
370
    13
100
AcDbLine
 10
-133.4502248254415
 20
86.94713868989709
 30
0.0
 11
-133.4384952314759
 21
85.06478322497776
 31
0.0
  0
LINE
  5
F2
330
76
100
AcDbEntity
  8
LAYER6
  6
Continuous
 62
     1
370
    13
100
AcDbLine
 10
-134.053326154029
 20
87.44296793379098
 30
0.0
 11
-134.0422223134194
 21
85.66103284596562
 31
0.0
  0
LINE
  5
F3
330
76
100
AcDbEntity
  8
LAYER6
  6
Continuous
 62
     1
370
    13
100
AcDbLine
 10
-134.6564274826165
 20
87.93879717768496
 30
0.0
 11
-134.6459493953628
 21
86.25728246695348
 31
0.0
  0
LINE
  5
F4
330
76
100
AcDbEntity
  8
LAYER6
  6
Continuous
 62
     1
370
    13
100
AcDbLine
 10
-135.259528811204
 20
88.43462642157888
 30
0.0
 11
-135.2496764773062
 21
86.85353208794129
 31
0.0
  0
LINE
  5
F5
330
76
100
AcDbEntity
  8
LAYER6
  6
Continuous
 62
     1
370
    13
100
AcDbLine
 10
-135.8626301397915
 20
88.93045566547289
 30
0.0
 11
-135.8534035592496
 21
87.44978170892918
 31
0.0
  0
LINE
  5
F6
330
76
100
AcDbEntity
  8
LAYER6
  6
Continuous
 62
     1
370
    13
100
AcDbLine
 10
-136.465731468379
 20
89.42628490936679
 30
0.0
 11
-136.457130641193
 21
88.04603132991701
 31
0.0
  0
LINE
  5
F7
330
76
100
AcDbEntity
  8
LAYER6
  6
Continuous
 62
     1
370
    13
100
AcDbLine
 10
-137.0688327969665
 20
89.9221141532608
 30
0.0
 11
-137.0608577231365
 21
88.64228095090485
 31
0.0
  0
LINE
  5
F8
330
76
100
AcDbEntity
  8
LAYER6
  6
Continuous
 62
     1
370
    13
100
AcDbLine
 10
-137.6719341255541
 20
90.41794339715472
 30
0.0
 11
-137.6645848050799
 21
89.23853057189265
 31
0.0
  0
LINE
  5
F9
330
76
100
AcDbEntity
  8
LAYER6
  6
Continuous
 62
     1
370
    13
100
AcDbLine
 10
-138.2750354541415
 20
90.91377264104864
 30
0.0
 11
-138.2683118870233
 21
89.83478019288052
 31
0.0
  0
LINE
  5
FA
330
76
100
AcDbEntity
  8
LAYER6
  6
Continuous
 62
     1
370
    13
100
AcDbLine
 10
-138.878136782729
 20
91.40960188494262
 30
0.0
 11
-138.8720389689666
 21
90.43102981386829
 31
0.0
  0
LINE
  5
FB
330
76
100
AcDbEntity
  8
LAYER6
  6
Continuous
 62
     1
370
    13
100
AcDbLine
 10
-139.4812381113166
 20
91.9054311288366
 30
0.0
 11
-139.4757660509101
 21
91.02727943485621
 31
0.0
  0
LINE
  5
FC
330
76
100
AcDbEntity
  8
LAYER6
  6
Continuous
 62
     1
370
    13
100
AcDbLine
 10
-140.0843394399041
 20
92.40126037273052
 30
0.0
 11
-140.0794931328536
 21
91.62352905584402
 31
0.0
  0
LINE
  5
FD
330
76
100
AcDbEntity
  8
LAYER6
  6
Continuous
 62
     1
370
    13
100
AcDbLine
 10
-140.6874407684916
 20
92.89708961662444
 30
0.0
 11
-140.6832202147969
 21
92.21977867683182
 31
0.0
  0
LINE
  5
FE
330
76
100
AcDbEntity
  8
LAYER6
  6
Continuous
 62
     1
370
    13
100
AcDbLine
 10
-141.2905420970791
 20
93.39291886051842
 30
0.0
 11
-141.2869472967403
 21
92.81602829781968
 31
0.0
  0
LINE
  5
FF
330
76
100
AcDbEntity
  8
LAYER6
  6
Continuous
 62
     1
370
    13
100
AcDbLine
 10
-141.8936434256666
 20
93.88874810441246
 30
0.0
 11
-141.8906743786837
 21
93.41227791880755
 31
0.0
  0
LINE
  5
100
330
76
100
AcDbEntity
  8
LAYER6
  6
Continuous
 62
     1
370
    13
100
AcDbLine
 10
-142.4967447542541
 20
94.38457734830627
 30
0.0
 11
-142.4944014606272
 21
94.00852753979541
 31
0.0
  0
LINE
  5
101
330
76
100
AcDbEntity
  8
LAYER6
  6
Continuous
 62
     1
370
    13
100
AcDbLine
 10
-143.0998460828417
 20
94.8804065922003
 30
0.0
 11
-143.0981285425706
 21
94.60477716078333
 31
0.0
  0
LINE
  5
102
330
76
100
AcDbEntity
  8
LAYER6
  6
Continuous
 62
     1
370
    13
100
AcDbLine
 10
-143.7029474114292
 20
95.37623583609422
 30
0.0
 11
-143.701855624514
 21
95.20102678177113
 31
0.0
  0
LINE
  5
103
330
76
100
AcDbEntity
  8
LAYER6
  6
Continuous
 62
     1
370
    13
100
AcDbLine
 10
-144.3060487400167
 20
95.87206507998815
 30
0.0
 11
-144.3055827064574
 21
95.79727640275894
 31
0.0
  0
LINE
  5
104
330
76
100
AcDbEntity
  8
LAYER6
  6
Continuous
 62
     1
370
    13
100
AcDbLine
 10
-137.3593002316818
 20
83.17255975306242
 30
0.0
 11
-137.3537488320508
 21
82.28167576644583
 31
0.0
  0
LINE
  5
105
330
76
100
AcDbEntity
  8
LAYER6
  6
Continuous
 62
     1
370
    13
100
AcDbLine
 10
-137.9680495933218
 20
84.57478063453144
 30
0.0
 11
-137.949034780899
 21
81.52329938260061
 31
0.0
  0
LINE
  5
106
330
76
100
AcDbEntity
  8
LAYER6
  6
Continuous
 62
     1
370
    13
100
AcDbLine
 10
-138.5684288814899
 20
84.63377910026958
 30
0.0
 11
-138.5538989357022
 21
82.3020255085516
 31
0.0
  0
LINE
  5
107
330
76
100
AcDbEntity
  8
LAYER6
  6
Continuous
 62
     1
370
    13
100
AcDbLine
 10
-139.1688081696579
 20
84.69277756600766
 30
0.0
 11
-139.1666012264187
 21
84.3386091541042
 31
0.0
  0
LINE
  5
108
330
76
100
AcDbEntity
  8
LAYER6
  6
Continuous
 62
     1
370
    13
100
AcDbLine
 10
-137.6652966529291
 20
84.13392574612635
 30
0.0
 11
-137.6513918064749
 21
81.90248757452324
 31
0.0
  0
LINE
  5
109
330
76
100
AcDbEntity
  8
LAYER6
  6
Continuous
 62
     1
370
    13
100
AcDbLine
 10
-138.2682392374059
 20
84.60427986740044
 30
0.0
 11
-138.2506424540862
 21
81.78036274424278
 31
0.0
  0
LINE
  5
10A
330
76
100
AcDbEntity
  8
LAYER6
  6
Continuous
 62
     1
370
    13
100
AcDbLine
 10
-138.8686185255738
 20
84.66327833313863
 30
0.0
 11
-138.8582729292003
 21
83.00302564845438
 31
0.0
  0
LINE
  5
10B
330
76
100
AcDbEntity
  8
LAYER6
  6
Continuous
 62
     1
370
    13
100
AcDbLine
 10
-133.6995613993864
 20
79.81197311726905
 30
0.0
 11
-133.6953552505018
 21
79.13697384939786
 31
0.0
  0
LINE
  5
10C
330
76
100
AcDbEntity
  8
LAYER6
  6
Continuous
 62
     1
370
    13
100
AcDbLine
 10
-134.3050208510825
 20
80.68623199252968
 30
0.0
 11
-134.2957824580768
 21
79.20366238164075
 31
0.0
  0
LINE
  5
10D
330
76
100
AcDbEntity
  8
LAYER6
  6
Continuous
 62
     1
370
    13
100
AcDbLine
 10
-134.9061513398523
 20
80.8657825048526
 30
0.0
 11
-134.8966110608076
 21
79.33476647398217
 31
0.0
  0
LINE
  5
10E
330
76
100
AcDbEntity
  8
LAYER6
  6
Continuous
 62
     1
370
    13
100
AcDbLine
 10
-135.5079158691144
 20
81.14708330698636
 30
0.0
 11
-135.497870953177
 21
79.53508356811847
 31
0.0
  0
LINE
  5
10F
330
76
100
AcDbEntity
  8
LAYER6
  6
Continuous
 62
     1
370
    13
100
AcDbLine
 10
-136.1064940228685
 20
80.91703722294457
 30
0.0
 11
-136.0996133830813
 21
79.8128378837527
 31
0.0
  0
LINE
  5
110
330
76
100
AcDbEntity
  8
LAYER6
  6
Continuous
 62
     1
370
    13
100
AcDbLine
 10
-136.703472986693
 20
80.43035447165354
 30
0.0
 11
-136.7019235649519
 21
80.18170456182779
 31
0.0
  0
LINE
  5
111
330
76
100
AcDbEntity
  8
LAYER6
  6
Continuous
 62
     1
370
    13
100
AcDbLine
 10
-134.004666533759
 20
80.63030613542429
 30
0.0
 11
-133.9955199048321
 21
79.1624627474202
 31
0.0
  0
LINE
  5
112
330
76
100
AcDbEntity
  8
LAYER6
  6
Continuous
 62
     1
370
    13
100
AcDbLine
 10
-134.6055130993691
 20
80.76429289568534
 30
0.0
 11
-134.5961451258329
 21
79.26092830921323
 31
0.0
  0
LINE
  5
113
330
76
100
AcDbEntity
  8
LAYER6
  6
Continuous
 62
     1
370
    13
100
AcDbLine
 10
-135.2069469621456
 20
80.99252861577745
 30
0.0
 11
-135.1971844961222
 21
79.42585620373075
 31
0.0
  0
LINE
  5
114
330
76
100
AcDbEntity
  8
LAYER6
  6
Continuous
 62
     1
370
    13
100
AcDbLine
 10
-135.8080045409562
 20
81.16037859859011
 30
0.0
 11
-135.7986775401062
 21
79.66358927467138
 31
0.0
  0
LINE
  5
115
330
76
100
AcDbEntity
  8
LAYER6
  6
Continuous
 62
     1
370
    13
100
AcDbLine
 10
-136.4049835047808
 20
80.67369584729911
 30
0.0
 11
-136.4006902609032
 21
79.98471964751954
 31
0.0
  0
LINE
  5
116
330
76
100
AcDbEntity
  8
LAYER6
  6
Continuous
 62
     1
370
    13
100
AcDbLine
 10
-129.9534745800266
 20
80.613793493618
 30
0.0
 11
-129.9509939570249
 21
80.21570518150037
 31
0.0
  0
LINE
  5
117
330
76
100
AcDbEntity
  8
LAYER6
  6
Continuous
 62
     1
370
    13
100
AcDbLine
 10
-130.5563219418576
 20
81.06886636406458
 30
0.0
 11
-130.5486723947411
 21
79.8412734174326
 31
0.0
  0
LINE
  5
118
330
76
100
AcDbEntity
  8
LAYER6
  6
Continuous
 62
     1
370
    13
100
AcDbLine
 10
-131.156949407142
 20
81.16769208663425
 30
0.0
 11
-131.146916511074
 21
79.55762128639574
 31
0.0
  0
LINE
  5
119
330
76
100
AcDbEntity
  8
LAYER6
  6
Continuous
 62
     1
370
    13
100
AcDbLine
 10
-131.7551747878613
 20
80.88103327993986
 30
0.0
 11
-131.7456419281263
 21
79.35120789371146
 31
0.0
  0
LINE
  5
11A
330
76
100
AcDbEntity
  8
LAYER6
  6
Continuous
 62
     1
370
    13
100
AcDbLine
 10
-132.3540321249291
 20
80.69579030138169
 30
0.0
 11
-132.3447978926962
 21
79.2138884078422
 31
0.0
  0
LINE
  5
11B
330
76
100
AcDbEntity
  8
LAYER6
  6
Continuous
 62
     1
370
    13
100
AcDbLine
 10
-132.9534427570982
 20
80.59933965964714
 30
0.0
 11
-132.9443548449134
 21
79.14091908548613
 31
0.0
  0
LINE
  5
11C
330
76
100
AcDbEntity
  8
LAYER6
  6
Continuous
 62
     1
370
    13
100
AcDbLine
 10
-130.2548982609421
 20
80.8413299288413
 30
0.0
 11
-130.2497552966969
 21
80.01599131256901
 31
0.0
  0
LINE
  5
11D
330
76
100
AcDbEntity
  8
LAYER6
  6
Continuous
 62
     1
370
    13
100
AcDbLine
 10
-130.8577456227731
 20
81.29640279928776
 30
0.0
 11
-130.8477300204727
 21
79.68910728846666
 31
0.0
  0
LINE
  5
11E
330
76
100
AcDbEntity
  8
LAYER6
  6
Continuous
 62
     1
370
    13
100
AcDbLine
 10
-131.4559758093368
 20
81.01051523050614
 30
0.0
 11
-131.4462228272399
 21
79.44536479107214
 31
0.0
  0
LINE
  5
11F
330
76
100
AcDbEntity
  8
LAYER6
  6
Continuous
 62
     1
370
    13
100
AcDbLine
 10
-132.0545306413452
 20
80.77672649211243
 30
0.0
 11
-132.0451683461644
 21
79.27427316340854
 31
0.0
  0
LINE
  5
120
330
76
100
AcDbEntity
  8
LAYER6
  6
Continuous
 62
     1
370
    13
100
AcDbLine
 10
-132.6536712875064
 20
80.63694872080123
 30
0.0
 11
-132.6445274529674
 21
79.16955377385202
 31
0.0
  0
LINE
  5
121
330
76
100
AcDbEntity
  8
LAYER6
  6
Continuous
 62
     1
370
    13
100
AcDbLine
 10
-127.9203292971229
 20
84.75803392376505
 30
0.0
 11
-127.9083090618169
 21
82.82903657872907
 31
0.0
  0
LINE
  5
122
330
76
100
AcDbEntity
  8
LAYER6
  6
Continuous
 62
     1
370
    13
100
AcDbLine
 10
-128.5199753750249
 20
84.69936741704396
 30
0.0
 11
-128.501308328404
 21
81.70369533118841
 31
0.0
  0
LINE
  5
123
330
76
100
AcDbEntity
  8
LAYER6
  6
Continuous
 62
     1
370
    13
100
AcDbLine
 10
-129.114390198761
 20
83.80119360112488
 30
0.0
 11
-129.1021642330305
 21
81.83918080901114
 31
0.0
  0
LINE
  5
124
330
76
100
AcDbEntity
  8
LAYER6
  6
Continuous
 62
     1
370
    13
100
AcDbLine
 10
-127.6205062581718
 20
84.78736717712556
 30
0.0
 11
-127.614498197579
 21
83.82319861990993
 31
0.0
  0
LINE
  5
125
330
76
100
AcDbEntity
  8
LAYER6
  6
Continuous
 62
     1
370
    13
100
AcDbLine
 10
-128.2201523360739
 20
84.72870067040455
 30
0.0
 11
-128.2043553398574
 21
82.19361188175168
 31
0.0
  0
LINE
  5
126
330
76
100
AcDbEntity
  8
LAYER6
  6
Continuous
 62
     1
370
    13
100
AcDbLine
 10
-128.819798413976
 20
84.67003416368345
 30
0.0
 11
-128.7997255168374
 21
81.44875235829352
 31
0.0
  0
LINE
  5
127
330
76
100
AcDbEntity
  8
LAYER6
  6
Continuous
 62
     1
370
    13
100
AcDbLine
 10
-129.4095838398223
 20
83.02893843224683
 30
0.0
 11
-129.4046029492237
 21
82.2296092597287
 31
0.0
  0
LINE
  5
128
330
76
100
AcDbEntity
  8
LAYER6
  6
Continuous
 62
     1
370
    13
100
AcDbLine
 10
-127.8765078222991
 20
87.04442315997099
 30
0.0
 11
-127.865967245791
 21
85.35288022575637
 31
0.0
  0
LINE
  5
129
330
76
100
AcDbEntity
  8
LAYER6
  6
Continuous
 62
     1
370
    13
100
AcDbLine
 10
-128.4838832802012
 20
88.22616111449364
 30
0.0
 11
-128.4664251984632
 21
85.42450270558064
 31
0.0
  0
LINE
  5
12A
330
76
100
AcDbEntity
  8
LAYER6
  6
Continuous
 62
     1
370
    13
100
AcDbLine
 10
-129.0830332736975
 20
88.08788339573411
 30
0.0
 11
-129.0699032384456
 21
85.98078628019283
 31
0.0
  0
LINE
  5
12B
330
76
100
AcDbEntity
  8
LAYER6
  6
Continuous
 62
     1
370
    13
100
AcDbLine
 10
-127.5692403039251
 20
85.87907255927499
 30
0.0
 11
-127.5657382694549
 21
85.31706898584429
 31
0.0
  0
LINE
  5
12C
330
76
100
AcDbEntity
  8
LAYER6
  6
Continuous
 62
     1
370
    13
100
AcDbLine
 10
-128.1807112397377
 20
87.7180493959645
 30
0.0
 11
-128.1661962221271
 21
85.38869146566847
 31
0.0
  0
LINE
  5
12D
330
76
100
AcDbEntity
  8
LAYER6
  6
Continuous
 62
     1
370
    13
100
AcDbLine
 10
-128.7853615148902
 20
88.46245229381759
 30
0.0
 11
-128.7666541747993
 21
85.46031394549266
 31
0.0
  0
LINE
  5
12E
330
76
100
AcDbEntity
  8
LAYER6
  6
Continuous
 62
     1
370
    13
100
AcDbLine
 10
-129.3807050325049
 20
87.71331449765043
 30
0.0
 11
-129.3753633925696
 21
86.85609257220102
 31
0.0
  0
LINE
  5
12F
330
76
100
AcDbEntity
  8
LAYER6
  6
Continuous
 62
     1
370
    13
100
AcDbLine
 10
-130.3178577547675
 20
89.98173533437699
 30
0.0
 11
-130.3137938619032
 21
89.3295651940831
 31
0.0
  0
LINE
  5
130
330
76
100
AcDbEntity
  8
LAYER6
  6
Continuous
 62
     1
370
    13
100
AcDbLine
 10
-130.9198541041572
 20
90.3002384374218
 30
0.0
 11
-130.9108100289858
 21
88.84885279064073
 31
0.0
  0
LINE
  5
131
330
76
100
AcDbEntity
  8
LAYER6
  6
Continuous
 62
     1
370
    13
100
AcDbLine
 10
-131.5213332019637
 20
90.53573343743358
 30
0.0
 11
-131.5115851696163
 21
88.97137732968602
 31
0.0
  0
LINE
  5
132
330
76
100
AcDbEntity
  8
LAYER6
  6
Continuous
 62
     1
370
    13
100
AcDbLine
 10
-132.1223600892403
 20
90.6986580684441
 30
0.0
 11
-132.1130007537272
 21
89.1966797047618
 31
0.0
  0
LINE
  5
133
330
76
100
AcDbEntity
  8
LAYER6
  6
Continuous
 62
     1
370
    13
100
AcDbLine
 10
-132.7229736811662
 20
90.79525740599854
 30
0.0
 11
-132.7138312952491
 21
89.32809493268016
 31
0.0
  0
LINE
  5
134
330
76
100
AcDbEntity
  8
LAYER6
  6
Continuous
 62
     1
370
    13
100
AcDbLine
 10
-130.016634038197
 20
89.78628901061015
 30
0.0
 11
-130.0152857783618
 21
89.56992139580433
 31
0.0
  0
LINE
  5
135
330
76
100
AcDbEntity
  8
LAYER6
  6
Continuous
 62
     1
370
    13
100
AcDbLine
 10
-130.6189260610626
 20
90.15224154666274
 30
0.0
 11
-130.6123019454445
 21
89.08920899236193
 31
0.0
  0
LINE
  5
136
330
76
100
AcDbEntity
  8
LAYER6
  6
Continuous
 62
     1
370
    13
100
AcDbLine
 10
-131.220653486454
 20
90.4275879505592
 30
0.0
 11
-131.2106268642756
 21
88.81852397888392
 31
0.0
  0
LINE
  5
137
330
76
100
AcDbEntity
  8
LAYER6
  6
Continuous
 62
     1
370
    13
100
AcDbLine
 10
-131.8219002564099
 20
90.6257991707364
 30
0.0
 11
-131.8123712672423
 21
89.09659492992952
 31
0.0
  0
LINE
  5
138
330
76
100
AcDbEntity
  8
LAYER6
  6
Continuous
 62
     1
370
    13
100
AcDbLine
 10
-132.4227168658626
 20
90.75497859177835
 30
0.0
 11
-132.4134847985168
 21
89.27342411753474
 31
0.0
  0
LINE
  5
139
330
76
100
AcDbEntity
  8
LAYER6
  6
Continuous
 62
     1
370
    13
100
AcDbLine
 10
-133.0231326996471
 20
90.81984186760258
 30
0.0
 11
-133.0163196455413
 21
89.72648862226455
 31
0.0
  0
LINE
  5
13A
330
76
100
AcDbEntity
  8
LAYER6
  6
Continuous
 62
     1
370
    13
100
AcDbLine
 10
-133.9684922751468
 20
90.79628414181354
 30
0.0
 11
-133.9593683314066
 21
89.33208125366636
 31
0.0
  0
LINE
  5
13B
330
76
100
AcDbEntity
  8
LAYER6
  6
Continuous
 62
     1
370
    13
100
AcDbLine
 10
-134.5679099482341
 20
90.7009634207443
 30
0.0
 11
-134.5585894158412
 21
89.20521214946018
 31
0.0
  0
LINE
  5
13C
330
76
100
AcDbEntity
  8
LAYER6
  6
Continuous
 62
     1
370
    13
100
AcDbLine
 10
-135.1669181554754
 20
90.53993196194074
 30
0.0
 11
-135.1572354845948
 21
88.98606500792701
 31
0.0
  0
LINE
  5
13D
330
76
100
AcDbEntity
  8
LAYER6
  6
Continuous
 62
     1
370
    13
100
AcDbLine
 10
-135.7654807626131
 20
90.30739096983473
 30
0.0
 11
-135.7563561726475
 21
88.84308437597815
 31
0.0
  0
LINE
  5
13E
330
76
100
AcDbEntity
  8
LAYER6
  6
Continuous
 62
     1
370
    13
100
AcDbLine
 10
-136.3635370722397
 20
89.99359977505503
 30
0.0
 11
-136.3594575012351
 21
89.33891361987222
 31
0.0
  0
LINE
  5
13F
330
76
100
AcDbEntity
  8
LAYER6
  6
Continuous
 62
     1
370
    13
100
AcDbLine
 10
-133.6686364445509
 20
90.82035501933944
 30
0.0
 11
-133.6650176166268
 21
90.23960852975361
 31
0.0
  0
LINE
  5
140
330
76
100
AcDbEntity
  8
LAYER6
  6
Continuous
 62
     1
370
    13
100
AcDbLine
 10
-134.2682507522902
 20
90.75659006336184
 30
0.0
 11
-134.2590468024895
 21
89.2795478692891
 31
0.0
  0
LINE
  5
141
330
76
100
AcDbEntity
  8
LAYER6
  6
Continuous
 62
     1
370
    13
100
AcDbLine
 10
-134.8674670343855
 20
90.6289502837123
 30
0.0
 11
-134.8579890370248
 21
89.10792916561817
 31
0.0
  0
LINE
  5
142
330
76
100
AcDbEntity
  8
LAYER6
  6
Continuous
 62
     1
370
    13
100
AcDbLine
 10
-135.4662582454176
 20
90.43309545409437
 30
0.0
 11
-135.4563145234922
 21
88.83733524593964
 31
0.0
  0
LINE
  5
143
330
76
100
AcDbEntity
  8
LAYER6
  6
Continuous
 62
     1
370
    13
100
AcDbLine
 10
-136.0645773088043
 20
90.1614707637726
 30
0.0
 11
-136.0579068369412
 21
89.09099899792514
 31
0.0
  0
LINE
  5
144
330
76
100
AcDbEntity
  8
LAYER6
  6
Continuous
 62
     1
370
    13
100
AcDbLine
 10
-136.6623459939364
 20
89.80152182980981
 30
0.0
 11
-136.6610081655288
 21
89.58682824181915
 31
0.0
  0
LINE
  5
145
330
76
100
AcDbEntity
  8
LAYER6
  6
Continuous
 62
     1
370
    13
100
AcDbLine
 10
-137.427007965474
 20
87.55158307846554
 30
0.0
 11
-137.4213193947711
 21
86.63868599254673
 31
0.0
  0
LINE
  5
146
330
76
100
AcDbEntity
  8
LAYER6
  6
Continuous
 62
     1
370
    13
100
AcDbLine
 10
-138.0314861610974
 20
88.26837079689614
 30
0.0
 11
-138.0129186698377
 21
85.2886752724443
 31
0.0
  0
LINE
  5
147
330
76
100
AcDbEntity
  8
LAYER6
  6
Continuous
 62
     1
370
    13
100
AcDbLine
 10
-138.626754105405
 20
87.50710505936678
 30
0.0
 11
-138.6125480925825
 21
85.22733595996388
 31
0.0
  0
LINE
  5
148
330
76
100
AcDbEntity
  8
LAYER6
  6
Continuous
 62
     1
370
    13
100
AcDbLine
 10
-137.7292470632857
 20
87.90997693768085
 30
0.0
 11
-137.7143140530453
 21
85.51353989847559
 31
0.0
  0
LINE
  5
149
330
76
100
AcDbEntity
  8
LAYER6
  6
Continuous
 62
     1
370
    13
100
AcDbLine
 10
-138.330132447644
 20
88.05019329828218
 30
0.0
 11
-138.3127333812101
 21
85.25800561620406
 31
0.0
  0
LINE
  5
14A
330
76
100
AcDbEntity
  8
LAYER6
  6
Continuous
 62
     1
370
    13
100
AcDbLine
 10
-138.9221337291224
 20
86.76469623215866
 30
0.0
 11
-138.912362803955
 21
85.19666630372362
 31
0.0
  0
LINE
  5
14B
330
76
100
AcDbEntity
  8
LAYER6
  6
Continuous
 62
     1
370
    13
100
AcDbLine
 10
-147.6327597339655
 20
99.08324468369989
 30
0.0
 11
-147.6335053622302
 21
99.20290248627572
 31
0.0
  0
LINE
  5
14C
330
76
100
AcDbEntity
  8
LAYER6
  6
Continuous
 62
     1
370
    13
100
AcDbLine
 10
-147.3308961929937
 20
98.78511987320599
 30
0.0
 11
-147.332389567354
 21
99.02477534607493
 31
0.0
  0
LINE
  5
14D
330
76
100
AcDbEntity
  8
LAYER6
  6
Continuous
 62
     1
370
    13
100
AcDbLine
 10
-147.029032652022
 20
98.48699506271203
 30
0.0
 11
-147.0312737724779
 21
98.84664820587415
 31
0.0
  0
LINE
  5
14E
330
76
100
AcDbEntity
  8
LAYER6
  6
Continuous
 62
     1
370
    13
100
AcDbLine
 10
-146.7271691110502
 20
98.18887025221807
 30
0.0
 11
-146.7301579776017
 21
98.6685210656733
 31
0.0
  0
LINE
  5
14F
330
76
100
AcDbEntity
  8
LAYER6
  6
Continuous
 62
     1
370
    13
100
AcDbLine
 10
-146.4253055700786
 20
97.89074544172422
 30
0.0
 11
-146.4290421827257
 21
98.49039392547257
 31
0.0
  0
LINE
  5
150
330
76
100
AcDbEntity
  8
LAYER6
  6
Continuous
 62
     1
370
    13
100
AcDbLine
 10
-146.1234420291069
 20
97.59262063123026
 30
0.0
 11
-146.1279263878494
 21
98.31226678527167
 31
0.0
  0
LINE
  5
151
330
76
100
AcDbEntity
  8
LAYER6
  6
Continuous
 62
     1
370
    13
100
AcDbLine
 10
-145.8215784881352
 20
97.29449582073642
 30
0.0
 11
-145.8268105929733
 21
98.134139645071
 31
0.0
  0
LINE
  5
152
330
76
100
AcDbEntity
  8
LAYER6
  6
Continuous
 62
     1
370
    13
100
AcDbLine
 10
-145.5197149471635
 20
96.99637101024246
 30
0.0
 11
-145.5256947980972
 21
97.95601250487016
 31
0.0
  0
LINE
  5
153
330
76
100
AcDbEntity
  8
LAYER6
  6
Continuous
 62
     1
370
    13
100
AcDbLine
 10
-144.9170485102467
 20
96.5703328192547
 30
0.0
 11
-144.91598786522
 21
96.4001213892546
 31
0.0
  0
LINE
  5
154
330
76
100
AcDbEntity
  8
LAYER6
  6
Continuous
 62
     1
370
    13
100
AcDbLine
 10
-145.2178514061918
 20
96.6982461997485
 30
0.0
 11
-145.2226507816962
 21
97.4684459812143
 31
0.0
  0
ARC
  5
155
330
76
100
AcDbEntity
  8
LAYER6
  6
Continuous
 62
     1
370
    13
100
AcDbCircle
 10
-133.3505288999107
 20
84.97790640029257
 30
0.0
 40
4.396535466375074
100
AcDbArc
 50
149.4963829734894
 51
175.5737542491611
  0
ARC
  5
156
330
76
100
AcDbEntity
  8
LAYER6
  6
Continuous
 62
     1
370
    13
100
AcDbCircle
 10
-133.35052889991
 20
84.97790640029257
 30
0.0
 40
4.396535466375873
100
AcDbArc
 50
185.5719308146171
 51
212.1402830302635
  0
ARC
  5
157
330
76
100
AcDbEntity
  8
LAYER6
  6
Continuous
 62
     1
370
    13
100
AcDbCircle
 10
-133.3505288999102
 20
84.97790640029214
 30
0.0
 40
4.396535466375366
100
AcDbArc
 50
237.839746284707
 51
264.0781438485957
  0
ARC
  5
158
330
76
100
AcDbEntity
  8
LAYER6
  6
Continuous
 62
     1
370
    13
100
AcDbCircle
 10
-133.3505288999103
 20
84.9779064002925
 30
0.0
 40
4.396535466375671
100
AcDbArc
 50
274.9162047895169
 51
303.8818500308363
  0
ARC
  5
159
330
76
100
AcDbEntity
  8
LAYER6
  6
Continuous
 62
     1
370
    13
100
AcDbCircle
 10
-133.3505288999098
 20
84.9779064002923
 30
0.0
 40
4.396535466375227
100
AcDbArc
 50
326.8324508097972
 51
355.7978672088945
  0
ARC
  5
15A
330
76
100
AcDbEntity
  8
LAYER6
  6
Continuous
 62
     1
370
    13
100
AcDbCircle
 10
-133.3505288999096
 20
84.97790640029257
 30
0.0
 40
4.396535466375123
100
AcDbArc
 50
6.638627191528148
 51
32.87430325991983
  0
ARC
  5
15B
330
76
100
AcDbEntity
  8
LAYER6
  6
Continuous
 62
     1
370
    13
100
AcDbCircle
 10
-133.3505288999099
 20
84.97790640029339
 30
0.0
 40
4.396535466374682
100
AcDbArc
 50
58.58102742989589
 51
85.1030667957524
  0
ARC
  5
15C
330
76
100
AcDbEntity
  8
LAYER6
  6
Continuous
 62
     1
370
    13
100
AcDbCircle
 10
-133.3505288999105
 20
84.97790640029338
 30
0.0
 40
4.39653546637465
100
AcDbArc
 50
95.13668126967079
 51
121.2100681729394
  0
ARC
  5
15D
330
76
100
AcDbEntity
  8
LAYER6
  6
Continuous
 62
     1
370
    13
100
AcDbCircle
 10
-133.3505288999103
 20
84.97790640029247
 30
0.0
 40
5.851102312911781
100
AcDbArc
 50
144.5615298288394
 51
178.1441999486094
  0
ARC
  5
15E
330
76
100
AcDbEntity
  8
LAYER6
  6
Continuous
 62
     1
370
    13
100
AcDbCircle
 10
-133.3505288999103
 20
84.9779064002923
 30
0.0
 40
5.851102312911662
100
AcDbArc
 50
182.7681302391362
 51
217.1757099854397
  0
ARC
  5
15F
330
76
100
AcDbEntity
  8
LAYER6
  6
Continuous
 62
     1
370
    13
100
AcDbCircle
 10
-133.3505288999102
 20
84.97790640029235
 30
0.0
 40
5.85110231291172
100
AcDbArc
 50
233.092943824873
 51
267.4587735953098
  0
ARC
  5
160
330
76
100
AcDbEntity
  8
LAYER6
  6
Continuous
 62
     1
370
    13
100
AcDbCircle
 10
-133.3505288999102
 20
84.9779064002926
 30
0.0
 40
5.851102312911991
100
AcDbArc
 50
272.4667758061731
 51
308.7404256584389
  0
ARC
  5
161
330
76
100
AcDbEntity
  8
LAYER6
  6
Continuous
 62
     1
370
    13
100
AcDbCircle
 10
-133.3505288999101
 20
84.97790640029245
 30
0.0
 40
5.851102312911783
100
AcDbArc
 50
321.973899250145
 51
358.2472840707645
  0
ARC
  5
162
330
76
100
AcDbEntity
  8
LAYER6
  6
Continuous
 62
     1
370
    13
100
AcDbCircle
 10
-133.3505288999101
 20
84.97790640029245
 30
0.0
 40
5.851102312911793
100
AcDbArc
 50
3.256518784881532
 51
37.62110571975272
  0
ARC
  5
163
330
76
100
AcDbEntity
  8
LAYER6
  6
Continuous
 62
     1
370
    13
100
AcDbCircle
 10
-133.3505288999102
 20
84.9779064002922
 30
0.0
 40
5.851102312912126
100
AcDbArc
 50
53.54273732097325
 51
87.92799745626179
  0
ARC
  5
164
330
76
100
AcDbEntity
  8
LAYER6
  6
Continuous
 62
     1
370
    13
100
AcDbCircle
 10
-133.3505288999102
 20
84.97790640029265
 30
0.0
 40
5.851102312911644
100
AcDbArc
 50
92.568187971399
 51
126.1476727557176
  0
ARC
  5
165
330
76
100
AcDbEntity
  8
LAYER6
  6
Continuous
 62
     1
370
    13
100
AcDbCircle
 10
-133.3505288999105
 20
84.9779064002926
 30
0.0
 40
6.542091480929837
100
AcDbArc
 50
143.0106646842929
 51
178.961293721086
  0
ARC
  5
166
330
76
100
AcDbEntity
  8
LAYER6
  6
Continuous
 62
     1
370
    13
100
AcDbCircle
 10
-133.35052889991
 20
84.97790640029251
 30
0.0
 40
6.542091480930377
100
AcDbArc
 50
181.8775824101533
 51
218.757168881377
  0
ARC
  5
167
330
76
100
AcDbEntity
  8
LAYER6
  6
Continuous
 62
     1
370
    13
100
AcDbCircle
 10
-133.3505288999102
 20
84.97790640029214
 30
0.0
 40
6.542091480929896
100
AcDbArc
 50
231.5994388187945
 51
268.5300580220481
  0
ARC
  5
168
330
76
100
AcDbEntity
  8
LAYER6
  6
Continuous
 62
     1
370
    13
100
AcDbCircle
 10
-133.35052889991
 20
84.97790640029237
 30
0.0
 40
6.54209148093009
100
AcDbArc
 50
271.6878436784191
 51
310.2680486039759
  0
ARC
  5
169
330
76
100
AcDbEntity
  8
LAYER6
  6
Continuous
 62
     1
370
    13
100
AcDbCircle
 10
-133.35052889991
 20
84.97790640029235
 30
0.0
 40
6.542091480929987
100
AcDbArc
 50
320.4462836435302
 51
359.0262123738615
  0
ARC
  5
16A
330
76
100
AcDbEntity
  8
LAYER6
  6
Continuous
 62
     1
370
    13
100
AcDbCircle
 10
-133.3505288999104
 20
84.97790640029235
 30
0.0
 40
6.542091480930452
100
AcDbArc
 50
2.184772714050551
 51
39.11461072582927
  0
ARC
  5
16B
330
76
100
AcDbEntity
  8
LAYER6
  6
Continuous
 62
     1
370
    13
100
AcDbCircle
 10
-133.3505288999101
 20
84.97790640029268
 30
0.0
 40
6.542091480929995
100
AcDbArc
 50
51.96040834592099
 51
88.82518747183973
  0
ARC
  5
16C
330
76
100
AcDbEntity
  8
LAYER6
  6
Continuous
 62
     1
370
    13
100
AcDbCircle
 10
-133.3505288999101
 20
84.97790640029231
 30
0.0
 40
6.542091480930369
100
AcDbArc
 50
91.75170951117006
 51
127.6993756513222
  0
LINE
  5
16D
330
76
100
AcDbEntity
  8
LAYER6
  6
Continuous
 62
     1
370
    13
100
AcDbLine
 10
-133.3505288999102
 20
84.97790640029245
 30
0.0
 11
-131.5439013971186
 21
84.99130256787237
 31
0.0
  0
LINE
  5
16E
330
76
100
AcDbEntity
  8
LAYER6
  6
Continuous
 62
     1
370
    13
100
AcDbLine
 10
-133.3414094866172
 20
83.17125224759755
 30
0.0
 11
-133.3505288999102
 21
84.97790640029243
 31
0.0
  0
LINE
  5
16F
330
76
100
AcDbEntity
  8
LAYER6
  6
Continuous
 62
     1
370
    13
100
AcDbLine
 10
-133.3505288999102
 20
84.97790640029245
 30
0.0
 11
-133.3623496695556
 21
86.87489366234587
 31
0.0
  0
LINE
  5
170
330
76
100
AcDbEntity
  8
LAYER6
  6
Continuous
 62
     1
370
    13
100
AcDbLine
 10
-135.2466225794025
 20
84.96609119886242
 30
0.0
 11
-133.3505288999102
 21
84.97790640029245
 31
0.0
  0
LINE
  5
171
330
76
100
AcDbEntity
  8
LAYER6
  6
Continuous
 62
     1
370
    13
100
AcDbLine
 10
-141.5503697032734
 20
84.926810417096
 30
0.0
 11
-135.7167471755886
 21
85.5235629805052
 31
0.0
  0
LINE
  5
172
330
76
100
AcDbEntity
  8
LAYER6
  6
Continuous
 62
     1
370
    13
100
AcDbLine
 10
-135.7266714265898
 20
84.35452341450019
 30
0.0
 11
-141.5503697032734
 21
84.926810417096
 31
0.0
  0
LINE
  5
173
330
76
100
AcDbEntity
  8
LAYER6
  6
Continuous
 62
     1
370
    13
100
AcDbLine
 10
-133.2994329167137
 20
76.77806559692914
 30
0.0
 11
-134.0648213726624
 21
82.58149597752478
 31
0.0
  0
LINE
  5
174
330
76
100
AcDbEntity
  8
LAYER6
  6
Continuous
 62
     1
370
    13
100
AcDbLine
 10
-132.7898005877452
 20
82.754857881682
 30
0.0
 11
-133.2994329167137
 21
76.77806559692911
 31
0.0
  0
LINE
  5
175
330
76
100
AcDbEntity
  8
LAYER6
  6
Continuous
 62
     1
370
    13
100
AcDbLine
 10
-125.1506880965468
 20
85.02900238348889
 30
0.0
 11
-131.1206621917494
 21
84.44492864685049
 31
0.0
  0
LINE
  5
176
330
76
100
AcDbEntity
  8
LAYER6
  6
Continuous
 62
     1
370
    13
100
AcDbLine
 10
-130.9629321420626
 20
85.72228545190475
 30
0.0
 11
-125.1506880965469
 21
85.02900238348889
 31
0.0
  0
LINE
  5
177
330
76
100
AcDbEntity
  8
LAYER6
  6
Continuous
 62
     1
370
    13
100
AcDbLine
 10
-133.4016248831065
 20
93.17774720365571
 30
0.0
 11
-132.7527599686896
 21
87.36573016958636
 31
0.0
  0
LINE
  5
178
330
76
100
AcDbEntity
  8
LAYER6
  6
Continuous
 62
     1
370
    13
100
AcDbLine
 10
-133.9251707753555
 20
87.33760722324936
 30
0.0
 11
-133.4016248831066
 21
93.17774720365577
 31
0.0
  0
LINE
  5
179
330
76
100
AcDbEntity
  8
LAYER6
  6
Continuous
 62
     1
370
    13
100
AcDbLine
 10
-142.5451872106085
 20
75.6679395072521
 30
0.0
 11
-124.1558705892119
 21
94.28787329333284
 31
0.0
  0
LINE
  5
17A
330
76
100
AcDbEntity
  8
LAYER6
  6
Continuous
 62
     1
370
    13
100
AcDbLine
 10
-146.3756538426117
 20
96.81996962377764
 30
0.0
 11
-147.933768311067
 21
99.38052511947757
 31
0.0
  0
LINE
  5
17B
330
76
100
AcDbEntity
  8
LAYER6
  6
Continuous
 62
     1
370
    13
100
AcDbLine
 10
-144.8303518277066
 20
96.31554599676781
 30
0.0
 11
-146.3756538426117
 21
96.81996962377764
 31
0.0
  0
LINE
  5
17C
330
76
100
AcDbEntity
  8
LAYER6
  6
Continuous
 62
     1
370
    13
100
AcDbLine
 10
-145.3539941350418
 20
97.8544417848978
 30
0.0
 11
-144.8303518277067
 21
96.31554599676781
 31
0.0
  0
LINE
  5
17D
330
76
100
AcDbEntity
  8
LAYER6
  6
Continuous
 62
     1
370
    13
100
AcDbLine
 10
-147.933768311067
 20
99.38052511947751
 30
0.0
 11
-145.3539941350418
 21
97.85444178489774
 31
0.0
  0
LINE
  5
17E
330
76
100
AcDbEntity
  8
LAYER6
  6
Continuous
 62
     1
370
    13
100
AcDbLine
 10
-144.8303518277066
 20
96.31554599676781
 30
0.0
 11
-147.933768311067
 21
99.38052511947757
 31
0.0
  0
LINE
  5
17F
330
76
100
AcDbEntity
  8
LAYER6
  6
Continuous
 62
     1
370
    13
100
AcDbLine
 10
-123.0312966827589
 20
74.78648301978785
 30
0.0
 11
-144.7552120662816
 21
96.24133687875599
 31
0.0
  0
LINE
  5
180
330
76
100
AcDbEntity
  8
LAYER6
  6
Continuous
 62
     1
370
    13
100
AcDbLine
 10
-135.2466225794025
 20
84.96609119886242
 30
0.0
 11
-144.7552120662816
 21
96.24133687875604
 31
0.0
  0
LINE
  5
181
330
76
100
AcDbEntity
  8
LAYER6
  6
Continuous
 62
     1
370
    13
100
AcDbLine
 10
-142.5451872106085
 20
75.6679395072521
 30
0.0
 11
-135.2466225794025
 21
84.96609119886242
 31
0.0
  0
LINE
  5
182
330
76
100
AcDbEntity
  8
LAYER6
  6
Continuous
 62
     1
370
    13
100
AcDbLine
 10
-133.3414094866172
 20
83.17125224759755
 30
0.0
 11
-142.5451872106084
 21
75.66793950725207
 31
0.0
  0
LINE
  5
183
330
76
100
AcDbEntity
  8
LAYER6
  6
Continuous
 62
     1
370
    13
100
AcDbLine
 10
-125.6174566523651
 20
77.34065297815587
 30
0.0
 11
-133.3414094866172
 21
83.17125224759758
 31
0.0
  0
LINE
  5
184
330
76
100
AcDbEntity
  8
LAYER6
  6
Continuous
 62
     1
370
    13
100
AcDbLine
 10
-131.5439013971187
 20
84.99130256787234
 30
0.0
 11
-125.6174566523651
 21
77.34065297815584
 31
0.0
  0
LINE
  5
185
330
76
100
AcDbEntity
  8
LAYER6
  6
Continuous
 62
     1
370
    13
100
AcDbLine
 10
-124.1558705892119
 20
94.28787329333284
 30
0.0
 11
-131.5439013971186
 21
84.9913025678724
 31
0.0
  0
LINE
  5
186
330
76
100
AcDbEntity
  8
LAYER6
  6
Continuous
 62
     1
370
    13
100
AcDbLine
 10
-133.3623496695556
 20
86.8748936623459
 30
0.0
 11
-124.1558705892119
 21
94.28787329333284
 31
0.0
  0
LINE
  5
187
330
76
100
AcDbEntity
  8
LAYER6
  6
Continuous
 62
     1
370
    13
100
AcDbLine
 10
-144.7552120662816
 20
96.24133687875599
 30
0.0
 11
-133.3623496695556
 21
86.87489366234584
 31
0.0
  0
LINE
  5
188
330
76
100
AcDbEntity
  8
LAYER6
  6
Continuous
 62
     3
370
    13
100
AcDbLine
 10
55.53376831106701
 20
-93.71276483668558
 30
0.0
 11
55.53376831106701
 21
-61.71276483668558
 31
0.0
  0
LINE
  5
189
330
76
100
AcDbEntity
  8
LAYER6
  6
Continuous
 62
     3
370
    13
100
AcDbLine
 10
55.53376831106701
 20
-61.71276483668558
 30
0.0
 11
147.933768311067
 21
-61.71276483668558
 31
0.0
  0
LINE
  5
18A
330
76
100
AcDbEntity
  8
LAYER6
  6
Continuous
 62
     3
370
    13
100
AcDbLine
 10
147.933768311067
 20
-61.71276483668558
 30
0.0
 11
147.933768311067
 21
-93.71276483668558
 31
0.0
  0
LINE
  5
18B
330
76
100
AcDbEntity
  8
LAYER6
  6
Continuous
 62
     3
370
    13
100
AcDbLine
 10
147.933768311067
 20
-93.71276483668558
 30
0.0
 11
55.53376831106701
 21
-93.71276483668558
 31
0.0
  0
LINE
  5
18C
330
76
100
AcDbEntity
  8
LAYER6
  6
Continuous
 62
     1
370
    13
100
AcDbLine
 10
66.33376831106702
 20
-89.71276483668558
 30
0.0
 11
66.33376831106702
 21
-65.71276483668558
 31
0.0
  0
LINE
  5
18D
330
76
100
AcDbEntity
  8
LAYER6
  6
Continuous
 62
     1
370
    13
100
AcDbLine
 10
86.733768311067
 20
-89.71276483668558
 30
0.0
 11
86.733768311067
 21
-65.71276483668558
 31
0.0
  0
LINE
  5
18E
330
76
100
AcDbEntity
  8
LAYER6
  6
Continuous
 62
     1
370
    13
100
AcDbLine
 10
107.133768311067
 20
-89.71276483668558
 30
0.0
 11
107.133768311067
 21
-65.71276483668558
 31
0.0
  0
LINE
  5
18F
330
76
100
AcDbEntity
  8
LAYER6
  6
Continuous
 62
     1
370
    13
100
AcDbLine
 10
127.533768311067
 20
-89.71276483668558
 30
0.0
 11
127.533768311067
 21
-65.71276483668558
 31
0.0
  0
LINE
  5
190
330
76
100
AcDbEntity
  8
LAYER6
  6
Continuous
 62
     1
370
    13
100
AcDbLine
 10
55.53376831106701
 20
-65.71276483668558
 30
0.0
 11
147.933768311067
 21
-65.71276483668558
 31
0.0
  0
LINE
  5
191
330
76
100
AcDbEntity
  8
LAYER6
  6
Continuous
 62
     1
370
    13
100
AcDbLine
 10
55.53376831106701
 20
-69.71276483668558
 30
0.0
 11
147.933768311067
 21
-69.71276483668558
 31
0.0
  0
LINE
  5
192
330
76
100
AcDbEntity
  8
LAYER6
  6
Continuous
 62
     1
370
    13
100
AcDbLine
 10
55.53376831106701
 20
-73.71276483668558
 30
0.0
 11
147.933768311067
 21
-73.71276483668558
 31
0.0
  0
LINE
  5
193
330
76
100
AcDbEntity
  8
LAYER6
  6
Continuous
 62
     1
370
    13
100
AcDbLine
 10
55.53376831106701
 20
-77.71276483668558
 30
0.0
 11
147.933768311067
 21
-77.71276483668558
 31
0.0
  0
LINE
  5
194
330
76
100
AcDbEntity
  8
LAYER6
  6
Continuous
 62
     1
370
    13
100
AcDbLine
 10
55.53376831106701
 20
-81.71276483668558
 30
0.0
 11
147.933768311067
 21
-81.71276483668558
 31
0.0
  0
LINE
  5
195
330
76
100
AcDbEntity
  8
LAYER6
  6
Continuous
 62
     1
370
    13
100
AcDbLine
 10
55.53376831106701
 20
-85.71276483668558
 30
0.0
 11
147.933768311067
 21
-85.71276483668558
 31
0.0
  0
LINE
  5
196
330
76
100
AcDbEntity
  8
LAYER6
  6
Continuous
 62
     1
370
    13
100
AcDbLine
 10
55.53376831106701
 20
-89.71276483668558
 30
0.0
 11
147.933768311067
 21
-89.71276483668558
 31
0.0
  0
TEXT
  5
197
330
76
100
AcDbEntity
  8
LAYER6
  6
Continuous
 62
     1
370
    13
100
AcDbText
 10
82.3825115897965
 20
-65.36190326359566
 30
0.0
 40
1.92
  1
敷 地 面 積（ 直 角 座 標 法 ）
  7
ＭＳ ゴシック
 72
     1
 11
101.733768311067
 21
-65.71276483668558
 31
0.0
100
AcDbText
 73
     1
  0
TEXT
  5
198
330
76
100
AcDbEntity
  8
LAYER6
  6
Continuous
 62
     1
370
    13
100
AcDbText
 10
57.81259787215239
 20
-69.36190326359566
 30
0.0
 40
1.92
  1
番 号
  7
ＭＳ ゴシック
 72
     1
 11
60.93376831106698
 21
-69.71276483668558
 31
0.0
100
AcDbText
 73
     1
  0
TEXT
  5
199
330
76
100
AcDbEntity
  8
LAYER6
  6
Continuous
 62
     1
370
    13
100
AcDbText
 10
69.66719334545488
 20
-69.36190326359566
 30
0.0
 40
1.92
  1
X 座 標 (m)
  7
ＭＳ ゴシック
 72
     1
 11
76.53376831106698
 21
-69.71276483668558
 31
0.0
100
AcDbText
 73
     1
  0
TEXT
  5
19A
330
76
100
AcDbEntity
  8
LAYER6
  6
Continuous
 62
     1
370
    13
100
AcDbText
 10
90.06719334545491
 20
-69.36190326359566
 30
0.0
 40
1.92
  1
Y 座 標 (m)
  7
ＭＳ ゴシック
 72
     1
 11
96.93376831106701
 21
-69.71276483668558
 31
0.0
100
AcDbText
 73
     1
  0
TEXT
  5
19B
330
76
100
AcDbEntity
  8
LAYER6
  6
Continuous
 62
     1
370
    13
100
AcDbText
 10
109.2187251698891
 20
-69.36190326359566
 30
0.0
 40
1.92
  1
X(n+1)-X(n-1)
  7
ＭＳ ゴシック
 72
     1
 11
117.333768311067
 21
-69.71276483668558
 31
0.0
100
AcDbText
 73
     1
  0
TEXT
  5
19C
330
76
100
AcDbEntity
  8
LAYER6
  6
Continuous
 62
     1
370
    13
100
AcDbText
 10
129.618725169889
 20
-69.36190326359566
 30
0.0
 40
1.92
  1
倍 面 積 (㎡)
  7
ＭＳ ゴシック
 72
     1
 11
137.733768311067
 21
-69.71276483668558
 31
0.0
100
AcDbText
 73
     1
  0
TEXT
  5
19D
330
76
100
AcDbEntity
  8
LAYER6
  6
Continuous
 62
     1
370
    13
100
AcDbText
 10
57.81259787215239
 20
-89.36190326359566
 30
0.0
 40
1.92
  1
基 準
  7
ＭＳ ゴシック
 72
     1
 11
60.93376831106698
 21
-89.71276483668558
 31
0.0
100
AcDbText
 73
     1
  0
TEXT
  5
19E
330
76
100
AcDbEntity
  8
LAYER6
  6
Continuous
 62
     1
370
    13
100
AcDbText
 10
109.8429592576719
 20
-89.36190326359566
 30
0.0
 40
1.92
  1
倍 面 積  計
  7
ＭＳ ゴシック
 72
     1
 11
117.333768311067
 21
-89.71276483668558
 31
0.0
100
AcDbText
 73
     1
  0
TEXT
  5
19F
330
76
100
AcDbEntity
  8
LAYER6
  6
Continuous
 62
     1
370
    13
100
AcDbText
 10
61.14602290654031
 20
-93.36190326359566
 30
0.0
 40
1.92
  1
敷 地 面 積 (㎡)
  7
ＭＳ ゴシック
 72
     1
 11
71.133768311067
 21
-93.71276483668558
 31
0.0
100
AcDbText
 73
     1
  0
TEXT
  5
1A0
330
76
100
AcDbEntity
  8
LAYER6
  6
Continuous
 62
     1
370
    13
100
AcDbText
 10
64.13376831106697
 20
-73.36190326359566
 30
0.0
 40
1.92
  1
1
  7
ＭＳ ゴシック
 11
64.13376831106697
 21
-73.71276483668558
 31
0.0
100
AcDbText
 73
     1
  0
TEXT
  5
1A1
330
76
100
AcDbEntity
  8
LAYER6
  6
Continuous
 62
     1
370
    13
100
AcDbText
 10
76.99449108210614
 20
-73.36190326359566
 30
0.0
 40
1.92
  1
-10.746
  7
ＭＳ ゴシック
 72
     2
 11
85.733768311067
 21
-73.71276483668558
 31
0.0
100
AcDbText
 73
     1
  0
TEXT
  5
1A2
330
76
100
AcDbEntity
  8
LAYER6
  6
Continuous
 62
     1
370
    13
100
AcDbText
 10
98.64295925767195
 20
-73.36190326359566
 30
0.0
 40
1.92
  1
10.965
  7
ＭＳ ゴシック
 72
     2
 11
106.133768311067
 21
-73.71276483668558
 31
0.0
100
AcDbText
 73
     1
  0
TEXT
  5
1A3
330
76
100
AcDbEntity
  8
LAYER6
  6
Continuous
 62
     1
370
    13
100
AcDbText
 10
64.13376831106697
 20
-77.36190326359566
 30
0.0
 40
1.92
  1
2
  7
ＭＳ ゴシック
 11
64.13376831106697
 21
-77.71276483668558
 31
0.0
100
AcDbText
 73
     1
  0
TEXT
  5
1A4
330
76
100
AcDbEntity
  8
LAYER6
  6
Continuous
 62
     1
370
    13
100
AcDbText
 10
76.99449108210614
 20
-77.36190326359566
 30
0.0
 40
1.92
  1
-10.688
  7
ＭＳ ゴシック
 72
     2
 11
85.733768311067
 21
-77.71276483668558
 31
0.0
100
AcDbText
 73
     1
  0
TEXT
  5
1A5
330
76
100
AcDbEntity
  8
LAYER6
  6
Continuous
 62
     1
370
    13
100
AcDbText
 10
99.8914274332378
 20
-77.36190326359566
 30
0.0
 40
1.92
  1
0.072
  7
ＭＳ ゴシック
 72
     2
 11
106.133768311067
 21
-77.71276483668558
 31
0.0
100
AcDbText
 73
     1
  0
TEXT
  5
1A6
330
76
100
AcDbEntity
  8
LAYER6
  6
Continuous
 62
     1
370
    13
100
AcDbText
 10
64.13376831106697
 20
-81.36190326359566
 30
0.0
 40
1.92
  1
3
  7
ＭＳ ゴシック
 11
64.13376831106697
 21
-81.71276483668558
 31
0.0
100
AcDbText
 73
     1
  0
TEXT
  5
1A7
330
76
100
AcDbEntity
  8
LAYER6
  6
Continuous
 62
     1
370
    13
100
AcDbText
 10
79.49142743323782
 20
-81.36190326359566
 30
0.0
 40
1.92
  1
0.000
  7
ＭＳ ゴシック
 72
     2
 11
85.733768311067
 21
-81.71276483668558
 31
0.0
100
AcDbText
 73
     1
  0
TEXT
  5
1A8
330
76
100
AcDbEntity
  8
LAYER6
  6
Continuous
 62
     1
370
    13
100
AcDbText
 10
99.8914274332378
 20
-81.36190326359566
 30
0.0
 40
1.92
  1
0.000
  7
ＭＳ ゴシック
 72
     2
 11
106.133768311067
 21
-81.71276483668558
 31
0.0
100
AcDbText
 73
     1
  0
TEXT
  5
1A9
330
76
100
AcDbEntity
  8
LAYER6
  6
Continuous
 62
     1
370
    13
100
AcDbText
 10
64.13376831106697
 20
-85.36190326359566
 30
0.0
 40
1.92
  1
4
  7
ＭＳ ゴシック
 11
64.13376831106697
 21
-85.71276483668558
 31
0.0
100
AcDbText
 73
     1
  0
TEXT
  5
1AA
330
76
100
AcDbEntity
  8
LAYER6
  6
Continuous
 62
     1
370
    13
100
AcDbText
 10
78.24295925767197
 20
-85.36190326359566
 30
0.0
 40
1.92
  1
-0.059
  7
ＭＳ ゴシック
 72
     2
 11
85.733768311067
 21
-85.71276483668558
 31
0.0
100
AcDbText
 73
     1
  0
TEXT
  5
1AB
330
76
100
AcDbEntity
  8
LAYER6
  6
Continuous
 62
     1
370
    13
100
AcDbText
 10
98.64295925767195
 20
-85.36190326359566
 30
0.0
 40
1.92
  1
10.965
  7
ＭＳ ゴシック
 72
     2
 11
106.133768311067
 21
-85.71276483668558
 31
0.0
100
AcDbText
 73
     1
  0
TEXT
  5
1AC
330
76
100
AcDbEntity
  8
LAYER6
  6
Continuous
 62
     1
370
    13
100
AcDbText
 10
78.24295925767197
 20
-89.36190326359566
 30
0.0
 40
1.92
  1
45.950
  7
ＭＳ ゴシック
 72
     2
 11
85.733768311067
 21
-89.71276483668558
 31
0.0
100
AcDbText
 73
     1
  0
TEXT
  5
1AD
330
76
100
AcDbEntity
  8
LAYER6
  6
Continuous
 62
     1
370
    13
100
AcDbText
 10
99.8914274332378
 20
-89.36190326359566
 30
0.0
 40
1.92
  1
7.249
  7
ＭＳ ゴシック
 72
     2
 11
106.133768311067
 21
-89.71276483668558
 31
0.0
100
AcDbText
 73
     1
  0
TEXT
  5
1AE
330
76
100
AcDbEntity
  8
LAYER6
  6
Continuous
 62
     1
370
    13
100
AcDbText
 10
117.7944910821061
 20
-73.36190326359566
 30
0.0
 40
1.92
  1
-10.629
  7
ＭＳ ゴシック
 72
     2
 11
126.533768311067
 21
-73.71276483668558
 31
0.0
100
AcDbText
 73
     1
  0
TEXT
  5
1AF
330
76
100
AcDbEntity
  8
LAYER6
  6
Continuous
 62
     1
370
    13
100
AcDbText
 10
133.2006183798428
 20
-73.36190326359566
 30
0.0
 40
1.92
  1
-116.546985
  7
ＭＳ ゴシック
 72
     2
 11
146.933768311067
 21
-73.71276483668558
 31
0.0
100
AcDbText
 73
     1
  0
TEXT
  5
1B0
330
76
100
AcDbEntity
  8
LAYER6
  6
Continuous
 62
     1
370
    13
100
AcDbText
 10
119.042959257672
 20
-77.36190326359566
 30
0.0
 40
1.92
  1
10.746
  7
ＭＳ ゴシック
 72
     2
 11
126.533768311067
 21
-77.71276483668558
 31
0.0
100
AcDbText
 73
     1
  0
TEXT
  5
1B1
330
76
100
AcDbEntity
  8
LAYER6
  6
Continuous
 62
     1
370
    13
100
AcDbText
 10
136.9460229065403
 20
-77.36190326359566
 30
0.0
 40
1.92
  1
0.773712
  7
ＭＳ ゴシック
 72
     2
 11
146.933768311067
 21
-77.71276483668558
 31
0.0
100
AcDbText
 73
     1
  0
TEXT
  5
1B2
330
76
100
AcDbEntity
  8
LAYER6
  6
Continuous
 62
     1
370
    13
100
AcDbText
 10
119.042959257672
 20
-81.36190326359566
 30
0.0
 40
1.92
  1
10.629
  7
ＭＳ ゴシック
 72
     2
 11
126.533768311067
 21
-81.71276483668558
 31
0.0
100
AcDbText
 73
     1
  0
TEXT
  5
1B3
330
76
100
AcDbEntity
  8
LAYER6
  6
Continuous
 62
     1
370
    13
100
AcDbText
 10
136.9460229065403
 20
-81.36190326359566
 30
0.0
 40
1.92
  1
0.000000
  7
ＭＳ ゴシック
 72
     2
 11
146.933768311067
 21
-81.71276483668558
 31
0.0
100
AcDbText
 73
     1
  0
TEXT
  5
1B4
330
76
100
AcDbEntity
  8
LAYER6
  6
Continuous
 62
     1
370
    13
100
AcDbText
 10
117.7944910821061
 20
-85.36190326359566
 30
0.0
 40
1.92
  1
-10.746
  7
ＭＳ ゴシック
 72
     2
 11
126.533768311067
 21
-85.71276483668558
 31
0.0
100
AcDbText
 73
     1
  0
TEXT
  5
1B5
330
76
100
AcDbEntity
  8
LAYER6
  6
Continuous
 62
     1
370
    13
100
AcDbText
 10
133.2006183798428
 20
-85.36190326359566
 30
0.0
 40
1.92
  1
-117.829890
  7
ＭＳ ゴシック
 72
     2
 11
146.933768311067
 21
-85.71276483668558
 31
0.0
100
AcDbText
 73
     1
  0
TEXT
  5
1B6
330
76
100
AcDbEntity
  8
LAYER6
  6
Continuous
 62
     1
370
    13
100
AcDbText
 10
133.2006183798428
 20
-89.36190326359566
 30
0.0
 40
1.92
  1
-233.603163
  7
ＭＳ ゴシック
 72
     2
 11
146.933768311067
 21
-89.71276483668558
 31
0.0
100
AcDbText
 73
     1
  0
TEXT
  5
1B7
330
76
100
AcDbEntity
  8
LAYER6
  6
Continuous
 62
     1
370
    13
100
AcDbText
 10
134.4490865554086
 20
-93.36190326359566
 30
0.0
 40
1.92
  1
116.80    
  7
ＭＳ ゴシック
 72
     2
 11
146.933768311067
 21
-93.71276483668558
 31
0.0
100
AcDbText
 73
     1
  0
TEXT
  5
1B8
330
76
100
AcDbEntity
  8
LAYER6
  6
Continuous
 62
     1
370
    13
100
AcDbText
 10
132.333768311067
 20
-96.24198083668557
 30
0.0
 40
1.92
  1
丸め
  7
ＭＳ ゴシック
 11
132.333768311067
 21
-94.32198083668557
 31
0.0
100
AcDbText
 73
     3
  0
TEXT
  5
1B9
330
76
100
AcDbEntity
  8
LAYER6
  6
Continuous
 62
     1
370
    13
100
AcDbText
 10
138.333768311067
 20
-96.24198083668557
 30
0.0
 40
1.92
  1
切り捨て
  7
ＭＳ ゴシック
 11
138.333768311067
 21
-94.32198083668557
 31
0.0
100
AcDbText
 73
     3
  0
CIRCLE
  5
1BA
330
76
100
AcDbEntity
  8
LAYER6
  6
Continuous
 62
     3
370
    13
100
AcDbCircle
 10
-81.31945366607964
 20
69.11206260768148
 30
0.0
 40
0.4
  0
LINE
  5
1BB
330
76
100
AcDbEntity
  8
LAYER6
  6
Continuous
 62
     3
370
    13
100
AcDbLine
 10
-81.31945366607964
 20
69.11206260768148
 30
0.0
 11
-81.31945366607965
 21
-39.82692306769391
 31
0.0
  0
CIRCLE
  5
1BC
330
76
100
AcDbEntity
  8
LAYER6
  6
Continuous
 62
     3
370
    13
100
AcDbCircle
 10
-81.31945366607967
 20
-39.82692306769391
 30
0.0
 40
0.4
  0
LINE
  5
1BD
330
76
100
AcDbEntity
  8
LAYER6
  6
Continuous
 62
     3
370
    13
100
AcDbLine
 10
-81.31945366607967
 20
-39.82692306769391
 30
0.0
 11
25.56275133903242
 21
-41.1125564811105
 31
0.0
  0
CIRCLE
  5
1BE
330
76
100
AcDbEntity
  8
LAYER6
  6
Continuous
 62
     3
370
    13
100
AcDbCircle
 10
25.56275133903242
 20
-41.11255648111047
 30
0.0
 40
0.4
  0
LINE
  5
1BF
330
76
100
AcDbEntity
  8
LAYER6
  6
Continuous
 62
     3
370
    13
100
AcDbLine
 10
25.56275133903242
 20
-41.11255648111047
 30
0.0
 11
25.54411521894161
 21
68.54757598603643
 31
0.0
  0
CIRCLE
  5
1C0
330
76
100
AcDbEntity
  8
LAYER6
  6
Continuous
 62
     3
370
    13
100
AcDbCircle
 10
25.54411521894164
 20
68.54757598603643
 30
0.0
 40
0.4
  0
LINE
  5
1C1
330
76
100
AcDbEntity
  8
LAYER6
  6
Continuous
 62
     3
370
    13
100
AcDbLine
 10
25.54411521894164
 20
68.54757598603643
 30
0.0
 11
-81.31945366607962
 21
69.11206260768148
 31
0.0
  0
TEXT
  5
1C2
330
76
100
AcDbEntity
  8
LAYER6
  6
Continuous
 62
     2
370
    13
100
AcDbText
 10
-81.68493447138165
 20
10.74110672135056
 30
0.0
 40
2.0
  1
10.893
 50
90.0
  7
ＭＳ ゴシック
 72
     1
 11
-81.31945366607967
 21
14.6425697699938
 31
0.0
100
AcDbText
 73
     1
  0
TEXT
  5
1C3
330
76
100
AcDbEntity
  8
LAYER6
  6
Continuous
 62
     2
370
    13
100
AcDbText
 10
-78.92870166607963
 20
7.359838745859748
 30
0.0
 40
2.24
  1
隣地境界線
 50
90.0
  7
ＭＳ ゴシック
 72
     1
 11
-81.16870166607963
 21
14.6425697699938
 31
0.0
100
AcDbText
 73
     3
  0
TEXT
  5
1C4
330
76
100
AcDbEntity
  8
LAYER6
  6
Continuous
 62
     2
370
    13
100
AcDbText
 10
-31.80520619622902
 20
-42.55725998557261
 30
0.0
 40
2.0
  1
10.688
 50
359.3108505168872
  7
ＭＳ ゴシック
 72
     1
 11
-27.87997008353186
 21
-40.60433003815855
 31
0.0
100
AcDbText
 73
     3
  0
TEXT
  5
1C5
330
76
100
AcDbEntity
  8
LAYER6
  6
Continuous
 62
     2
370
    13
100
AcDbText
 10
-35.15563201875327
 20
-39.97283683301309
 30
0.0
 40
2.24
  1
隣地境界線
 50
359.3108505168872
  7
ＭＳ ゴシック
 72
     1
 11
-27.87835116352359
 21
-40.46973977440221
 31
0.0
100
AcDbText
 73
     1
  0
TEXT
  5
1C6
330
76
100
AcDbEntity
  8
LAYER6
  6
Continuous
 62
     2
370
    13
100
AcDbText
 10
27.68869627976015
 20
9.816409523366323
 30
0.0
 40
2.0
  1
10.966
 50
90.00973709399578
  7
ＭＳ ゴシック
 72
     1
 11
25.68803327704335
 21
13.71753262697236
 31
0.0
100
AcDbText
 73
     3
  0
TEXT
  5
1C7
330
76
100
AcDbEntity
  8
LAYER6
  6
Continuous
 62
     2
370
    13
100
AcDbText
 10
25.14533244194259
 20
6.434709268730287
 30
0.0
 40
2.24
  1
隣地境界線
 50
90.00973709399578
  7
ＭＳ ゴシック
 72
     1
 11
25.55343327898701
 21
13.71750975246299
 31
0.0
100
AcDbText
 73
     1
  0
TEXT
  5
1C8
330
76
100
AcDbEntity
  8
LAYER6
  6
Continuous
 62
     2
370
    13
100
AcDbText
 10
-31.7871472860582
 20
69.21590345755212
 30
0.0
 40
2.0
  1
10.686
 50
359.6973486798455
  7
ＭＳ ゴシック
 72
     1
 11
-27.88766922356898
 21
68.82981929685897
 31
0.0
100
AcDbText
 73
     1
  0
TEXT
  5
1C9
330
76
100
AcDbEntity
  8
LAYER6
  6
Continuous
 62
     2
370
    13
100
AcDbText
 10
-35.18292716526172
 20
66.47756976512174
 30
0.0
 40
2.24
  1
道路境界線
 50
359.6973486798454
  7
ＭＳ ゴシック
 72
     1
 11
-27.88846553143023
 21
68.67906940001724
 31
0.0
100
AcDbText
 73
     3
  0
LINE
  5
1CA
330
76
100
AcDbEntity
  8
LAYER6
  6
chain
 62
     6
370
    13
100
AcDbLine
 10
45.66532765819679
 20
91.44161036126968
 30
0.0
 11
-101.1976831822807
 21
92.21738648122277
 31
0.0
  0
LINE
  5
1CB
330
76
100
AcDbEntity
  8
LAYER6
  6
Continuous
 62
     1
370
    13
100
AcDbLine
 10
45.7868191197239
 20
114.441289485657
 30
0.0
 11
-101.0761917207536
 21
115.2170656056101
 31
0.0
  0
LINE
  5
1CC
330
76
100
AcDbEntity
  8
LAYER6
  6
Continuous
 62
     1
370
    13
100
AcDbLine
 10
45.54383619666967
 20
68.44193123688243
 30
0.0
 11
-101.3191746438078
 21
69.21770735683552
 31
0.0
  0
CIRCLE
  5
1CD
330
76
100
AcDbEntity
  8
LAYER6
  6
Continuous
 62
     1
370
    13
100
AcDbCircle
 10
35.54397570783524
 20
68.49475361145929
 30
0.0
 40
0.4
  0
CIRCLE
  5
1CE
330
76
100
AcDbEntity
  8
LAYER6
  6
Continuous
 62
     1
370
    13
100
AcDbCircle
 10
35.7869586308303
 20
114.4941118602342
 30
0.0
 40
0.4
  0
LINE
  5
1CF
330
76
100
AcDbEntity
  8
LAYER6
  6
Continuous
 62
     1
370
    13
100
AcDbLine
 10
35.54397570783524
 20
68.49475361145929
 30
0.0
 11
35.78695863083033
 21
114.4941118602342
 31
0.0
  0
TEXT
  5
1D0
330
76
100
AcDbEntity
  8
LAYER6
  6
Continuous
 62
     2
370
    13
100
AcDbText
 10
37.78286367741041
 20
88.23198342269801
 30
0.0
 40
2.0
  1
4.600
 50
89.69734867991933
  7
ＭＳ ゴシック
 72
     1
 11
35.80006529151289
 21
91.49372174668507
 31
0.0
100
AcDbText
 73
     3
  0
TEXT
  5
1D1
330
76
100
AcDbEntity
  8
LAYER6
  6
Continuous
 62
     2
370
    13
100
AcDbText
 10
41.02536867065874
 20
85.63985396617306
 30
0.0
 40
2.24
  1
道路幅員
 50
89.69734867991929
  7
ＭＳ ゴシック
 72
     1
 11
38.81617521283372
 21
91.47778971561647
 31
0.0
100
AcDbText
 73
     3
  0
ENDBLK
  5
78
330
76
100
AcDbEntity
  8
0
100
AcDbBlockEnd
  0
BLOCK
  5
1F6
330
1F5
100
AcDbEntity
  8
0
100
AcDbBlockBegin
  2
FcPack%d1
 70
     0
 10
0.0
 20
0.0
 30
0.0
  3
FcPack%d1
  1

  0
LINE
  5
1F8
330
1F5
100
AcDbEntity
  8
LAYER1
  6
Continuous
 62
     3
370
    13
100
AcDbLine
 10
-200.0
 20
138.5
 30
0.0
 11
-200.0
 21
-138.5
 31
0.0
  0
LINE
  5
1F9
330
1F5
100
AcDbEntity
  8
LAYER1
  6
Continuous
 62
     3
370
    13
100
AcDbLine
 10
-200.0
 20
-138.5
 30
0.0
 11
200.0
 21
-138.5
 31
0.0
  0
LINE
  5
1FA
330
1F5
100
AcDbEntity
  8
LAYER1
  6
Continuous
 62
     3
370
    13
100
AcDbLine
 10
200.0
 20
-138.5
 30
0.0
 11
200.0
 21
138.5
 31
0.0
  0
LINE
  5
1FB
330
1F5
100
AcDbEntity
  8
LAYER1
  6
Continuous
 62
     3
370
    13
100
AcDbLine
 10
200.0
 20
138.5
 30
0.0
 11
-200.0
 21
138.5
 31
0.0
  0
LINE
  5
1FC
330
1F5
100
AcDbEntity
  8
LAYER1
  6
Continuous
 62
     3
370
    13
100
AcDbLine
 10
-199.5
 20
138.0
 30
0.0
 11
-199.5
 21
-138.0
 31
0.0
  0
LINE
  5
1FD
330
1F5
100
AcDbEntity
  8
LAYER1
  6
Continuous
 62
     3
370
    13
100
AcDbLine
 10
-199.5
 20
-138.0
 30
0.0
 11
199.5
 21
-138.0
 31
0.0
  0
LINE
  5
1FE
330
1F5
100
AcDbEntity
  8
LAYER1
  6
Continuous
 62
     3
370
    13
100
AcDbLine
 10
199.5
 20
-138.0
 30
0.0
 11
199.5
 21
138.0
 31
0.0
  0
LINE
  5
1FF
330
1F5
100
AcDbEntity
  8
LAYER1
  6
Continuous
 62
     3
370
    13
100
AcDbLine
 10
199.5
 20
138.0
 30
0.0
 11
-199.5
 21
138.0
 31
0.0
  0
LINE
  5
200
330
1F5
100
AcDbEntity
  8
LAYER1
  6
Continuous
 62
     3
370
    13
100
AcDbLine
 10
199.0
 20
137.5
 30
0.0
 11
-199.0
 21
137.5
 31
0.0
  0
LINE
  5
201
330
1F5
100
AcDbEntity
  8
LAYER1
  6
Continuous
 62
     3
370
    13
100
AcDbLine
 10
-199.0
 20
137.5
 30
0.0
 11
-199.0
 21
-137.5
 31
0.0
  0
LINE
  5
202
330
1F5
100
AcDbEntity
  8
LAYER1
  6
Continuous
 62
     3
370
    13
100
AcDbLine
 10
-199.0
 20
-137.5
 30
0.0
 11
199.0
 21
-137.5
 31
0.0
  0
LINE
  5
203
330
1F5
100
AcDbEntity
  8
LAYER1
  6
Continuous
 62
     3
370
    13
100
AcDbLine
 10
199.0
 20
-137.5
 30
0.0
 11
199.0
 21
137.5
 31
0.0
  0
LINE
  5
204
330
1F5
100
AcDbEntity
  8
LAYER1
  6
Continuous
 62
     3
370
    13
100
AcDbLine
 10
-199.0
 20
-117.5
 30
0.0
 11
199.0
 21
-117.5
 31
0.0
  0
LINE
  5
205
330
1F5
100
AcDbEntity
  8
LAYER1
  6
Continuous
 62
     3
370
    13
100
AcDbLine
 10
-199.0
 20
-117.0
 30
0.0
 11
199.0
 21
-117.0
 31
0.0
  0
LINE
  5
206
330
1F5
100
AcDbEntity
  8
LAYER1
  6
Continuous
 62
     3
370
    13
100
AcDbLine
 10
179.0
 20
-137.5
 30
0.0
 11
179.0
 21
-117.5
 31
0.0
  0
LINE
  5
207
330
1F5
100
AcDbEntity
  8
LAYER1
  6
Continuous
 62
     3
370
    13
100
AcDbLine
 10
96.0
 20
-137.5
 30
0.0
 11
96.0
 21
-117.5
 31
0.0
  0
LINE
  5
208
330
1F5
100
AcDbEntity
  8
LAYER1
  6
Continuous
 62
     3
370
    13
100
AcDbLine
 10
71.0
 20
-137.5
 30
0.0
 11
71.0
 21
-117.5
 31
0.0
  0
LINE
  5
209
330
1F5
100
AcDbEntity
  8
LAYER1
  6
Continuous
 62
     3
370
    13
100
AcDbLine
 10
46.0
 20
-137.5
 30
0.0
 11
46.0
 21
-117.5
 31
0.0
  0
LINE
  5
20A
330
1F5
100
AcDbEntity
  8
LAYER1
  6
Continuous
 62
     3
370
    13
100
AcDbLine
 10
21.0
 20
-137.5
 30
0.0
 11
21.0
 21
-117.5
 31
0.0
  0
LINE
  5
20B
330
1F5
100
AcDbEntity
  8
LAYER1
  6
Continuous
 62
     3
370
    13
100
AcDbLine
 10
-89.0
 20
-137.5
 30
0.0
 11
-89.0
 21
-117.5
 31
0.0
  0
LINE
  5
20C
330
1F5
100
AcDbEntity
  8
LAYER1
  6
Continuous
 62
     3
370
    13
100
AcDbLine
 10
96.0
 20
-129.5
 30
0.0
 11
179.0
 21
-129.5
 31
0.0
  0
LINE
  5
20D
330
1F5
100
AcDbEntity
  8
LAYER1
  6
Continuous
 62
     3
370
    13
100
AcDbLine
 10
21.0
 20
-131.5
 30
0.0
 11
96.0
 21
-131.5
 31
0.0
  0
LINE
  5
20E
330
1F5
100
AcDbEntity
  8
LAYER1
  6
Continuous
 62
     3
370
    13
100
AcDbLine
 10
21.0
 20
-127.5
 30
0.0
 11
-199.0
 21
-127.5
 31
0.0
  0
LINE
  5
20F
330
1F5
100
AcDbEntity
  8
LAYER1
  6
dotted
 62
     3
370
    13
100
AcDbLine
 10
-199.0
 20
-132.5
 30
0.0
 11
-89.0
 21
-132.5
 31
0.0
  0
ENDBLK
  5
1F7
330
1F5
100
AcDbEntity
  8
0
100
AcDbBlockEnd
  0
ENDSEC
  0
SECTION
  2
ENTITIES
  0
INSERT
  5
1D2
330
1F
100
AcDbEntity
  8
LAYER6
  6
Continuous
 62
     2
370
    13
100
AcDbBlockReference
  2
FcPack%d0
 10
175.3102459535185
 20
165.7566260354448
 30
0.0
  0
TEXT
  5
1D3
330
1F
100
AcDbEntity
  8
LAYER5
  6
Continuous
 62
     2
370
    13
100
AcDbText
 10
390.0
 20
27.43857696636239
 30
0.0
 40
2.4
  1
図
  7
ＭＳ ゴシック
 11
390.0
 21
27.0
 31
0.0
100
AcDbText
 73
     1
  0
TEXT
  5
1D4
330
1F
100
AcDbEntity
  8
LAYER5
  6
Continuous
 62
     2
370
    13
100
AcDbText
 10
393.9
 20
27.43857696636239
 30
0.0
 40
2.4
  1
面
  7
ＭＳ ゴシック
 11
393.9
 21
27.0
 31
0.0
100
AcDbText
 73
     1
  0
TEXT
  5
1D5
330
1F
100
AcDbEntity
  8
LAYER5
  6
Continuous
 62
     2
370
    13
100
AcDbText
 10
397.8
 20
27.43857696636239
 30
0.0
 40
2.4
  1
№
  7
ＭＳ ゴシック
 11
397.8
 21
27.0
 31
0.0
100
AcDbText
 73
     1
  0
TEXT
  5
1D6
330
1F
100
AcDbEntity
  8
LAYER5
  6
Continuous
 62
     2
370
    13
100
AcDbText
 10
12.0
 20
17.43857696636239
 30
0.0
 40
2.4
  1
備
  7
ＭＳ ゴシック
 11
12.0
 21
17.0
 31
0.0
100
AcDbText
 73
     1
  0
TEXT
  5
1D7
330
1F
100
AcDbEntity
  8
LAYER5
  6
Continuous
 62
     2
370
    13
100
AcDbText
 10
15.8125
 20
17.43857696636239
 30
0.0
 40
2.4
  1
考
  7
ＭＳ ゴシック
 11
15.8125
 21
17.0
 31
0.0
100
AcDbText
 73
     1
  0
TEXT
  5
1D8
330
1F
100
AcDbEntity
  8
LAYER5
  6
Continuous
 62
     2
370
    13
100
AcDbText
 10
12.0
 20
27.43857696636239
 30
0.0
 40
2.4
  1
工
  7
ＭＳ ゴシック
 11
12.0
 21
27.0
 31
0.0
100
AcDbText
 73
     1
  0
TEXT
  5
1D9
330
1F
100
AcDbEntity
  8
LAYER5
  6
Continuous
 62
     2
370
    13
100
AcDbText
 10
15.859375
 20
27.43857696636239
 30
0.0
 40
2.4
  1
事
  7
ＭＳ ゴシック
 11
15.859375
 21
27.0
 31
0.0
100
AcDbText
 73
     1
  0
TEXT
  5
1DA
330
1F
100
AcDbEntity
  8
LAYER5
  6
Continuous
 62
     2
370
    13
100
AcDbText
 10
19.71875
 20
27.43857696636239
 30
0.0
 40
2.4
  1
名
  7
ＭＳ ゴシック
 11
19.71875
 21
27.0
 31
0.0
100
AcDbText
 73
     1
  0
TEXT
  5
1DB
330
1F
100
AcDbEntity
  8
LAYER1
  6
Continuous
 62
     2
370
    13
100
AcDbText
 10
169.6369999999977
 20
12.36548080530199
 30
0.0
 40
2.0
  1
T
  7
ＭＳ ゴシック
 11
169.6369999999977
 21
12.0
 31
0.0
100
AcDbText
 73
     1
  0
TEXT
  5
1DC
330
1F
100
AcDbEntity
  8
LAYER1
  6
Continuous
 62
     2
370
    13
100
AcDbText
 10
171.1869999999977
 20
12.36548080530199
 30
0.0
 40
2.0
  1
E
  7
ＭＳ ゴシック
 11
171.1869999999977
 21
12.0
 31
0.0
100
AcDbText
 73
     1
  0
TEXT
  5
1DD
330
1F
100
AcDbEntity
  8
LAYER1
  6
Continuous
 62
     2
370
    13
100
AcDbText
 10
172.7369999999977
 20
12.36548080530199
 30
0.0
 40
2.0
  1
L
  7
ＭＳ ゴシック
 11
172.7369999999977
 21
12.0
 31
0.0
100
AcDbText
 73
     1
  0
TEXT
  5
1DE
330
1F
100
AcDbEntity
  8
LAYER1
  6
Continuous
 62
     2
370
    13
100
AcDbText
 10
199.6499999999978
 20
12.36548080530199
 30
0.0
 40
2.0
  1
F
  7
ＭＳ ゴシック
 11
199.6499999999978
 21
12.0
 31
0.0
100
AcDbText
 73
     1
  0
TEXT
  5
1DF
330
1F
100
AcDbEntity
  8
LAYER1
  6
Continuous
 62
     2
370
    13
100
AcDbText
 10
201.1999999999978
 20
12.36548080530199
 30
0.0
 40
2.0
  1
A
  7
ＭＳ ゴシック
 11
201.1999999999978
 21
12.0
 31
0.0
100
AcDbText
 73
     1
  0
TEXT
  5
1E0
330
1F
100
AcDbEntity
  8
LAYER1
  6
Continuous
 62
     2
370
    13
100
AcDbText
 10
202.7499999999978
 20
12.36548080530199
 30
0.0
 40
2.0
  1
X
  7
ＭＳ ゴシック
 11
202.7499999999978
 21
12.0
 31
0.0
100
AcDbText
 73
     1
  0
TEXT
  5
1E1
330
1F
100
AcDbEntity
  8
LAYER5
  6
Continuous
 62
     2
370
    13
100
AcDbText
 10
282.0
 20
27.43857696636239
 30
0.0
 40
2.4
  1
担
  7
ＭＳ ゴシック
 11
282.0
 21
27.0
 31
0.0
100
AcDbText
 73
     1
  0
TEXT
  5
1E2
330
1F
100
AcDbEntity
  8
LAYER5
  6
Continuous
 62
     2
370
    13
100
AcDbText
 10
285.859375
 20
27.43857696636239
 30
0.0
 40
2.4
  1
当
  7
ＭＳ ゴシック
 11
285.859375
 21
27.0
 31
0.0
100
AcDbText
 73
     1
  0
TEXT
  5
1E3
330
1F
100
AcDbEntity
  8
LAYER5
  6
Continuous
 62
     2
370
    13
100
AcDbText
 10
289.71875
 20
27.43857696636239
 30
0.0
 40
2.4
  1
者
  7
ＭＳ ゴシック
 11
289.71875
 21
27.0
 31
0.0
100
AcDbText
 73
     1
  0
TEXT
  5
1E4
330
1F
100
AcDbEntity
  8
LAYER5
  6
Continuous
 62
     2
370
    13
100
AcDbText
 10
257.0
 20
27.43857696636239
 30
0.0
 40
2.4
  1
設
  7
ＭＳ ゴシック
 11
257.0
 21
27.0
 31
0.0
100
AcDbText
 73
     1
  0
TEXT
  5
1E5
330
1F
100
AcDbEntity
  8
LAYER5
  6
Continuous
 62
     2
370
    13
100
AcDbText
 10
260.859375
 20
27.43857696636239
 30
0.0
 40
2.4
  1
計
  7
ＭＳ ゴシック
 11
260.859375
 21
27.0
 31
0.0
100
AcDbText
 73
     1
  0
TEXT
  5
1E6
330
1F
100
AcDbEntity
  8
LAYER5
  6
Continuous
 62
     2
370
    13
100
AcDbText
 10
264.71875
 20
27.43857696636239
 30
0.0
 40
2.4
  1
者
  7
ＭＳ ゴシック
 11
264.71875
 21
27.0
 31
0.0
100
AcDbText
 73
     1
  0
TEXT
  5
1E7
330
1F
100
AcDbEntity
  8
LAYER5
  6
Continuous
 62
     2
370
    13
100
AcDbText
 10
232.0
 20
27.43857696636239
 30
0.0
 40
2.4
  1
管
  7
ＭＳ ゴシック
 11
232.0
 21
27.0
 31
0.0
100
AcDbText
 73
     1
  0
TEXT
  5
1E8
330
1F
100
AcDbEntity
  8
LAYER5
  6
Continuous
 62
     2
370
    13
100
AcDbText
 10
235.859375
 20
27.43857696636239
 30
0.0
 40
2.4
  1
理
  7
ＭＳ ゴシック
 11
235.859375
 21
27.0
 31
0.0
100
AcDbText
 73
     1
  0
TEXT
  5
1E9
330
1F
100
AcDbEntity
  8
LAYER5
  6
Continuous
 62
     2
370
    13
100
AcDbText
 10
239.71875
 20
27.43857696636239
 30
0.0
 40
2.4
  1
者
  7
ＭＳ ゴシック
 11
239.71875
 21
27.0
 31
0.0
100
AcDbText
 73
     1
  0
TEXT
  5
1EA
330
1F
100
AcDbEntity
  8
LAYER5
  6
Continuous
 62
     2
370
    13
100
AcDbText
 10
282.0
 20
14.29238464424159
 30
0.0
 40
1.6
  1
日
  7
ＭＳ ゴシック
 11
282.0
 21
14.0
 31
0.0
100
AcDbText
 73
     1
  0
TEXT
  5
1EB
330
1F
100
AcDbEntity
  8
LAYER5
  6
Continuous
 62
     2
370
    13
100
AcDbText
 10
284.8125
 20
14.29238464424159
 30
0.0
 40
1.6
  1
付
  7
ＭＳ ゴシック
 11
284.8125
 21
14.0
 31
0.0
100
AcDbText
 73
     1
  0
TEXT
  5
1EC
330
1F
100
AcDbEntity
  8
LAYER5
  6
Continuous
 62
     2
370
    13
100
AcDbText
 10
257.0
 20
14.29238464424159
 30
0.0
 40
1.6
  1
日
  7
ＭＳ ゴシック
 11
257.0
 21
14.0
 31
0.0
100
AcDbText
 73
     1
  0
TEXT
  5
1ED
330
1F
100
AcDbEntity
  8
LAYER5
  6
Continuous
 62
     2
370
    13
100
AcDbText
 10
259.8125
 20
14.29238464424159
 30
0.0
 40
1.6
  1
付
  7
ＭＳ ゴシック
 11
259.8125
 21
14.0
 31
0.0
100
AcDbText
 73
     1
  0
TEXT
  5
1EE
330
1F
100
AcDbEntity
  8
LAYER5
  6
Continuous
 62
     2
370
    13
100
AcDbText
 10
232.0
 20
14.29238464424159
 30
0.0
 40
1.6
  1
日
  7
ＭＳ ゴシック
 11
232.0
 21
14.0
 31
0.0
100
AcDbText
 73
     1
  0
TEXT
  5
1EF
330
1F
100
AcDbEntity
  8
LAYER5
  6
Continuous
 62
     2
370
    13
100
AcDbText
 10
234.8125
 20
14.29238464424159
 30
0.0
 40
1.6
  1
付
  7
ＭＳ ゴシック
 11
234.8125
 21
14.0
 31
0.0
100
AcDbText
 73
     1
  0
TEXT
  5
1F0
330
1F
100
AcDbEntity
  8
LAYER5
  6
Continuous
 62
     2
370
    13
100
AcDbText
 10
307.0
 20
27.43857696636239
 30
0.0
 40
2.4
  1
図
  7
ＭＳ ゴシック
 11
307.0
 21
27.0
 31
0.0
100
AcDbText
 73
     1
  0
TEXT
  5
1F1
330
1F
100
AcDbEntity
  8
LAYER5
  6
Continuous
 62
     2
370
    13
100
AcDbText
 10
310.859375
 20
27.43857696636239
 30
0.0
 40
2.4
  1
面
  7
ＭＳ ゴシック
 11
310.859375
 21
27.0
 31
0.0
100
AcDbText
 73
     1
  0
TEXT
  5
1F2
330
1F
100
AcDbEntity
  8
LAYER5
  6
Continuous
 62
     2
370
    13
100
AcDbText
 10
314.71875
 20
27.43857696636239
 30
0.0
 40
2.4
  1
名
  7
ＭＳ ゴシック
 11
314.71875
 21
27.0
 31
0.0
100
AcDbText
 73
     1
  0
TEXT
  5
1F3
330
1F
100
AcDbEntity
  8
LAYER5
  6
Continuous
 62
     2
370
    13
100
AcDbText
 10
351.1875
 20
13.93857696636239
 30
0.0
 40
2.4
  1
縮
  7
ＭＳ ゴシック
 11
351.1875
 21
13.5
 31
0.0
100
AcDbText
 73
     1
  0
TEXT
  5
1F4
330
1F
100
AcDbEntity
  8
LAYER5
  6
Continuous
 62
     2
370
    13
100
AcDbText
 10
355.0
 20
13.93857696636239
 30
0.0
 40
2.4
  1
尺
  7
ＭＳ ゴシック
 11
355.0
 21
13.5
 31
0.0
100
AcDbText
 73
     1
  0
INSERT
  5
210
330
1F
100
AcDbEntity
  8
LAYER1
  6
dotted
 62
     3
370
    13
100
AcDbBlockReference
  2
FcPack%d1
 10
210.0
 20
148.5
 30
0.0
  0
TEXT
  5
211
330
1F
100
AcDbEntity
  8
LAYER7
  6
Continuous
 62
     1
370
    13
100
AcDbText
 10
12.75
 20
24.23096161060398
 30
0.0
 40
4.0
  1
春
  7
ＭＳ ゴシック
 11
12.75
 21
23.5
 31
0.0
100
AcDbText
 73
     1
  0
TEXT
  5
212
330
1F
100
AcDbEntity
  8
LAYER7
  6
Continuous
 62
     1
370
    13
100
AcDbText
 10
20.75
 20
24.23096161060398
 30
0.0
 40
4.0
  1
日
  7
ＭＳ ゴシック
 11
20.75
 21
23.5
 31
0.0
100
AcDbText
 73
     1
  0
TEXT
  5
213
330
1F
100
AcDbEntity
  8
LAYER7
  6
Continuous
 62
     1
370
    13
100
AcDbText
 10
28.75
 20
24.23096161060398
 30
0.0
 40
4.0
  1
市
  7
ＭＳ ゴシック
 11
28.75
 21
23.5
 31
0.0
100
AcDbText
 73
     1
  0
TEXT
  5
214
330
1F
100
AcDbEntity
  8
LAYER7
  6
Continuous
 62
     1
370
    13
100
AcDbText
 10
36.75
 20
24.23096161060398
 30
0.0
 40
4.0
  1
光
  7
ＭＳ ゴシック
 11
36.75
 21
23.5
 31
0.0
100
AcDbText
 73
     1
  0
TEXT
  5
215
330
1F
100
AcDbEntity
  8
LAYER7
  6
Continuous
 62
     1
370
    13
100
AcDbText
 10
44.75
 20
24.23096161060398
 30
0.0
 40
4.0
  1
町
  7
ＭＳ ゴシック
 11
44.75
 21
23.5
 31
0.0
100
AcDbText
 73
     1
  0
TEXT
  5
216
330
1F
100
AcDbEntity
  8
LAYER7
  6
Continuous
 62
     1
370
    13
100
AcDbText
 10
52.75
 20
24.23096161060398
 30
0.0
 40
4.0
  1
2
  7
ＭＳ ゴシック
 11
52.75
 21
23.5
 31
0.0
100
AcDbText
 73
     1
  0
TEXT
  5
217
330
1F
100
AcDbEntity
  8
LAYER7
  6
Continuous
 62
     1
370
    13
100
AcDbText
 10
58.25
 20
24.23096161060398
 30
0.0
 40
4.0
  1
丁
  7
ＭＳ ゴシック
 11
58.25
 21
23.5
 31
0.0
100
AcDbText
 73
     1
  0
TEXT
  5
218
330
1F
100
AcDbEntity
  8
LAYER7
  6
Continuous
 62
     1
370
    13
100
AcDbText
 10
66.25
 20
24.23096161060398
 30
0.0
 40
4.0
  1
目
  7
ＭＳ ゴシック
 11
66.25
 21
23.5
 31
0.0
100
AcDbText
 73
     1
  0
TEXT
  5
219
330
1F
100
AcDbEntity
  8
LAYER7
  6
Continuous
 62
     1
370
    13
100
AcDbText
 10
74.25
 20
24.23096161060398
 30
0.0
 40
4.0
  1
様
  7
ＭＳ ゴシック
 11
74.25
 21
23.5
 31
0.0
100
AcDbText
 73
     1
  0
TEXT
  5
21A
330
1F
100
AcDbEntity
  8
LAYER7
  6
Continuous
 62
     1
370
    13
100
AcDbText
 10
82.25
 20
24.23096161060398
 30
0.0
 40
4.0
  1
邸
  7
ＭＳ ゴシック
 11
82.25
 21
23.5
 31
0.0
100
AcDbText
 73
     1
  0
TEXT
  5
21B
330
1F
100
AcDbEntity
  8
LAYER7
  6
Continuous
 62
     1
370
    13
100
AcDbText
 10
90.25
 20
24.23096161060398
 30
0.0
 40
4.0
  1
新
  7
ＭＳ ゴシック
 11
90.25
 21
23.5
 31
0.0
100
AcDbText
 73
     1
  0
TEXT
  5
21C
330
1F
100
AcDbEntity
  8
LAYER7
  6
Continuous
 62
     1
370
    13
100
AcDbText
 10
98.25
 20
24.23096161060398
 30
0.0
 40
4.0
  1
築
  7
ＭＳ ゴシック
 11
98.25
 21
23.5
 31
0.0
100
AcDbText
 73
     1
  0
TEXT
  5
21D
330
1F
100
AcDbEntity
  8
LAYER7
  6
Continuous
 62
     1
370
    13
100
AcDbText
 10
106.25
 20
24.23096161060398
 30
0.0
 40
4.0
  1
工
  7
ＭＳ ゴシック
 11
106.25
 21
23.5
 31
0.0
100
AcDbText
 73
     1
  0
TEXT
  5
21E
330
1F
100
AcDbEntity
  8
LAYER7
  6
Continuous
 62
     1
370
    13
100
AcDbText
 10
114.25
 20
24.23096161060398
 30
0.0
 40
4.0
  1
事
  7
ＭＳ ゴシック
 11
114.25
 21
23.5
 31
0.0
100
AcDbText
 73
     1
  0
TEXT
  5
21F
330
1F
100
AcDbEntity
  8
LAYER7
  6
Continuous
 62
     1
370
    13
100
AcDbText
 10
123.0
 20
14.70034568
 30
0.0
 40
2.9384
  1
福岡市早良区原7丁目22-11
  7
ＭＳ ゴシック
 11
123.0
 21
16.16954568
 31
0.0
100
AcDbText
 73
     2
  0
TEXT
  5
220
330
1F
100
AcDbEntity
  8
LAYER7
  6
Continuous
 62
     1
370
    13
100
AcDbText
 10
148.0
 20
24.2308
 30
0.0
 40
4.0
  1
株式会社　M-style
  7
ＭＳ ゴシック
 11
148.0
 21
26.2308
 31
0.0
100
AcDbText
 73
     2
  0
TEXT
  5
221
330
1F
100
AcDbEntity
  8
LAYER7
  6
Continuous
 62
     1
370
    13
100
AcDbText
 10
397.75
 20
19.23096161060398
 30
0.0
 40
4.0
  1
3
  7
ＭＳ ゴシック
 11
397.75
 21
18.5
 31
0.0
100
AcDbText
 73
     1
  0
TEXT
  5
222
330
1F
100
AcDbEntity
  8
LAYER7
  6
Continuous
 62
     1
370
    13
100
AcDbText
 10
341.167
 20
23.58476928848318
 30
0.0
 40
3.2
  1
配
  7
ＭＳ ゴシック
 11
341.167
 21
23.0
 31
0.0
100
AcDbText
 73
     1
  0
TEXT
  5
223
330
1F
100
AcDbEntity
  8
LAYER7
  6
Continuous
 62
     1
370
    13
100
AcDbText
 10
345.5
 20
23.58476928848318
 30
0.0
 40
3.2
  1
置
  7
ＭＳ ゴシック
 11
345.5
 21
23.0
 31
0.0
100
AcDbText
 73
     1
  0
TEXT
  5
224
330
1F
100
AcDbEntity
  8
LAYER7
  6
Continuous
 62
     1
370
    13
100
AcDbText
 10
349.833
 20
23.58476928848318
 30
0.0
 40
3.2
  1
図
  7
ＭＳ ゴシック
 11
349.833
 21
23.0
 31
0.0
100
AcDbText
 73
     1
  0
TEXT
  5
225
330
1F
100
AcDbEntity
  8
LAYER7
  6
Continuous
 62
     1
370
    13
100
AcDbText
 10
370.624
 20
13.93857696636239
 30
0.0
 40
2.4
  1
1
  7
ＭＳ ゴシック
 11
370.624
 21
13.5
 31
0.0
100
AcDbText
 73
     1
  0
TEXT
  5
226
330
1F
100
AcDbEntity
  8
LAYER7
  6
Continuous
 62
     1
370
    13
100
AcDbText
 10
371.937
 20
13.93857696636239
 30
0.0
 40
2.4
  1
/
  7
ＭＳ ゴシック
 11
371.937
 21
13.5
 31
0.0
100
AcDbText
 73
     1
  0
TEXT
  5
227
330
1F
100
AcDbEntity
  8
LAYER7
  6
Continuous
 62
     1
370
    13
100
AcDbText
 10
373.25
 20
13.93857696636239
 30
0.0
 40
2.4
  1
1
  7
ＭＳ ゴシック
 11
373.25
 21
13.5
 31
0.0
100
AcDbText
 73
     1
  0
TEXT
  5
228
330
1F
100
AcDbEntity
  8
LAYER7
  6
Continuous
 62
     1
370
    13
100
AcDbText
 10
374.563
 20
13.93857696636239
 30
0.0
 40
2.4
  1
0
  7
ＭＳ ゴシック
 11
374.563
 21
13.5
 31
0.0
100
AcDbText
 73
     1
  0
TEXT
  5
229
330
1F
100
AcDbEntity
  8
LAYER7
  6
Continuous
 62
     1
370
    13
100
AcDbText
 10
375.876
 20
13.93857696636239
 30
0.0
 40
2.4
  1
0
  7
ＭＳ ゴシック
 11
375.876
 21
13.5
 31
0.0
100
AcDbText
 73
     1
  0
ENDSEC
  0
SECTION
  2
OBJECTS
  0
DICTIONARY
  5
C
330
0
100
AcDbDictionary
281
     1
  3
ACAD_DETAILVIEWSTYLE
350
231
  3
ACAD_GROUP
350
D
  3
ACAD_LAYOUT
350
1A
  3
ACAD_MATERIAL
350
43
  3
ACAD_MLEADERSTYLE
350
6B
  3
ACAD_MLINESTYLE
350
17
  3
ACAD_PLOTSETTINGS
350
19
  3
ACAD_PLOTSTYLENAME
350
E
  3
ACAD_SCALELIST
350
47
  3
ACAD_SECTIONVIEWSTYLE
350
232
  3
ACAD_TABLESTYLE
350
69
  3
ACAD_VISUALSTYLE
350
2A
  3
ACDB_RECOMPOSE_DATA
350
22E
  3
AcDbVariableDictionary
350
22A
  0
SUN
  5
6D
330
29
100
AcDbSun
 90
        1
290
     0
 63
     7
421
 16777215
 40
1.0
291
     1
 91
  2455826
 92
 54000000
292
     0
 70
     2
 71
   256
280
     1
  0
DICTIONARY
  5
231
102
{ACAD_REACTORS
330
C
102
}
330
C
100
AcDbDictionary
281
     1
  0
DICTIONARY
  5
D
102
{ACAD_REACTORS
330
C
102
}
330
C
100
AcDbDictionary
281
     1
  0
DICTIONARY
  5
1A
102
{ACAD_REACTORS
330
C
102
}
330
C
100
AcDbDictionary
281
     1
  3
Layout1
350
1E
  3
Layout2
350
26
  3
Model
350
22
  0
DICTIONARY
  5
43
102
{ACAD_REACTORS
330
C
102
}
330
C
100
AcDbDictionary
281
     1
  3
ByBlock
350
45
  3
ByLayer
350
44
  3
Global
350
46
  0
DICTIONARY
  5
6B
102
{ACAD_REACTORS
330
C
102
}
330
C
100
AcDbDictionary
281
     1
  3
Standard
350
6C
  0
DICTIONARY
  5
17
102
{ACAD_REACTORS
330
C
102
}
330
C
100
AcDbDictionary
281
     1
  3
Standard
350
18
  0
DICTIONARY
  5
19
102
{ACAD_REACTORS
330
C
102
}
330
C
100
AcDbDictionary
281
     1
  0
ACDBDICTIONARYWDFLT
  5
E
102
{ACAD_REACTORS
330
C
102
}
330
C
100
AcDbDictionary
281
     1
  3
Normal
350
F
100
AcDbDictionaryWithDefault
340
F
  0
DICTIONARY
  5
47
102
{ACAD_REACTORS
330
C
102
}
330
C
100
AcDbDictionary
281
     1
  3
A0
350
48
  3
A1
350
49
  3
A2
350
4A
  3
A3
350
4B
  3
A4
350
4C
  3
A5
350
4D
  3
A6
350
4E
  3
A7
350
4F
  3
A8
350
50
  3
A9
350
51
  3
B0
350
52
  3
B1
350
53
  3
B2
350
54
  3
B3
350
55
  3
B4
350
56
  3
B5
350
57
  3
B6
350
58
  3
B7
350
59
  3
B8
350
5A
  3
B9
350
5B
  3
C0
350
5C
  3
C1
350
5D
  3
C2
350
5E
  3
C3
350
5F
  3
C4
350
60
  3
C5
350
61
  3
C6
350
62
  3
C7
350
63
  3
C8
350
64
  3
C9
350
65
  3
D0
350
66
  3
D1
350
67
  3
D2
350
68
  0
DICTIONARY
  5
232
102
{ACAD_REACTORS
330
C
102
}
330
C
100
AcDbDictionary
281
     1
  0
DICTIONARY
  5
69
102
{ACAD_REACTORS
330
C
102
}
330
C
100
AcDbDictionary
281
     1
  3
Standard
350
6A
  0
DICTIONARY
  5
2A
102
{ACAD_REACTORS
330
C
102
}
330
C
100
AcDbDictionary
281
     1
  3
2dWireframe
350
2F
  3
Basic
350
32
  3
Brighten
350
36
  3
ColorChange
350
3A
  3
Conceptual
350
34
  3
Dim
350
35
  3
EdgeColorOff
350
3D
  3
Facepattern
350
39
  3
Flat
350
2B
  3
FlatWithEdges
350
2C
  3
Gouraud
350
2D
  3
GouraudWithEdges
350
2E
  3
Hidden
350
31
  3
JitterOff
350
3B
  3
Linepattern
350
38
  3
OverhangOff
350
3C
  3
Realistic
350
33
  3
Shaded
350
42
  3
Shaded with edges
350
41
  3
Shades of Gray
350
3E
  3
Sketchy
350
3F
  3
Thicken
350
37
  3
Wireframe
350
30
  3
X-Ray
350
40
  0
XRECORD
  5
22E
102
{ACAD_REACTORS
330
C
102
}
330
C
100
AcDbXrecord
280
     1
 90
        1
330
6A
  0
DICTIONARY
  5
22A
102
{ACAD_REACTORS
330
C
102
}
330
C
100
AcDbDictionary
281
     1
  3
CANNOSCALE
350
22B
  3
CENTEREXE
350
233
  3
CENTERLTYPEFILE
350
234
  3
CMLEADERSTYLE
350
230
  3
CTABLESTYLE
350
22F
  0
LAYOUT
  5
1E
102
{ACAD_REACTORS
330
1A
102
}
330
1A
100
AcDbPlotSettings
  1

  2
none_device
  4

  6

 40
0.0
 41
0.0
 42
0.0
 43
0.0
 44
0.0
 45
0.0
 46
0.0
 47
0.0
 48
0.0
 49
0.0
140
0.0
141
0.0
142
1.0
143
1.0
 70
   688
 72
     1
 73
     0
 74
     5
  7

 75
    16
 76
     0
 77
     2
 78
   300
147
1.0
148
0.0
149
0.0
100
AcDbLayout
  1
Layout1
 70
     1
 71
     1
 10
0.0
 20
0.0
 11
420.0
 21
297.0
 12
0.0
 22
0.0
 32
0.0
 14
1.000000000000000E+20
 24
1.000000000000000E+20
 34
1.000000000000000E+20
 15
-1.000000000000000E+20
 25
-1.000000000000000E+20
 35
-1.000000000000000E+20
146
0.0
 13
0.0
 23
0.0
 33
0.0
 16
1.0
 26
0.0
 36
0.0
 17
0.0
 27
1.0
 37
0.0
 76
     0
330
1B
  0
LAYOUT
  5
26
102
{ACAD_REACTORS
330
1A
102
}
330
1A
100
AcDbPlotSettings
  1

  2
none_device
  4

  6

 40
0.0
 41
0.0
 42
0.0
 43
0.0
 44
0.0
 45
0.0
 46
0.0
 47
0.0
 48
0.0
 49
0.0
140
0.0
141
0.0
142
1.0
143
1.0
 70
   688
 72
     1
 73
     0
 74
     5
  7

 75
    16
 76
     0
 77
     2
 78
   300
147
1.0
148
0.0
149
0.0
100
AcDbLayout
  1
Layout2
 70
     1
 71
     2
 10
0.0
 20
0.0
 11
0.0
 21
0.0
 12
0.0
 22
0.0
 32
0.0
 14
0.0
 24
0.0
 34
0.0
 15
0.0
 25
0.0
 35
0.0
146
0.0
 13
0.0
 23
0.0
 33
0.0
 16
1.0
 26
0.0
 36
0.0
 17
0.0
 27
1.0
 37
0.0
 76
     0
330
23
  0
LAYOUT
  5
22
102
{ACAD_REACTORS
330
1A
102
}
330
1A
100
AcDbPlotSettings
  1

  2
none_device
  4
Letter_(8.50_x_11.00_Inches)
  6

 40
6.35
 41
6.35
 42
6.35000508
 43
6.35000508
 44
215.9
 45
279.4
 46
0.0
 47
0.0
 48
0.0
 49
0.0
140
0.0
141
0.0
142
1.0
143
1.0
 70
  1712
 72
     1
 73
     0
 74
     0
  7

 75
     0
 76
     0
 77
     2
 78
   300
147
1.0
148
0.0
149
0.0
100
AcDbLayout
  1
Model
 70
     1
 71
     0
 10
10.0
 20
10.0
 11
410.0
 21
287.0
 12
0.0
 22
0.0
 32
0.0
 14
10.0
 24
10.0
 34
0.0
 15
410.0
 25
287.0
 35
0.0
146
0.0
 13
0.0
 23
0.0
 33
0.0
 16
1.0
 26
0.0
 36
0.0
 17
0.0
 27
1.0
 37
0.0
 76
     0
330
1F
331
29
  0
MATERIAL
  5
45
102
{ACAD_REACTORS
330
43
102
}
330
43
100
AcDbMaterial
  1
ByBlock
 72
     1
 94
      127
  0
MATERIAL
  5
44
102
{ACAD_REACTORS
330
43
102
}
330
43
100
AcDbMaterial
  1
ByLayer
 72
     1
 94
      127
  0
MATERIAL
  5
46
102
{ACAD_REACTORS
330
43
102
}
330
43
100
AcDbMaterial
  1
Global
 72
     1
 94
      127
  0
MLEADERSTYLE
  5
6C
102
{ACAD_REACTORS
330
6B
102
}
330
6B
100
AcDbMLeaderStyle
179
     2
170
     2
171
     1
172
     0
 90
        2
 40
0.0
 41
0.0
173
     1
 91
-1056964608
340
14
 92
       -2
290
     1
 42
2.0
291
     1
 43
8.0
  3
Standard
341
0
 44
4.0
300

342
11
174
     1
178
     6
175
     1
176
     0
 93
-1056964608
 45
4.0
292
     0
297
     0
 46
4.0
343
0
 94
-1056964608
 47
1.0
 49
1.0
140
1.0
293
     1
141
0.0
294
     1
177
     0
142
1.0
295
     0
296
     0
143
3.75
271
     0
272
     9
273
     9
298
     0
  0
MLINESTYLE
  5
18
102
{ACAD_REACTORS
330
17
102
}
330
17
100
AcDbMlineStyle
  2
Standard
 70
     0
  3

 62
   256
 51
90.0
 52
90.0
 71
     2
 49
0.5
 62
   256
  6
BYLAYER
 49
-0.5
 62
   256
  6
BYLAYER
  0
ACDBPLACEHOLDER
  5
F
102
{ACAD_REACTORS
330
E
102
}
330
E
  0
SCALE
  5
48
102
{ACAD_REACTORS
330
47
102
}
330
47
100
AcDbScale
 70
     0
300
1:1
140
1.0
141
1.0
290
     1
  0
SCALE
  5
49
102
{ACAD_REACTORS
330
47
102
}
330
47
100
AcDbScale
 70
     0
300
1:2
140
1.0
141
2.0
290
     0
  0
SCALE
  5
4A
102
{ACAD_REACTORS
330
47
102
}
330
47
100
AcDbScale
 70
     0
300
1:4
140
1.0
141
4.0
290
     0
  0
SCALE
  5
4B
102
{ACAD_REACTORS
330
47
102
}
330
47
100
AcDbScale
 70
     0
300
1:5
140
1.0
141
5.0
290
     0
  0
SCALE
  5
4C
102
{ACAD_REACTORS
330
47
102
}
330
47
100
AcDbScale
 70
     0
300
1:8
140
1.0
141
8.0
290
     0
  0
SCALE
  5
4D
102
{ACAD_REACTORS
330
47
102
}
330
47
100
AcDbScale
 70
     0
300
1:10
140
1.0
141
10.0
290
     0
  0
SCALE
  5
4E
102
{ACAD_REACTORS
330
47
102
}
330
47
100
AcDbScale
 70
     0
300
1:16
140
1.0
141
16.0
290
     0
  0
SCALE
  5
4F
102
{ACAD_REACTORS
330
47
102
}
330
47
100
AcDbScale
 70
     0
300
1:20
140
1.0
141
20.0
290
     0
  0
SCALE
  5
50
102
{ACAD_REACTORS
330
47
102
}
330
47
100
AcDbScale
 70
     0
300
1:30
140
1.0
141
30.0
290
     0
  0
SCALE
  5
51
102
{ACAD_REACTORS
330
47
102
}
330
47
100
AcDbScale
 70
     0
300
1:40
140
1.0
141
40.0
290
     0
  0
SCALE
  5
52
102
{ACAD_REACTORS
330
47
102
}
330
47
100
AcDbScale
 70
     0
300
1:50
140
1.0
141
50.0
290
     0
  0
SCALE
  5
53
102
{ACAD_REACTORS
330
47
102
}
330
47
100
AcDbScale
 70
     0
300
1:100
140
1.0
141
100.0
290
     0
  0
SCALE
  5
54
102
{ACAD_REACTORS
330
47
102
}
330
47
100
AcDbScale
 70
     0
300
2:1
140
2.0
141
1.0
290
     0
  0
SCALE
  5
55
102
{ACAD_REACTORS
330
47
102
}
330
47
100
AcDbScale
 70
     0
300
4:1
140
4.0
141
1.0
290
     0
  0
SCALE
  5
56
102
{ACAD_REACTORS
330
47
102
}
330
47
100
AcDbScale
 70
     0
300
8:1
140
8.0
141
1.0
290
     0
  0
SCALE
  5
57
102
{ACAD_REACTORS
330
47
102
}
330
47
100
AcDbScale
 70
     0
300
10:1
140
10.0
141
1.0
290
     0
  0
SCALE
  5
58
102
{ACAD_REACTORS
330
47
102
}
330
47
100
AcDbScale
 70
     0
300
100:1
140
100.0
141
1.0
290
     0
  0
SCALE
  5
59
102
{ACAD_REACTORS
330
47
102
}
330
47
100
AcDbScale
 70
     0
300
1/128" = 1'-0"
140
0.0078125
141
12.0
290
     0
  0
SCALE
  5
5A
102
{ACAD_REACTORS
330
47
102
}
330
47
100
AcDbScale
 70
     0
300
1/64" = 1'-0"
140
0.015625
141
12.0
290
     0
  0
SCALE
  5
5B
102
{ACAD_REACTORS
330
47
102
}
330
47
100
AcDbScale
 70
     0
300
1/32" = 1'-0"
140
0.03125
141
12.0
290
     0
  0
SCALE
  5
5C
102
{ACAD_REACTORS
330
47
102
}
330
47
100
AcDbScale
 70
     0
300
1/16" = 1'-0"
140
0.0625
141
12.0
290
     0
  0
SCALE
  5
5D
102
{ACAD_REACTORS
330
47
102
}
330
47
100
AcDbScale
 70
     0
300
3/32" = 1'-0"
140
0.09375
141
12.0
290
     0
  0
SCALE
  5
5E
102
{ACAD_REACTORS
330
47
102
}
330
47
100
AcDbScale
 70
     0
300
1/8" = 1'-0"
140
0.125
141
12.0
290
     0
  0
SCALE
  5
5F
102
{ACAD_REACTORS
330
47
102
}
330
47
100
AcDbScale
 70
     0
300
3/16" = 1'-0"
140
0.1875
141
12.0
290
     0
  0
SCALE
  5
60
102
{ACAD_REACTORS
330
47
102
}
330
47
100
AcDbScale
 70
     0
300
1/4" = 1'-0"
140
0.25
141
12.0
290
     0
  0
SCALE
  5
61
102
{ACAD_REACTORS
330
47
102
}
330
47
100
AcDbScale
 70
     0
300
3/8" = 1'-0"
140
0.375
141
12.0
290
     0
  0
SCALE
  5
62
102
{ACAD_REACTORS
330
47
102
}
330
47
100
AcDbScale
 70
     0
300
1/2" = 1'-0"
140
0.5
141
12.0
290
     0
  0
SCALE
  5
63
102
{ACAD_REACTORS
330
47
102
}
330
47
100
AcDbScale
 70
     0
300
3/4" = 1'-0"
140
0.75
141
12.0
290
     0
  0
SCALE
  5
64
102
{ACAD_REACTORS
330
47
102
}
330
47
100
AcDbScale
 70
     0
300
1" = 1'-0"
140
1.0
141
12.0
290
     0
  0
SCALE
  5
65
102
{ACAD_REACTORS
330
47
102
}
330
47
100
AcDbScale
 70
     0
300
1-1/2" = 1'-0"
140
1.5
141
12.0
290
     0
  0
SCALE
  5
66
102
{ACAD_REACTORS
330
47
102
}
330
47
100
AcDbScale
 70
     0
300
3" = 1'-0"
140
3.0
141
12.0
290
     0
  0
SCALE
  5
67
102
{ACAD_REACTORS
330
47
102
}
330
47
100
AcDbScale
 70
     0
300
6" = 1'-0"
140
6.0
141
12.0
290
     0
  0
SCALE
  5
68
102
{ACAD_REACTORS
330
47
102
}
330
47
100
AcDbScale
 70
     0
300
1'-0" = 1'-0"
140
12.0
141
12.0
290
     0
  0
TABLESTYLE
  5
6A
102
{ACAD_REACTORS
330
69
102
}
102
{ACAD_XDICTIONARY
360
22C
102
}
330
69
100
AcDbTableStyle
  3
Standard
 70
     0
 71
     0
 40
0.06
 41
0.06
280
     0
281
     0
  7
Standard
140
4.5
170
     2
 62
     0
 63
   257
283
     0
 90
        4
 91
        0
  1

274
    -2
284
     1
 64
     0
275
    -2
285
     1
 65
     0
276
    -2
286
     1
 66
     0
277
    -2
287
     1
 67
     0
278
    -2
288
     1
 68
     0
279
    -2
289
     1
 69
     0
  7
Standard
140
6.0
170
     5
 62
     0
 63
   257
283
     0
 90
        4
 91
        0
  1

274
    -2
284
     1
 64
     0
275
    -2
285
     1
 65
     0
276
    -2
286
     1
 66
     0
277
    -2
287
     1
 67
     0
278
    -2
288
     1
 68
     0
279
    -2
289
     1
 69
     0
  7
Standard
140
4.5
170
     5
 62
     0
 63
   257
283
     0
 90
        4
 91
        0
  1

274
    -2
284
     1
 64
     0
275
    -2
285
     1
 65
     0
276
    -2
286
     1
 66
     0
277
    -2
287
     1
 67
     0
278
    -2
288
     1
 68
     0
279
    -2
289
     1
 69
     0
  0
VISUALSTYLE
  5
2F
102
{ACAD_REACTORS
330
2A
102
}
330
2A
100
AcDbVisualStyle
  2
2dWireframe
 70
     4
177
     3
291
     0
 70
    58
 90
        0
176
     1
 90
        2
176
     1
 90
        0
176
     1
 90
        0
176
     1
 40
0.6
176
     1
 40
30.0
176
     1
 62
     7
420
 16777215
176
     1
 90
        1
176
     1
 90
        4
176
     1
 62
     7
176
     1
 62
   257
176
     1
 90
        1
176
     1
 90
        1
176
     1
 40
1.0
176
     1
 90
        0
176
     1
 62
   257
176
     1
 40
1.0
176
     1
 90
        1
176
     1
 90
        6
176
     1
 90
        2
176
     1
 62
     7
176
     1
 90
        5
176
     1
 90
        0
176
     1
 90
        0
176
     1
290
     0
176
     1
 90
        1
176
     1
 40
0.0
176
     1
 90
        0
176
     1
290
     1
176
     1
290
     1
176
     1
290
     0
176
     1
290
     0
176
     1
290
     0
176
     1
290
     0
176
     1
290
     0
176
     1
290
     0
176
     1
290
     0
176
     1
 90
       50
176
     1
 40
0.0
176
     1
 40
1.0
176
     1
 90
        0
176
     1
 62
    18
420
        0
176
     1
 90
       50
176
     1
 90
        3
176
     1
 62
     5
420
      255
176
     1
290
     0
176
     1
 90
       50
176
     1
 90
       50
176
     1
 90
       50
176
     1
290
     0
176
     1
 90
       50
176
     1
 62
   256
176
     0
 40
1.0
176
     0
 90
        2
176
     1
  1
strokes_ogs.tif
176
     1
290
     0
176
     1
 40
1.0
176
     1
 40
1.0
176
     1
  0
VISUALSTYLE
  5
32
102
{ACAD_REACTORS
330
2A
102
}
330
2A
100
AcDbVisualStyle
  2
Basic
 70
     7
177
     3
291
     1
 70
    58
 90
        1
176
     1
 90
        0
176
     1
 90
        1
176
     1
 90
        0
176
     1
 40
0.6
176
     1
 40
30.0
176
     1
 62
     7
420
 16777215
176
     1
 90
        0
176
     1
 90
        4
176
     1
 62
     7
176
     1
 62
   257
176
     1
 90
        1
176
     1
 90
        1
176
     1
 40
1.0
176
     1
 90
        8
176
     1
 62
     7
176
     1
 40
1.0
176
     1
 90
        1
176
     1
 90
        6
176
     1
 90
        2
176
     1
 62
     7
176
     1
 90
        5
176
     1
 90
        0
176
     1
 90
        0
176
     1
290
     0
176
     1
 90
        1
176
     1
 40
0.0
176
     1
 90
        0
176
     1
290
     0
176
     1
290
     1
176
     1
290
     1
176
     1
290
     0
176
     1
290
     0
176
     1
290
     0
176
     1
290
     0
176
     1
290
     0
176
     1
290
     0
176
     1
 90
       50
176
     1
 40
0.0
176
     1
 40
1.0
176
     1
 90
        0
176
     1
 62
    18
420
        0
176
     1
 90
       50
176
     1
 90
        3
176
     1
 62
     5
420
      255
176
     1
290
     0
176
     1
 90
       50
176
     1
 90
       50
176
     1
 90
       50
176
     1
290
     0
176
     1
 90
       50
176
     1
 62
   256
176
     0
 40
1.0
176
     0
 90
        2
176
     1
  1
strokes_ogs.tif
176
     1
290
     0
176
     1
 40
1.0
176
     1
 40
1.0
176
     1
  0
VISUALSTYLE
  5
36
102
{ACAD_REACTORS
330
2A
102
}
330
2A
100
AcDbVisualStyle
  2
Brighten
 70
    12
177
     3
291
     1
 70
    58
 90
        2
176
     1
 90
        2
176
     1
 90
        0
176
     1
 90
        0
176
     1
 40
0.6
176
     1
 40
30.0
176
     1
 62
     7
420
 16777215
176
     1
 90
        1
176
     1
 90
        4
176
     1
 62
     7
176
     1
 62
   257
176
     1
 90
        1
176
     1
 90
        1
176
     1
 40
1.0
176
     1
 90
        8
176
     1
 62
     7
176
     1
 40
1.0
176
     1
 90
        1
176
     1
 90
        6
176
     1
 90
        2
176
     1
 62
     7
176
     1
 90
        5
176
     1
 90
        0
176
     1
 90
        0
176
     1
290
     0
176
     1
 90
        1
176
     1
 40
50.0
176
     1
 90
        0
176
     1
290
     0
176
     1
290
     1
176
     1
290
     1
176
     1
290
     0
176
     1
290
     0
176
     1
290
     0
176
     1
290
     0
176
     1
290
     0
176
     1
290
     0
176
     1
 90
       50
176
     1
 40
0.0
176
     1
 40
1.0
176
     1
 90
        0
176
     1
 62
    18
420
        0
176
     1
 90
       50
176
     1
 90
        3
176
     1
 62
     5
420
      255
176
     1
290
     0
176
     1
 90
       50
176
     1
 90
       50
176
     1
 90
       50
176
     1
290
     0
176
     1
 90
       50
176
     1
 62
   256
176
     0
 40
1.0
176
     0
 90
        2
176
     1
  1
strokes_ogs.tif
176
     1
290
     0
176
     1
 40
1.0
176
     1
 40
1.0
176
     1
  0
VISUALSTYLE
  5
3A
102
{ACAD_REACTORS
330
2A
102
}
330
2A
100
AcDbVisualStyle
  2
ColorChange
 70
    16
177
     3
291
     1
 70
    58
 90
        2
176
     1
 90
        2
176
     1
 90
        3
176
     1
 90
        0
176
     1
 40
0.6
176
     1
 40
30.0
176
     1
 62
     8
420
  8421504
176
     1
 90
        1
176
     1
 90
        4
176
     1
 62
     7
176
     1
 62
   257
176
     1
 90
        1
176
     1
 90
        1
176
     1
 40
1.0
176
     1
 90
        8
176
     1
 62
     8
420
  8421504
176
     1
 40
1.0
176
     1
 90
        1
176
     1
 90
        6
176
     1
 90
        2
176
     1
 62
     7
176
     1
 90
        5
176
     1
 90
        0
176
     1
 90
        0
176
     1
290
     0
176
     1
 90
        1
176
     1
 40
0.0
176
     1
 90
        0
176
     1
290
     0
176
     1
290
     1
176
     1
290
     1
176
     1
290
     0
176
     1
290
     0
176
     1
290
     0
176
     1
290
     0
176
     1
290
     0
176
     1
290
     0
176
     1
 90
       50
176
     1
 40
0.0
176
     1
 40
1.0
176
     1
 90
        0
176
     1
 62
    18
420
        0
176
     1
 90
       50
176
     1
 90
        3
176
     1
 62
     5
420
      255
176
     1
290
     0
176
     1
 90
       50
176
     1
 90
       50
176
     1
 90
       50
176
     1
290
     0
176
     1
 90
       50
176
     1
 62
   256
176
     0
 40
1.0
176
     0
 90
        2
176
     1
  1
strokes_ogs.tif
176
     1
290
     0
176
     1
 40
1.0
176
     1
 40
1.0
176
     1
  0
VISUALSTYLE
  5
34
102
{ACAD_REACTORS
330
2A
102
}
330
2A
100
AcDbVisualStyle
  2
Conceptual
 70
     9
177
     3
291
     0
 70
    58
 90
        3
176
     1
 90
        2
176
     1
 90
        0
176
     1
 90
        0
176
     1
 40
0.6
176
     1
 40
30.0
176
     1
 62
     7
420
 16777215
176
     1
 90
        2
176
     1
 90
        2
176
     1
 62
     7
176
     1
 62
   257
176
     1
 90
        1
176
     1
 90
        1
176
     1
 40
179.0
176
     1
 90
        8
176
     1
 62
     7
176
     1
 40
1.0
176
     1
 90
        1
176
     1
 90
        6
176
     1
 90
        2
176
     1
 62
     7
176
     1
 90
        3
176
     1
 90
        0
176
     1
 90
        0
176
     1
290
     0
176
     1
 90
        1
176
     1
 40
0.0
176
     1
 90
        0
176
     1
290
     0
176
     1
290
     1
176
     1
290
     1
176
     1
290
     0
176
     1
290
     0
176
     1
290
     0
176
     1
290
     0
176
     1
290
     0
176
     1
290
     0
176
     1
 90
       50
176
     1
 40
0.0
176
     1
 40
1.0
176
     1
 90
        0
176
     1
 62
    18
420
        0
176
     1
 90
       50
176
     1
 90
        3
176
     1
 62
     5
420
      255
176
     1
290
     0
176
     1
 90
       50
176
     1
 90
       50
176
     1
 90
       50
176
     1
290
     0
176
     1
 90
       50
176
     1
 62
   256
176
     0
 40
1.0
176
     0
 90
        2
176
     1
  1
strokes_ogs.tif
176
     1
290
     0
176
     1
 40
1.0
176
     1
 40
1.0
176
     1
  0
VISUALSTYLE
  5
35
102
{ACAD_REACTORS
330
2A
102
}
330
2A
100
AcDbVisualStyle
  2
Dim
 70
    11
177
     3
291
     1
 70
    58
 90
        2
176
     1
 90
        2
176
     1
 90
        0
176
     1
 90
        0
176
     1
 40
0.6
176
     1
 40
30.0
176
     1
 62
     7
420
 16777215
176
     1
 90
        1
176
     1
 90
        4
176
     1
 62
     7
176
     1
 62
   257
176
     1
 90
        1
176
     1
 90
        1
176
     1
 40
1.0
176
     1
 90
        8
176
     1
 62
     7
176
     1
 40
1.0
176
     1
 90
        1
176
     1
 90
        6
176
     1
 90
        2
176
     1
 62
     7
176
     1
 90
        5
176
     1
 90
        0
176
     1
 90
        0
176
     1
290
     0
176
     1
 90
        1
176
     1
 40
-50.0
176
     1
 90
        0
176
     1
290
     0
176
     1
290
     1
176
     1
290
     1
176
     1
290
     0
176
     1
290
     0
176
     1
290
     0
176
     1
290
     0
176
     1
290
     0
176
     1
290
     0
176
     1
 90
       50
176
     1
 40
0.0
176
     1
 40
1.0
176
     1
 90
        0
176
     1
 62
    18
420
        0
176
     1
 90
       50
176
     1
 90
        3
176
     1
 62
     5
420
      255
176
     1
290
     0
176
     1
 90
       50
176
     1
 90
       50
176
     1
 90
       50
176
     1
290
     0
176
     1
 90
       50
176
     1
 62
   256
176
     0
 40
1.0
176
     0
 90
        2
176
     1
  1
strokes_ogs.tif
176
     1
290
     0
176
     1
 40
1.0
176
     1
 40
1.0
176
     1
  0
VISUALSTYLE
  5
3D
102
{ACAD_REACTORS
330
2A
102
}
330
2A
100
AcDbVisualStyle
  2
EdgeColorOff
 70
    22
177
     3
291
     1
 70
    58
 90
        2
176
     0
 90
        2
176
     0
 90
        0
176
     0
 90
        0
176
     0
 40
0.6
176
     0
 40
30.0
176
     0
 62
     7
420
 16777215
176
     0
 90
        1
176
     0
 90
        4
176
     0
 62
     7
176
     0
 62
   257
176
     0
 90
        1
176
     0
 90
        1
176
     0
 40
1.0
176
     0
 90
        8
176
     2
 62
     7
176
     0
 40
1.0
176
     0
 90
        1
176
     0
 90
        6
176
     0
 90
        2
176
     0
 62
     7
176
     0
 90
        5
176
     0
 90
        0
176
     0
 90
        0
176
     0
290
     0
176
     0
 90
        1
176
     0
 40
0.0
176
     0
 90
        0
176
     0
290
     0
176
     0
290
     1
176
     0
290
     1
176
     0
290
     0
176
     0
290
     0
176
     0
290
     0
176
     0
290
     0
176
     0
290
     0
176
     0
290
     0
176
     0
 90
       50
176
     0
 40
0.0
176
     0
 40
1.0
176
     0
 90
        0
176
     0
 62
    18
420
        0
176
     0
 90
       50
176
     0
 90
        3
176
     0
 62
     5
420
      255
176
     0
290
     0
176
     0
 90
       50
176
     0
 90
       50
176
     0
 90
       50
176
     0
290
     0
176
     0
 90
       50
176
     0
 62
   256
176
     0
 40
1.0
176
     0
 90
        2
176
     0
  1
strokes_ogs.tif
176
     0
290
     0
176
     0
 40
1.0
176
     0
 40
1.0
176
     0
  0
VISUALSTYLE
  5
39
102
{ACAD_REACTORS
330
2A
102
}
330
2A
100
AcDbVisualStyle
  2
Facepattern
 70
    15
177
     3
291
     1
 70
    58
 90
        2
176
     1
 90
        2
176
     1
 90
        0
176
     1
 90
        0
176
     1
 40
0.6
176
     1
 40
30.0
176
     1
 62
     7
420
 16777215
176
     1
 90
        1
176
     1
 90
        4
176
     1
 62
     7
176
     1
 62
   257
176
     1
 90
        1
176
     1
 90
        1
176
     1
 40
1.0
176
     1
 90
        8
176
     1
 62
     7
176
     1
 40
1.0
176
     1
 90
        1
176
     1
 90
        6
176
     1
 90
        2
176
     1
 62
     7
176
     1
 90
        5
176
     1
 90
        0
176
     1
 90
        0
176
     1
290
     0
176
     1
 90
        1
176
     1
 40
0.0
176
     1
 90
        0
176
     1
290
     0
176
     1
290
     1
176
     1
290
     1
176
     1
290
     0
176
     1
290
     0
176
     1
290
     0
176
     1
290
     0
176
     1
290
     0
176
     1
290
     0
176
     1
 90
       50
176
     1
 40
0.0
176
     1
 40
1.0
176
     1
 90
        0
176
     1
 62
    18
420
        0
176
     1
 90
       50
176
     1
 90
        3
176
     1
 62
     5
420
      255
176
     1
290
     0
176
     1
 90
       50
176
     1
 90
       50
176
     1
 90
       50
176
     1
290
     0
176
     1
 90
       50
176
     1
 62
   256
176
     0
 40
1.0
176
     0
 90
        2
176
     1
  1
strokes_ogs.tif
176
     1
290
     0
176
     1
 40
1.0
176
     1
 40
1.0
176
     1
  0
VISUALSTYLE
  5
2B
102
{ACAD_REACTORS
330
2A
102
}
330
2A
100
AcDbVisualStyle
  2
Flat
 70
     0
177
     3
291
     1
 70
    58
 90
        2
176
     1
 90
        1
176
     1
 90
        1
176
     1
 90
        2
176
     1
 40
0.6
176
     1
 40
30.0
176
     1
 62
     7
420
 16777215
176
     1
 90
        0
176
     1
 90
        0
176
     1
 62
     7
176
     1
 62
   257
176
     1
 90
        1
176
     1
 90
        1
176
     1
 40
1.0
176
     1
 90
        8
176
     1
 62
     7
176
     1
 40
1.0
176
     1
 90
        1
176
     1
 90
        6
176
     1
 90
        2
176
     1
 62
     7
176
     1
 90
        5
176
     1
 90
        0
176
     1
 90
        0
176
     1
290
     0
176
     1
 90
       13
176
     1
 40
0.0
176
     1
 90
        0
176
     1
290
     0
176
     1
290
     1
176
     1
290
     1
176
     1
290
     0
176
     1
290
     0
176
     1
290
     0
176
     1
290
     0
176
     1
290
     0
176
     1
290
     0
176
     1
 90
       50
176
     1
 40
0.0
176
     1
 40
1.0
176
     1
 90
        0
176
     1
 62
    18
420
        0
176
     1
 90
       50
176
     1
 90
        3
176
     1
 62
     5
420
      255
176
     1
290
     0
176
     1
 90
       50
176
     1
 90
       50
176
     1
 90
       50
176
     1
290
     0
176
     1
 90
       50
176
     1
 62
   256
176
     0
 40
1.0
176
     0
 90
        2
176
     1
  1
strokes_ogs.tif
176
     1
290
     0
176
     1
 40
1.0
176
     1
 40
1.0
176
     1
  0
VISUALSTYLE
  5
2C
102
{ACAD_REACTORS
330
2A
102
}
330
2A
100
AcDbVisualStyle
  2
FlatWithEdges
 70
     1
177
     3
291
     1
 70
    58
 90
        2
176
     1
 90
        1
176
     1
 90
        1
176
     1
 90
        2
176
     1
 40
0.6
176
     1
 40
30.0
176
     1
 62
     7
420
 16777215
176
     1
 90
        1
176
     1
 90
        0
176
     1
 62
     7
176
     1
 62
   257
176
     1
 90
        1
176
     1
 90
        1
176
     1
 40
1.0
176
     1
 90
        0
176
     1
 62
   257
176
     1
 40
1.0
176
     1
 90
        1
176
     1
 90
        6
176
     1
 90
        2
176
     1
 62
     7
176
     1
 90
        5
176
     1
 90
        0
176
     1
 90
        0
176
     1
290
     0
176
     1
 90
       13
176
     1
 40
0.0
176
     1
 90
        0
176
     1
290
     0
176
     1
290
     1
176
     1
290
     1
176
     1
290
     0
176
     1
290
     0
176
     1
290
     0
176
     1
290
     0
176
     1
290
     0
176
     1
290
     0
176
     1
 90
       50
176
     1
 40
0.0
176
     1
 40
1.0
176
     1
 90
        0
176
     1
 62
    18
420
        0
176
     1
 90
       50
176
     1
 90
        3
176
     1
 62
     5
420
      255
176
     1
290
     0
176
     1
 90
       50
176
     1
 90
       50
176
     1
 90
       50
176
     1
290
     0
176
     1
 90
       50
176
     1
 62
   256
176
     0
 40
1.0
176
     0
 90
        2
176
     1
  1
strokes_ogs.tif
176
     1
290
     0
176
     1
 40
1.0
176
     1
 40
1.0
176
     1
  0
VISUALSTYLE
  5
2D
102
{ACAD_REACTORS
330
2A
102
}
330
2A
100
AcDbVisualStyle
  2
Gouraud
 70
     2
177
     3
291
     1
 70
    58
 90
        2
176
     1
 90
        2
176
     1
 90
        1
176
     1
 90
        2
176
     1
 40
0.6
176
     1
 40
30.0
176
     1
 62
     7
420
 16777215
176
     1
 90
        0
176
     1
 90
        0
176
     1
 62
     7
176
     1
 62
   257
176
     1
 90
        1
176
     1
 90
        1
176
     1
 40
1.0
176
     1
 90
        0
176
     1
 62
     7
176
     1
 40
1.0
176
     1
 90
        1
176
     1
 90
        6
176
     1
 90
        2
176
     1
 62
     7
176
     1
 90
        5
176
     1
 90
        0
176
     1
 90
        0
176
     1
290
     0
176
     1
 90
       13
176
     1
 40
0.0
176
     1
 90
        0
176
     1
290
     0
176
     1
290
     1
176
     1
290
     1
176
     1
290
     0
176
     1
290
     0
176
     1
290
     0
176
     1
290
     0
176
     1
290
     0
176
     1
290
     0
176
     1
 90
       50
176
     1
 40
0.0
176
     1
 40
1.0
176
     1
 90
        0
176
     1
 62
    18
420
        0
176
     1
 90
       50
176
     1
 90
        3
176
     1
 62
     5
420
      255
176
     1
290
     0
176
     1
 90
       50
176
     1
 90
       50
176
     1
 90
       50
176
     1
290
     0
176
     1
 90
       50
176
     1
 62
   256
176
     0
 40
1.0
176
     0
 90
        2
176
     1
  1
strokes_ogs.tif
176
     1
290
     0
176
     1
 40
1.0
176
     1
 40
1.0
176
     1
  0
VISUALSTYLE
  5
2E
102
{ACAD_REACTORS
330
2A
102
}
330
2A
100
AcDbVisualStyle
  2
GouraudWithEdges
 70
     3
177
     3
291
     1
 70
    58
 90
        2
176
     1
 90
        2
176
     1
 90
        1
176
     1
 90
        2
176
     1
 40
0.6
176
     1
 40
30.0
176
     1
 62
     7
420
 16777215
176
     1
 90
        1
176
     1
 90
        0
176
     1
 62
     7
176
     1
 62
   257
176
     1
 90
        1
176
     1
 90
        1
176
     1
 40
1.0
176
     1
 90
        0
176
     1
 62
   257
176
     1
 40
1.0
176
     1
 90
        1
176
     1
 90
        6
176
     1
 90
        2
176
     1
 62
     7
176
     1
 90
        5
176
     1
 90
        0
176
     1
 90
        0
176
     1
290
     0
176
     1
 90
       13
176
     1
 40
0.0
176
     1
 90
        0
176
     1
290
     0
176
     1
290
     1
176
     1
290
     1
176
     1
290
     0
176
     1
290
     0
176
     1
290
     0
176
     1
290
     0
176
     1
290
     0
176
     1
290
     0
176
     1
 90
       50
176
     1
 40
0.0
176
     1
 40
1.0
176
     1
 90
        0
176
     1
 62
    18
420
        0
176
     1
 90
       50
176
     1
 90
        3
176
     1
 62
     5
420
      255
176
     1
290
     0
176
     1
 90
       50
176
     1
 90
       50
176
     1
 90
       50
176
     1
290
     0
176
     1
 90
       50
176
     1
 62
   256
176
     0
 40
1.0
176
     0
 90
        2
176
     1
  1
strokes_ogs.tif
176
     1
290
     0
176
     1
 40
1.0
176
     1
 40
1.0
176
     1
  0
VISUALSTYLE
  5
31
102
{ACAD_REACTORS
330
2A
102
}
330
2A
100
AcDbVisualStyle
  2
Hidden
 70
     6
177
     3
291
     0
 70
    58
 90
        1
176
     1
 90
        2
176
     1
 90
        2
176
     1
 90
        0
176
     1
 40
0.6
176
     1
 40
30.0
176
     1
 62
     7
420
 16777215
176
     1
 90
        2
176
     1
 90
        2
176
     1
 62
     7
176
     1
 62
   257
176
     1
 90
        2
176
     1
 90
        1
176
     1
 40
40.0
176
     1
 90
        0
176
     1
 62
   257
176
     1
 40
1.0
176
     1
 90
        1
176
     1
 90
        6
176
     1
 90
        2
176
     1
 62
     7
176
     1
 90
        3
176
     1
 90
        0
176
     1
 90
        0
176
     1
290
     0
176
     1
 90
        1
176
     1
 40
0.0
176
     1
 90
        0
176
     1
290
     0
176
     1
290
     1
176
     1
290
     1
176
     1
290
     0
176
     1
290
     0
176
     1
290
     0
176
     1
290
     0
176
     1
290
     0
176
     1
290
     0
176
     1
 90
       50
176
     1
 40
0.0
176
     1
 40
1.0
176
     1
 90
        0
176
     1
 62
    18
420
        0
176
     1
 90
       50
176
     1
 90
        3
176
     1
 62
     5
420
      255
176
     1
290
     0
176
     1
 90
       50
176
     1
 90
       50
176
     1
 90
       50
176
     1
290
     0
176
     1
 90
       50
176
     1
 62
   256
176
     0
 40
1.0
176
     0
 90
        2
176
     1
  1
strokes_ogs.tif
176
     1
290
     0
176
     1
 40
1.0
176
     1
 40
1.0
176
     1
  0
VISUALSTYLE
  5
3B
102
{ACAD_REACTORS
330
2A
102
}
330
2A
100
AcDbVisualStyle
  2
JitterOff
 70
    20
177
     3
291
     1
 70
    58
 90
        2
176
     0
 90
        2
176
     0
 90
        0
176
     0
 90
        0
176
     0
 40
0.6
176
     0
 40
30.0
176
     0
 62
     7
420
 16777215
176
     0
 90
        1
176
     0
 90
        4
176
     0
 62
     7
176
     0
 62
   257
176
     0
 90
        1
176
     0
 90
        1
176
     0
 40
1.0
176
     0
 90
       10
176
     2
 62
     7
176
     0
 40
1.0
176
     0
 90
        1
176
     0
 90
        6
176
     0
 90
        2
176
     0
 62
     7
176
     0
 90
        5
176
     0
 90
        0
176
     0
 90
        0
176
     0
290
     0
176
     0
 90
        1
176
     0
 40
0.0
176
     0
 90
        0
176
     0
290
     0
176
     0
290
     1
176
     0
290
     1
176
     0
290
     0
176
     0
290
     0
176
     0
290
     0
176
     0
290
     0
176
     0
290
     0
176
     0
290
     0
176
     0
 90
       50
176
     0
 40
0.0
176
     0
 40
1.0
176
     0
 90
        0
176
     0
 62
    18
420
        0
176
     0
 90
       50
176
     0
 90
        3
176
     0
 62
     5
420
      255
176
     0
290
     0
176
     0
 90
       50
176
     0
 90
       50
176
     0
 90
       50
176
     0
290
     0
176
     0
 90
       50
176
     0
 62
   256
176
     0
 40
1.0
176
     0
 90
        2
176
     0
  1
strokes_ogs.tif
176
     0
290
     0
176
     0
 40
1.0
176
     0
 40
1.0
176
     0
  0
VISUALSTYLE
  5
38
102
{ACAD_REACTORS
330
2A
102
}
330
2A
100
AcDbVisualStyle
  2
Linepattern
 70
    14
177
     3
291
     1
 70
    58
 90
        2
176
     1
 90
        2
176
     1
 90
        0
176
     1
 90
        0
176
     1
 40
0.6
176
     1
 40
30.0
176
     1
 62
     7
420
 16777215
176
     1
 90
        1
176
     1
 90
        4
176
     1
 62
     7
176
     1
 62
   257
176
     1
 90
        7
176
     1
 90
        7
176
     1
 40
1.0
176
     1
 90
        8
176
     1
 62
     7
176
     1
 40
1.0
176
     1
 90
        1
176
     1
 90
        6
176
     1
 90
        2
176
     1
 62
     7
176
     1
 90
        5
176
     1
 90
        0
176
     1
 90
        0
176
     1
290
     0
176
     1
 90
        1
176
     1
 40
0.0
176
     1
 90
        0
176
     1
290
     0
176
     1
290
     1
176
     1
290
     1
176
     1
290
     0
176
     1
290
     0
176
     1
290
     0
176
     1
290
     0
176
     1
290
     0
176
     1
290
     0
176
     1
 90
       50
176
     1
 40
0.0
176
     1
 40
1.0
176
     1
 90
        0
176
     1
 62
    18
420
        0
176
     1
 90
       50
176
     1
 90
        3
176
     1
 62
     5
420
      255
176
     1
290
     0
176
     1
 90
       50
176
     1
 90
       50
176
     1
 90
       50
176
     1
290
     0
176
     1
 90
       50
176
     1
 62
   256
176
     0
 40
1.0
176
     0
 90
        2
176
     1
  1
strokes_ogs.tif
176
     1
290
     0
176
     1
 40
1.0
176
     1
 40
1.0
176
     1
  0
VISUALSTYLE
  5
3C
102
{ACAD_REACTORS
330
2A
102
}
330
2A
100
AcDbVisualStyle
  2
OverhangOff
 70
    21
177
     3
291
     1
 70
    58
 90
        2
176
     0
 90
        2
176
     0
 90
        0
176
     0
 90
        0
176
     0
 40
0.6
176
     0
 40
30.0
176
     0
 62
     7
420
 16777215
176
     0
 90
        1
176
     0
 90
        4
176
     0
 62
     7
176
     0
 62
   257
176
     0
 90
        1
176
     0
 90
        1
176
     0
 40
1.0
176
     0
 90
        9
176
     2
 62
     7
176
     0
 40
1.0
176
     0
 90
        1
176
     0
 90
        6
176
     0
 90
        2
176
     0
 62
     7
176
     0
 90
        5
176
     0
 90
        0
176
     0
 90
        0
176
     0
290
     0
176
     0
 90
        1
176
     0
 40
0.0
176
     0
 90
        0
176
     0
290
     0
176
     0
290
     1
176
     0
290
     1
176
     0
290
     0
176
     0
290
     0
176
     0
290
     0
176
     0
290
     0
176
     0
290
     0
176
     0
290
     0
176
     0
 90
       50
176
     0
 40
0.0
176
     0
 40
1.0
176
     0
 90
        0
176
     0
 62
    18
420
        0
176
     0
 90
       50
176
     0
 90
        3
176
     0
 62
     5
420
      255
176
     0
290
     0
176
     0
 90
       50
176
     0
 90
       50
176
     0
 90
       50
176
     0
290
     0
176
     0
 90
       50
176
     0
 62
   256
176
     0
 40
1.0
176
     0
 90
        2
176
     0
  1
strokes_ogs.tif
176
     0
290
     0
176
     0
 40
1.0
176
     0
 40
1.0
176
     0
  0
VISUALSTYLE
  5
33
102
{ACAD_REACTORS
330
2A
102
}
330
2A
100
AcDbVisualStyle
  2
Realistic
 70
     8
177
     3
291
     0
 70
    58
 90
        2
176
     1
 90
        3
176
     1
 90
        0
176
     1
 90
        2
176
     1
 40
0.6
176
     1
 40
30.0
176
     1
 62
     7
420
 16777215
176
     1
 90
        0
176
     1
 90
        0
176
     1
 62
     7
176
     1
 62
   257
176
     1
 90
        1
176
     1
 90
        1
176
     1
 40
1.0
176
     1
 90
        8
176
     1
 62
   257
176
     1
 40
1.0
176
     1
 90
        1
176
     1
 90
        6
176
     1
 90
        2
176
     1
 62
     7
176
     1
 90
        3
176
     1
 90
        0
176
     1
 90
        0
176
     1
290
     0
176
     1
 90
       13
176
     1
 40
0.0
176
     1
 90
        0
176
     1
290
     0
176
     1
290
     1
176
     1
290
     1
176
     1
290
     0
176
     1
290
     0
176
     1
290
     0
176
     1
290
     0
176
     1
290
     0
176
     1
290
     0
176
     1
 90
       50
176
     1
 40
0.0
176
     1
 40
1.0
176
     1
 90
        0
176
     1
 62
    18
420
        0
176
     1
 90
       50
176
     1
 90
        3
176
     1
 62
     5
420
      255
176
     1
290
     0
176
     1
 90
       50
176
     1
 90
       50
176
     1
 90
       50
176
     1
290
     0
176
     1
 90
       50
176
     1
 62
   256
176
     0
 40
1.0
176
     0
 90
        2
176
     1
  1
strokes_ogs.tif
176
     1
290
     0
176
     1
 40
1.0
176
     1
 40
1.0
176
     1
  0
VISUALSTYLE
  5
42
102
{ACAD_REACTORS
330
2A
102
}
330
2A
100
AcDbVisualStyle
  2
Shaded
 70
    27
177
     3
291
     0
 70
    58
 90
        2
176
     1
 90
        2
176
     1
 90
        1
176
     1
 90
        2
176
     1
 40
0.6
176
     1
 40
30.0
176
     1
 62
     7
420
 16777215
176
     1
 90
        0
176
     1
 90
        4
176
     1
 62
     7
176
     1
 62
   257
176
     1
 90
        1
176
     1
 90
        1
176
     1
 40
1.0
176
     1
 90
        8
176
     1
 62
   257
176
     1
 40
1.0
176
     1
 90
        1
176
     1
 90
        6
176
     1
 90
        2
176
     1
 62
     8
420
  7895160
176
     1
 90
        3
176
     1
 90
        0
176
     1
 90
        0
176
     1
290
     0
176
     1
 90
        5
176
     1
 40
0.0
176
     1
 90
        0
176
     1
290
     0
176
     1
290
     1
176
     1
290
     1
176
     1
290
     0
176
     1
290
     0
176
     1
290
     0
176
     1
290
     0
176
     1
290
     0
176
     1
290
     0
176
     1
 90
       50
176
     1
 40
0.0
176
     1
 40
1.0
176
     1
 90
        0
176
     1
 62
    18
420
        0
176
     1
 90
       50
176
     1
 90
        3
176
     1
 62
     5
420
      255
176
     1
290
     0
176
     1
 90
       50
176
     1
 90
       50
176
     1
 90
       50
176
     1
290
     0
176
     1
 90
       50
176
     1
 62
   256
176
     0
 40
1.0
176
     0
 90
        2
176
     1
  1
strokes_ogs.tif
176
     1
290
     0
176
     1
 40
1.0
176
     1
 40
1.0
176
     1
  0
VISUALSTYLE
  5
41
102
{ACAD_REACTORS
330
2A
102
}
330
2A
100
AcDbVisualStyle
  2
Shaded with edges
 70
    26
177
     3
291
     0
 70
    58
 90
        2
176
     1
 90
        2
176
     1
 90
        1
176
     1
 90
        2
176
     1
 40
0.6
176
     1
 40
30.0
176
     1
 62
     7
420
 16777215
176
     1
 90
        1
176
     1
 90
       10
176
     1
 62
     7
176
     1
 62
   257
176
     1
 90
        2
176
     1
 90
        1
176
     1
 40
1.0
176
     1
 90
        8
176
     1
 62
   257
176
     1
 40
1.0
176
     1
 90
        1
176
     1
 90
        6
176
     1
 90
        2
176
     1
 62
     7
176
     1
 90
        3
176
     1
 90
        0
176
     1
 90
        0
176
     1
290
     0
176
     1
 90
        5
176
     1
 40
0.0
176
     1
 90
        0
176
     1
290
     0
176
     1
290
     1
176
     1
290
     1
176
     1
290
     0
176
     1
290
     0
176
     1
290
     0
176
     1
290
     0
176
     1
290
     0
176
     1
290
     0
176
     1
 90
       50
176
     1
 40
0.0
176
     1
 40
1.0
176
     1
 90
        0
176
     1
 62
    18
420
        0
176
     1
 90
       50
176
     1
 90
        3
176
     1
 62
     5
420
      255
176
     1
290
     0
176
     1
 90
       50
176
     1
 90
       50
176
     1
 90
       50
176
     1
290
     0
176
     1
 90
       50
176
     1
 62
   256
176
     0
 40
1.0
176
     0
 90
        2
176
     1
  1
strokes_ogs.tif
176
     1
290
     0
176
     1
 40
1.0
176
     1
 40
1.0
176
     1
  0
VISUALSTYLE
  5
3E
102
{ACAD_REACTORS
330
2A
102
}
330
2A
100
AcDbVisualStyle
  2
Shades of Gray
 70
    23
177
     3
291
     0
 70
    58
 90
        2
176
     1
 90
        2
176
     1
 90
        3
176
     1
 90
        0
176
     1
 40
0.6
176
     1
 40
30.0
176
     1
 62
     7
420
 16777215
176
     1
 90
        2
176
     1
 90
        2
176
     1
 62
     7
176
     1
 62
     7
176
     1
 90
        1
176
     1
 90
        1
176
     1
 40
40.0
176
     1
 90
        8
176
     1
 62
     7
176
     1
 40
1.0
176
     1
 90
        1
176
     1
 90
        6
176
     1
 90
        2
176
     1
 62
     7
176
     1
 90
        3
176
     1
 90
        0
176
     1
 90
        0
176
     1
290
     0
176
     1
 90
        1
176
     1
 40
0.0
176
     1
 90
        0
176
     1
290
     0
176
     1
290
     1
176
     1
290
     1
176
     1
290
     0
176
     1
290
     0
176
     1
290
     0
176
     1
290
     0
176
     1
290
     0
176
     1
290
     0
176
     1
 90
       50
176
     1
 40
0.0
176
     1
 40
1.0
176
     1
 90
        0
176
     1
 62
    18
420
        0
176
     1
 90
       50
176
     1
 90
        3
176
     1
 62
     5
420
      255
176
     1
290
     0
176
     1
 90
       50
176
     1
 90
       50
176
     1
 90
       50
176
     1
290
     0
176
     1
 90
       50
176
     1
 62
   256
176
     0
 40
1.0
176
     0
 90
        2
176
     1
  1
strokes_ogs.tif
176
     1
290
     0
176
     1
 40
1.0
176
     1
 40
1.0
176
     1
  0
VISUALSTYLE
  5
3F
102
{ACAD_REACTORS
330
2A
102
}
330
2A
100
AcDbVisualStyle
  2
Sketchy
 70
    24
177
     3
291
     0
 70
    58
 90
        1
176
     1
 90
        2
176
     1
 90
        2
176
     1
 90
        0
176
     1
 40
0.6
176
     1
 40
30.0
176
     1
 62
     7
420
 16777215
176
     1
 90
        2
176
     1
 90
        2
176
     1
 62
     7
176
     1
 62
     7
176
     1
 90
        1
176
     1
 90
        1
176
     1
 40
40.0
176
     1
 90
       11
176
     1
 62
     7
176
     1
 40
1.0
176
     1
 90
        1
176
     1
 90
        6
176
     1
 90
        2
176
     1
 62
     7
176
     1
 90
        6
176
     1
 90
        0
176
     1
 90
        0
176
     1
290
     0
176
     1
 90
        1
176
     1
 40
0.0
176
     1
 90
        0
176
     1
290
     0
176
     1
290
     1
176
     1
290
     1
176
     1
290
     0
176
     1
290
     0
176
     1
290
     0
176
     1
290
     0
176
     1
290
     0
176
     1
290
     0
176
     1
 90
       50
176
     1
 40
0.0
176
     1
 40
1.0
176
     1
 90
        0
176
     1
 62
    18
420
        0
176
     1
 90
       50
176
     1
 90
        3
176
     1
 62
     5
420
      255
176
     1
290
     0
176
     1
 90
       50
176
     1
 90
       50
176
     1
 90
       50
176
     1
290
     0
176
     1
 90
       50
176
     1
 62
   256
176
     0
 40
1.0
176
     0
 90
        2
176
     1
  1
strokes_ogs.tif
176
     1
290
     0
176
     1
 40
1.0
176
     1
 40
1.0
176
     1
  0
VISUALSTYLE
  5
37
102
{ACAD_REACTORS
330
2A
102
}
330
2A
100
AcDbVisualStyle
  2
Thicken
 70
    13
177
     3
291
     1
 70
    58
 90
        2
176
     1
 90
        2
176
     1
 90
        0
176
     1
 90
        0
176
     1
 40
0.6
176
     1
 40
30.0
176
     1
 62
     7
420
 16777215
176
     1
 90
        1
176
     1
 90
        4
176
     1
 62
     7
176
     1
 62
   257
176
     1
 90
        1
176
     1
 90
        1
176
     1
 40
1.0
176
     1
 90
       12
176
     1
 62
     7
176
     1
 40
1.0
176
     1
 90
        1
176
     1
 90
        6
176
     1
 90
        2
176
     1
 62
     7
176
     1
 90
        5
176
     1
 90
        0
176
     1
 90
        0
176
     1
290
     0
176
     1
 90
        1
176
     1
 40
0.0
176
     1
 90
        0
176
     1
290
     0
176
     1
290
     1
176
     1
290
     1
176
     1
290
     0
176
     1
290
     0
176
     1
290
     0
176
     1
290
     0
176
     1
290
     0
176
     1
290
     0
176
     1
 90
       50
176
     1
 40
0.0
176
     1
 40
1.0
176
     1
 90
        0
176
     1
 62
    18
420
        0
176
     1
 90
       50
176
     1
 90
        3
176
     1
 62
     5
420
      255
176
     1
290
     0
176
     1
 90
       50
176
     1
 90
       50
176
     1
 90
       50
176
     1
290
     0
176
     1
 90
       50
176
     1
 62
   256
176
     0
 40
1.0
176
     0
 90
        2
176
     1
  1
strokes_ogs.tif
176
     1
290
     0
176
     1
 40
1.0
176
     1
 40
1.0
176
     1
  0
VISUALSTYLE
  5
30
102
{ACAD_REACTORS
330
2A
102
}
330
2A
100
AcDbVisualStyle
  2
Wireframe
 70
     5
177
     3
291
     0
 70
    58
 90
        0
176
     1
 90
        2
176
     1
 90
        0
176
     1
 90
        0
176
     1
 40
0.6
176
     1
 40
30.0
176
     1
 62
     7
420
 16777215
176
     1
 90
        1
176
     1
 90
        4
176
     1
 62
     7
176
     1
 62
   257
176
     1
 90
        1
176
     1
 90
        1
176
     1
 40
1.0
176
     1
 90
        0
176
     1
 62
   257
176
     1
 40
1.0
176
     1
 90
        1
176
     1
 90
        6
176
     1
 90
        2
176
     1
 62
     7
176
     1
 90
        3
176
     1
 90
        0
176
     1
 90
        0
176
     1
290
     0
176
     1
 90
        1
176
     1
 40
0.0
176
     1
 90
        0
176
     1
290
     0
176
     1
290
     1
176
     1
290
     1
176
     1
290
     0
176
     1
290
     0
176
     1
290
     0
176
     1
290
     0
176
     1
290
     0
176
     1
290
     0
176
     1
 90
       50
176
     1
 40
0.0
176
     1
 40
1.0
176
     1
 90
        0
176
     1
 62
    18
420
        0
176
     1
 90
       50
176
     1
 90
        3
176
     1
 62
     5
420
      255
176
     1
290
     0
176
     1
 90
       50
176
     1
 90
       50
176
     1
 90
       50
176
     1
290
     0
176
     1
 90
       50
176
     1
 62
   256
176
     0
 40
1.0
176
     0
 90
        2
176
     1
  1
strokes_ogs.tif
176
     1
290
     0
176
     1
 40
1.0
176
     1
 40
1.0
176
     1
  0
VISUALSTYLE
  5
40
102
{ACAD_REACTORS
330
2A
102
}
330
2A
100
AcDbVisualStyle
  2
X-Ray
 70
    25
177
     3
291
     0
 70
    58
 90
        2
176
     1
 90
        2
176
     1
 90
        1
176
     1
 90
        1
176
     1
 40
0.5
176
     1
 40
30.0
176
     1
 62
     7
420
 16777215
176
     1
 90
        1
176
     1
 90
        0
176
     1
 62
     7
176
     1
 62
   257
176
     1
 90
        1
176
     1
 90
        1
176
     1
 40
1.0
176
     1
 90
        8
176
     1
 62
     7
176
     1
 40
1.0
176
     1
 90
        1
176
     1
 90
        6
176
     1
 90
        2
176
     1
 62
     7
176
     1
 90
        3
176
     1
 90
        0
176
     1
 90
        0
176
     1
290
     0
176
     1
 90
       13
176
     1
 40
0.0
176
     1
 90
        0
176
     1
290
     0
176
     1
290
     1
176
     1
290
     1
176
     1
290
     0
176
     1
290
     0
176
     1
290
     0
176
     1
290
     0
176
     1
290
     0
176
     1
290
     0
176
     1
 90
       50
176
     1
 40
0.0
176
     1
 40
1.0
176
     1
 90
        0
176
     1
 62
    18
420
        0
176
     1
 90
       50
176
     1
 90
        3
176
     1
 62
     5
420
      255
176
     1
290
     0
176
     1
 90
       50
176
     1
 90
       50
176
     1
 90
       50
176
     1
290
     0
176
     1
 90
       50
176
     1
 62
   256
176
     0
 40
1.0
176
     0
 90
        2
176
     1
  1
strokes_ogs.tif
176
     1
290
     0
176
     1
 40
1.0
176
     1
 40
1.0
176
     1
  0
DICTIONARYVAR
  5
22B
102
{ACAD_REACTORS
330
22A
102
}
330
22A
100
DictionaryVariables
280
     0
  1
1:1
  0
DICTIONARYVAR
  5
233
102
{ACAD_REACTORS
330
22A
102
}
330
22A
100
DictionaryVariables
280
     0
  1
3.500000
  0
DICTIONARYVAR
  5
234
102
{ACAD_REACTORS
330
22A
102
}
330
22A
100
DictionaryVariables
280
     0
  1
acadiso.lin
  0
DICTIONARYVAR
  5
230
102
{ACAD_REACTORS
330
22A
102
}
330
22A
100
DictionaryVariables
280
     0
  1
Standard
  0
DICTIONARYVAR
  5
22F
102
{ACAD_REACTORS
330
22A
102
}
330
22A
100
DictionaryVariables
280
     0
  1
Standard
  0
DICTIONARY
  5
22C
330
6A
100
AcDbDictionary
280
     1
281
     1
  3
ACAD_ROUNDTRIP_2008_TABLESTYLE_CELLSTYLEMAP
360
22D
  0
CELLSTYLEMAP
  5
22D
102
{ACAD_REACTORS
330
22C
102
}
330
22C
100
AcDbCellStyleMap
 90
        3
300
CELLSTYLE
  1
TABLEFORMAT_BEGIN
 90
        5
170
     1
 91
        0
 92
    32768
 62
   257
 93
        1
300
CONTENTFORMAT
  1
CONTENTFORMAT_BEGIN
 90
        0
 91
        0
 92
        4
 93
        0
300

 40
0.0
140
1.0
 94
        5
 62
     0
340
11
144
6.0
309
CONTENTFORMAT_END
171
     1
301
MARGIN
  1
CELLMARGIN_BEGIN
 40
1.5
 40
1.5
 40
1.5
 40
1.5
 40
1.5
 40
1.5
309
CELLMARGIN_END
 94
        6
 95
        1
302
GRIDFORMAT
  1
GRIDFORMAT_BEGIN
 90
        0
 91
        1
 62
     0
 92
       -2
340
14
 93
        0
 40
0.045
309
GRIDFORMAT_END
 95
        2
302
GRIDFORMAT
  1
GRIDFORMAT_BEGIN
 90
        0
 91
        1
 62
     0
 92
       -2
340
14
 93
        0
 40
0.045
309
GRIDFORMAT_END
 95
        4
302
GRIDFORMAT
  1
GRIDFORMAT_BEGIN
 90
        0
 91
        1
 62
     0
 92
       -2
340
14
 93
        0
 40
0.045
309
GRIDFORMAT_END
 95
        8
302
GRIDFORMAT
  1
GRIDFORMAT_BEGIN
 90
        0
 91
        1
 62
     0
 92
       -2
340
14
 93
        0
 40
0.045
309
GRIDFORMAT_END
 95
       16
302
GRIDFORMAT
  1
GRIDFORMAT_BEGIN
 90
        0
 91
        1
 62
     0
 92
       -2
340
14
 93
        0
 40
0.045
309
GRIDFORMAT_END
 95
       32
302
GRIDFORMAT
  1
GRIDFORMAT_BEGIN
 90
        0
 91
        1
 62
     0
 92
       -2
340
14
 93
        0
 40
0.045
309
GRIDFORMAT_END
309
TABLEFORMAT_END
  1
CELLSTYLE_BEGIN
 90
        1
 91
        1
300
_TITLE
309
CELLSTYLE_END
300
CELLSTYLE
  1
TABLEFORMAT_BEGIN
 90
        5
170
     1
 91
        0
 92
        0
 62
   257
 93
        1
300
CONTENTFORMAT
  1
CONTENTFORMAT_BEGIN
 90
        0
 91
        0
 92
        4
 93
        0
300

 40
0.0
140
1.0
 94
        5
 62
     0
340
11
144
4.5
309
CONTENTFORMAT_END
171
     1
301
MARGIN
  1
CELLMARGIN_BEGIN
 40
1.5
 40
1.5
 40
1.5
 40
1.5
 40
1.5
 40
1.5
309
CELLMARGIN_END
 94
        6
 95
        1
302
GRIDFORMAT
  1
GRIDFORMAT_BEGIN
 90
        0
 91
        1
 62
     0
 92
       -2
340
14
 93
        0
 40
0.045
309
GRIDFORMAT_END
 95
        2
302
GRIDFORMAT
  1
GRIDFORMAT_BEGIN
 90
        0
 91
        1
 62
     0
 92
       -2
340
14
 93
        0
 40
0.045
309
GRIDFORMAT_END
 95
        4
302
GRIDFORMAT
  1
GRIDFORMAT_BEGIN
 90
        0
 91
        1
 62
     0
 92
       -2
340
14
 93
        0
 40
0.045
309
GRIDFORMAT_END
 95
        8
302
GRIDFORMAT
  1
GRIDFORMAT_BEGIN
 90
        0
 91
        1
 62
     0
 92
       -2
340
14
 93
        0
 40
0.045
309
GRIDFORMAT_END
 95
       16
302
GRIDFORMAT
  1
GRIDFORMAT_BEGIN
 90
        0
 91
        1
 62
     0
 92
       -2
340
14
 93
        0
 40
0.045
309
GRIDFORMAT_END
 95
       32
302
GRIDFORMAT
  1
GRIDFORMAT_BEGIN
 90
        0
 91
        1
 62
     0
 92
       -2
340
14
 93
        0
 40
0.045
309
GRIDFORMAT_END
309
TABLEFORMAT_END
  1
CELLSTYLE_BEGIN
 90
        2
 91
        1
300
_HEADER
309
CELLSTYLE_END
300
CELLSTYLE
  1
TABLEFORMAT_BEGIN
 90
        5
170
     1
 91
        0
 92
        0
 62
   257
 93
        1
300
CONTENTFORMAT
  1
CONTENTFORMAT_BEGIN
 90
        0
 91
        0
 92
        4
 93
        0
300

 40
0.0
140
1.0
 94
        2
 62
     0
340
11
144
4.5
309
CONTENTFORMAT_END
171
     1
301
MARGIN
  1
CELLMARGIN_BEGIN
 40
1.5
 40
1.5
 40
1.5
 40
1.5
 40
1.5
 40
1.5
309
CELLMARGIN_END
 94
        6
 95
        1
302
GRIDFORMAT
  1
GRIDFORMAT_BEGIN
 90
        0
 91
        1
 62
     0
 92
       -2
340
14
 93
        0
 40
0.045
309
GRIDFORMAT_END
 95
        2
302
GRIDFORMAT
  1
GRIDFORMAT_BEGIN
 90
        0
 91
        1
 62
     0
 92
       -2
340
14
 93
        0
 40
0.045
309
GRIDFORMAT_END
 95
        4
302
GRIDFORMAT
  1
GRIDFORMAT_BEGIN
 90
        0
 91
        1
 62
     0
 92
       -2
340
14
 93
        0
 40
0.045
309
GRIDFORMAT_END
 95
        8
302
GRIDFORMAT
  1
GRIDFORMAT_BEGIN
 90
        0
 91
        1
 62
     0
 92
       -2
340
14
 93
        0
 40
0.045
309
GRIDFORMAT_END
 95
       16
302
GRIDFORMAT
  1
GRIDFORMAT_BEGIN
 90
        0
 91
        1
 62
     0
 92
       -2
340
14
 93
        0
 40
0.045
309
GRIDFORMAT_END
 95
       32
302
GRIDFORMAT
  1
GRIDFORMAT_BEGIN
 90
        0
 91
        1
 62
     0
 92
       -2
340
14
 93
        0
 40
0.045
309
GRIDFORMAT_END
309
TABLEFORMAT_END
  1
CELLSTYLE_BEGIN
 90
        3
 91
        2
300
_DATA
309
CELLSTYLE_END
  0
ENDSEC
  0
EOF
