  0
SECTION
  2
HEADER
  9
$ACADVER
  1
AC1027
  9
$ACADMAINTVER
 70
   105
  9
$DWGCODEPAGE
  3
ANSI_932
  9
$REQUIREDVERSIONS
160
                 0
  9
$INSBASE
 10
0.0
 20
0.0
 30
0.0
  9
$EXTMIN
 10
10.0
 20
10.0
 30
0.0
  9
$EXTMAX
 10
410.0
 20
287.0
 30
0.0
  9
$LIMMIN
 10
10.0
 20
10.0
  9
$LIMMAX
 10
410.0
 20
287.0
  9
$ORTHOMODE
 70
     0
  9
$REGENMODE
 70
     1
  9
$FILLMODE
 70
     1
  9
$QTEXTMODE
 70
     0
  9
$MIRRTEXT
 70
     1
  9
$LTSCALE
 40
1.0
  9
$ATTMODE
 70
     1
  9
$TEXTSIZE
 40
2.5
  9
$TRACEWID
 40
1.0
  9
$TEXTSTYLE
  7
Standard
  9
$CLAYER
  8
0
  9
$CELTYPE
  6
ByLayer
  9
$CECOLOR
 62
   256
  9
$CELTSCALE
 40
1.0
  9
$DISPSILH
 70
     0
  9
$DIMSCALE
 40
1.0
  9
$DIMASZ
 40
2.5
  9
$DIMEXO
 40
0.625
  9
$DIMDLI
 40
3.75
  9
$DIMRND
 40
0.0
  9
$DIMDLE
 40
0.0
  9
$DIMEXE
 40
1.25
  9
$DIMTP
 40
0.0
  9
$DIMTM
 40
0.0
  9
$DIMTXT
 40
2.5
  9
$DIMCEN
 40
2.5
  9
$DIMTSZ
 40
0.0
  9
$DIMTOL
 70
     0
  9
$DIMLIM
 70
     0
  9
$DIMTIH
 70
     0
  9
$DIMTOH
 70
     0
  9
$DIMSE1
 70
     0
  9
$DIMSE2
 70
     0
  9
$DIMTAD
 70
     1
  9
$DIMZIN
 70
     8
  9
$DIMBLK
  1

  9
$DIMASO
 70
     1
  9
$DIMSHO
 70
     1
  9
$DIMPOST
  1

  9
$DIMAPOST
  1

  9
$DIMALT
 70
     0
  9
$DIMALTD
 70
     3
  9
$DIMALTF
 40
0.03937007874016
  9
$DIMLFAC
 40
1.0
  9
$DIMTOFL
 70
     1
  9
$DIMTVP
 40
0.0
  9
$DIMTIX
 70
     0
  9
$DIMSOXD
 70
     0
  9
$DIMSAH
 70
     0
  9
$DIMBLK1
  1

  9
$DIMBLK2
  1

  9
$DIMSTYLE
  2
ISO-25
  9
$DIMCLRD
 70
     0
  9
$DIMCLRE
 70
     0
  9
$DIMCLRT
 70
     0
  9
$DIMTFAC
 40
1.0
  9
$DIMGAP
 40
0.625
  9
$DIMJUST
 70
     0
  9
$DIMSD1
 70
     0
  9
$DIMSD2
 70
     0
  9
$DIMTOLJ
 70
     0
  9
$DIMTZIN
 70
     8
  9
$DIMALTZ
 70
     0
  9
$DIMALTTZ
 70
     0
  9
$DIMUPT
 70
     0
  9
$DIMDEC
 70
     2
  9
$DIMTDEC
 70
     2
  9
$DIMALTU
 70
     2
  9
$DIMALTTD
 70
     3
  9
$DIMTXSTY
  7
Standard
  9
$DIMAUNIT
 70
     0
  9
$DIMADEC
 70
     0
  9
$DIMALTRND
 40
0.0
  9
$DIMAZIN
 70
     0
  9
$DIMDSEP
 70
    44
  9
$DIMATFIT
 70
     3
  9
$DIMFRAC
 70
     0
  9
$DIMLDRBLK
  1

  9
$DIMLUNIT
 70
     2
  9
$DIMLWD
 70
    -2
  9
$DIMLWE
 70
    -2
  9
$DIMTMOVE
 70
     0
  9
$DIMFXL
 40
1.0
  9
$DIMFXLON
 70
     0
  9
$DIMJOGANG
 40
0.7853981633974483
  9
$DIMTFILL
 70
     0
  9
$DIMTFILLCLR
 70
     0
  9
$DIMARCSYM
 70
     0
  9
$DIMLTYPE
  6

  9
$DIMLTEX1
  6

  9
$DIMLTEX2
  6

  9
$DIMTXTDIRECTION
 70
     0
  9
$LUNITS
 70
     2
  9
$LUPREC
 70
     4
  9
$SKETCHINC
 40
1.0
  9
$FILLETRAD
 40
10.0
  9
$AUNITS
 70
     0
  9
$AUPREC
 70
     0
  9
$MENU
  1
.
  9
$ELEVATION
 40
0.0
  9
$PELEVATION
 40
0.0
  9
$THICKNESS
 40
0.0
  9
$LIMCHECK
 70
     0
  9
$CHAMFERA
 40
0.0
  9
$CHAMFERB
 40
0.0
  9
$CHAMFERC
 40
0.0
  9
$CHAMFERD
 40
0.0
  9
$SKPOLY
 70
     0
  9
$TDCREATE
 40
2460851.76634015
  9
$TDUCREATE
 40
2460851.39134015
  9
$TDUPDATE
 40
2460851.766343403
  9
$TDUUPDATE
 40
2460851.391343403
  9
$TDINDWG
 40
0.0000000116
  9
$TDUSRTIMER
 40
0.0000000116
  9
$USRTIMER
 70
     1
  9
$ANGBASE
 50
0.0
  9
$ANGDIR
 70
     0
  9
$PDMODE
 70
     0
  9
$PDSIZE
 40
0.0
  9
$PLINEWID
 40
0.0
  9
$SPLFRAME
 70
     0
  9
$SPLINETYPE
 70
     6
  9
$SPLINESEGS
 70
     8
  9
$HANDSEED
  5
221
  9
$SURFTAB1
 70
     6
  9
$SURFTAB2
 70
     6
  9
$SURFTYPE
 70
     6
  9
$SURFU
 70
     6
  9
$SURFV
 70
     6
  9
$UCSBASE
  2

  9
$UCSNAME
  2

  9
$UCSORG
 10
0.0
 20
0.0
 30
0.0
  9
$UCSXDIR
 10
1.0
 20
0.0
 30
0.0
  9
$UCSYDIR
 10
0.0
 20
1.0
 30
0.0
  9
$UCSORTHOREF
  2

  9
$UCSORTHOVIEW
 70
     0
  9
$UCSORGTOP
 10
0.0
 20
0.0
 30
0.0
  9
$UCSORGBOTTOM
 10
0.0
 20
0.0
 30
0.0
  9
$UCSORGLEFT
 10
0.0
 20
0.0
 30
0.0
  9
$UCSORGRIGHT
 10
0.0
 20
0.0
 30
0.0
  9
$UCSORGFRONT
 10
0.0
 20
0.0
 30
0.0
  9
$UCSORGBACK
 10
0.0
 20
0.0
 30
0.0
  9
$PUCSBASE
  2

  9
$PUCSNAME
  2

  9
$PUCSORG
 10
0.0
 20
0.0
 30
0.0
  9
$PUCSXDIR
 10
1.0
 20
0.0
 30
0.0
  9
$PUCSYDIR
 10
0.0
 20
1.0
 30
0.0
  9
$PUCSORTHOREF
  2

  9
$PUCSORTHOVIEW
 70
     0
  9
$PUCSORGTOP
 10
0.0
 20
0.0
 30
0.0
  9
$PUCSORGBOTTOM
 10
0.0
 20
0.0
 30
0.0
  9
$PUCSORGLEFT
 10
0.0
 20
0.0
 30
0.0
  9
$PUCSORGRIGHT
 10
0.0
 20
0.0
 30
0.0
  9
$PUCSORGFRONT
 10
0.0
 20
0.0
 30
0.0
  9
$PUCSORGBACK
 10
0.0
 20
0.0
 30
0.0
  9
$USERI1
 70
     0
  9
$USERI2
 70
     0
  9
$USERI3
 70
     0
  9
$USERI4
 70
     0
  9
$USERI5
 70
     0
  9
$USERR1
 40
0.0
  9
$USERR2
 40
0.0
  9
$USERR3
 40
0.0
  9
$USERR4
 40
0.0
  9
$USERR5
 40
0.0
  9
$WORLDVIEW
 70
     1
  9
$SHADEDGE
 70
     3
  9
$SHADEDIF
 70
    70
  9
$TILEMODE
 70
     1
  9
$MAXACTVP
 70
    64
  9
$PINSBASE
 10
0.0
 20
0.0
 30
0.0
  9
$PLIMCHECK
 70
     0
  9
$PEXTMIN
 10
1.000000000000000E+20
 20
1.000000000000000E+20
 30
1.000000000000000E+20
  9
$PEXTMAX
 10
-1.000000000000000E+20
 20
-1.000000000000000E+20
 30
-1.000000000000000E+20
  9
$PLIMMIN
 10
0.0
 20
0.0
  9
$PLIMMAX
 10
420.0
 20
297.0
  9
$UNITMODE
 70
     0
  9
$VISRETAIN
 70
     1
  9
$PLINEGEN
 70
     0
  9
$PSLTSCALE
 70
     1
  9
$TREEDEPTH
 70
  3020
  9
$CMLSTYLE
  2
Standard
  9
$CMLJUST
 70
     0
  9
$CMLSCALE
 40
20.0
  9
$PROXYGRAPHICS
 70
     1
  9
$MEASUREMENT
 70
     1
  9
$CELWEIGHT
370
    -1
  9
$ENDCAPS
280
     0
  9
$JOINSTYLE
280
     0
  9
$LWDISPLAY
290
     0
  9
$INSUNITS
 70
     4
  9
$HYPERLINKBASE
  1

  9
$STYLESHEET
  1

  9
$XEDIT
290
     1
  9
$CEPSNTYPE
380
     0
  9
$PSTYLEMODE
290
     1
  9
$FINGERPRINTGUID
  2
{506082c9-632c-4323-bbcf-826dd074e6d0}
  9
$VERSIONGUID
  2
{FAEB1C32-E019-11D5-929B-00C0DF256EC4}
  9
$EXTNAMES
290
     1
  9
$PSVPSCALE
 40
0.0
  9
$OLESTARTUP
290
     0
  9
$SORTENTS
280
   127
  9
$INDEXCTL
280
     0
  9
$HIDETEXT
280
     1
  9
$XCLIPFRAME
280
     2
  9
$HALOGAP
280
     0
  9
$OBSCOLOR
 70
   257
  9
$OBSLTYPE
280
     0
  9
$INTERSECTIONDISPLAY
280
     0
  9
$INTERSECTIONCOLOR
 70
   257
  9
$DIMASSOC
280
     2
  9
$PROJECTNAME
  1

  9
$CAMERADISPLAY
290
     0
  9
$LENSLENGTH
 40
50.0
  9
$CAMERAHEIGHT
 40
0.0
  9
$STEPSPERSEC
 40
2.0
  9
$STEPSIZE
 40
6.0
  9
$3DDWFPREC
 40
2.0
  9
$PSOLWIDTH
 40
5.0
  9
$PSOLHEIGHT
 40
80.0
  9
$LOFTANG1
 40
1.570796326794897
  9
$LOFTANG2
 40
1.570796326794897
  9
$LOFTMAG1
 40
0.0
  9
$LOFTMAG2
 40
0.0
  9
$LOFTPARAM
 70
     7
  9
$LOFTNORMALS
280
     1
  9
$LATITUDE
 40
37.795
  9
$LONGITUDE
 40
-122.394
  9
$NORTHDIRECTION
 40
0.0
  9
$TIMEZONE
 70
 -8000
  9
$LIGHTGLYPHDISPLAY
280
     1
  9
$TILEMODELIGHTSYNCH
280
     1
  9
$CMATERIAL
347
44
  9
$SOLIDHIST
280
     0
  9
$SHOWHIST
280
     1
  9
$DWFFRAME
280
     2
  9
$DGNFRAME
280
     2
  9
$REALWORLDSCALE
290
     1
  9
$INTERFERECOLOR
 62
   256
  9
$CSHADOW
280
     0
  9
$SHADOWPLANELOCATION
 40
0.0
  0
ENDSEC
  0
SECTION
  2
CLASSES
  0
CLASS
  1
ACDBDICTIONARYWDFLT
  2
AcDbDictionaryWithDefault
  3
ObjectDBX Classes
 90
        0
 91
        3
280
     0
281
     0
  0
CLASS
  1
VISUALSTYLE
  2
AcDbVisualStyle
  3
ObjectDBX Classes
 90
     4095
 91
        3
280
     0
281
     0
  0
CLASS
  1
MATERIAL
  2
AcDbMaterial
  3
ObjectDBX Classes
 90
     1153
 91
        3
280
     0
281
     0
  0
CLASS
  1
SCALE
  2
AcDbScale
  3
ObjectDBX Classes
 90
     1153
 91
        3
280
     0
281
     0
  0
CLASS
  1
TABLESTYLE
  2
AcDbTableStyle
  3
ObjectDBX Classes
 90
     4095
 91
        3
280
     0
281
     0
  0
CLASS
  1
MLEADERSTYLE
  2
AcDbMLeaderStyle
  3
ACDB_MLEADERSTYLE_CLASS
 90
     4095
 91
        3
280
     0
281
     0
  0
CLASS
  1
SUN
  2
AcDbSun
  3
SCENEOE
 90
     1153
 91
        3
280
     0
281
     0
  0
CLASS
  1
DICTIONARYVAR
  2
AcDbDictionaryVar
  3
ObjectDBX Classes
 90
        0
 91
        3
280
     0
281
     0
  0
CLASS
  1
CELLSTYLEMAP
  2
AcDbCellStyleMap
  3
ObjectDBX Classes
 90
     1152
 91
        3
280
     0
281
     0
  0
ENDSEC
  0
SECTION
  2
TABLES
  0
TABLE
  2
VPORT
  5
8
330
0
100
AcDbSymbolTable
 70
     1
  0
VPORT
  5
29
330
8
100
AcDbSymbolTableRecord
100
AcDbViewportTableRecord
  2
*Active
 70
     0
 10
0.0
 20
0.0
 11
1.0
 21
1.0
 12
210.0
 22
148.5
 13
0.0
 23
0.0
 14
10.0
 24
10.0
 15
10.0
 25
10.0
 16
0.0
 26
0.0
 36
1.0
 17
0.0
 27
0.0
 37
0.0
 40
282.54
 41
1.444043321299639
 42
50.0
 43
0.0
 44
0.0
 50
0.0
 51
0.0
 71
     0
 72
   100
 73
     1
 74
     3
 75
     0
 76
     0
 77
     0
 78
     0
281
     0
 65
     1
110
0.0
120
0.0
130
0.0
111
1.0
121
0.0
131
0.0
112
0.0
122
1.0
132
0.0
 79
     0
146
0.0
348
2F
 60
     3
 61
     5
292
     1
282
     1
141
0.0
142
0.0
 63
   250
361
6D
  0
ENDTAB
  0
TABLE
  2
LTYPE
  5
5
330
0
100
AcDbSymbolTable
 70
     2
  0
LTYPE
  5
14
330
5
100
AcDbSymbolTableRecord
100
AcDbLinetypeTableRecord
  2
ByBlock
 70
     0
  3

 72
    65
 73
     0
 40
0.0
  0
LTYPE
  5
15
330
5
100
AcDbSymbolTableRecord
100
AcDbLinetypeTableRecord
  2
ByLayer
 70
     0
  3

 72
    65
 73
     0
 40
0.0
  0
LTYPE
  5
16
330
5
100
AcDbSymbolTableRecord
100
AcDbLinetypeTableRecord
  2
Continuous
 70
     0
  3
Solid line
 72
    65
 73
     0
 40
0.0
  0
LTYPE
  5
6E
330
5
100
AcDbSymbolTableRecord
100
AcDbLinetypeTableRecord
  2
dotted
 70
     0
  3
_   _   _   _   _   _   _   _
 72
    65
 73
     2
 40
1.8
 49
0.25
 74
     4
 75
     0
340
0
 46
1.0
 50
0.0
 44
0.0
 45
0.0
 49
-1.5
 74
     4
 75
     0
340
0
 46
1.0
 50
0.0
 44
0.0
 45
0.0
  0
ENDTAB
  0
TABLE
  2
LAYER
  5
2
330
0
100
AcDbSymbolTable
 70
     5
  0
LAYER
  5
10
330
2
100
AcDbSymbolTableRecord
100
AcDbLayerTableRecord
  2
0
 70
     0
 62
     7
  6
Continuous
370
    -3
390
F
347
46
348
0
  0
LAYER
  5
6F
330
2
100
AcDbSymbolTableRecord
100
AcDbLayerTableRecord
  2
LAYER1
 70
     0
 62
    14
  6
Continuous
370
    -3
390
F
347
46
348
0
  0
LAYER
  5
70
330
2
100
AcDbSymbolTableRecord
100
AcDbLayerTableRecord
  2
LAYER5
 70
     0
 62
   214
  6
Continuous
370
    -3
390
F
347
46
348
0
  0
LAYER
  5
71
330
2
100
AcDbSymbolTableRecord
100
AcDbLayerTableRecord
  2
LAYER6
 70
     0
 62
   252
  6
Continuous
370
    -3
390
F
347
46
348
0
  0
LAYER
  5
72
330
2
100
AcDbSymbolTableRecord
100
AcDbLayerTableRecord
  2
LAYER7
 70
     0
 62
    16
  6
Continuous
370
    -3
390
F
347
46
348
0
  0
ENDTAB
  0
TABLE
  2
STYLE
  5
3
330
0
100
AcDbSymbolTable
 70
     3
  0
STYLE
  5
11
330
3
100
AcDbSymbolTableRecord
100
AcDbTextStyleTableRecord
  2
Standard
 70
     0
 40
0.0
 41
1.0
 50
0.0
 71
     0
 42
2.5
  3
txt
  4

  0
STYLE
  5
73
330
3
100
AcDbSymbolTableRecord
100
AcDbTextStyleTableRecord
  2
STANDARD-FC
 70
     0
 40
0.0
 41
1.0
 50
0.0
 71
     0
 42
2.5
  3
txt
  4
bigfont
  0
STYLE
  5
74
330
3
100
AcDbSymbolTableRecord
100
AcDbTextStyleTableRecord
  2
ＭＳ ゴシック
 70
     0
 40
0.0
 41
1.0
 50
0.0
 71
     0
 42
2.5
  3
msgothic.ttc
  4

1001
ACAD
1000
MS Gothic
1071
    32817
  0
ENDTAB
  0
TABLE
  2
VIEW
  5
6
330
0
100
AcDbSymbolTable
 70
     0
  0
ENDTAB
  0
TABLE
  2
UCS
  5
7
330
0
100
AcDbSymbolTable
 70
     0
  0
ENDTAB
  0
TABLE
  2
APPID
  5
9
330
0
100
AcDbSymbolTable
 70
     1
  0
APPID
  5
12
330
9
100
AcDbSymbolTableRecord
100
AcDbRegAppTableRecord
  2
ACAD
 70
     0
  0
ENDTAB
  0
TABLE
  2
DIMSTYLE
  5
A
330
0
100
AcDbSymbolTable
 70
     1
100
AcDbDimStyleTable
  0
DIMSTYLE
105
27
330
A
100
AcDbSymbolTableRecord
100
AcDbDimStyleTableRecord
  2
ISO-25
 70
     0
 41
2.5
 42
0.625
 43
3.75
 44
1.25
 73
     0
 74
     0
 77
     1
 78
     8
140
2.5
141
2.5
143
0.03937007874016
147
0.625
171
     3
172
     1
178
     0
271
     2
272
     2
274
     3
278
    44
283
     0
284
     8
340
11
  0
ENDTAB
  0
TABLE
  2
BLOCK_RECORD
  5
1
330
0
100
AcDbSymbolTable
 70
     3
  0
BLOCK_RECORD
  5
1F
330
1
100
AcDbSymbolTableRecord
100
AcDbBlockTableRecord
  2
*Model_Space
340
22
 70
     0
280
     1
281
     0
  0
BLOCK_RECORD
  5
1B
330
1
100
AcDbSymbolTableRecord
100
AcDbBlockTableRecord
  2
*Paper_Space
340
1E
 70
     0
280
     1
281
     0
  0
BLOCK_RECORD
  5
23
330
1
100
AcDbSymbolTableRecord
100
AcDbBlockTableRecord
  2
*Paper_Space0
340
26
 70
     0
280
     1
281
     0
  0
BLOCK_RECORD
  5
75
330
1
100
AcDbSymbolTableRecord
100
AcDbBlockTableRecord
  2
FcPack%d0
340
0
102
{BLKREFS
331
1B9
102
}
 70
     0
280
     1
281
     0
  0
BLOCK_RECORD
  5
1DC
330
1
100
AcDbSymbolTableRecord
100
AcDbBlockTableRecord
  2
FcPack%d1
340
0
102
{BLKREFS
331
1F7
102
}
 70
     0
280
     1
281
     0
  0
ENDTAB
  0
ENDSEC
  0
SECTION
  2
BLOCKS
  0
BLOCK
  5
20
330
1F
100
AcDbEntity
  8
0
100
AcDbBlockBegin
  2
*Model_Space
 70
     0
 10
0.0
 20
0.0
 30
0.0
  3
*Model_Space
  1

  0
ENDBLK
  5
21
330
1F
100
AcDbEntity
  8
0
100
AcDbBlockEnd
  0
BLOCK
  5
1C
330
1B
100
AcDbEntity
 67
     1
  8
0
100
AcDbBlockBegin
  2
*Paper_Space
 70
     0
 10
0.0
 20
0.0
 30
0.0
  3
*Paper_Space
  1

  0
ENDBLK
  5
1D
330
1B
100
AcDbEntity
 67
     1
  8
0
100
AcDbBlockEnd
  0
BLOCK
  5
24
330
23
100
AcDbEntity
  8
0
100
AcDbBlockBegin
  2
*Paper_Space0
 70
     0
 10
0.0
 20
0.0
 30
0.0
  3
*Paper_Space0
  1

  0
ENDBLK
  5
25
330
23
100
AcDbEntity
  8
0
100
AcDbBlockEnd
  0
BLOCK
  5
76
330
75
100
AcDbEntity
  8
0
100
AcDbBlockBegin
  2
FcPack%d0
 70
     0
 10
0.0
 20
0.0
 30
0.0
  3
FcPack%d0
  1

  0
CIRCLE
  5
78
330
75
100
AcDbEntity
  8
LAYER6
  6
Continuous
 62
     1
370
    13
100
AcDbCircle
 10
-109.2171157078064
 20
-38.78783141960184
 30
0.0
 40
1.0
  0
CIRCLE
  5
79
330
75
100
AcDbEntity
  8
LAYER6
  6
Continuous
 62
     1
370
    13
100
AcDbCircle
 10
-59.6982270373246
 20
-38.47451873264254
 30
0.0
 40
1.0
  0
CIRCLE
  5
7A
330
75
100
AcDbEntity
  8
LAYER6
  6
Continuous
 62
     1
370
    13
100
AcDbCircle
 10
-59.6982270373246
 20
66.50399430694767
 30
0.0
 40
1.0
  0
CIRCLE
  5
7B
330
75
100
AcDbEntity
  8
LAYER6
  6
Continuous
 62
     1
370
    13
100
AcDbCircle
 10
26.99271129374392
 20
-37.9348787780001
 30
0.0
 40
1.0
  0
CIRCLE
  5
7C
330
75
100
AcDbEntity
  8
LAYER6
  6
Continuous
 62
     1
370
    13
100
AcDbCircle
 10
40.4794826243542
 20
-23.93936524429478
 30
0.0
 40
1.0
  0
CIRCLE
  5
7D
330
75
100
AcDbEntity
  8
LAYER6
  6
Continuous
 62
     1
370
    13
100
AcDbCircle
 10
37.06365980863757
 20
66.49664613675145
 30
0.0
 40
1.0
  0
LINE
  5
7E
330
75
100
AcDbEntity
  8
LAYER6
  6
Continuous
 62
     1
370
    13
100
AcDbLine
 10
-108.2171357235229
 20
-38.78150441137939
 30
0.0
 11
-60.69820702160749
 21
-38.48084574086491
 31
0.0
  0
LINE
  5
7F
330
75
100
AcDbEntity
  8
LAYER6
  6
Continuous
 62
     1
370
    13
100
AcDbLine
 10
-59.6982270373246
 20
-37.47451873264254
 30
0.0
 11
-59.69822703732459
 21
65.50399430694767
 31
0.0
  0
LINE
  5
80
330
75
100
AcDbEntity
  8
LAYER6
  6
Continuous
 62
     1
370
    13
100
AcDbLine
 10
-58.69824641127433
 20
-38.46829398170451
 30
0.0
 11
25.9927306676941
 21
-37.9411035289379
 31
0.0
  0
LINE
  5
81
330
75
100
AcDbEntity
  8
LAYER6
  6
Continuous
 62
     1
370
    13
100
AcDbLine
 10
27.68660948511115
 20
-37.21480565670049
 30
0.0
 11
39.78558443298763
 21
-24.65943836559441
 31
0.0
  0
LINE
  5
82
330
75
100
AcDbEntity
  8
LAYER6
  6
Continuous
 62
     1
370
    13
100
AcDbLine
 10
40.44173893321386
 20
-22.94007779126684
 30
0.0
 11
37.10140349977712
 21
65.49735868372349
 31
0.0
  0
LINE
  5
83
330
75
100
AcDbEntity
  8
LAYER6
  6
Continuous
 62
     1
370
    13
100
AcDbLine
 10
36.06365981152067
 20
66.49672207750064
 30
0.0
 11
-58.69822704020801
 21
66.50391836619863
 31
0.0
  0
CIRCLE
  5
84
330
75
100
AcDbEntity
  8
LAYER6
  6
Continuous
 62
     1
370
    13
100
AcDbCircle
 10
19.30552962479123
 20
-77.82689082675927
 30
0.0
 40
1.0
  0
LINE
  5
85
330
75
100
AcDbEntity
  8
LAYER6
  6
Continuous
 62
     1
370
    13
100
AcDbLine
 10
19.26447360413295
 20
-76.82773398062966
 30
0.0
 11
19.34658564545001
 21
-78.82604767288889
 31
0.0
  0
LINE
  5
86
330
75
100
AcDbEntity
  8
LAYER6
  6
Continuous
 62
     1
370
    13
100
AcDbLine
 10
20.30468647092039
 20
-77.78583480610075
 30
0.0
 11
18.30637277866114
 21
-77.86794684741783
 31
0.0
  0
LINE
  5
87
330
75
100
AcDbEntity
  8
LAYER6
  6
Continuous
 62
     8
370
    13
100
AcDbLine
 10
110.1530385571086
 20
-43.05496368329523
 30
0.0
 11
96.20440604553903
 21
-42.15688180663835
 31
0.0
  0
LINE
  5
88
330
75
100
AcDbEntity
  8
LAYER6
  6
Continuous
 62
     8
370
    13
100
AcDbLine
 10
96.20440604553914
 20
-42.15688180663824
 30
0.0
 11
80.7380715263161
 21
-30.1417373406116
 31
0.0
  0
LINE
  5
89
330
75
100
AcDbEntity
  8
LAYER6
  6
Continuous
 62
     8
370
    13
100
AcDbLine
 10
75.92892550786655
 20
97.43738709365164
 30
0.0
 11
80.73807152631636
 21
-30.1417373406116
 31
0.0
  0
LINE
  5
8A
330
75
100
AcDbEntity
  8
LAYER6
  6
Continuous
 62
     8
370
    13
100
AcDbLine
 10
74.00440594529755
 20
-10.46160147108549
 30
0.0
 11
71.65873545644808
 21
-6.474543663912328
 31
0.0
  0
LINE
  5
8B
330
75
100
AcDbEntity
  8
LAYER6
  6
Continuous
 62
     8
370
    13
100
AcDbLine
 10
71.65873545644808
 20
-6.474543663912414
 30
0.0
 11
71.18136919787375
 21
1.002161590086502
 31
0.0
  0
LINE
  5
8C
330
75
100
AcDbEntity
  8
LAYER6
  6
Continuous
 62
     8
370
    13
100
AcDbLine
 10
71.18136919787412
 20
1.00216159008653
 30
0.0
 11
73.2900235652331
 21
5.462495294981011
 31
0.0
  0
LINE
  5
8D
330
75
100
AcDbEntity
  8
LAYER6
  6
Continuous
 62
     8
370
    13
100
AcDbLine
 10
74.00440594529755
 20
-10.46160147108549
 30
0.0
 11
74.8603840630995
 21
-33.17340796334514
 31
0.0
  0
LINE
  5
8E
330
75
100
AcDbEntity
  8
LAYER6
  6
Continuous
 62
     8
370
    13
100
AcDbLine
 10
69.83161613029188
 20
97.207662140401
 30
0.0
 11
73.29002356523262
 21
5.462495294981068
 31
0.0
  0
LINE
  5
8F
330
75
100
AcDbEntity
  8
LAYER6
  6
Continuous
 62
     8
370
    13
100
AcDbLine
 10
74.86038406310035
 20
-33.1734079633452
 30
0.0
 11
93.97909210999578
 21
-48.0259929052863
 31
0.0
  0
LINE
  5
90
330
75
100
AcDbEntity
  8
LAYER6
  6
Continuous
 62
     8
370
    13
100
AcDbLine
 10
93.97909210999569
 20
-48.02599290528622
 30
0.0
 11
109.7675354400632
 21
-49.04243927044766
 31
0.0
  0
CIRCLE
  5
91
330
75
100
AcDbEntity
  8
LAYER6
  6
Continuous
 62
     8
370
    13
100
AcDbCircle
 10
71.0302058831976
 20
16.12870943327584
 30
0.0
 40
0.8
  0
LINE
  5
92
330
75
100
AcDbEntity
  8
LAYER6
  6
Continuous
 62
     8
370
    13
100
AcDbLine
 10
65.71206109492232
 20
58.48207797759517
 30
0.0
 11
65.88269346036162
 21
53.95927004049855
 31
0.0
  0
LINE
  5
93
330
75
100
AcDbEntity
  8
LAYER6
  6
Continuous
 62
     8
370
    13
100
AcDbLine
 10
65.88162600382475
 20
53.98524811849779
 30
0.0
 11
69.37915942632219
 21
54.11715414001836
 31
0.0
  0
LINE
  5
94
330
75
100
AcDbEntity
  8
LAYER6
  6
Continuous
 62
     8
370
    13
100
AcDbLine
 10
65.71206109492232
 20
58.48207797759517
 30
0.0
 11
69.20959451741976
 21
58.61398399911573
 31
0.0
  0
LINE
  5
95
330
75
100
AcDbEntity
  8
LAYER6
  6
Continuous
 62
     8
370
    13
100
AcDbLine
 10
69.20959451741965
 20
58.61398399911559
 30
0.0
 11
69.37915942632185
 21
54.1171541400183
 31
0.0
  0
CIRCLE
  5
96
330
75
100
AcDbEntity
  8
LAYER6
  6
Continuous
 62
     8
370
    13
100
AcDbCircle
 10
49.24601182495189
 20
20.16774263847037
 30
0.0
 40
0.8
  0
LINE
  5
97
330
75
100
AcDbEntity
  8
LAYER6
  6
Continuous
 62
     8
370
    13
100
AcDbLine
 10
36.28702516554495
 20
95.933980811428
 30
0.0
 11
41.00095886186324
 21
-24.20818215905751
 31
0.0
  0
LINE
  5
98
330
75
100
AcDbEntity
  8
LAYER6
  6
Continuous
 62
     8
370
    13
100
AcDbLine
 10
41.00095886186318
 20
-24.20818215905751
 30
0.0
 11
28.66212434711866
 21
-37.88629836041193
 31
0.0
  0
CIRCLE
  5
99
330
75
100
AcDbEntity
  8
LAYER6
  6
Continuous
 62
     8
370
    13
100
AcDbCircle
 10
55.31179120749039
 20
-69.96921992674118
 30
0.0
 40
0.8
  0
LINE
  5
9A
330
75
100
AcDbEntity
  8
LAYER6
  6
Continuous
 62
     8
370
    13
100
AcDbLine
 10
37.00410571681368
 20
63.5617264938337
 30
0.0
 11
36.74902113593055
 21
71.71813083990415
 31
0.0
  0
LINE
  5
9B
330
75
100
AcDbEntity
  8
LAYER6
  6
Continuous
 62
     8
370
    13
100
AcDbLine
 10
37.00410571681368
 20
63.5617264938337
 30
0.0
 11
32.7957558439835
 21
63.43023752908695
 31
0.0
  0
LINE
  5
9C
330
75
100
AcDbEntity
  8
LAYER6
  6
Continuous
 62
     8
370
    13
100
AcDbLine
 10
36.85534860882944
 20
67.66908225183965
 30
0.0
 11
32.66738974686456
 21
67.53823099854506
 31
0.0
  0
LINE
  5
9D
330
75
100
AcDbEntity
  8
LAYER6
  6
Continuous
 62
     8
370
    13
100
AcDbLine
 10
36.74902113593089
 20
71.71813083990412
 30
0.0
 11
32.54067126310071
 21
71.58664187515737
 31
0.0
  0
LINE
  5
9E
330
75
100
AcDbEntity
  8
LAYER6
  6
Continuous
 62
     8
370
    13
100
AcDbLine
 10
32.6673897468645
 20
67.53823099854515
 30
0.0
 11
32.79575584398324
 21
63.43023752908698
 31
0.0
  0
LINE
  5
9F
330
75
100
AcDbEntity
  8
LAYER6
  6
Continuous
 62
     8
370
    13
100
AcDbLine
 10
32.54067126310019
 20
71.58664187515728
 30
0.0
 11
32.66738974686461
 21
67.538230998545
 31
0.0
  0
LINE
  5
A0
330
75
100
AcDbEntity
  8
LAYER6
  6
Continuous
 62
     8
370
    13
100
AcDbLine
 10
32.69994587574365
 20
66.49749011894414
 30
0.0
 11
7.509148983783007
 21
65.51242568044898
 31
0.0
  0
LINE
  5
A1
330
75
100
AcDbEntity
  8
LAYER6
  6
Continuous
 62
     8
370
    13
100
AcDbLine
 10
7.509148983783234
 20
65.51242568044893
 30
0.0
 11
-16.73558764189741
 21
66.34773756913617
 31
0.0
  0
LINE
  5
A2
330
75
100
AcDbEntity
  8
LAYER6
  6
Continuous
 62
     8
370
    13
100
AcDbLine
 10
-67.34577588351475
 20
66.4374093942256
 30
0.0
 11
-16.73558764189747
 21
66.34773756913614
 31
0.0
  0
LINE
  5
A3
330
75
100
AcDbEntity
  8
LAYER6
  6
Continuous
 62
     8
370
    13
100
AcDbLine
 10
37.44782890026727
 20
61.28802692342742
 30
0.0
 11
37.15880594574057
 21
70.5139396550631
 31
0.0
  0
LINE
  5
A4
330
75
100
AcDbEntity
  8
LAYER6
  6
Continuous
 62
     8
370
    13
100
AcDbLine
 10
36.61698116318439
 20
84.69865438271995
 30
0.0
 11
37.15880594574085
 21
70.51393965506307
 31
0.0
  0
LINE
  5
A5
330
75
100
AcDbEntity
  8
LAYER6
  6
Continuous
 62
     8
370
    13
100
AcDbLine
 10
37.44782890026727
 20
61.28802692342742
 30
0.0
 11
35.94849421317122
 21
61.24103058239308
 31
0.0
  0
LINE
  5
A6
330
75
100
AcDbEntity
  8
LAYER6
  6
Continuous
 62
     8
370
    13
100
AcDbLine
 10
35.94849421317122
 20
61.24103058239325
 30
0.0
 11
35.8767967983176
 21
63.52661407041188
 31
0.0
  0
LINE
  5
A7
330
75
100
AcDbEntity
  8
LAYER6
  6
Continuous
 62
     8
370
    13
100
AcDbLine
 10
-67.35206837166878
 20
67.43749603925312
 30
0.0
 11
-16.71762771900126
 21
67.34771806953091
 31
0.0
  0
LINE
  5
A8
330
75
100
AcDbEntity
  8
LAYER6
  6
Continuous
 62
     8
370
    13
100
AcDbLine
 10
-16.71762771900102
 20
67.34771806953086
 30
0.0
 11
7.506660417385433
 21
66.51316728897604
 31
0.0
  0
LINE
  5
A9
330
75
100
AcDbEntity
  8
LAYER6
  6
Continuous
 62
     8
370
    13
100
AcDbLine
 10
7.506660417385319
 20
66.51316728897598
 30
0.0
 11
32.66868159217736
 21
67.49704931407629
 31
0.0
  0
LINE
  5
AA
330
75
100
AcDbEntity
  8
LAYER6
  6
Continuous
 62
     8
370
    13
100
AcDbLine
 10
-61.26317225569254
 20
66.42667869487332
 30
0.0
 11
-61.26143151852025
 21
67.42679341321019
 31
0.0
  0
LINE
  5
AB
330
75
100
AcDbEntity
  8
LAYER6
  6
Continuous
 62
     8
370
    13
100
AcDbLine
 10
-57.2631130450827
 20
66.41969932377549
 30
0.0
 11
-57.26136409670629
 21
67.41961421074319
 31
0.0
  0
LINE
  5
AC
330
75
100
AcDbEntity
  8
LAYER6
  6
Continuous
 62
     8
370
    13
100
AcDbLine
 10
-53.2632454546392
 20
66.41251191010451
 30
0.0
 11
-53.26129667489339
 21
67.41243500827636
 31
0.0
  0
LINE
  5
AD
330
75
100
AcDbEntity
  8
LAYER6
  6
Continuous
 62
     8
370
    13
100
AcDbLine
 10
-49.26318624403028
 20
66.40553253900703
 30
0.0
 11
-49.26143729565364
 21
67.40544742597473
 31
0.0
  0
LINE
  5
AE
330
75
100
AcDbEntity
  8
LAYER6
  6
Continuous
 62
     8
370
    13
100
AcDbLine
 10
-45.2631188222167
 20
66.39835333654014
 30
0.0
 11
-45.26136987384028
 21
67.39826822350784
 31
0.0
  0
LINE
  5
AF
330
75
100
AcDbEntity
  8
LAYER6
  6
Continuous
 62
     8
370
    13
100
AcDbLine
 10
-41.2632512317732
 20
66.39116592286905
 30
0.0
 11
-41.26131066323151
 21
67.39128885241007
 31
0.0
  0
LINE
  5
B0
330
75
100
AcDbEntity
  8
LAYER6
  6
Continuous
 62
     8
370
    13
100
AcDbLine
 10
-37.26319202116336
 20
66.38418655177156
 30
0.0
 11
-37.26144307278672
 21
67.38410143873926
 31
0.0
  0
LINE
  5
B1
330
75
100
AcDbEntity
  8
LAYER6
  6
Continuous
 62
     8
370
    13
100
AcDbLine
 10
-33.26312459934978
 20
66.37700734930468
 30
0.0
 11
-33.26138386217727
 21
67.37712206764155
 31
0.0
  0
LINE
  5
B2
330
75
100
AcDbEntity
  8
LAYER6
  6
Continuous
 62
     8
370
    13
100
AcDbLine
 10
-29.26326522011003
 20
66.37001976700299
 30
0.0
 11
-29.26151627173338
 21
67.36993465397069
 31
0.0
  0
LINE
  5
B3
330
75
100
AcDbEntity
  8
LAYER6
  6
Continuous
 62
     8
370
    13
100
AcDbLine
 10
-25.26319779829736
 20
66.3628405645361
 30
0.0
 11
-25.26145706112484
 21
67.36295528287297
 31
0.0
  0
LINE
  5
B4
330
75
100
AcDbEntity
  8
LAYER6
  6
Continuous
 62
     8
370
    13
100
AcDbLine
 10
-21.26313858768752
 20
66.35586119343839
 30
0.0
 11
-21.26138963931088
 21
67.35577608040609
 31
0.0
  0
LINE
  5
B5
330
75
100
AcDbEntity
  8
LAYER6
  6
Continuous
 62
     8
370
    13
100
AcDbLine
 10
-17.26327099724402
 20
66.34867377976752
 30
0.0
 11
-17.26153026007151
 21
67.3487884981044
 31
0.0
  0
LINE
  5
B6
330
75
100
AcDbEntity
  8
LAYER6
  6
Continuous
 62
     8
370
    13
100
AcDbLine
 10
-13.26535851164952
 20
66.22831067274763
 30
0.0
 11
-13.2307551066788
 21
67.2275738835007
 31
0.0
  0
LINE
  5
B7
330
75
100
AcDbEntity
  8
LAYER6
  6
Continuous
 62
     8
370
    13
100
AcDbLine
 10
-9.267730808141991
 20
66.09052118058435
 30
0.0
 11
-9.233135614375158
 21
67.08998422270662
 31
0.0
  0
LINE
  5
B8
330
75
100
AcDbEntity
  8
LAYER6
  6
Continuous
 62
     8
370
    13
100
AcDbLine
 10
-5.270103104635382
 20
65.95273168842107
 30
0.0
 11
-5.23550791086879
 21
66.95219473054331
 31
0.0
  0
LINE
  5
B9
330
75
100
AcDbEntity
  8
LAYER6
  6
Continuous
 62
     8
370
    13
100
AcDbLine
 10
-1.272475401127849
 20
65.81494219625768
 30
0.0
 11
-1.237880207361258
 21
66.81440523837992
 31
0.0
  0
LINE
  5
BA
330
75
100
AcDbEntity
  8
LAYER6
  6
Continuous
 62
     8
370
    13
100
AcDbLine
 10
2.725144091175025
 20
65.67735253546368
 30
0.0
 11
2.759739284941844
 21
66.67681557758596
 31
0.0
  0
LINE
  5
BB
330
75
100
AcDbEntity
  8
LAYER6
  6
Continuous
 62
     8
370
    13
100
AcDbLine
 10
6.722771794682558
 20
65.5395630433004
 30
0.0
 11
6.757366988449149
 21
66.53902608542265
 31
0.0
  0
LINE
  5
BC
330
75
100
AcDbEntity
  8
LAYER6
  6
Continuous
 62
     8
370
    13
100
AcDbLine
 10
10.79344046417464
 20
65.64097400533421
 30
0.0
 11
10.75438275720853
 21
66.64021296350515
 31
0.0
  0
LINE
  5
BD
330
75
100
AcDbEntity
  8
LAYER6
  6
Continuous
 62
     8
370
    13
100
AcDbLine
 10
14.79039629685758
 20
65.79720483319943
 30
0.0
 11
14.75133858989147
 21
66.79644379137036
 31
0.0
  0
LINE
  5
BE
330
75
100
AcDbEntity
  8
LAYER6
  6
Continuous
 62
     8
370
    13
100
AcDbLine
 10
18.78735212954143
 20
65.95343566106453
 30
0.0
 11
18.74829442257533
 21
66.95267461923547
 31
0.0
  0
LINE
  5
BF
330
75
100
AcDbEntity
  8
LAYER6
  6
Continuous
 62
     8
370
    13
100
AcDbLine
 10
22.78429975102154
 20
66.10986632029892
 30
0.0
 11
22.74524204405543
 21
67.10910527846985
 31
0.0
  0
LINE
  5
C0
330
75
100
AcDbEntity
  8
LAYER6
  6
Continuous
 62
     8
370
    13
100
AcDbLine
 10
26.78125558370539
 20
66.26609714816402
 30
0.0
 11
26.74219787673928
 21
67.26533610633496
 31
0.0
  0
LINE
  5
C1
330
75
100
AcDbEntity
  8
LAYER6
  6
Continuous
 62
     8
370
    13
100
AcDbLine
 10
30.77821141638924
 20
66.42232797602901
 30
0.0
 11
30.73915370942314
 21
67.42156693419994
 31
0.0
  0
LINE
  5
C2
330
75
100
AcDbEntity
  8
LAYER6
  6
Continuous
 62
     8
370
    13
100
AcDbLine
 10
53.94703002112874
 20
-100.5710536447425
 30
0.0
 11
51.14855992001227
 21
-84.17612424284638
 31
0.0
  0
LINE
  5
C3
330
75
100
AcDbEntity
  8
LAYER6
  6
Continuous
 62
     8
370
    13
100
AcDbLine
 10
51.36339940808557
 20
-85.43436467867912
 30
0.0
 11
27.2747137639391
 21
-81.08968702234068
 31
0.0
  0
LINE
  5
C4
330
75
100
AcDbEntity
  8
LAYER6
  6
Continuous
 62
     8
370
    13
100
AcDbLine
 10
58.87564686870155
 20
-99.7297949390969
 30
0.0
 11
56.23002116912468
 21
-84.22914436895182
 31
0.0
  0
LINE
  5
C5
330
75
100
AcDbEntity
  8
LAYER6
  6
Continuous
 62
     8
370
    13
100
AcDbLine
 10
51.1485599200123
 20
-84.17612424284641
 30
0.0
 11
27.48760872075241
 21
-79.90875069155774
 31
0.0
  0
LINE
  5
C6
330
75
100
AcDbEntity
  8
LAYER6
  6
Continuous
 62
     8
370
    13
100
AcDbLine
 10
13.52893228715038
 20
-78.55189436091473
 30
0.0
 11
16.01293394090732
 21
-64.95844977228553
 31
0.0
  0
LINE
  5
C7
330
75
100
AcDbEntity
  8
LAYER6
  6
Continuous
 62
     8
370
    13
100
AcDbLine
 10
16.01293394090771
 20
-64.95844977228558
 30
0.0
 11
29.69589208548217
 21
-67.42876481572196
 31
0.0
  0
LINE
  5
C8
330
75
100
AcDbEntity
  8
LAYER6
  6
Continuous
 62
     8
370
    13
100
AcDbLine
 10
29.69589208548223
 20
-67.42876481572193
 30
0.0
 11
27.27471376393913
 21
-81.08968702234071
 31
0.0
  0
LINE
  5
C9
330
75
100
AcDbEntity
  8
LAYER6
  6
Continuous
 62
     8
370
    13
100
AcDbLine
 10
15.23946232610979
 20
-67.81261193675721
 30
0.0
 11
12.55336884054427
 21
-68.69363508446824
 31
0.0
  0
LINE
  5
CA
330
75
100
AcDbEntity
  8
LAYER6
  6
Continuous
 62
     8
370
    13
100
AcDbLine
 10
17.23686760390046
 20
-66.60258618651403
 30
0.0
 11
15.29881351922592
 21
-77.53837552816088
 31
0.0
  0
LINE
  5
CB
330
75
100
AcDbEntity
  8
LAYER6
  6
Continuous
 62
     8
370
    13
100
AcDbLine
 10
28.15157320244725
 20
-68.573133282389
 30
0.0
 11
26.21331107519961
 21
-79.50873100387074
 31
0.0
  0
LINE
  5
CC
330
75
100
AcDbEntity
  8
LAYER6
  6
Continuous
 62
     8
370
    13
100
AcDbLine
 10
13.52893228715038
 20
-78.55189436091473
 30
0.0
 11
27.27471376393865
 21
-81.08968702234068
 31
0.0
  0
LINE
  5
CD
330
75
100
AcDbEntity
  8
LAYER6
  6
Continuous
 62
     8
370
    13
100
AcDbLine
 10
13.07870906878452
 20
-78.6482599857186
 30
0.0
 11
15.35374094993645
 21
-95.68141780274544
 31
0.0
  0
LINE
  5
CE
330
75
100
AcDbEntity
  8
LAYER6
  6
Continuous
 62
     8
370
    13
100
AcDbLine
 10
15.60138688477764
 20
-95.64822245734445
 30
0.0
 11
13.32188772754782
 21
-78.57941799328813
 31
0.0
  0
LINE
  5
CF
330
75
100
AcDbEntity
  8
LAYER6
  6
Continuous
 62
     8
370
    13
100
AcDbLine
 10
16.65846501235774
 20
-94.49825343506893
 30
0.0
 11
14.55396745753328
 21
-78.74117008434257
 31
0.0
  0
LINE
  5
D0
330
75
100
AcDbEntity
  8
LAYER6
  6
Continuous
 62
     8
370
    13
100
AcDbLine
 10
12.02935837014775
 20
-79.85475941434265
 30
0.0
 11
14.16425646987994
 21
-95.84018716913732
 31
0.0
  0
LINE
  5
D1
330
75
100
AcDbEntity
  8
LAYER6
  6
Continuous
 62
     8
370
    13
100
AcDbLine
 10
13.07870906878452
 20
-78.6482599857186
 30
0.0
 11
-22.15820683804998
 21
-78.86733224475581
 31
0.0
  0
LINE
  5
D2
330
75
100
AcDbEntity
  8
LAYER6
  6
Continuous
 62
     8
370
    13
100
AcDbLine
 10
-22.1582068380503
 20
-78.86733224475574
 30
0.0
 11
-32.29034025471466
 21
-79.02344895403304
 31
0.0
  0
LINE
  5
D3
330
75
100
AcDbEntity
  8
LAYER6
  6
Continuous
 62
     8
370
    13
100
AcDbLine
 10
-32.29034025471445
 20
-79.02344895403303
 30
0.0
 11
-47.93644965789106
 21
-79.19596139945162
 31
0.0
  0
LINE
  5
D4
330
75
100
AcDbEntity
  8
LAYER6
  6
Continuous
 62
     8
370
    13
100
AcDbLine
 10
-47.93644965789098
 20
-79.19596139945156
 30
0.0
 11
-65.51941541493287
 21
-78.99768082377624
 31
0.0
  0
LINE
  5
D5
330
75
100
AcDbEntity
  8
LAYER6
  6
Continuous
 62
     8
370
    13
100
AcDbLine
 10
-65.52275310747426
 20
-80.19762959760305
 30
0.0
 11
-47.93658183732052
 21
-80.3959786253815
 31
0.0
  0
LINE
  5
D6
330
75
100
AcDbEntity
  8
LAYER6
  6
Continuous
 62
     8
370
    13
100
AcDbLine
 10
-47.93658183732076
 20
-80.39597862538153
 30
0.0
 11
-32.27446950219773
 21
-80.22320894637086
 31
0.0
  0
LINE
  5
D7
330
75
100
AcDbEntity
  8
LAYER6
  6
Continuous
 62
     8
370
    13
100
AcDbLine
 10
-32.27446950219745
 20
-80.22320894637085
 30
0.0
 11
-22.14533355607163
 21
-80.06721540515554
 31
0.0
  0
LINE
  5
D8
330
75
100
AcDbEntity
  8
LAYER6
  6
Continuous
 62
     8
370
    13
100
AcDbLine
 10
-22.1453335560718
 20
-80.06721540515548
 30
0.0
 11
12.02935837014712
 21
-79.85475941434255
 31
0.0
  0
LINE
  5
D9
330
75
100
AcDbEntity
  8
LAYER6
  6
Continuous
 62
     8
370
    13
100
AcDbLine
 10
12.55303509605619
 20
-68.65141318713256
 30
0.0
 11
-22.26644136787544
 21
-68.86774473293531
 31
0.0
  0
LINE
  5
DA
330
75
100
AcDbEntity
  8
LAYER6
  6
Continuous
 62
     8
370
    13
100
AcDbLine
 10
-22.26644136787489
 20
-68.86774473293531
 30
0.0
 11
-32.42257918245865
 21
-69.0242472926007
 31
0.0
  0
LINE
  5
DB
330
75
100
AcDbEntity
  8
LAYER6
  6
Continuous
 62
     8
370
    13
100
AcDbLine
 10
-32.42257918245922
 20
-69.02424729260076
 30
0.0
 11
-47.93523683827956
 21
-69.19527949224802
 31
0.0
  0
LINE
  5
DC
330
75
100
AcDbEntity
  8
LAYER6
  6
Continuous
 62
     8
370
    13
100
AcDbLine
 10
-47.93523683827969
 20
-69.195279492248
 30
0.0
 11
-65.49256670163182
 21
-68.9973467020284
 31
0.0
  0
LINE
  5
DD
330
75
100
AcDbEntity
  8
LAYER6
  6
Continuous
 62
     8
370
    13
100
AcDbLine
 10
12.61523451012272
 20
-78.65109079358012
 30
0.0
 11
12.55336884054418
 21
-68.69363508446808
 31
0.0
  0
LINE
  5
DE
330
75
100
AcDbEntity
  8
LAYER6
  6
Continuous
 62
     8
370
    13
100
AcDbLine
 10
9.615276205499868
 20
-78.66987297998264
 30
0.0
 11
9.553068580230104
 21
-68.6699955421658
 31
0.0
  0
LINE
  5
DF
330
75
100
AcDbEntity
  8
LAYER6
  6
Continuous
 62
     8
370
    13
100
AcDbLine
 10
6.615309689673268
 20
-78.68845533501599
 30
0.0
 11
6.553102064403504
 21
-68.68857789719914
 31
0.0
  0
LINE
  5
E0
330
75
100
AcDbEntity
  8
LAYER6
  6
Continuous
 62
     8
370
    13
100
AcDbLine
 10
3.615343173846668
 20
-78.70703769004922
 30
0.0
 11
3.553143759781022
 21
-68.70736008360161
 31
0.0
  0
LINE
  5
E1
330
75
100
AcDbEntity
  8
LAYER6
  6
Continuous
 62
     8
370
    13
100
AcDbLine
 10
0.6153848692238171
 20
-78.72581987645174
 30
0.0
 11
0.5531772439540532
 21
-68.72594243863489
 31
0.0
  0
LINE
  5
E2
330
75
100
AcDbEntity
  8
LAYER6
  6
Continuous
 62
     8
370
    13
100
AcDbLine
 10
-2.384581646602783
 20
-78.74440223148508
 30
0.0
 11
-2.446589440503374
 21
-68.74451658246412
 31
0.0
  0
LINE
  5
E3
330
75
100
AcDbEntity
  8
LAYER6
  6
Continuous
 62
     8
370
    13
100
AcDbLine
 10
-5.384548162429383
 20
-78.7629845865182
 30
0.0
 11
-5.446547745125855
 21
-68.76329876886646
 31
0.0
  0
LINE
  5
E4
330
75
100
AcDbEntity
  8
LAYER6
  6
Continuous
 62
     8
370
    13
100
AcDbLine
 10
-8.384514678255968
 20
-78.78156694155155
 30
0.0
 11
-8.44651426095244
 21
-68.78188112389981
 31
0.0
  0
LINE
  5
E5
330
75
100
AcDbEntity
  8
LAYER6
  6
Continuous
 62
     8
370
    13
100
AcDbLine
 10
-11.38427315150965
 20
-78.80034091674997
 30
0.0
 11
-11.44648077677942
 21
-68.80046347893312
 31
0.0
  0
LINE
  5
E6
330
75
100
AcDbEntity
  8
LAYER6
  6
Continuous
 62
     8
370
    13
100
AcDbLine
 10
-14.38423966733625
 20
-78.81892327178309
 30
0.0
 11
-14.44644729260602
 21
-68.81904583396624
 31
0.0
  0
LINE
  5
E7
330
75
100
AcDbEntity
  8
LAYER6
  6
Continuous
 62
     8
370
    13
100
AcDbLine
 10
-17.38420618316285
 20
-78.83750562681644
 30
0.0
 11
-17.44640559722849
 21
-68.83782802036883
 31
0.0
  0
LINE
  5
E8
330
75
100
AcDbEntity
  8
LAYER6
  6
Continuous
 62
     8
370
    13
100
AcDbLine
 10
-20.3841644877857
 20
-78.85628781321896
 30
0.0
 11
-20.44637211305547
 21
-68.8564103754021
 31
0.0
  0
LINE
  5
E9
330
75
100
AcDbEntity
  8
LAYER6
  6
Continuous
 62
     8
370
    13
100
AcDbLine
 10
-23.38407083891978
 20
-78.88607714733712
 30
0.0
 11
-23.44633862888281
 21
-68.87499273043537
 31
0.0
  0
LINE
  5
EA
330
75
100
AcDbEntity
  8
LAYER6
  6
Continuous
 62
     8
370
    13
100
AcDbLine
 10
-26.38390336542214
 20
-78.93227728734428
 30
0.0
 11
-26.44629693350466
 21
-68.8937749168379
 31
0.0
  0
LINE
  5
EB
330
75
100
AcDbEntity
  8
LAYER6
  6
Continuous
 62
     8
370
    13
100
AcDbLine
 10
-29.38352784935158
 20
-78.9786690475164
 30
0.0
 11
-29.44575189702985
 21
-68.97839194696111
 31
0.0
  0
LINE
  5
EC
330
75
100
AcDbEntity
  8
LAYER6
  6
Continuous
 62
     8
370
    13
100
AcDbLine
 10
-32.38337679826235
 20
-79.0244695247851
 30
0.0
 11
-32.44558442353213
 21
-69.02459208696825
 31
0.0
  0
LINE
  5
ED
330
75
100
AcDbEntity
  8
LAYER6
  6
Continuous
 62
     8
370
    13
100
AcDbLine
 10
-35.38315177013008
 20
-79.05745616081094
 30
0.0
 11
-35.44521711866575
 21
-69.0707840157713
 31
0.0
  0
LINE
  5
EE
330
75
100
AcDbEntity
  8
LAYER6
  6
Continuous
 62
     8
370
    13
100
AcDbLine
 10
-38.38311836216324
 20
-79.09065083941005
 30
0.0
 11
-38.44504964516869
 21
-69.11698415577831
 31
0.0
  0
LINE
  5
EF
330
75
100
AcDbEntity
  8
LAYER6
  6
Continuous
 62
     8
370
    13
100
AcDbLine
 10
-41.38289333403007
 20
-79.12363747543577
 30
0.0
 11
-41.44488217167059
 21
-69.16318429578536
 31
0.0
  0
LINE
  5
F0
330
75
100
AcDbEntity
  8
LAYER6
  6
Continuous
 62
     8
370
    13
100
AcDbLine
 10
-44.38286813726698
 20
-79.1566323226657
 30
0.0
 11
-44.44451486680398
 21
-69.20937622458834
 31
0.0
  0
LINE
  5
F1
330
75
100
AcDbEntity
  8
LAYER6
  6
Continuous
 62
     8
370
    13
100
AcDbLine
 10
-47.38263489793097
 20
-79.18981879006071
 30
0.0
 11
-47.44433918210304
 21
-69.25577619596464
 31
0.0
  0
LINE
  5
F2
330
75
100
AcDbEntity
  8
LAYER6
  6
Continuous
 62
     8
370
    13
100
AcDbLine
 10
-50.38284483499955
 20
-79.16837739281993
 30
0.0
 11
-50.44417170860565
 21
-69.3019763359718
 31
0.0
  0
LINE
  5
F3
330
75
100
AcDbEntity
  8
LAYER6
  6
Continuous
 62
     8
370
    13
100
AcDbLine
 10
-53.38316420398586
 20
-79.13453002827885
 30
0.0
 11
-53.44400423510842
 21
-69.34817647597895
 31
0.0
  0
LINE
  5
F4
330
75
100
AcDbEntity
  8
LAYER6
  6
Continuous
 62
     8
370
    13
100
AcDbLine
 10
-56.38328374160209
 20
-79.10067445253355
 30
0.0
 11
-56.445548845301
 21
-69.09939819513215
 31
0.0
  0
LINE
  5
F5
330
75
100
AcDbEntity
  8
LAYER6
  6
Continuous
 62
     8
370
    13
100
AcDbLine
 10
-59.3836031105884
 20
-79.06682708799246
 30
0.0
 11
-59.44586821428732
 21
-69.06555083059106
 31
0.0
  0
LINE
  5
F6
330
75
100
AcDbEntity
  8
LAYER6
  6
Continuous
 62
     8
370
    13
100
AcDbLine
 10
-62.38392247957471
 20
-79.03297972345138
 30
0.0
 11
-62.44598775190445
 21
-69.03169525484584
 31
0.0
  0
LINE
  5
F7
330
75
100
AcDbEntity
  8
LAYER6
  6
Continuous
 62
     8
370
    13
100
AcDbLine
 10
-65.38424184856102
 20
-78.99913235891029
 30
0.0
 11
-65.4463399657073
 21
-68.99704856482785
 31
0.0
  0
LINE
  5
F8
330
75
100
AcDbEntity
  8
LAYER6
  6
Continuous
 62
     8
370
    13
100
AcDbLine
 10
-91.33333923170811
 20
-44.45076945124219
 30
0.0
 11
31.34140417168933
 21
-43.87374613234697
 31
0.0
  0
LINE
  5
F9
330
75
100
AcDbEntity
  8
LAYER6
  6
Continuous
 62
     8
370
    13
100
AcDbLine
 10
31.34140417168874
 20
-43.87374613234692
 30
0.0
 11
47.09203065823206
 21
-26.41336629909574
 31
0.0
  0
LINE
  5
FA
330
75
100
AcDbEntity
  8
LAYER6
  6
Continuous
 62
     8
370
    13
100
AcDbLine
 10
47.09203065823203
 20
-26.41336629909586
 30
0.0
 11
42.28242606975365
 21
96.16912637870246
 31
0.0
  0
LINE
  5
FB
330
75
100
AcDbEntity
  8
LAYER6
  6
Continuous
 62
     8
370
    13
100
AcDbLine
 10
-109.991834244508
 20
-44.53448359184642
 30
0.0
 11
-104.528660082534
 21
-48.88385458958172
 31
0.0
  0
LINE
  5
FC
330
75
100
AcDbEntity
  8
LAYER6
  6
Continuous
 62
     8
370
    13
100
AcDbLine
 10
-104.5286600825338
 20
-48.8838545895818
 30
0.0
 11
-96.8927765403673
 21
-48.87034420579606
 31
0.0
  0
LINE
  5
FD
330
75
100
AcDbEntity
  8
LAYER6
  6
Continuous
 62
     8
370
    13
100
AcDbLine
 10
-96.89277654036776
 20
-48.87034420579607
 30
0.0
 11
-91.33333923170869
 21
-44.45076945124218
 31
0.0
  0
LINE
  5
FE
330
75
100
AcDbEntity
  8
LAYER6
  6
Continuous
 62
     8
370
    13
100
AcDbLine
 10
17.23686760390046
 20
-66.60258618651403
 30
0.0
 11
28.15157320244674
 21
-68.57313328238892
 31
0.0
  0
LINE
  5
FF
330
75
100
AcDbEntity
  8
LAYER6
  6
Continuous
 62
     8
370
    13
100
AcDbLine
 10
15.29881351922631
 20
-77.53837552816094
 30
0.0
 11
26.2133110751995
 21
-79.50873100387072
 31
0.0
  0
LINE
  5
100
330
75
100
AcDbEntity
  8
LAYER6
  6
Continuous
 62
     8
370
    13
100
AcDbLine
 10
-93.15921752289795
 20
-39.2593555873932
 30
0.0
 11
29.01919686524332
 21
-38.68451140014506
 31
0.0
  0
LINE
  5
101
330
75
100
AcDbEntity
  8
LAYER6
  6
Continuous
 62
     8
370
    13
100
AcDbLine
 10
29.01919686524343
 20
-38.68451140014497
 30
0.0
 11
41.81311016341451
 21
-24.50208626482745
 31
0.0
  0
LINE
  5
102
330
75
100
AcDbEntity
  8
LAYER6
  6
Continuous
 62
     8
370
    13
100
AcDbLine
 10
41.81311016341442
 20
-24.50208626482743
 30
0.0
 11
38.20043466417079
 21
67.57282497301821
 31
0.0
  0
LINE
  5
103
330
75
100
AcDbEntity
  8
LAYER6
  6
Continuous
 62
     8
370
    13
100
AcDbLine
 10
38.20043466417155
 20
67.5728249730181
 30
0.0
 11
37.08641633208217
 21
95.9652269770009
 31
0.0
  0
LINE
  5
104
330
75
100
AcDbEntity
  8
LAYER6
  6
Continuous
 62
     8
370
    13
100
AcDbLine
 10
41.48303490321723
 20
96.13788021312962
 30
0.0
 11
46.27987935668085
 21
-26.11946219332577
 31
0.0
  0
LINE
  5
105
330
75
100
AcDbEntity
  8
LAYER6
  6
Continuous
 62
     8
370
    13
100
AcDbLine
 10
46.27987935668079
 20
-26.11946219332583
 30
0.0
 11
30.98412361099068
 21
-43.07534147244874
 31
0.0
  0
LINE
  5
106
330
75
100
AcDbEntity
  8
LAYER6
  6
Continuous
 62
     8
370
    13
100
AcDbLine
 10
30.98412361099145
 20
-43.07534147244871
 30
0.0
 11
-91.61416925250417
 21
-43.6520257505348
 31
0.0
  0
LINE
  5
107
330
75
100
AcDbEntity
  8
LAYER6
  6
Continuous
 62
     8
370
    13
100
AcDbLine
 10
-91.61416925250431
 20
-43.65202575053479
 30
0.0
 11
-97.1726402491337
 21
-48.07076012359113
 31
0.0
  0
LINE
  5
108
330
75
100
AcDbEntity
  8
LAYER6
  6
Continuous
 62
     8
370
    13
100
AcDbLine
 10
-97.172640249134
 20
-48.07076012359119
 30
0.0
 11
-104.2498912073366
 21
-48.0833344872602
 31
0.0
  0
LINE
  5
109
330
75
100
AcDbEntity
  8
LAYER6
  6
Continuous
 62
     8
370
    13
100
AcDbLine
 10
-104.2498912073361
 20
-48.08333448726012
 30
0.0
 11
-109.71368949703
 21
-43.73338862902951
 31
0.0
  0
LINE
  5
10A
330
75
100
AcDbEntity
  8
LAYER6
  6
Continuous
 62
     8
370
    13
100
AcDbLine
 10
29.01919686524343
 20
-38.68451140014497
 30
0.0
 11
30.98412361099088
 21
-43.07534147244871
 31
0.0
  0
LINE
  5
10B
330
75
100
AcDbEntity
  8
LAYER6
  6
Continuous
 62
     8
370
    13
100
AcDbLine
 10
41.81311016341442
 20
-24.50208626482743
 30
0.0
 11
46.27987935668068
 21
-26.1194621933258
 31
0.0
  0
LINE
  5
10C
330
75
100
AcDbEntity
  8
LAYER6
  6
Continuous
 62
     8
370
    13
100
AcDbLine
 10
33.50013773952287
 20
-40.28629234684558
 30
0.0
 11
30.23298483299558
 21
-37.33914374431976
 31
0.0
  0
LINE
  5
10D
330
75
100
AcDbEntity
  8
LAYER6
  6
Continuous
 62
     8
370
    13
100
AcDbLine
 10
36.84913577560019
 20
-36.57366549859466
 30
0.0
 11
33.58198286907268
 21
-33.62651689606884
 31
0.0
  0
LINE
  5
10E
330
75
100
AcDbEntity
  8
LAYER6
  6
Continuous
 62
     8
370
    13
100
AcDbLine
 10
40.19833364304577
 20
-32.86103043913954
 30
0.0
 11
36.93118073651826
 21
-29.91388183661371
 31
0.0
  0
LINE
  5
10F
330
75
100
AcDbEntity
  8
LAYER6
  6
Continuous
 62
     8
370
    13
100
AcDbLine
 10
43.54733989032684
 20
-29.14860342225779
 30
0.0
 11
40.28017877259543
 21
-26.20125498836273
 31
0.0
  0
LINE
  5
110
330
75
100
AcDbEntity
  8
LAYER6
  6
Continuous
 62
     8
370
    13
100
AcDbLine
 10
46.1024691470966
 20
-21.59733309990804
 30
0.0
 11
41.70584236475679
 21
-21.76978650466737
 31
0.0
  0
LINE
  5
111
330
75
100
AcDbEntity
  8
LAYER6
  6
Continuous
 62
     8
370
    13
100
AcDbLine
 10
45.90638128678802
 20
-16.60117115386993
 30
0.0
 11
41.50975450444844
 21
-16.77362455862922
 31
0.0
  0
LINE
  5
112
330
75
100
AcDbEntity
  8
LAYER6
  6
Continuous
 62
     8
370
    13
100
AcDbLine
 10
45.71029342647944
 20
-11.6050092078317
 30
0.0
 11
41.31366664413986
 21
-11.77746261259099
 31
0.0
  0
LINE
  5
113
330
75
100
AcDbEntity
  8
LAYER6
  6
Continuous
 62
     8
370
    13
100
AcDbLine
 10
45.51440539754094
 20
-6.608839050589495
 30
0.0
 11
41.11777861520113
 21
-6.781292455348819
 31
0.0
  0
LINE
  5
114
330
75
100
AcDbEntity
  8
LAYER6
  6
Continuous
 62
     8
370
    13
100
AcDbLine
 10
45.31831753723236
 20
-1.612677104551267
 30
0.0
 11
40.92169075489255
 21
-1.785130509310591
 31
0.0
  0
LINE
  5
115
330
75
100
AcDbEntity
  8
LAYER6
  6
Continuous
 62
     8
370
    13
100
AcDbLine
 10
45.12222967692469
 20
3.383484841486847
 30
0.0
 11
40.72560289458488
 21
3.211031436727524
 31
0.0
  0
LINE
  5
116
330
75
100
AcDbEntity
  8
LAYER6
  6
Continuous
 62
     8
370
    13
100
AcDbLine
 10
44.92634164798528
 20
8.379654998729052
 30
0.0
 11
40.52971486564547
 21
8.207201593969728
 31
0.0
  0
LINE
  5
117
330
75
100
AcDbEntity
  8
LAYER6
  6
Continuous
 62
     8
370
    13
100
AcDbLine
 10
44.7302537876767
 20
13.37581694476717
 30
0.0
 11
40.33362700533712
 21
13.20336354000787
 31
0.0
  0
LINE
  5
118
330
75
100
AcDbEntity
  8
LAYER6
  6
Continuous
 62
     8
370
    13
100
AcDbLine
 10
44.53416592736812
 20
18.37197889080539
 30
0.0
 11
40.13754735623266
 21
18.19932565467681
 31
0.0
  0
LINE
  5
119
330
75
100
AcDbEntity
  8
LAYER6
  6
Continuous
 62
     8
370
    13
100
AcDbLine
 10
44.33807806705954
 20
23.36814083684351
 30
0.0
 11
39.94165932729328
 21
23.19549581191905
 31
0.0
  0
LINE
  5
11A
330
75
100
AcDbEntity
  8
LAYER6
  6
Continuous
 62
     8
370
    13
100
AcDbLine
 10
44.14219003812104
 20
28.36431099408583
 30
0.0
 11
39.74557146698558
 21
28.19165775795724
 31
0.0
  0
LINE
  5
11B
330
75
100
AcDbEntity
  8
LAYER6
  6
Continuous
 62
     8
370
    13
100
AcDbLine
 10
43.94610217781246
 20
33.36047294012394
 30
0.0
 11
39.549483606677
 21
33.18781970399536
 31
0.0
  0
LINE
  5
11C
330
75
100
AcDbEntity
  8
LAYER6
  6
Continuous
 62
     8
370
    13
100
AcDbLine
 10
43.75001431750479
 20
38.35663488616206
 30
0.0
 11
39.35339574636933
 21
38.18398165003347
 31
0.0
  0
LINE
  5
11D
330
75
100
AcDbEntity
  8
LAYER6
  6
Continuous
 62
     8
370
    13
100
AcDbLine
 10
43.55412628856539
 20
43.35280504340449
 30
0.0
 11
39.1575077174297
 21
43.18015180727588
 31
0.0
  0
LINE
  5
11E
330
75
100
AcDbEntity
  8
LAYER6
  6
Continuous
 62
     8
370
    13
100
AcDbLine
 10
43.35804663946146
 20
48.3487671580732
 30
0.0
 11
38.96141985712165
 21
48.17631375331388
 31
0.0
  0
LINE
  5
11F
330
75
100
AcDbEntity
  8
LAYER6
  6
Continuous
 62
     8
370
    13
100
AcDbLine
 10
43.16195877915288
 20
53.34492910411143
 30
0.0
 11
38.76533199681307
 21
53.17247569935211
 31
0.0
  0
LINE
  5
120
330
75
100
AcDbEntity
  8
LAYER6
  6
Continuous
 62
     8
370
    13
100
AcDbLine
 10
42.9658709188443
 20
58.34109105014954
 30
0.0
 11
38.56944396787367
 21
58.16864585659437
 31
0.0
  0
LINE
  5
121
330
75
100
AcDbEntity
  8
LAYER6
  6
Continuous
 62
     8
370
    13
100
AcDbLine
 10
42.7699828899058
 20
63.33726120739186
 30
0.0
 11
38.37335610756622
 21
63.16480780263257
 31
0.0
  0
LINE
  5
122
330
75
100
AcDbEntity
  8
LAYER6
  6
Continuous
 62
     8
370
    13
100
AcDbLine
 10
42.57389502959722
 20
68.33342315342998
 30
0.0
 11
38.17726824725742
 21
68.16096974867065
 31
0.0
  0
LINE
  5
123
330
75
100
AcDbEntity
  8
LAYER6
  6
Continuous
 62
     8
370
    13
100
AcDbLine
 10
42.37780716928864
 20
73.3295850994682
 30
0.0
 11
37.98118038694884
 21
73.15713169470888
 31
0.0
  0
LINE
  5
124
330
75
100
AcDbEntity
  8
LAYER6
  6
Continuous
 62
     8
370
    13
100
AcDbLine
 10
42.18191914035015
 20
78.32575525671041
 30
0.0
 11
37.78529235801057
 21
78.15330185195111
 31
0.0
  0
LINE
  5
125
330
75
100
AcDbEntity
  8
LAYER6
  6
Continuous
 62
     8
370
    13
100
AcDbLine
 10
41.98583128004157
 20
83.32191720274864
 30
0.0
 11
37.58920449770199
 21
83.14946379798934
 31
0.0
  0
LINE
  5
126
330
75
100
AcDbEntity
  8
LAYER6
  6
Continuous
 62
     8
370
    13
100
AcDbLine
 10
41.7897434197339
 20
88.31807914878675
 30
0.0
 11
37.39311663739409
 21
88.14562574402743
 31
0.0
  0
LINE
  5
127
330
75
100
AcDbEntity
  8
LAYER6
  6
Continuous
 62
     8
370
    13
100
AcDbLine
 10
41.59365555942532
 20
93.31424109482487
 30
0.0
 11
37.19722860845468
 21
93.14179590126969
 31
0.0
  0
LINE
  5
128
330
75
100
AcDbEntity
  8
LAYER6
  6
Continuous
 62
     8
370
    13
100
AcDbLine
 10
27.1270175778036
 20
-43.09351421985184
 30
0.0
 11
27.10635935034884
 21
-38.69365260411456
 31
0.0
  0
LINE
  5
129
330
75
100
AcDbEntity
  8
LAYER6
  6
Continuous
 62
     8
370
    13
100
AcDbLine
 10
22.12716649587674
 20
-43.11700801804784
 30
0.0
 11
22.10650826842198
 21
-38.71714640231056
 31
0.0
  0
LINE
  5
12A
330
75
100
AcDbEntity
  8
LAYER6
  6
Continuous
 62
     8
370
    13
100
AcDbLine
 10
17.1271155825807
 20
-43.14051002744804
 30
0.0
 11
17.10645735512594
 21
-38.74064841171077
 31
0.0
  0
LINE
  5
12B
330
75
100
AcDbEntity
  8
LAYER6
  6
Continuous
 62
     8
370
    13
100
AcDbLine
 10
12.12726450065293
 20
-43.16400382564416
 30
0.0
 11
12.10660627319817
 21
-38.76414220990691
 31
0.0
  0
LINE
  5
12C
330
75
100
AcDbEntity
  8
LAYER6
  6
Continuous
 62
     8
370
    13
100
AcDbLine
 10
7.127213587356891
 20
-43.18750583504436
 30
0.0
 11
7.106555359901904
 21
-38.78764421930705
 31
0.0
  0
LINE
  5
12D
330
75
100
AcDbEntity
  8
LAYER6
  6
Continuous
 62
     8
370
    13
100
AcDbLine
 10
2.127370716634687
 20
-43.21119946460965
 30
0.0
 11
2.106704277975552
 21
-38.81113801750317
 31
0.0
  0
LINE
  5
12E
330
75
100
AcDbEntity
  8
LAYER6
  6
Continuous
 62
     8
370
    13
100
AcDbLine
 10
-2.872680196662259
 20
-43.23470147400997
 30
0.0
 11
-2.893346635321166
 21
-38.83464002690343
 31
0.0
  0
LINE
  5
12F
330
75
100
AcDbEntity
  8
LAYER6
  6
Continuous
 62
     8
370
    13
100
AcDbLine
 10
-7.872531278589108
 20
-43.25819527220597
 30
0.0
 11
-7.893197717248
 21
-38.85813382509943
 31
0.0
  0
LINE
  5
130
330
75
100
AcDbEntity
  8
LAYER6
  6
Continuous
 62
     8
370
    13
100
AcDbLine
 10
-12.87258219188514
 20
-43.28169728160617
 30
0.0
 11
-12.89324863054404
 21
-38.88163583449963
 31
0.0
  0
LINE
  5
131
330
75
100
AcDbEntity
  8
LAYER6
  6
Continuous
 62
     8
370
    13
100
AcDbLine
 10
-17.87243327381201
 20
-43.30519107980217
 30
0.0
 11
-17.8930997124709
 21
-38.9051296326956
 31
0.0
  0
LINE
  5
132
330
75
100
AcDbEntity
  8
LAYER6
  6
Continuous
 62
     8
370
    13
100
AcDbLine
 10
-22.87228435573887
 20
-43.3286848779984
 30
0.0
 11
-22.89314241456304
 21
-38.92883147346521
 31
0.0
  0
LINE
  5
133
330
75
100
AcDbEntity
  8
LAYER6
  6
Continuous
 62
     8
370
    13
100
AcDbLine
 10
-27.87233526903491
 20
-43.35218688739849
 30
0.0
 11
-27.89299349648967
 21
-38.95232527166127
 31
0.0
  0
LINE
  5
134
330
75
100
AcDbEntity
  8
LAYER6
  6
Continuous
 62
     8
370
    13
100
AcDbLine
 10
-32.87218635096177
 20
-43.37568068559472
 30
0.0
 11
-32.89304440978572
 21
-38.97582728106156
 31
0.0
  0
LINE
  5
135
330
75
100
AcDbEntity
  8
LAYER6
  6
Continuous
 62
     8
370
    13
100
AcDbLine
 10
-37.87223726425781
 20
-43.39918269499481
 30
0.0
 11
-37.89289549171257
 21
-38.99932107925751
 31
0.0
  0
LINE
  5
136
330
75
100
AcDbEntity
  8
LAYER6
  6
Continuous
 62
     8
370
    13
100
AcDbLine
 10
-42.87208834618558
 20
-43.42267649319092
 30
0.0
 11
-42.89294640500952
 21
-39.02282308865776
 31
0.0
  0
LINE
  5
137
330
75
100
AcDbEntity
  8
LAYER6
  6
Continuous
 62
     8
370
    13
100
AcDbLine
 10
-47.87213104827696
 20
-43.44637833396041
 30
0.0
 11
-47.89279748693585
 21
-39.04631688685389
 31
0.0
  0
LINE
  5
138
330
75
100
AcDbEntity
  8
LAYER6
  6
Continuous
 62
     8
370
    13
100
AcDbLine
 10
-52.87198213020382
 20
-43.46987213215652
 30
0.0
 11
-52.89284840023213
 21
-39.06981889625413
 31
0.0
  0
LINE
  5
139
330
75
100
AcDbEntity
  8
LAYER6
  6
Continuous
 62
     8
370
    13
100
AcDbLine
 10
-57.87203304350076
 20
-43.49337414155661
 30
0.0
 11
-57.89269948215966
 21
-39.09331269445009
 31
0.0
  0
LINE
  5
13A
330
75
100
AcDbEntity
  8
LAYER6
  6
Continuous
 62
     8
370
    13
100
AcDbLine
 10
-62.87188412542763
 20
-43.51686793975273
 30
0.0
 11
-62.89255056408652
 21
-39.11680649264621
 31
0.0
  0
LINE
  5
13B
330
75
100
AcDbEntity
  8
LAYER6
  6
Continuous
 62
     8
370
    13
100
AcDbLine
 10
-67.87193503872366
 20
-43.54036994915293
 30
0.0
 11
-67.89259326617842
 21
-39.14050833341564
 31
0.0
  0
LINE
  5
13C
330
75
100
AcDbEntity
  8
LAYER6
  6
Continuous
 62
     8
370
    13
100
AcDbLine
 10
-72.87178612065053
 20
-43.56386374734905
 30
0.0
 11
-72.8924443481053
 21
-39.16400213161175
 31
0.0
  0
LINE
  5
13D
330
75
100
AcDbEntity
  8
LAYER6
  6
Continuous
 62
     8
370
    13
100
AcDbLine
 10
-77.87183703394656
 20
-43.58736575674925
 30
0.0
 11
-77.89249526140156
 21
-39.18750414101191
 31
0.0
  0
LINE
  5
13E
330
75
100
AcDbEntity
  8
LAYER6
  6
Continuous
 62
     8
370
    13
100
AcDbLine
 10
-82.87168811587343
 20
-43.61085955494536
 30
0.0
 11
-82.89234634332841
 21
-39.21099793920814
 31
0.0
  0
LINE
  5
13F
330
75
100
AcDbEntity
  8
LAYER6
  6
Continuous
 62
     8
370
    13
100
AcDbLine
 10
-87.87173902917037
 20
-43.63436156434545
 30
0.0
 11
-87.89239725662515
 21
-39.2344999486081
 31
0.0
  0
LINE
  5
140
330
75
100
AcDbEntity
  8
LAYER6
  6
Continuous
 62
     8
370
    13
100
AcDbLine
 10
-92.01192283836643
 20
-43.96822253251355
 30
0.0
 11
-94.75004024618137
 21
-40.5239346727346
 31
0.0
  0
LINE
  5
141
330
75
100
AcDbEntity
  8
LAYER6
  6
Continuous
 62
     8
370
    13
100
AcDbLine
 10
-109.3637534488207
 20
-44.01205660738958
 30
0.0
 11
-106.6231747754368
 21
-40.56963686322803
 31
0.0
  0
LINE
  5
142
330
75
100
AcDbEntity
  8
LAYER6
  6
Continuous
 62
     8
370
    13
100
AcDbLine
 10
75.1294850741051
 20
97.40733991629395
 30
0.0
 11
75.93899928363803
 21
75.93346957151073
 31
0.0
  0
LINE
  5
143
330
75
100
AcDbEntity
  8
LAYER6
  6
Continuous
 62
     8
370
    13
100
AcDbLine
 10
79.13795751119596
 20
-8.932549045473934
 30
0.0
 11
79.95254616867638
 21
-30.54452750000465
 31
0.0
  0
LINE
  5
144
330
75
100
AcDbEntity
  8
LAYER6
  6
Continuous
 62
     8
370
    13
100
AcDbLine
 10
79.95254616867624
 20
-30.54452750000451
 30
0.0
 11
95.90767981940039
 21
-42.939323923808
 31
0.0
  0
LINE
  5
145
330
75
100
AcDbEntity
  8
LAYER6
  6
Continuous
 62
     8
370
    13
100
AcDbLine
 10
95.90767981940007
 20
-42.93932392380805
 30
0.0
 11
110.101565509497
 21
-43.85314995564612
 31
0.0
  0
LINE
  5
146
330
75
100
AcDbEntity
  8
LAYER6
  6
Continuous
 62
     8
370
    13
100
AcDbLine
 10
109.8188004451013
 20
-48.24406137793164
 30
0.0
 11
94.2758101249303
 21
-47.24335095674726
 31
0.0
  0
LINE
  5
147
330
75
100
AcDbEntity
  8
LAYER6
  6
Continuous
 62
     8
370
    13
100
AcDbLine
 10
94.27581012493101
 20
-47.24335095674724
 30
0.0
 11
75.64590942074082
 21
-32.77061780395218
 31
0.0
  0
LINE
  5
148
330
75
100
AcDbEntity
  8
LAYER6
  6
Continuous
 62
     8
370
    13
100
AcDbLine
 10
75.64590942074028
 20
-32.77061780395229
 30
0.0
 11
74.79615255699403
 21
-10.22969997719736
 31
0.0
  0
LINE
  5
149
330
75
100
AcDbEntity
  8
LAYER6
  6
Continuous
 62
     8
370
    13
100
AcDbLine
 10
74.79615255699446
 20
-10.22969997719724
 30
0.0
 11
72.44489231474674
 21
-6.233263755608704
 31
0.0
  0
LINE
  5
14A
330
75
100
AcDbEntity
  8
LAYER6
  6
Continuous
 62
     8
370
    13
100
AcDbLine
 10
72.44489231474654
 20
-6.233263755608732
 30
0.0
 11
71.99281770798862
 21
0.8471457346625755
 31
0.0
  0
LINE
  5
14B
330
75
100
AcDbEntity
  8
LAYER6
  6
Continuous
 62
     8
370
    13
100
AcDbLine
 10
71.99281770798916
 20
0.8471457346626039
 30
0.0
 11
74.09668701995503
 21
5.297274379788377
 31
0.0
  0
LINE
  5
14C
330
75
100
AcDbEntity
  8
LAYER6
  6
Continuous
 62
     8
370
    13
100
AcDbLine
 10
74.09668701995452
 20
5.297274379788405
 30
0.0
 11
70.63105656405426
 21
97.23770931775869
 31
0.0
  0
LINE
  5
14D
330
75
100
AcDbEntity
  8
LAYER6
  6
Continuous
 62
     8
370
    13
100
AcDbLine
 10
79.13795751119596
 20
-8.932549045473934
 30
0.0
 11
76.76904657123569
 21
-4.90601211176326
 31
0.0
  0
LINE
  5
14E
330
75
100
AcDbEntity
  8
LAYER6
  6
Continuous
 62
     8
370
    13
100
AcDbLine
 10
76.76904657123578
 20
-4.906012111763175
 30
0.0
 11
76.45622112677657
 21
-0.0063242889218884
 31
0.0
  0
LINE
  5
14F
330
75
100
AcDbEntity
  8
LAYER6
  6
Continuous
 62
     8
370
    13
100
AcDbLine
 10
76.45622112677665
 20
-0.00632428892186
 30
0.0
 11
78.62823093523897
 21
4.587923448406059
 31
0.0
  0
LINE
  5
150
330
75
100
AcDbEntity
  8
LAYER6
  6
Continuous
 62
     8
370
    13
100
AcDbLine
 10
75.93899928363862
 20
75.93346957151061
 30
0.0
 11
78.62823093523889
 21
4.587923448406116
 31
0.0
  0
LINE
  5
151
330
75
100
AcDbEntity
  8
LAYER6
  6
Continuous
 62
     8
370
    13
100
AcDbLine
 10
-93.15921752289795
 20
-39.2593555873932
 30
0.0
 11
-98.71187422494148
 21
-43.67344733420258
 31
0.0
  0
LINE
  5
152
330
75
100
AcDbEntity
  8
LAYER6
  6
Continuous
 62
     8
370
    13
100
AcDbLine
 10
-98.7118742249413
 20
-43.67344733420248
 30
0.0
 11
-102.715555110015
 21
-43.68062859423746
 31
0.0
  0
LINE
  5
153
330
75
100
AcDbEntity
  8
LAYER6
  6
Continuous
 62
     8
370
    13
100
AcDbLine
 10
-102.715555110015
 20
-43.68062859423753
 30
0.0
 11
-108.1803854013715
 21
-39.32992446655074
 31
0.0
  0
CIRCLE
  5
154
330
75
100
AcDbEntity
  8
LAYER6
  6
Continuous
 62
     8
370
    13
100
AcDbCircle
 10
-100.5153186491234
 20
-41.48804695695185
 30
0.0
 40
1.65
  0
LINE
  5
155
330
75
100
AcDbEntity
  8
LAYER6
  6
Continuous
 62
     8
370
    13
100
AcDbLine
 10
-105.456141994603
 20
-47.12284850702986
 30
0.0
 11
-102.715555110015
 21
-43.6806285942375
 31
0.0
  0
LINE
  5
156
330
75
100
AcDbEntity
  8
LAYER6
  6
Continuous
 62
     8
370
    13
100
AcDbLine
 10
-95.97395664849499
 20
-47.11774340518559
 30
0.0
 11
-98.71187422494076
 21
-43.67344733420254
 31
0.0
  0
LINE
  5
157
330
75
100
AcDbEntity
  8
LAYER6
  6
Continuous
 62
     8
370
    13
100
AcDbLine
 10
78.62823093523821
 20
4.587923448406059
 30
0.0
 11
74.09668701995412
 21
5.297274379788377
 31
0.0
  0
LINE
  5
158
330
75
100
AcDbEntity
  8
LAYER6
  6
Continuous
 62
     8
370
    13
100
AcDbLine
 10
74.79615255699446
 20
-10.22969997719724
 30
0.0
 11
79.13795751119594
 21
-8.932549045473792
 31
0.0
  0
LINE
  5
159
330
75
100
AcDbEntity
  8
LAYER6
  6
Continuous
 62
     8
370
    13
100
AcDbLine
 10
72.06523559408652
 20
-0.2868371972076602
 30
0.0
 11
76.4562211267758
 21
-0.0063242889218884
 31
0.0
  0
LINE
  5
15A
330
75
100
AcDbEntity
  8
LAYER6
  6
Continuous
 62
     8
370
    13
100
AcDbLine
 10
72.37806103854564
 20
-5.186525020048862
 30
0.0
 11
76.7690465712347
 21
-4.906012111763118
 31
0.0
  0
LINE
  5
15B
330
75
100
AcDbEntity
  8
LAYER6
  6
Continuous
 62
     8
370
    13
100
AcDbLine
 10
79.34090879506675
 20
-14.3149548696731
 30
0.0
 11
74.95639237667854
 21
-14.48010491322256
 31
0.0
  0
LINE
  5
15C
330
75
100
AcDbEntity
  8
LAYER6
  6
Continuous
 62
     8
370
    13
100
AcDbLine
 10
75.14468681358721
 20
-19.47658709622181
 30
0.0
 11
79.52919502077128
 21
-19.31123722130317
 31
0.0
  0
LINE
  5
15D
330
75
100
AcDbEntity
  8
LAYER6
  6
Continuous
 62
     8
370
    13
100
AcDbLine
 10
75.33298125049623
 20
-24.47306927922114
 30
0.0
 11
79.7174894576803
 21
-24.3077194043025
 31
0.0
  0
LINE
  5
15E
330
75
100
AcDbEntity
  8
LAYER6
  6
Continuous
 62
     8
370
    13
100
AcDbLine
 10
75.52147551877351
 20
-29.46954325101626
 30
0.0
 11
79.90578389458841
 21
-29.30420158730175
 31
0.0
  0
LINE
  5
15F
330
75
100
AcDbEntity
  8
LAYER6
  6
Continuous
 62
     8
370
    13
100
AcDbLine
 10
79.13265082526141
 20
-35.47914978604103
 30
0.0
 11
81.83187553130188
 21
-32.00460078130664
 31
0.0
  0
LINE
  5
160
330
75
100
AcDbEntity
  8
LAYER6
  6
Continuous
 62
     8
370
    13
100
AcDbLine
 10
83.0811184306649
 20
-38.54662777440217
 30
0.0
 11
85.78054296807477
 21
-35.07207055846359
 31
0.0
  0
LINE
  5
161
330
75
100
AcDbEntity
  8
LAYER6
  6
Continuous
 62
     8
370
    13
100
AcDbLine
 10
87.0295860360684
 20
-41.6141057627633
 30
0.0
 11
89.72900236227392
 21
-38.13934871545555
 31
0.0
  0
LINE
  5
162
330
75
100
AcDbEntity
  8
LAYER6
  6
Continuous
 62
     8
370
    13
100
AcDbLine
 10
90.97825347284106
 20
-44.68157553992035
 30
0.0
 11
93.67746996767718
 21
-41.20682670381673
 31
0.0
  0
LINE
  5
163
330
75
100
AcDbEntity
  8
LAYER6
  6
Continuous
 62
     8
370
    13
100
AcDbLine
 10
97.17752699231642
 20
-47.43017553095751
 30
0.0
 11
97.46009222534255
 21
-43.03927231987612
 31
0.0
  0
LINE
  5
164
330
75
100
AcDbEntity
  8
LAYER6
  6
Continuous
 62
     8
370
    13
100
AcDbLine
 10
102.1671301295082
 20
-47.75159328610334
 30
0.0
 11
102.4498951939038
 21
-43.36068186381782
 31
0.0
  0
LINE
  5
165
330
75
100
AcDbEntity
  8
LAYER6
  6
Continuous
 62
     8
370
    13
100
AcDbLine
 10
107.1567250554963
 20
-48.07281120987989
 30
0.0
 11
107.4394901198916
 21
-43.68189978759436
 31
0.0
  0
LINE
  5
166
330
75
100
AcDbEntity
  8
LAYER6
  6
Continuous
 62
     8
370
    13
100
AcDbLine
 10
78.41680852737954
 20
10.19597173327804
 30
0.0
 11
73.91857984869756
 21
10.02634934594681
 31
0.0
  0
LINE
  5
167
330
75
100
AcDbEntity
  8
LAYER6
  6
Continuous
 62
     8
370
    13
100
AcDbLine
 10
78.22851409047053
 20
15.19245391627737
 30
0.0
 11
73.73008558041937
 21
15.022823317742
 31
0.0
  0
LINE
  5
168
330
75
100
AcDbEntity
  8
LAYER6
  6
Continuous
 62
     8
370
    13
100
AcDbLine
 10
78.04021965356242
 20
20.18893609927659
 30
0.0
 11
73.54179114351126
 21
20.01930550074121
 31
0.0
  0
LINE
  5
169
330
75
100
AcDbEntity
  8
LAYER6
  6
Continuous
 62
     8
370
    13
100
AcDbLine
 10
77.85193342785806
 20
25.18521845090663
 30
0.0
 11
73.35349670660278
 21
25.01578768374057
 31
0.0
  0
LINE
  5
16A
330
75
100
AcDbEntity
  8
LAYER6
  6
Continuous
 62
     8
370
    13
100
AcDbLine
 10
77.66363899094995
 20
30.18170063390596
 30
0.0
 11
73.16520226969467
 21
30.0122698667399
 31
0.0
  0
LINE
  5
16B
330
75
100
AcDbEntity
  8
LAYER6
  6
Continuous
 62
     8
370
    13
100
AcDbLine
 10
77.47514472267176
 20
35.17817460570109
 30
0.0
 11
72.9767162126206
 21
35.00854400716582
 31
0.0
  0
LINE
  5
16C
330
75
100
AcDbEntity
  8
LAYER6
  6
Continuous
 62
     8
370
    13
100
AcDbLine
 10
77.28685028576365
 20
40.17465678870042
 30
0.0
 11
72.7884217757125
 21
40.00502619016515
 31
0.0
  0
LINE
  5
16D
330
75
100
AcDbEntity
  8
LAYER6
  6
Continuous
 62
     8
370
    13
100
AcDbLine
 10
77.09855584885463
 20
45.17113897169975
 30
0.0
 11
72.60012733880347
 21
45.00150837316448
 31
0.0
  0
LINE
  5
16E
330
75
100
AcDbEntity
  8
LAYER6
  6
Continuous
 62
     8
370
    13
100
AcDbLine
 10
76.91026141194652
 20
50.16762115469896
 30
0.0
 11
72.41183290189537
 21
49.9979905561637
 31
0.0
  0
LINE
  5
16F
330
75
100
AcDbEntity
  8
LAYER6
  6
Continuous
 62
     8
370
    13
100
AcDbLine
 10
76.72176714366833
 20
55.16409512649409
 30
0.0
 11
72.2233386336174
 21
54.99446452795885
 31
0.0
  0
LINE
  5
170
330
75
100
AcDbEntity
  8
LAYER6
  6
Continuous
 62
     8
370
    13
100
AcDbLine
 10
76.53348091796397
 20
60.16037747812413
 30
0.0
 11
72.0350441967087
 21
59.99094671095807
 31
0.0
  0
LINE
  5
171
330
75
100
AcDbEntity
  8
LAYER6
  6
Continuous
 62
     8
370
    13
100
AcDbLine
 10
76.34518648105586
 20
65.15685966112346
 30
0.0
 11
71.84674975980059
 21
64.9874288939574
 31
0.0
  0
LINE
  5
172
330
75
100
AcDbEntity
  8
LAYER6
  6
Continuous
 62
     8
370
    13
100
AcDbLine
 10
76.15689204414775
 20
70.15334184412279
 30
0.0
 11
71.6584635340966
 21
69.98371124558741
 31
0.0
  0
LINE
  5
173
330
75
100
AcDbEntity
  8
LAYER6
  6
Continuous
 62
     8
370
    13
100
AcDbLine
 10
75.96839777586956
 20
75.14981581591792
 30
0.0
 11
71.4699692658184
 21
74.98018521738254
 31
0.0
  0
LINE
  5
174
330
75
100
AcDbEntity
  8
LAYER6
  6
Continuous
 62
     8
370
    13
100
AcDbLine
 10
75.78010333896145
 20
80.14629799891713
 30
0.0
 11
71.2816748289103
 21
79.97666740038176
 31
0.0
  0
LINE
  5
175
330
75
100
AcDbEntity
  8
LAYER6
  6
Continuous
 62
     8
370
    13
100
AcDbLine
 10
75.59180890205243
 20
85.14278018191646
 30
0.0
 11
71.09338039200128
 21
84.97314958338109
 31
0.0
  0
LINE
  5
176
330
75
100
AcDbEntity
  8
LAYER6
  6
Continuous
 62
     8
370
    13
100
AcDbLine
 10
13.32188772754853
 20
-78.57941799328819
 30
0.0
 11
13.52893228715084
 21
-78.55189436091474
 31
0.0
  0
LINE
  5
177
330
75
100
AcDbEntity
  8
LAYER6
  6
Continuous
 62
     8
370
    13
100
AcDbLine
 10
97.12454788412288
 20
-40.97230566434553
 30
0.0
 11
82.2104956398276
 21
-29.38624847242602
 31
0.0
  0
LINE
  5
178
330
75
100
AcDbEntity
  8
LAYER6
  6
Continuous
 62
     8
370
    13
100
AcDbLine
 10
82.21049563982706
 20
-29.38624847242602
 30
0.0
 11
78.23738026669736
 21
76.02010499562539
 31
0.0
  0
LINE
  5
179
330
75
100
AcDbEntity
  8
LAYER6
  6
Continuous
 62
     8
370
    13
100
AcDbLine
 10
78.23738026669707
 20
76.02010499562539
 30
0.0
 11
77.85147175239663
 21
86.25449028926133
 31
0.0
  0
LINE
  5
17A
330
75
100
AcDbEntity
  8
LAYER6
  6
Continuous
 62
     8
370
    13
100
AcDbLine
 10
110.2171157078064
 20
-42.05689140196546
 30
0.0
 11
96.94564563588014
 21
-41.20244472138187
 31
0.0
  0
LINE
  5
17B
330
75
100
AcDbEntity
  8
LAYER6
  6
Continuous
 62
     8
370
    13
100
AcDbLine
 10
97.12454788412288
 20
-40.97230566434553
 30
0.0
 11
96.20440604553988
 21
-42.15688180663832
 31
0.0
  0
LINE
  5
17C
330
75
100
AcDbEntity
  8
LAYER6
  6
Continuous
 62
     8
370
    13
100
AcDbLine
 10
49.26993281538216
 20
-85.05679573764314
 30
0.0
 11
51.97538016624924
 21
-100.9074854056572
 31
0.0
  0
LINE
  5
17D
330
75
100
AcDbEntity
  8
LAYER6
  6
Continuous
 62
     8
370
    13
100
AcDbLine
 10
51.1485599200123
 20
-84.17612424284641
 30
0.0
 11
56.23002116912443
 21
-84.22914436895184
 31
0.0
  0
CIRCLE
  5
17E
330
75
100
AcDbEntity
  8
LAYER6
  6
Continuous
 62
     8
370
    13
100
AcDbCircle
 10
47.6087053416959
 20
61.47535001870847
 30
0.0
 40
3.197
  0
CIRCLE
  5
17F
330
75
100
AcDbEntity
  8
LAYER6
  6
Continuous
 62
     8
370
    13
100
AcDbCircle
 10
47.6087053416959
 20
61.47535001870847
 30
0.0
 40
2.403
  0
CIRCLE
  5
180
330
75
100
AcDbEntity
  8
LAYER6
  6
Continuous
 62
     8
370
    13
100
AcDbCircle
 10
68.59341008000229
 20
25.98697633032862
 30
0.0
 40
3.197
  0
CIRCLE
  5
181
330
75
100
AcDbEntity
  8
LAYER6
  6
Continuous
 62
     8
370
    13
100
AcDbCircle
 10
68.59341008000229
 20
25.98697633032862
 30
0.0
 40
2.403
  0
CIRCLE
  5
182
330
75
100
AcDbEntity
  8
LAYER6
  6
Continuous
 62
     8
370
    13
100
AcDbCircle
 10
63.14895974967476
 20
-53.66370891845361
 30
0.0
 40
3.255
  0
CIRCLE
  5
183
330
75
100
AcDbEntity
  8
LAYER6
  6
Continuous
 62
     8
370
    13
100
AcDbCircle
 10
70.44651405690365
 20
-24.4694851553005
 30
0.0
 40
1.0488
  0
LINE
  5
184
330
75
100
AcDbEntity
  8
LAYER6
  6
Continuous
 62
     8
370
    13
100
AcDbLine
 10
35.1273669986067
 20
84.64405071351086
 30
0.0
 11
35.60272002615349
 21
71.68243818345886
 31
0.0
  0
CIRCLE
  5
185
330
75
100
AcDbEntity
  8
LAYER6
  6
Continuous
 62
     8
370
    13
100
AcDbCircle
 10
77.86730779309528
 20
-2.434638127810331
 30
0.0
 40
0.9988
  0
LINE
  5
186
330
75
100
AcDbEntity
  8
LAYER6
  6
Continuous
 62
     8
370
    13
100
AcDbLine
 10
27.48990766738825
 20
-68.45359784950256
 30
0.0
 11
25.5518535827137
 21
-79.38938719114941
 31
0.0
  0
LINE
  5
187
330
75
100
AcDbEntity
  8
LAYER6
  6
Continuous
 62
     8
370
    13
100
AcDbLine
 10
26.75181630224597
 20
-68.32038862796708
 30
0.0
 11
24.81376221757142
 21
-79.25617796961393
 31
0.0
  0
LINE
  5
188
330
75
100
AcDbEntity
  8
LAYER6
  6
Continuous
 62
     8
370
    13
100
AcDbLine
 10
26.01372493710369
 20
-68.18717940643148
 30
0.0
 11
24.07567085242914
 21
-79.12296874807834
 31
0.0
  0
LINE
  5
189
330
75
100
AcDbEntity
  8
LAYER6
  6
Continuous
 62
     8
370
    13
100
AcDbLine
 10
25.2756335719605
 20
-68.05397018489589
 30
0.0
 11
23.3375712760818
 21
-78.98955969517351
 31
0.0
  0
LINE
  5
18A
330
75
100
AcDbEntity
  8
LAYER6
  6
Continuous
 62
     8
370
    13
100
AcDbLine
 10
24.53773382698364
 20
-67.92055292078703
 30
0.0
 11
22.59947991093992
 21
-78.85635047363802
 31
0.0
  0
LINE
  5
18B
330
75
100
AcDbEntity
  8
LAYER6
  6
Continuous
 62
     8
370
    13
100
AcDbLine
 10
23.79964246184136
 20
-67.78734369925155
 30
0.0
 11
21.86138854579764
 21
-78.72314125210254
 31
0.0
  0
LINE
  5
18C
330
75
100
AcDbEntity
  8
LAYER6
  6
Continuous
 62
     8
370
    13
100
AcDbLine
 10
23.06155109669817
 20
-67.65413447771596
 30
0.0
 11
21.12329718065445
 21
-78.58993203056694
 31
0.0
  0
LINE
  5
18D
330
75
100
AcDbEntity
  8
LAYER6
  6
Continuous
 62
     8
370
    13
100
AcDbLine
 10
22.32345973155589
 20
-67.52092525618048
 30
0.0
 11
20.38520581551239
 21
-78.45672280903145
 31
0.0
  0
LINE
  5
18E
330
75
100
AcDbEntity
  8
LAYER6
  6
Continuous
 62
     8
370
    13
100
AcDbLine
 10
21.5853683664136
 20
-67.38771603464488
 30
0.0
 11
19.64710623916596
 21
-78.32331375612662
 31
0.0
  0
LINE
  5
18F
330
75
100
AcDbEntity
  8
LAYER6
  6
Continuous
 62
     8
370
    13
100
AcDbLine
 10
20.84726879006666
 20
-67.25430698174023
 30
0.0
 11
18.90901487402294
 21
-78.19010453459121
 31
0.0
  0
LINE
  5
190
330
75
100
AcDbEntity
  8
LAYER6
  6
Continuous
 62
     8
370
    13
100
AcDbLine
 10
20.10917742492438
 20
-67.12109776020463
 30
0.0
 11
18.17112334025006
 21
-78.05688710185149
 31
0.0
  0
LINE
  5
191
330
75
100
AcDbEntity
  8
LAYER6
  6
Continuous
 62
     8
370
    13
100
AcDbLine
 10
19.3710860597821
 20
-66.98788853866915
 30
0.0
 11
17.43303197510755
 21
-77.923677880316
 31
0.0
  0
LINE
  5
192
330
75
100
AcDbEntity
  8
LAYER6
  6
Continuous
 62
     8
370
    13
100
AcDbLine
 10
18.63299469463891
 20
-66.85467931713356
 30
0.0
 11
16.69493239876022
 21
-77.79026882741118
 31
0.0
  0
LINE
  5
193
330
75
100
AcDbEntity
  8
LAYER6
  6
Continuous
 62
     8
370
    13
100
AcDbLine
 10
17.89509494966205
 20
-66.7212620530247
 30
0.0
 11
15.95684103361833
 21
-77.65705960587569
 31
0.0
  0
LINE
  5
194
330
75
100
AcDbEntity
  8
LAYER6
  6
Continuous
 62
     8
370
    13
100
AcDbLine
 10
16.95395287078099
 20
-68.19854718033059
 30
0.0
 11
27.86865846932727
 21
-70.16909427620548
 31
0.0
  0
LINE
  5
195
330
75
100
AcDbEntity
  8
LAYER6
  6
Continuous
 62
     8
370
    13
100
AcDbLine
 10
16.60511375180704
 20
-70.16792961883095
 30
0.0
 11
27.51961951898414
 21
-72.13848492590998
 31
0.0
  0
LINE
  5
196
330
75
100
AcDbEntity
  8
LAYER6
  6
Continuous
 62
     8
370
    13
100
AcDbLine
 10
16.25607480146391
 20
-72.13732026853552
 30
0.0
 11
27.17057235743709
 21
-74.1076757442453
 31
0.0
  0
LINE
  5
197
330
75
100
AcDbEntity
  8
LAYER6
  6
Continuous
 62
     8
370
    13
100
AcDbLine
 10
15.90702763991703
 20
-74.1065110868708
 30
0.0
 11
26.82153340709414
 21
-76.07706639394982
 31
0.0
  0
LINE
  5
198
330
75
100
AcDbEntity
  8
LAYER6
  6
Continuous
 62
     8
370
    13
100
AcDbLine
 10
15.55798868957481
 20
-76.07590173657525
 30
0.0
 11
26.47249445675192
 21
-78.04645704365427
 31
0.0
  0
CIRCLE
  5
199
330
75
100
AcDbEntity
  8
LAYER6
  6
Continuous
 62
     1
370
    13
100
AcDbCircle
 10
11.65028688283019
 20
68.04180512463961
 30
0.0
 40
1.0
  0
LINE
  5
19A
330
75
100
AcDbEntity
  8
LAYER6
  6
Continuous
 62
     1
370
    13
100
AcDbLine
 10
10.91474531084714
 20
68.71928471539059
 30
0.0
 11
12.38582845481395
 21
67.36432553388852
 31
0.0
  0
LINE
  5
19B
330
75
100
AcDbEntity
  8
LAYER6
  6
Continuous
 62
     1
370
    13
100
AcDbLine
 10
12.32776647358151
 20
68.77734669662289
 30
0.0
 11
10.97280729207944
 21
67.30626355265608
 31
0.0
  0
CIRCLE
  5
19C
330
75
100
AcDbEntity
  8
LAYER6
  6
Continuous
 62
     1
370
    13
100
AcDbCircle
 10
27.5473809803625
 20
-96.21401638331861
 30
0.0
 40
1.0
  0
LINE
  5
19D
330
75
100
AcDbEntity
  8
LAYER6
  6
Continuous
 62
     1
370
    13
100
AcDbLine
 10
26.81183940837855
 20
-95.53653679256763
 30
0.0
 11
28.28292255234535
 21
-96.8914959740697
 31
0.0
  0
LINE
  5
19E
330
75
100
AcDbEntity
  8
LAYER6
  6
Continuous
 62
     1
370
    13
100
AcDbLine
 10
28.22486057111291
 20
-95.47847481133522
 30
0.0
 11
26.86990138961085
 21
-96.94955795530204
 31
0.0
  0
LINE
  5
19F
330
75
100
AcDbEntity
  8
LAYER6
  6
Continuous
 62
     1
370
    13
100
AcDbLine
 10
37.02591611749722
 20
67.49593358977927
 30
0.0
 11
35.95227144985398
 21
95.92133696123761
 31
0.0
  0
LINE
  5
1A0
330
75
100
AcDbEntity
  8
LAYER6
  6
Continuous
 62
     1
370
    13
100
AcDbLine
 10
-82.67748471969388
 20
64.88674284495937
 30
0.0
 11
-83.99127738076693
 21
96.85976192110718
 31
0.0
  0
LINE
  5
1A1
330
75
100
AcDbEntity
  8
LAYER6
  6
Continuous
 62
     1
370
    13
100
AcDbLine
 10
-83.9912773807673
 20
96.85976192110718
 30
0.0
 11
-86.175762504054
 21
91.56561187165266
 31
0.0
  0
LINE
  5
1A2
330
75
100
AcDbEntity
  8
LAYER6
  6
Continuous
 62
     1
370
    13
100
AcDbLine
 10
-86.17576250405362
 20
91.56561187165266
 30
0.0
 11
-82.17913511953515
 21
91.72983595428678
 31
0.0
  0
LINE
  5
1A3
330
75
100
AcDbEntity
  8
LAYER6
  6
Continuous
 62
     1
370
    13
100
AcDbLine
 10
-76.07476212504388
 20
79.57020477796732
 30
0.0
 11
-90.46262070931039
 21
78.97899808048444
 31
0.0
  0
TEXT
  5
1A4
330
75
100
AcDbEntity
  8
LAYER6
  6
Continuous
 62
     1
370
    13
100
AcDbText
 10
-86.91118203156871
 20
98.60220467538332
 30
0.0
 40
2.16
  1
真北
  7
ＭＳ ゴシック
 72
     1
 11
-84.10212863654559
 21
98.20748540565717
 31
0.0
100
AcDbText
 73
     1
  0
CIRCLE
  5
1A5
330
75
100
AcDbEntity
  8
LAYER6
  6
Continuous
 62
     3
370
    13
100
AcDbCircle
 10
-59.6982270373246
 20
66.50399430694767
 30
0.0
 40
0.4
  0
LINE
  5
1A6
330
75
100
AcDbEntity
  8
LAYER6
  6
Continuous
 62
     3
370
    13
100
AcDbLine
 10
-59.6982270373246
 20
66.50399430694767
 30
0.0
 11
-59.69822703732461
 21
-38.47451873264254
 31
0.0
  0
CIRCLE
  5
1A7
330
75
100
AcDbEntity
  8
LAYER6
  6
Continuous
 62
     3
370
    13
100
AcDbCircle
 10
-59.6982270373246
 20
-38.47451873264254
 30
0.0
 40
0.4
  0
LINE
  5
1A8
330
75
100
AcDbEntity
  8
LAYER6
  6
Continuous
 62
     3
370
    13
100
AcDbLine
 10
-59.6982270373246
 20
-38.47451873264254
 30
0.0
 11
26.99271129374426
 21
-37.9348787780001
 31
0.0
  0
CIRCLE
  5
1A9
330
75
100
AcDbEntity
  8
LAYER6
  6
Continuous
 62
     3
370
    13
100
AcDbCircle
 10
26.99271129374392
 20
-37.9348787780001
 30
0.0
 40
0.4
  0
LINE
  5
1AA
330
75
100
AcDbEntity
  8
LAYER6
  6
Continuous
 62
     3
370
    13
100
AcDbLine
 10
26.99271129374392
 20
-37.9348787780001
 30
0.0
 11
40.47948262435378
 21
-23.93936524429486
 31
0.0
  0
CIRCLE
  5
1AB
330
75
100
AcDbEntity
  8
LAYER6
  6
Continuous
 62
     3
370
    13
100
AcDbCircle
 10
40.4794826243542
 20
-23.93936524429478
 30
0.0
 40
0.4
  0
LINE
  5
1AC
330
75
100
AcDbEntity
  8
LAYER6
  6
Continuous
 62
     3
370
    13
100
AcDbLine
 10
40.4794826243542
 20
-23.93936524429478
 30
0.0
 11
37.06365980863723
 21
66.49664613675145
 31
0.0
  0
CIRCLE
  5
1AD
330
75
100
AcDbEntity
  8
LAYER6
  6
Continuous
 62
     3
370
    13
100
AcDbCircle
 10
37.06365980863757
 20
66.49664613675145
 30
0.0
 40
0.4
  0
LINE
  5
1AE
330
75
100
AcDbEntity
  8
LAYER6
  6
Continuous
 62
     3
370
    13
100
AcDbLine
 10
37.06365980863757
 20
66.49664613675145
 30
0.0
 11
-59.69822703732422
 21
66.50399430694776
 31
0.0
  0
TEXT
  5
1AF
330
75
100
AcDbEntity
  8
LAYER6
  6
Continuous
 62
     2
370
    13
100
AcDbText
 10
-60.06370784262658
 20
10.11327473850939
 30
0.0
 40
2.0
  1
10.497
 50
90.0
  7
ＭＳ ゴシック
 72
     1
 11
-59.6982270373246
 21
14.01473778715263
 31
0.0
100
AcDbText
 73
     1
  0
TEXT
  5
1B0
330
75
100
AcDbEntity
  8
LAYER6
  6
Continuous
 62
     2
370
    13
100
AcDbText
 10
-57.30747503732442
 20
6.732006763018576
 30
0.0
 40
2.24
  1
隣地境界線
 50
90.0
  7
ＭＳ ゴシック
 72
     1
 11
-59.54747503732442
 21
14.01473778715263
 31
0.0
100
AcDbText
 73
     3
  0
TEXT
  5
1B1
330
75
100
AcDbEntity
  8
LAYER6
  6
Continuous
 62
     2
370
    13
100
AcDbText
 10
-19.59062673668348
 20
-40.35949542949747
 30
0.0
 40
2.0
  1
8.669
 50
0.3566542605328716
  7
ＭＳ ゴシック
 72
     1
 11
-16.3519200203143
 21
-38.33929614758765
 31
0.0
100
AcDbText
 73
     3
  0
TEXT
  5
1B2
330
75
100
AcDbEntity
  8
LAYER6
  6
Continuous
 62
     2
370
    13
100
AcDbText
 10
-23.63789583088258
 20
-37.8407013706597
 30
0.0
 40
2.24
  1
道路境界線
 50
0.3566542605328855
  7
ＭＳ ゴシック
 72
     1
 11
-16.3527578717899
 21
-38.20469875532127
 31
0.0
100
AcDbText
 73
     1
  0
TEXT
  5
1B3
330
75
100
AcDbEntity
  8
LAYER6
  6
Continuous
 62
     2
370
    13
100
AcDbText
 10
33.01714991616072
 20
-34.75943265299816
 30
0.0
 40
2.0
  1
1.943
 50
46.06051779716747
  7
ＭＳ ゴシック
 72
     1
 11
33.8330188011761
 21
-31.03052070770533
 31
0.0
100
AcDbText
 73
     3
  0
TEXT
  5
1B4
330
75
100
AcDbEntity
  8
LAYER6
  6
Continuous
 62
     2
370
    13
100
AcDbText
 10
28.38786942043443
 20
-35.89718162512904
 30
0.0
 40
2.24
  1
隣地境界線
 50
46.06051779716752
  7
ＭＳ ゴシック
 72
     1
 11
33.73609695904962
 21
-30.93712201114739
 31
0.0
100
AcDbText
 73
     1
  0
TEXT
  5
1B5
330
75
100
AcDbEntity
  8
LAYER6
  6
Continuous
 62
     2
370
    13
100
AcDbText
 10
41.02736322731442
 20
18.11030556853482
 30
0.0
 40
2.0
  1
9.050
 50
92.16306799250121
  7
ＭＳ ゴシック
 72
     1
 11
38.90607530767293
 21
21.28372074705571
 31
0.0
100
AcDbText
 73
     3
  0
TEXT
  5
1B6
330
75
100
AcDbEntity
  8
LAYER6
  6
Continuous
 62
     2
370
    13
100
AcDbText
 10
38.63740153789949
 20
13.98564876404464
 30
0.0
 40
2.24
  1
道路境界線
 50
92.16306799250107
  7
ＭＳ ゴシック
 72
     1
 11
38.77157121649597
 21
21.27864044622822
 31
0.0
100
AcDbText
 73
     1
  0
TEXT
  5
1B7
330
75
100
AcDbEntity
  8
LAYER6
  6
Continuous
 62
     2
370
    13
100
AcDbText
 10
-14.56847505728528
 20
66.8660479261199
 30
0.0
 40
2.0
  1
9.676
 50
359.9956489155771
  7
ＭＳ ゴシック
 72
     1
 11
-11.31728361434362
 21
66.50032022184956
 31
0.0
100
AcDbText
 73
     1
  0
TEXT
  5
1B8
330
75
100
AcDbEntity
  8
LAYER6
  6
Continuous
 62
     2
370
    13
100
AcDbText
 10
-18.60019617297554
 20
64.11012128479302
 30
0.0
 40
2.24
  1
隣地境界線
 50
359.995648915577
  7
ＭＳ ゴシック
 72
     1
 11
-11.31729506256316
 21
66.34956822228423
 31
0.0
100
AcDbText
 73
     3
  0
ENDBLK
  5
77
330
75
100
AcDbEntity
  8
0
100
AcDbBlockEnd
  0
BLOCK
  5
1DD
330
1DC
100
AcDbEntity
  8
0
100
AcDbBlockBegin
  2
FcPack%d1
 70
     0
 10
0.0
 20
0.0
 30
0.0
  3
FcPack%d1
  1

  0
LINE
  5
1DF
330
1DC
100
AcDbEntity
  8
LAYER1
  6
Continuous
 62
     3
370
    13
100
AcDbLine
 10
-200.0
 20
138.5
 30
0.0
 11
-200.0
 21
-138.5
 31
0.0
  0
LINE
  5
1E0
330
1DC
100
AcDbEntity
  8
LAYER1
  6
Continuous
 62
     3
370
    13
100
AcDbLine
 10
-200.0
 20
-138.5
 30
0.0
 11
200.0
 21
-138.5
 31
0.0
  0
LINE
  5
1E1
330
1DC
100
AcDbEntity
  8
LAYER1
  6
Continuous
 62
     3
370
    13
100
AcDbLine
 10
200.0
 20
-138.5
 30
0.0
 11
200.0
 21
138.5
 31
0.0
  0
LINE
  5
1E2
330
1DC
100
AcDbEntity
  8
LAYER1
  6
Continuous
 62
     3
370
    13
100
AcDbLine
 10
200.0
 20
138.5
 30
0.0
 11
-200.0
 21
138.5
 31
0.0
  0
LINE
  5
1E3
330
1DC
100
AcDbEntity
  8
LAYER1
  6
Continuous
 62
     3
370
    13
100
AcDbLine
 10
-199.5
 20
138.0
 30
0.0
 11
-199.5
 21
-138.0
 31
0.0
  0
LINE
  5
1E4
330
1DC
100
AcDbEntity
  8
LAYER1
  6
Continuous
 62
     3
370
    13
100
AcDbLine
 10
-199.5
 20
-138.0
 30
0.0
 11
199.5
 21
-138.0
 31
0.0
  0
LINE
  5
1E5
330
1DC
100
AcDbEntity
  8
LAYER1
  6
Continuous
 62
     3
370
    13
100
AcDbLine
 10
199.5
 20
-138.0
 30
0.0
 11
199.5
 21
138.0
 31
0.0
  0
LINE
  5
1E6
330
1DC
100
AcDbEntity
  8
LAYER1
  6
Continuous
 62
     3
370
    13
100
AcDbLine
 10
199.5
 20
138.0
 30
0.0
 11
-199.5
 21
138.0
 31
0.0
  0
LINE
  5
1E7
330
1DC
100
AcDbEntity
  8
LAYER1
  6
Continuous
 62
     3
370
    13
100
AcDbLine
 10
199.0
 20
137.5
 30
0.0
 11
-199.0
 21
137.5
 31
0.0
  0
LINE
  5
1E8
330
1DC
100
AcDbEntity
  8
LAYER1
  6
Continuous
 62
     3
370
    13
100
AcDbLine
 10
-199.0
 20
137.5
 30
0.0
 11
-199.0
 21
-137.5
 31
0.0
  0
LINE
  5
1E9
330
1DC
100
AcDbEntity
  8
LAYER1
  6
Continuous
 62
     3
370
    13
100
AcDbLine
 10
-199.0
 20
-137.5
 30
0.0
 11
199.0
 21
-137.5
 31
0.0
  0
LINE
  5
1EA
330
1DC
100
AcDbEntity
  8
LAYER1
  6
Continuous
 62
     3
370
    13
100
AcDbLine
 10
199.0
 20
-137.5
 30
0.0
 11
199.0
 21
137.5
 31
0.0
  0
LINE
  5
1EB
330
1DC
100
AcDbEntity
  8
LAYER1
  6
Continuous
 62
     3
370
    13
100
AcDbLine
 10
-199.0
 20
-117.5
 30
0.0
 11
199.0
 21
-117.5
 31
0.0
  0
LINE
  5
1EC
330
1DC
100
AcDbEntity
  8
LAYER1
  6
Continuous
 62
     3
370
    13
100
AcDbLine
 10
-199.0
 20
-117.0
 30
0.0
 11
199.0
 21
-117.0
 31
0.0
  0
LINE
  5
1ED
330
1DC
100
AcDbEntity
  8
LAYER1
  6
Continuous
 62
     3
370
    13
100
AcDbLine
 10
179.0
 20
-137.5
 30
0.0
 11
179.0
 21
-117.5
 31
0.0
  0
LINE
  5
1EE
330
1DC
100
AcDbEntity
  8
LAYER1
  6
Continuous
 62
     3
370
    13
100
AcDbLine
 10
96.0
 20
-137.5
 30
0.0
 11
96.0
 21
-117.5
 31
0.0
  0
LINE
  5
1EF
330
1DC
100
AcDbEntity
  8
LAYER1
  6
Continuous
 62
     3
370
    13
100
AcDbLine
 10
71.0
 20
-137.5
 30
0.0
 11
71.0
 21
-117.5
 31
0.0
  0
LINE
  5
1F0
330
1DC
100
AcDbEntity
  8
LAYER1
  6
Continuous
 62
     3
370
    13
100
AcDbLine
 10
46.0
 20
-137.5
 30
0.0
 11
46.0
 21
-117.5
 31
0.0
  0
LINE
  5
1F1
330
1DC
100
AcDbEntity
  8
LAYER1
  6
Continuous
 62
     3
370
    13
100
AcDbLine
 10
21.0
 20
-137.5
 30
0.0
 11
21.0
 21
-117.5
 31
0.0
  0
LINE
  5
1F2
330
1DC
100
AcDbEntity
  8
LAYER1
  6
Continuous
 62
     3
370
    13
100
AcDbLine
 10
-89.0
 20
-137.5
 30
0.0
 11
-89.0
 21
-117.5
 31
0.0
  0
LINE
  5
1F3
330
1DC
100
AcDbEntity
  8
LAYER1
  6
Continuous
 62
     3
370
    13
100
AcDbLine
 10
96.0
 20
-129.5
 30
0.0
 11
179.0
 21
-129.5
 31
0.0
  0
LINE
  5
1F4
330
1DC
100
AcDbEntity
  8
LAYER1
  6
Continuous
 62
     3
370
    13
100
AcDbLine
 10
21.0
 20
-131.5
 30
0.0
 11
96.0
 21
-131.5
 31
0.0
  0
LINE
  5
1F5
330
1DC
100
AcDbEntity
  8
LAYER1
  6
Continuous
 62
     3
370
    13
100
AcDbLine
 10
21.0
 20
-127.5
 30
0.0
 11
-199.0
 21
-127.5
 31
0.0
  0
LINE
  5
1F6
330
1DC
100
AcDbEntity
  8
LAYER1
  6
dotted
 62
     3
370
    13
100
AcDbLine
 10
-199.0
 20
-132.5
 30
0.0
 11
-89.0
 21
-132.5
 31
0.0
  0
ENDBLK
  5
1DE
330
1DC
100
AcDbEntity
  8
0
100
AcDbBlockEnd
  0
ENDSEC
  0
SECTION
  2
ENTITIES
  0
INSERT
  5
1B9
330
1F
100
AcDbEntity
  8
LAYER6
  6
Continuous
 62
     2
370
    13
100
AcDbBlockReference
  2
FcPack%d0
 10
135.5982270373246
 20
166.9960056930523
 30
0.0
  0
TEXT
  5
1BA
330
1F
100
AcDbEntity
  8
LAYER5
  6
Continuous
 62
     2
370
    13
100
AcDbText
 10
390.0
 20
27.43857696636239
 30
0.0
 40
2.4
  1
図
  7
ＭＳ ゴシック
 11
390.0
 21
27.0
 31
0.0
100
AcDbText
 73
     1
  0
TEXT
  5
1BB
330
1F
100
AcDbEntity
  8
LAYER5
  6
Continuous
 62
     2
370
    13
100
AcDbText
 10
393.9
 20
27.43857696636239
 30
0.0
 40
2.4
  1
面
  7
ＭＳ ゴシック
 11
393.9
 21
27.0
 31
0.0
100
AcDbText
 73
     1
  0
TEXT
  5
1BC
330
1F
100
AcDbEntity
  8
LAYER5
  6
Continuous
 62
     2
370
    13
100
AcDbText
 10
397.8
 20
27.43857696636239
 30
0.0
 40
2.4
  1
№
  7
ＭＳ ゴシック
 11
397.8
 21
27.0
 31
0.0
100
AcDbText
 73
     1
  0
TEXT
  5
1BD
330
1F
100
AcDbEntity
  8
LAYER5
  6
Continuous
 62
     2
370
    13
100
AcDbText
 10
12.0
 20
17.43857696636239
 30
0.0
 40
2.4
  1
備
  7
ＭＳ ゴシック
 11
12.0
 21
17.0
 31
0.0
100
AcDbText
 73
     1
  0
TEXT
  5
1BE
330
1F
100
AcDbEntity
  8
LAYER5
  6
Continuous
 62
     2
370
    13
100
AcDbText
 10
15.8125
 20
17.43857696636239
 30
0.0
 40
2.4
  1
考
  7
ＭＳ ゴシック
 11
15.8125
 21
17.0
 31
0.0
100
AcDbText
 73
     1
  0
TEXT
  5
1BF
330
1F
100
AcDbEntity
  8
LAYER5
  6
Continuous
 62
     2
370
    13
100
AcDbText
 10
12.0
 20
27.43857696636239
 30
0.0
 40
2.4
  1
工
  7
ＭＳ ゴシック
 11
12.0
 21
27.0
 31
0.0
100
AcDbText
 73
     1
  0
TEXT
  5
1C0
330
1F
100
AcDbEntity
  8
LAYER5
  6
Continuous
 62
     2
370
    13
100
AcDbText
 10
15.859375
 20
27.43857696636239
 30
0.0
 40
2.4
  1
事
  7
ＭＳ ゴシック
 11
15.859375
 21
27.0
 31
0.0
100
AcDbText
 73
     1
  0
TEXT
  5
1C1
330
1F
100
AcDbEntity
  8
LAYER5
  6
Continuous
 62
     2
370
    13
100
AcDbText
 10
19.71875
 20
27.43857696636239
 30
0.0
 40
2.4
  1
名
  7
ＭＳ ゴシック
 11
19.71875
 21
27.0
 31
0.0
100
AcDbText
 73
     1
  0
TEXT
  5
1C2
330
1F
100
AcDbEntity
  8
LAYER1
  6
Continuous
 62
     2
370
    13
100
AcDbText
 10
169.6369999999977
 20
12.36548080530199
 30
0.0
 40
2.0
  1
T
  7
ＭＳ ゴシック
 11
169.6369999999977
 21
12.0
 31
0.0
100
AcDbText
 73
     1
  0
TEXT
  5
1C3
330
1F
100
AcDbEntity
  8
LAYER1
  6
Continuous
 62
     2
370
    13
100
AcDbText
 10
171.1869999999977
 20
12.36548080530199
 30
0.0
 40
2.0
  1
E
  7
ＭＳ ゴシック
 11
171.1869999999977
 21
12.0
 31
0.0
100
AcDbText
 73
     1
  0
TEXT
  5
1C4
330
1F
100
AcDbEntity
  8
LAYER1
  6
Continuous
 62
     2
370
    13
100
AcDbText
 10
172.7369999999977
 20
12.36548080530199
 30
0.0
 40
2.0
  1
L
  7
ＭＳ ゴシック
 11
172.7369999999977
 21
12.0
 31
0.0
100
AcDbText
 73
     1
  0
TEXT
  5
1C5
330
1F
100
AcDbEntity
  8
LAYER1
  6
Continuous
 62
     2
370
    13
100
AcDbText
 10
199.6499999999978
 20
12.36548080530199
 30
0.0
 40
2.0
  1
F
  7
ＭＳ ゴシック
 11
199.6499999999978
 21
12.0
 31
0.0
100
AcDbText
 73
     1
  0
TEXT
  5
1C6
330
1F
100
AcDbEntity
  8
LAYER1
  6
Continuous
 62
     2
370
    13
100
AcDbText
 10
201.1999999999978
 20
12.36548080530199
 30
0.0
 40
2.0
  1
A
  7
ＭＳ ゴシック
 11
201.1999999999978
 21
12.0
 31
0.0
100
AcDbText
 73
     1
  0
TEXT
  5
1C7
330
1F
100
AcDbEntity
  8
LAYER1
  6
Continuous
 62
     2
370
    13
100
AcDbText
 10
202.7499999999978
 20
12.36548080530199
 30
0.0
 40
2.0
  1
X
  7
ＭＳ ゴシック
 11
202.7499999999978
 21
12.0
 31
0.0
100
AcDbText
 73
     1
  0
TEXT
  5
1C8
330
1F
100
AcDbEntity
  8
LAYER5
  6
Continuous
 62
     2
370
    13
100
AcDbText
 10
282.0
 20
27.43857696636239
 30
0.0
 40
2.4
  1
担
  7
ＭＳ ゴシック
 11
282.0
 21
27.0
 31
0.0
100
AcDbText
 73
     1
  0
TEXT
  5
1C9
330
1F
100
AcDbEntity
  8
LAYER5
  6
Continuous
 62
     2
370
    13
100
AcDbText
 10
285.859375
 20
27.43857696636239
 30
0.0
 40
2.4
  1
当
  7
ＭＳ ゴシック
 11
285.859375
 21
27.0
 31
0.0
100
AcDbText
 73
     1
  0
TEXT
  5
1CA
330
1F
100
AcDbEntity
  8
LAYER5
  6
Continuous
 62
     2
370
    13
100
AcDbText
 10
289.71875
 20
27.43857696636239
 30
0.0
 40
2.4
  1
者
  7
ＭＳ ゴシック
 11
289.71875
 21
27.0
 31
0.0
100
AcDbText
 73
     1
  0
TEXT
  5
1CB
330
1F
100
AcDbEntity
  8
LAYER5
  6
Continuous
 62
     2
370
    13
100
AcDbText
 10
257.0
 20
27.43857696636239
 30
0.0
 40
2.4
  1
設
  7
ＭＳ ゴシック
 11
257.0
 21
27.0
 31
0.0
100
AcDbText
 73
     1
  0
TEXT
  5
1CC
330
1F
100
AcDbEntity
  8
LAYER5
  6
Continuous
 62
     2
370
    13
100
AcDbText
 10
260.859375
 20
27.43857696636239
 30
0.0
 40
2.4
  1
計
  7
ＭＳ ゴシック
 11
260.859375
 21
27.0
 31
0.0
100
AcDbText
 73
     1
  0
TEXT
  5
1CD
330
1F
100
AcDbEntity
  8
LAYER5
  6
Continuous
 62
     2
370
    13
100
AcDbText
 10
264.71875
 20
27.43857696636239
 30
0.0
 40
2.4
  1
者
  7
ＭＳ ゴシック
 11
264.71875
 21
27.0
 31
0.0
100
AcDbText
 73
     1
  0
TEXT
  5
1CE
330
1F
100
AcDbEntity
  8
LAYER5
  6
Continuous
 62
     2
370
    13
100
AcDbText
 10
232.0
 20
27.43857696636239
 30
0.0
 40
2.4
  1
管
  7
ＭＳ ゴシック
 11
232.0
 21
27.0
 31
0.0
100
AcDbText
 73
     1
  0
TEXT
  5
1CF
330
1F
100
AcDbEntity
  8
LAYER5
  6
Continuous
 62
     2
370
    13
100
AcDbText
 10
235.859375
 20
27.43857696636239
 30
0.0
 40
2.4
  1
理
  7
ＭＳ ゴシック
 11
235.859375
 21
27.0
 31
0.0
100
AcDbText
 73
     1
  0
TEXT
  5
1D0
330
1F
100
AcDbEntity
  8
LAYER5
  6
Continuous
 62
     2
370
    13
100
AcDbText
 10
239.71875
 20
27.43857696636239
 30
0.0
 40
2.4
  1
者
  7
ＭＳ ゴシック
 11
239.71875
 21
27.0
 31
0.0
100
AcDbText
 73
     1
  0
TEXT
  5
1D1
330
1F
100
AcDbEntity
  8
LAYER5
  6
Continuous
 62
     2
370
    13
100
AcDbText
 10
282.0
 20
14.29238464424159
 30
0.0
 40
1.6
  1
日
  7
ＭＳ ゴシック
 11
282.0
 21
14.0
 31
0.0
100
AcDbText
 73
     1
  0
TEXT
  5
1D2
330
1F
100
AcDbEntity
  8
LAYER5
  6
Continuous
 62
     2
370
    13
100
AcDbText
 10
284.8125
 20
14.29238464424159
 30
0.0
 40
1.6
  1
付
  7
ＭＳ ゴシック
 11
284.8125
 21
14.0
 31
0.0
100
AcDbText
 73
     1
  0
TEXT
  5
1D3
330
1F
100
AcDbEntity
  8
LAYER5
  6
Continuous
 62
     2
370
    13
100
AcDbText
 10
257.0
 20
14.29238464424159
 30
0.0
 40
1.6
  1
日
  7
ＭＳ ゴシック
 11
257.0
 21
14.0
 31
0.0
100
AcDbText
 73
     1
  0
TEXT
  5
1D4
330
1F
100
AcDbEntity
  8
LAYER5
  6
Continuous
 62
     2
370
    13
100
AcDbText
 10
259.8125
 20
14.29238464424159
 30
0.0
 40
1.6
  1
付
  7
ＭＳ ゴシック
 11
259.8125
 21
14.0
 31
0.0
100
AcDbText
 73
     1
  0
TEXT
  5
1D5
330
1F
100
AcDbEntity
  8
LAYER5
  6
Continuous
 62
     2
370
    13
100
AcDbText
 10
232.0
 20
14.29238464424159
 30
0.0
 40
1.6
  1
日
  7
ＭＳ ゴシック
 11
232.0
 21
14.0
 31
0.0
100
AcDbText
 73
     1
  0
TEXT
  5
1D6
330
1F
100
AcDbEntity
  8
LAYER5
  6
Continuous
 62
     2
370
    13
100
AcDbText
 10
234.8125
 20
14.29238464424159
 30
0.0
 40
1.6
  1
付
  7
ＭＳ ゴシック
 11
234.8125
 21
14.0
 31
0.0
100
AcDbText
 73
     1
  0
TEXT
  5
1D7
330
1F
100
AcDbEntity
  8
LAYER5
  6
Continuous
 62
     2
370
    13
100
AcDbText
 10
307.0
 20
27.43857696636239
 30
0.0
 40
2.4
  1
図
  7
ＭＳ ゴシック
 11
307.0
 21
27.0
 31
0.0
100
AcDbText
 73
     1
  0
TEXT
  5
1D8
330
1F
100
AcDbEntity
  8
LAYER5
  6
Continuous
 62
     2
370
    13
100
AcDbText
 10
310.859375
 20
27.43857696636239
 30
0.0
 40
2.4
  1
面
  7
ＭＳ ゴシック
 11
310.859375
 21
27.0
 31
0.0
100
AcDbText
 73
     1
  0
TEXT
  5
1D9
330
1F
100
AcDbEntity
  8
LAYER5
  6
Continuous
 62
     2
370
    13
100
AcDbText
 10
314.71875
 20
27.43857696636239
 30
0.0
 40
2.4
  1
名
  7
ＭＳ ゴシック
 11
314.71875
 21
27.0
 31
0.0
100
AcDbText
 73
     1
  0
TEXT
  5
1DA
330
1F
100
AcDbEntity
  8
LAYER5
  6
Continuous
 62
     2
370
    13
100
AcDbText
 10
351.1875
 20
13.93857696636239
 30
0.0
 40
2.4
  1
縮
  7
ＭＳ ゴシック
 11
351.1875
 21
13.5
 31
0.0
100
AcDbText
 73
     1
  0
TEXT
  5
1DB
330
1F
100
AcDbEntity
  8
LAYER5
  6
Continuous
 62
     2
370
    13
100
AcDbText
 10
355.0
 20
13.93857696636239
 30
0.0
 40
2.4
  1
尺
  7
ＭＳ ゴシック
 11
355.0
 21
13.5
 31
0.0
100
AcDbText
 73
     1
  0
INSERT
  5
1F7
330
1F
100
AcDbEntity
  8
LAYER1
  6
dotted
 62
     3
370
    13
100
AcDbBlockReference
  2
FcPack%d1
 10
210.0
 20
148.5
 30
0.0
  0
TEXT
  5
1F8
330
1F
100
AcDbEntity
  8
LAYER7
  6
Continuous
 62
     1
370
    13
100
AcDbText
 10
11.0
 20
24.67171178953199
 30
0.0
 40
3.003412969283277
  1
福
  7
ＭＳ ゴシック
 11
11.0
 21
24.12286689419795
 31
0.0
100
AcDbText
 73
     1
  0
TEXT
  5
1F9
330
1F
100
AcDbEntity
  8
LAYER7
  6
Continuous
 62
     1
370
    13
100
AcDbText
 10
17.00682593856655
 20
24.67171178953199
 30
0.0
 40
3.003412969283277
  1
岡
  7
ＭＳ ゴシック
 11
17.00682593856655
 21
24.12286689419795
 31
0.0
100
AcDbText
 73
     1
  0
TEXT
  5
1FA
330
1F
100
AcDbEntity
  8
LAYER7
  6
Continuous
 62
     1
370
    13
100
AcDbText
 10
23.01365187713311
 20
24.67171178953199
 30
0.0
 40
3.003412969283277
  1
市
  7
ＭＳ ゴシック
 11
23.01365187713311
 21
24.12286689419795
 31
0.0
100
AcDbText
 73
     1
  0
TEXT
  5
1FB
330
1F
100
AcDbEntity
  8
LAYER7
  6
Continuous
 62
     1
370
    13
100
AcDbText
 10
29.02047781569966
 20
24.67171178953199
 30
0.0
 40
3.003412969283277
  1
南
  7
ＭＳ ゴシック
 11
29.02047781569966
 21
24.12286689419795
 31
0.0
100
AcDbText
 73
     1
  0
TEXT
  5
1FC
330
1F
100
AcDbEntity
  8
LAYER7
  6
Continuous
 62
     1
370
    13
100
AcDbText
 10
35.02730375426621
 20
24.67171178953199
 30
0.0
 40
3.003412969283277
  1
区
  7
ＭＳ ゴシック
 11
35.02730375426621
 21
24.12286689419795
 31
0.0
100
AcDbText
 73
     1
  0
TEXT
  5
1FD
330
1F
100
AcDbEntity
  8
LAYER7
  6
Continuous
 62
     1
370
    13
100
AcDbText
 10
41.03412969283277
 20
24.67171178953199
 30
0.0
 40
3.003412969283277
  1
老
  7
ＭＳ ゴシック
 11
41.03412969283277
 21
24.12286689419795
 31
0.0
100
AcDbText
 73
     1
  0
TEXT
  5
1FE
330
1F
100
AcDbEntity
  8
LAYER7
  6
Continuous
 62
     1
370
    13
100
AcDbText
 10
47.04095563139932
 20
24.67171178953199
 30
0.0
 40
3.003412969283277
  1
司
  7
ＭＳ ゴシック
 11
47.04095563139932
 21
24.12286689419795
 31
0.0
100
AcDbText
 73
     1
  0
TEXT
  5
1FF
330
1F
100
AcDbEntity
  8
LAYER7
  6
Continuous
 62
     1
370
    13
100
AcDbText
 10
53.04778156996588
 20
24.67171178953199
 30
0.0
 40
3.003412969283277
  1
1
  7
ＭＳ ゴシック
 11
53.04778156996588
 21
24.12286689419795
 31
0.0
100
AcDbText
 73
     1
  0
TEXT
  5
200
330
1F
100
AcDbEntity
  8
LAYER7
  6
Continuous
 62
     1
370
    13
100
AcDbText
 10
57.17747440273038
 20
24.67171178953199
 30
0.0
 40
3.003412969283277
  1
丁
  7
ＭＳ ゴシック
 11
57.17747440273038
 21
24.12286689419795
 31
0.0
100
AcDbText
 73
     1
  0
TEXT
  5
201
330
1F
100
AcDbEntity
  8
LAYER7
  6
Continuous
 62
     1
370
    13
100
AcDbText
 10
63.18430034129693
 20
24.67171178953199
 30
0.0
 40
3.003412969283277
  1
目
  7
ＭＳ ゴシック
 11
63.18430034129693
 21
24.12286689419795
 31
0.0
100
AcDbText
 73
     1
  0
TEXT
  5
202
330
1F
100
AcDbEntity
  8
LAYER7
  6
Continuous
 62
     1
370
    13
100
AcDbText
 10
69.19112627986348
 20
24.67171178953199
 30
0.0
 40
3.003412969283277
  1
３
  7
ＭＳ ゴシック
 11
69.19112627986348
 21
24.12286689419795
 31
0.0
100
AcDbText
 73
     1
  0
TEXT
  5
203
330
1F
100
AcDbEntity
  8
LAYER7
  6
Continuous
 62
     1
370
    13
100
AcDbText
 10
75.19795221843003
 20
24.67171178953199
 30
0.0
 40
3.003412969283277
  1
号
  7
ＭＳ ゴシック
 11
75.19795221843003
 21
24.12286689419795
 31
0.0
100
AcDbText
 73
     1
  0
TEXT
  5
204
330
1F
100
AcDbEntity
  8
LAYER7
  6
Continuous
 62
     1
370
    13
100
AcDbText
 10
81.2047781569966
 20
24.67171178953199
 30
0.0
 40
3.003412969283277
  1
地
  7
ＭＳ ゴシック
 11
81.2047781569966
 21
24.12286689419795
 31
0.0
100
AcDbText
 73
     1
  0
TEXT
  5
205
330
1F
100
AcDbEntity
  8
LAYER7
  6
Continuous
 62
     1
370
    13
100
AcDbText
 10
87.21160409556315
 20
24.67171178953199
 30
0.0
 40
3.003412969283277
  1
様
  7
ＭＳ ゴシック
 11
87.21160409556315
 21
24.12286689419795
 31
0.0
100
AcDbText
 73
     1
  0
TEXT
  5
206
330
1F
100
AcDbEntity
  8
LAYER7
  6
Continuous
 62
     1
370
    13
100
AcDbText
 10
93.21843003412971
 20
24.67171178953199
 30
0.0
 40
3.003412969283277
  1
邸
  7
ＭＳ ゴシック
 11
93.21843003412971
 21
24.12286689419795
 31
0.0
100
AcDbText
 73
     1
  0
TEXT
  5
207
330
1F
100
AcDbEntity
  8
LAYER7
  6
Continuous
 62
     1
370
    13
100
AcDbText
 10
99.22525597269627
 20
24.67171178953199
 30
0.0
 40
3.003412969283277
  1
新
  7
ＭＳ ゴシック
 11
99.22525597269627
 21
24.12286689419795
 31
0.0
100
AcDbText
 73
     1
  0
TEXT
  5
208
330
1F
100
AcDbEntity
  8
LAYER7
  6
Continuous
 62
     1
370
    13
100
AcDbText
 10
105.2320819112628
 20
24.67171178953199
 30
0.0
 40
3.003412969283277
  1
築
  7
ＭＳ ゴシック
 11
105.2320819112628
 21
24.12286689419795
 31
0.0
100
AcDbText
 73
     1
  0
TEXT
  5
209
330
1F
100
AcDbEntity
  8
LAYER7
  6
Continuous
 62
     1
370
    13
100
AcDbText
 10
111.2389078498294
 20
24.67171178953199
 30
0.0
 40
3.003412969283277
  1
工
  7
ＭＳ ゴシック
 11
111.2389078498294
 21
24.12286689419795
 31
0.0
100
AcDbText
 73
     1
  0
TEXT
  5
20A
330
1F
100
AcDbEntity
  8
LAYER7
  6
Continuous
 62
     1
370
    13
100
AcDbText
 10
117.2457337883959
 20
24.67171178953199
 30
0.0
 40
3.003412969283277
  1
事
  7
ＭＳ ゴシック
 11
117.2457337883959
 21
24.12286689419795
 31
0.0
100
AcDbText
 73
     1
  0
TEXT
  5
20B
330
1F
100
AcDbEntity
  8
LAYER7
  6
Continuous
 62
     1
370
    13
100
AcDbText
 10
123.0
 20
14.70034568
 30
0.0
 40
2.9384
  1
福岡市早良区原7丁目22-11
  7
ＭＳ ゴシック
 11
123.0
 21
16.16954568
 31
0.0
100
AcDbText
 73
     2
  0
TEXT
  5
20C
330
1F
100
AcDbEntity
  8
LAYER7
  6
Continuous
 62
     1
370
    13
100
AcDbText
 10
148.0
 20
24.2308
 30
0.0
 40
4.0
  1
株式会社　M-style
  7
ＭＳ ゴシック
 11
148.0
 21
26.2308
 31
0.0
100
AcDbText
 73
     2
  0
TEXT
  5
20D
330
1F
100
AcDbEntity
  8
LAYER7
  6
Continuous
 62
     1
370
    13
100
AcDbText
 10
397.75
 20
19.23096161060398
 30
0.0
 40
4.0
  1
3
  7
ＭＳ ゴシック
 11
397.75
 21
18.5
 31
0.0
100
AcDbText
 73
     1
  0
TEXT
  5
20E
330
1F
100
AcDbEntity
  8
LAYER7
  6
Continuous
 62
     1
370
    13
100
AcDbText
 10
341.167
 20
23.58476928848318
 30
0.0
 40
3.2
  1
配
  7
ＭＳ ゴシック
 11
341.167
 21
23.0
 31
0.0
100
AcDbText
 73
     1
  0
TEXT
  5
20F
330
1F
100
AcDbEntity
  8
LAYER7
  6
Continuous
 62
     1
370
    13
100
AcDbText
 10
345.5
 20
23.58476928848318
 30
0.0
 40
3.2
  1
置
  7
ＭＳ ゴシック
 11
345.5
 21
23.0
 31
0.0
100
AcDbText
 73
     1
  0
TEXT
  5
210
330
1F
100
AcDbEntity
  8
LAYER7
  6
Continuous
 62
     1
370
    13
100
AcDbText
 10
349.833
 20
23.58476928848318
 30
0.0
 40
3.2
  1
図
  7
ＭＳ ゴシック
 11
349.833
 21
23.0
 31
0.0
100
AcDbText
 73
     1
  0
TEXT
  5
211
330
1F
100
AcDbEntity
  8
LAYER7
  6
Continuous
 62
     1
370
    13
100
AcDbText
 10
370.624
 20
13.93857696636239
 30
0.0
 40
2.4
  1
1
  7
ＭＳ ゴシック
 11
370.624
 21
13.5
 31
0.0
100
AcDbText
 73
     1
  0
TEXT
  5
212
330
1F
100
AcDbEntity
  8
LAYER7
  6
Continuous
 62
     1
370
    13
100
AcDbText
 10
371.937
 20
13.93857696636239
 30
0.0
 40
2.4
  1
/
  7
ＭＳ ゴシック
 11
371.937
 21
13.5
 31
0.0
100
AcDbText
 73
     1
  0
TEXT
  5
213
330
1F
100
AcDbEntity
  8
LAYER7
  6
Continuous
 62
     1
370
    13
100
AcDbText
 10
373.25
 20
13.93857696636239
 30
0.0
 40
2.4
  1
1
  7
ＭＳ ゴシック
 11
373.25
 21
13.5
 31
0.0
100
AcDbText
 73
     1
  0
TEXT
  5
214
330
1F
100
AcDbEntity
  8
LAYER7
  6
Continuous
 62
     1
370
    13
100
AcDbText
 10
374.563
 20
13.93857696636239
 30
0.0
 40
2.4
  1
0
  7
ＭＳ ゴシック
 11
374.563
 21
13.5
 31
0.0
100
AcDbText
 73
     1
  0
TEXT
  5
215
330
1F
100
AcDbEntity
  8
LAYER7
  6
Continuous
 62
     1
370
    13
100
AcDbText
 10
375.876
 20
13.93857696636239
 30
0.0
 40
2.4
  1
0
  7
ＭＳ ゴシック
 11
375.876
 21
13.5
 31
0.0
100
AcDbText
 73
     1
  0
ENDSEC
  0
SECTION
  2
OBJECTS
  0
DICTIONARY
  5
C
330
0
100
AcDbDictionary
281
     1
  3
ACAD_DETAILVIEWSTYLE
350
21D
  3
ACAD_GROUP
350
D
  3
ACAD_LAYOUT
350
1A
  3
ACAD_MATERIAL
350
43
  3
ACAD_MLEADERSTYLE
350
6B
  3
ACAD_MLINESTYLE
350
17
  3
ACAD_PLOTSETTINGS
350
19
  3
ACAD_PLOTSTYLENAME
350
E
  3
ACAD_SCALELIST
350
47
  3
ACAD_SECTIONVIEWSTYLE
350
21E
  3
ACAD_TABLESTYLE
350
69
  3
ACAD_VISUALSTYLE
350
2A
  3
ACDB_RECOMPOSE_DATA
350
21A
  3
AcDbVariableDictionary
350
216
  0
SUN
  5
6D
330
29
100
AcDbSun
 90
        1
290
     0
 63
     7
421
 16777215
 40
1.0
291
     1
 91
  2455826
 92
 54000000
292
     0
 70
     2
 71
   256
280
     1
  0
DICTIONARY
  5
21D
102
{ACAD_REACTORS
330
C
102
}
330
C
100
AcDbDictionary
281
     1
  0
DICTIONARY
  5
D
102
{ACAD_REACTORS
330
C
102
}
330
C
100
AcDbDictionary
281
     1
  0
DICTIONARY
  5
1A
102
{ACAD_REACTORS
330
C
102
}
330
C
100
AcDbDictionary
281
     1
  3
Layout1
350
1E
  3
Layout2
350
26
  3
Model
350
22
  0
DICTIONARY
  5
43
102
{ACAD_REACTORS
330
C
102
}
330
C
100
AcDbDictionary
281
     1
  3
ByBlock
350
45
  3
ByLayer
350
44
  3
Global
350
46
  0
DICTIONARY
  5
6B
102
{ACAD_REACTORS
330
C
102
}
330
C
100
AcDbDictionary
281
     1
  3
Standard
350
6C
  0
DICTIONARY
  5
17
102
{ACAD_REACTORS
330
C
102
}
330
C
100
AcDbDictionary
281
     1
  3
Standard
350
18
  0
DICTIONARY
  5
19
102
{ACAD_REACTORS
330
C
102
}
330
C
100
AcDbDictionary
281
     1
  0
ACDBDICTIONARYWDFLT
  5
E
102
{ACAD_REACTORS
330
C
102
}
330
C
100
AcDbDictionary
281
     1
  3
Normal
350
F
100
AcDbDictionaryWithDefault
340
F
  0
DICTIONARY
  5
47
102
{ACAD_REACTORS
330
C
102
}
330
C
100
AcDbDictionary
281
     1
  3
A0
350
48
  3
A1
350
49
  3
A2
350
4A
  3
A3
350
4B
  3
A4
350
4C
  3
A5
350
4D
  3
A6
350
4E
  3
A7
350
4F
  3
A8
350
50
  3
A9
350
51
  3
B0
350
52
  3
B1
350
53
  3
B2
350
54
  3
B3
350
55
  3
B4
350
56
  3
B5
350
57
  3
B6
350
58
  3
B7
350
59
  3
B8
350
5A
  3
B9
350
5B
  3
C0
350
5C
  3
C1
350
5D
  3
C2
350
5E
  3
C3
350
5F
  3
C4
350
60
  3
C5
350
61
  3
C6
350
62
  3
C7
350
63
  3
C8
350
64
  3
C9
350
65
  3
D0
350
66
  3
D1
350
67
  3
D2
350
68
  0
DICTIONARY
  5
21E
102
{ACAD_REACTORS
330
C
102
}
330
C
100
AcDbDictionary
281
     1
  0
DICTIONARY
  5
69
102
{ACAD_REACTORS
330
C
102
}
330
C
100
AcDbDictionary
281
     1
  3
Standard
350
6A
  0
DICTIONARY
  5
2A
102
{ACAD_REACTORS
330
C
102
}
330
C
100
AcDbDictionary
281
     1
  3
2dWireframe
350
2F
  3
Basic
350
32
  3
Brighten
350
36
  3
ColorChange
350
3A
  3
Conceptual
350
34
  3
Dim
350
35
  3
EdgeColorOff
350
3D
  3
Facepattern
350
39
  3
Flat
350
2B
  3
FlatWithEdges
350
2C
  3
Gouraud
350
2D
  3
GouraudWithEdges
350
2E
  3
Hidden
350
31
  3
JitterOff
350
3B
  3
Linepattern
350
38
  3
OverhangOff
350
3C
  3
Realistic
350
33
  3
Shaded
350
42
  3
Shaded with edges
350
41
  3
Shades of Gray
350
3E
  3
Sketchy
350
3F
  3
Thicken
350
37
  3
Wireframe
350
30
  3
X-Ray
350
40
  0
XRECORD
  5
21A
102
{ACAD_REACTORS
330
C
102
}
330
C
100
AcDbXrecord
280
     1
 90
        1
330
6A
  0
DICTIONARY
  5
216
102
{ACAD_REACTORS
330
C
102
}
330
C
100
AcDbDictionary
281
     1
  3
CANNOSCALE
350
217
  3
CENTEREXE
350
21F
  3
CENTERLTYPEFILE
350
220
  3
CMLEADERSTYLE
350
21C
  3
CTABLESTYLE
350
21B
  0
LAYOUT
  5
1E
102
{ACAD_REACTORS
330
1A
102
}
330
1A
100
AcDbPlotSettings
  1

  2
none_device
  4

  6

 40
0.0
 41
0.0
 42
0.0
 43
0.0
 44
0.0
 45
0.0
 46
0.0
 47
0.0
 48
0.0
 49
0.0
140
0.0
141
0.0
142
1.0
143
1.0
 70
   688
 72
     1
 73
     0
 74
     5
  7

 75
    16
 76
     0
 77
     2
 78
   300
147
1.0
148
0.0
149
0.0
100
AcDbLayout
  1
Layout1
 70
     1
 71
     1
 10
0.0
 20
0.0
 11
420.0
 21
297.0
 12
0.0
 22
0.0
 32
0.0
 14
1.000000000000000E+20
 24
1.000000000000000E+20
 34
1.000000000000000E+20
 15
-1.000000000000000E+20
 25
-1.000000000000000E+20
 35
-1.000000000000000E+20
146
0.0
 13
0.0
 23
0.0
 33
0.0
 16
1.0
 26
0.0
 36
0.0
 17
0.0
 27
1.0
 37
0.0
 76
     0
330
1B
  0
LAYOUT
  5
26
102
{ACAD_REACTORS
330
1A
102
}
330
1A
100
AcDbPlotSettings
  1

  2
none_device
  4

  6

 40
0.0
 41
0.0
 42
0.0
 43
0.0
 44
0.0
 45
0.0
 46
0.0
 47
0.0
 48
0.0
 49
0.0
140
0.0
141
0.0
142
1.0
143
1.0
 70
   688
 72
     1
 73
     0
 74
     5
  7

 75
    16
 76
     0
 77
     2
 78
   300
147
1.0
148
0.0
149
0.0
100
AcDbLayout
  1
Layout2
 70
     1
 71
     2
 10
0.0
 20
0.0
 11
0.0
 21
0.0
 12
0.0
 22
0.0
 32
0.0
 14
0.0
 24
0.0
 34
0.0
 15
0.0
 25
0.0
 35
0.0
146
0.0
 13
0.0
 23
0.0
 33
0.0
 16
1.0
 26
0.0
 36
0.0
 17
0.0
 27
1.0
 37
0.0
 76
     0
330
23
  0
LAYOUT
  5
22
102
{ACAD_REACTORS
330
1A
102
}
330
1A
100
AcDbPlotSettings
  1

  2
none_device
  4
Letter_(8.50_x_11.00_Inches)
  6

 40
6.35
 41
6.35
 42
6.35000508
 43
6.35000508
 44
215.9
 45
279.4
 46
0.0
 47
0.0
 48
0.0
 49
0.0
140
0.0
141
0.0
142
1.0
143
1.0
 70
  1712
 72
     1
 73
     0
 74
     0
  7

 75
     0
 76
     0
 77
     2
 78
   300
147
1.0
148
0.0
149
0.0
100
AcDbLayout
  1
Model
 70
     1
 71
     0
 10
10.0
 20
10.0
 11
410.0
 21
287.0
 12
0.0
 22
0.0
 32
0.0
 14
10.0
 24
10.0
 34
0.0
 15
410.0
 25
287.0
 35
0.0
146
0.0
 13
0.0
 23
0.0
 33
0.0
 16
1.0
 26
0.0
 36
0.0
 17
0.0
 27
1.0
 37
0.0
 76
     0
330
1F
331
29
  0
MATERIAL
  5
45
102
{ACAD_REACTORS
330
43
102
}
330
43
100
AcDbMaterial
  1
ByBlock
 72
     1
 94
      127
  0
MATERIAL
  5
44
102
{ACAD_REACTORS
330
43
102
}
330
43
100
AcDbMaterial
  1
ByLayer
 72
     1
 94
      127
  0
MATERIAL
  5
46
102
{ACAD_REACTORS
330
43
102
}
330
43
100
AcDbMaterial
  1
Global
 72
     1
 94
      127
  0
MLEADERSTYLE
  5
6C
102
{ACAD_REACTORS
330
6B
102
}
330
6B
100
AcDbMLeaderStyle
179
     2
170
     2
171
     1
172
     0
 90
        2
 40
0.0
 41
0.0
173
     1
 91
-1056964608
340
14
 92
       -2
290
     1
 42
2.0
291
     1
 43
8.0
  3
Standard
341
0
 44
4.0
300

342
11
174
     1
178
     6
175
     1
176
     0
 93
-1056964608
 45
4.0
292
     0
297
     0
 46
4.0
343
0
 94
-1056964608
 47
1.0
 49
1.0
140
1.0
293
     1
141
0.0
294
     1
177
     0
142
1.0
295
     0
296
     0
143
3.75
271
     0
272
     9
273
     9
298
     0
  0
MLINESTYLE
  5
18
102
{ACAD_REACTORS
330
17
102
}
330
17
100
AcDbMlineStyle
  2
Standard
 70
     0
  3

 62
   256
 51
90.0
 52
90.0
 71
     2
 49
0.5
 62
   256
  6
BYLAYER
 49
-0.5
 62
   256
  6
BYLAYER
  0
ACDBPLACEHOLDER
  5
F
102
{ACAD_REACTORS
330
E
102
}
330
E
  0
SCALE
  5
48
102
{ACAD_REACTORS
330
47
102
}
330
47
100
AcDbScale
 70
     0
300
1:1
140
1.0
141
1.0
290
     1
  0
SCALE
  5
49
102
{ACAD_REACTORS
330
47
102
}
330
47
100
AcDbScale
 70
     0
300
1:2
140
1.0
141
2.0
290
     0
  0
SCALE
  5
4A
102
{ACAD_REACTORS
330
47
102
}
330
47
100
AcDbScale
 70
     0
300
1:4
140
1.0
141
4.0
290
     0
  0
SCALE
  5
4B
102
{ACAD_REACTORS
330
47
102
}
330
47
100
AcDbScale
 70
     0
300
1:5
140
1.0
141
5.0
290
     0
  0
SCALE
  5
4C
102
{ACAD_REACTORS
330
47
102
}
330
47
100
AcDbScale
 70
     0
300
1:8
140
1.0
141
8.0
290
     0
  0
SCALE
  5
4D
102
{ACAD_REACTORS
330
47
102
}
330
47
100
AcDbScale
 70
     0
300
1:10
140
1.0
141
10.0
290
     0
  0
SCALE
  5
4E
102
{ACAD_REACTORS
330
47
102
}
330
47
100
AcDbScale
 70
     0
300
1:16
140
1.0
141
16.0
290
     0
  0
SCALE
  5
4F
102
{ACAD_REACTORS
330
47
102
}
330
47
100
AcDbScale
 70
     0
300
1:20
140
1.0
141
20.0
290
     0
  0
SCALE
  5
50
102
{ACAD_REACTORS
330
47
102
}
330
47
100
AcDbScale
 70
     0
300
1:30
140
1.0
141
30.0
290
     0
  0
SCALE
  5
51
102
{ACAD_REACTORS
330
47
102
}
330
47
100
AcDbScale
 70
     0
300
1:40
140
1.0
141
40.0
290
     0
  0
SCALE
  5
52
102
{ACAD_REACTORS
330
47
102
}
330
47
100
AcDbScale
 70
     0
300
1:50
140
1.0
141
50.0
290
     0
  0
SCALE
  5
53
102
{ACAD_REACTORS
330
47
102
}
330
47
100
AcDbScale
 70
     0
300
1:100
140
1.0
141
100.0
290
     0
  0
SCALE
  5
54
102
{ACAD_REACTORS
330
47
102
}
330
47
100
AcDbScale
 70
     0
300
2:1
140
2.0
141
1.0
290
     0
  0
SCALE
  5
55
102
{ACAD_REACTORS
330
47
102
}
330
47
100
AcDbScale
 70
     0
300
4:1
140
4.0
141
1.0
290
     0
  0
SCALE
  5
56
102
{ACAD_REACTORS
330
47
102
}
330
47
100
AcDbScale
 70
     0
300
8:1
140
8.0
141
1.0
290
     0
  0
SCALE
  5
57
102
{ACAD_REACTORS
330
47
102
}
330
47
100
AcDbScale
 70
     0
300
10:1
140
10.0
141
1.0
290
     0
  0
SCALE
  5
58
102
{ACAD_REACTORS
330
47
102
}
330
47
100
AcDbScale
 70
     0
300
100:1
140
100.0
141
1.0
290
     0
  0
SCALE
  5
59
102
{ACAD_REACTORS
330
47
102
}
330
47
100
AcDbScale
 70
     0
300
1/128" = 1'-0"
140
0.0078125
141
12.0
290
     0
  0
SCALE
  5
5A
102
{ACAD_REACTORS
330
47
102
}
330
47
100
AcDbScale
 70
     0
300
1/64" = 1'-0"
140
0.015625
141
12.0
290
     0
  0
SCALE
  5
5B
102
{ACAD_REACTORS
330
47
102
}
330
47
100
AcDbScale
 70
     0
300
1/32" = 1'-0"
140
0.03125
141
12.0
290
     0
  0
SCALE
  5
5C
102
{ACAD_REACTORS
330
47
102
}
330
47
100
AcDbScale
 70
     0
300
1/16" = 1'-0"
140
0.0625
141
12.0
290
     0
  0
SCALE
  5
5D
102
{ACAD_REACTORS
330
47
102
}
330
47
100
AcDbScale
 70
     0
300
3/32" = 1'-0"
140
0.09375
141
12.0
290
     0
  0
SCALE
  5
5E
102
{ACAD_REACTORS
330
47
102
}
330
47
100
AcDbScale
 70
     0
300
1/8" = 1'-0"
140
0.125
141
12.0
290
     0
  0
SCALE
  5
5F
102
{ACAD_REACTORS
330
47
102
}
330
47
100
AcDbScale
 70
     0
300
3/16" = 1'-0"
140
0.1875
141
12.0
290
     0
  0
SCALE
  5
60
102
{ACAD_REACTORS
330
47
102
}
330
47
100
AcDbScale
 70
     0
300
1/4" = 1'-0"
140
0.25
141
12.0
290
     0
  0
SCALE
  5
61
102
{ACAD_REACTORS
330
47
102
}
330
47
100
AcDbScale
 70
     0
300
3/8" = 1'-0"
140
0.375
141
12.0
290
     0
  0
SCALE
  5
62
102
{ACAD_REACTORS
330
47
102
}
330
47
100
AcDbScale
 70
     0
300
1/2" = 1'-0"
140
0.5
141
12.0
290
     0
  0
SCALE
  5
63
102
{ACAD_REACTORS
330
47
102
}
330
47
100
AcDbScale
 70
     0
300
3/4" = 1'-0"
140
0.75
141
12.0
290
     0
  0
SCALE
  5
64
102
{ACAD_REACTORS
330
47
102
}
330
47
100
AcDbScale
 70
     0
300
1" = 1'-0"
140
1.0
141
12.0
290
     0
  0
SCALE
  5
65
102
{ACAD_REACTORS
330
47
102
}
330
47
100
AcDbScale
 70
     0
300
1-1/2" = 1'-0"
140
1.5
141
12.0
290
     0
  0
SCALE
  5
66
102
{ACAD_REACTORS
330
47
102
}
330
47
100
AcDbScale
 70
     0
300
3" = 1'-0"
140
3.0
141
12.0
290
     0
  0
SCALE
  5
67
102
{ACAD_REACTORS
330
47
102
}
330
47
100
AcDbScale
 70
     0
300
6" = 1'-0"
140
6.0
141
12.0
290
     0
  0
SCALE
  5
68
102
{ACAD_REACTORS
330
47
102
}
330
47
100
AcDbScale
 70
     0
300
1'-0" = 1'-0"
140
12.0
141
12.0
290
     0
  0
TABLESTYLE
  5
6A
102
{ACAD_REACTORS
330
69
102
}
102
{ACAD_XDICTIONARY
360
218
102
}
330
69
100
AcDbTableStyle
  3
Standard
 70
     0
 71
     0
 40
0.06
 41
0.06
280
     0
281
     0
  7
Standard
140
4.5
170
     2
 62
     0
 63
   257
283
     0
 90
        4
 91
        0
  1

274
    -2
284
     1
 64
     0
275
    -2
285
     1
 65
     0
276
    -2
286
     1
 66
     0
277
    -2
287
     1
 67
     0
278
    -2
288
     1
 68
     0
279
    -2
289
     1
 69
     0
  7
Standard
140
6.0
170
     5
 62
     0
 63
   257
283
     0
 90
        4
 91
        0
  1

274
    -2
284
     1
 64
     0
275
    -2
285
     1
 65
     0
276
    -2
286
     1
 66
     0
277
    -2
287
     1
 67
     0
278
    -2
288
     1
 68
     0
279
    -2
289
     1
 69
     0
  7
Standard
140
4.5
170
     5
 62
     0
 63
   257
283
     0
 90
        4
 91
        0
  1

274
    -2
284
     1
 64
     0
275
    -2
285
     1
 65
     0
276
    -2
286
     1
 66
     0
277
    -2
287
     1
 67
     0
278
    -2
288
     1
 68
     0
279
    -2
289
     1
 69
     0
  0
VISUALSTYLE
  5
2F
102
{ACAD_REACTORS
330
2A
102
}
330
2A
100
AcDbVisualStyle
  2
2dWireframe
 70
     4
177
     3
291
     0
 70
    58
 90
        0
176
     1
 90
        2
176
     1
 90
        0
176
     1
 90
        0
176
     1
 40
0.6
176
     1
 40
30.0
176
     1
 62
     7
420
 16777215
176
     1
 90
        1
176
     1
 90
        4
176
     1
 62
     7
176
     1
 62
   257
176
     1
 90
        1
176
     1
 90
        1
176
     1
 40
1.0
176
     1
 90
        0
176
     1
 62
   257
176
     1
 40
1.0
176
     1
 90
        1
176
     1
 90
        6
176
     1
 90
        2
176
     1
 62
     7
176
     1
 90
        5
176
     1
 90
        0
176
     1
 90
        0
176
     1
290
     0
176
     1
 90
        1
176
     1
 40
0.0
176
     1
 90
        0
176
     1
290
     1
176
     1
290
     1
176
     1
290
     0
176
     1
290
     0
176
     1
290
     0
176
     1
290
     0
176
     1
290
     0
176
     1
290
     0
176
     1
290
     0
176
     1
 90
       50
176
     1
 40
0.0
176
     1
 40
1.0
176
     1
 90
        0
176
     1
 62
    18
420
        0
176
     1
 90
       50
176
     1
 90
        3
176
     1
 62
     5
420
      255
176
     1
290
     0
176
     1
 90
       50
176
     1
 90
       50
176
     1
 90
       50
176
     1
290
     0
176
     1
 90
       50
176
     1
 62
   256
176
     0
 40
1.0
176
     0
 90
        2
176
     1
  1
strokes_ogs.tif
176
     1
290
     0
176
     1
 40
1.0
176
     1
 40
1.0
176
     1
  0
VISUALSTYLE
  5
32
102
{ACAD_REACTORS
330
2A
102
}
330
2A
100
AcDbVisualStyle
  2
Basic
 70
     7
177
     3
291
     1
 70
    58
 90
        1
176
     1
 90
        0
176
     1
 90
        1
176
     1
 90
        0
176
     1
 40
0.6
176
     1
 40
30.0
176
     1
 62
     7
420
 16777215
176
     1
 90
        0
176
     1
 90
        4
176
     1
 62
     7
176
     1
 62
   257
176
     1
 90
        1
176
     1
 90
        1
176
     1
 40
1.0
176
     1
 90
        8
176
     1
 62
     7
176
     1
 40
1.0
176
     1
 90
        1
176
     1
 90
        6
176
     1
 90
        2
176
     1
 62
     7
176
     1
 90
        5
176
     1
 90
        0
176
     1
 90
        0
176
     1
290
     0
176
     1
 90
        1
176
     1
 40
0.0
176
     1
 90
        0
176
     1
290
     0
176
     1
290
     1
176
     1
290
     1
176
     1
290
     0
176
     1
290
     0
176
     1
290
     0
176
     1
290
     0
176
     1
290
     0
176
     1
290
     0
176
     1
 90
       50
176
     1
 40
0.0
176
     1
 40
1.0
176
     1
 90
        0
176
     1
 62
    18
420
        0
176
     1
 90
       50
176
     1
 90
        3
176
     1
 62
     5
420
      255
176
     1
290
     0
176
     1
 90
       50
176
     1
 90
       50
176
     1
 90
       50
176
     1
290
     0
176
     1
 90
       50
176
     1
 62
   256
176
     0
 40
1.0
176
     0
 90
        2
176
     1
  1
strokes_ogs.tif
176
     1
290
     0
176
     1
 40
1.0
176
     1
 40
1.0
176
     1
  0
VISUALSTYLE
  5
36
102
{ACAD_REACTORS
330
2A
102
}
330
2A
100
AcDbVisualStyle
  2
Brighten
 70
    12
177
     3
291
     1
 70
    58
 90
        2
176
     1
 90
        2
176
     1
 90
        0
176
     1
 90
        0
176
     1
 40
0.6
176
     1
 40
30.0
176
     1
 62
     7
420
 16777215
176
     1
 90
        1
176
     1
 90
        4
176
     1
 62
     7
176
     1
 62
   257
176
     1
 90
        1
176
     1
 90
        1
176
     1
 40
1.0
176
     1
 90
        8
176
     1
 62
     7
176
     1
 40
1.0
176
     1
 90
        1
176
     1
 90
        6
176
     1
 90
        2
176
     1
 62
     7
176
     1
 90
        5
176
     1
 90
        0
176
     1
 90
        0
176
     1
290
     0
176
     1
 90
        1
176
     1
 40
50.0
176
     1
 90
        0
176
     1
290
     0
176
     1
290
     1
176
     1
290
     1
176
     1
290
     0
176
     1
290
     0
176
     1
290
     0
176
     1
290
     0
176
     1
290
     0
176
     1
290
     0
176
     1
 90
       50
176
     1
 40
0.0
176
     1
 40
1.0
176
     1
 90
        0
176
     1
 62
    18
420
        0
176
     1
 90
       50
176
     1
 90
        3
176
     1
 62
     5
420
      255
176
     1
290
     0
176
     1
 90
       50
176
     1
 90
       50
176
     1
 90
       50
176
     1
290
     0
176
     1
 90
       50
176
     1
 62
   256
176
     0
 40
1.0
176
     0
 90
        2
176
     1
  1
strokes_ogs.tif
176
     1
290
     0
176
     1
 40
1.0
176
     1
 40
1.0
176
     1
  0
VISUALSTYLE
  5
3A
102
{ACAD_REACTORS
330
2A
102
}
330
2A
100
AcDbVisualStyle
  2
ColorChange
 70
    16
177
     3
291
     1
 70
    58
 90
        2
176
     1
 90
        2
176
     1
 90
        3
176
     1
 90
        0
176
     1
 40
0.6
176
     1
 40
30.0
176
     1
 62
     8
420
  8421504
176
     1
 90
        1
176
     1
 90
        4
176
     1
 62
     7
176
     1
 62
   257
176
     1
 90
        1
176
     1
 90
        1
176
     1
 40
1.0
176
     1
 90
        8
176
     1
 62
     8
420
  8421504
176
     1
 40
1.0
176
     1
 90
        1
176
     1
 90
        6
176
     1
 90
        2
176
     1
 62
     7
176
     1
 90
        5
176
     1
 90
        0
176
     1
 90
        0
176
     1
290
     0
176
     1
 90
        1
176
     1
 40
0.0
176
     1
 90
        0
176
     1
290
     0
176
     1
290
     1
176
     1
290
     1
176
     1
290
     0
176
     1
290
     0
176
     1
290
     0
176
     1
290
     0
176
     1
290
     0
176
     1
290
     0
176
     1
 90
       50
176
     1
 40
0.0
176
     1
 40
1.0
176
     1
 90
        0
176
     1
 62
    18
420
        0
176
     1
 90
       50
176
     1
 90
        3
176
     1
 62
     5
420
      255
176
     1
290
     0
176
     1
 90
       50
176
     1
 90
       50
176
     1
 90
       50
176
     1
290
     0
176
     1
 90
       50
176
     1
 62
   256
176
     0
 40
1.0
176
     0
 90
        2
176
     1
  1
strokes_ogs.tif
176
     1
290
     0
176
     1
 40
1.0
176
     1
 40
1.0
176
     1
  0
VISUALSTYLE
  5
34
102
{ACAD_REACTORS
330
2A
102
}
330
2A
100
AcDbVisualStyle
  2
Conceptual
 70
     9
177
     3
291
     0
 70
    58
 90
        3
176
     1
 90
        2
176
     1
 90
        0
176
     1
 90
        0
176
     1
 40
0.6
176
     1
 40
30.0
176
     1
 62
     7
420
 16777215
176
     1
 90
        2
176
     1
 90
        2
176
     1
 62
     7
176
     1
 62
   257
176
     1
 90
        1
176
     1
 90
        1
176
     1
 40
179.0
176
     1
 90
        8
176
     1
 62
     7
176
     1
 40
1.0
176
     1
 90
        1
176
     1
 90
        6
176
     1
 90
        2
176
     1
 62
     7
176
     1
 90
        3
176
     1
 90
        0
176
     1
 90
        0
176
     1
290
     0
176
     1
 90
        1
176
     1
 40
0.0
176
     1
 90
        0
176
     1
290
     0
176
     1
290
     1
176
     1
290
     1
176
     1
290
     0
176
     1
290
     0
176
     1
290
     0
176
     1
290
     0
176
     1
290
     0
176
     1
290
     0
176
     1
 90
       50
176
     1
 40
0.0
176
     1
 40
1.0
176
     1
 90
        0
176
     1
 62
    18
420
        0
176
     1
 90
       50
176
     1
 90
        3
176
     1
 62
     5
420
      255
176
     1
290
     0
176
     1
 90
       50
176
     1
 90
       50
176
     1
 90
       50
176
     1
290
     0
176
     1
 90
       50
176
     1
 62
   256
176
     0
 40
1.0
176
     0
 90
        2
176
     1
  1
strokes_ogs.tif
176
     1
290
     0
176
     1
 40
1.0
176
     1
 40
1.0
176
     1
  0
VISUALSTYLE
  5
35
102
{ACAD_REACTORS
330
2A
102
}
330
2A
100
AcDbVisualStyle
  2
Dim
 70
    11
177
     3
291
     1
 70
    58
 90
        2
176
     1
 90
        2
176
     1
 90
        0
176
     1
 90
        0
176
     1
 40
0.6
176
     1
 40
30.0
176
     1
 62
     7
420
 16777215
176
     1
 90
        1
176
     1
 90
        4
176
     1
 62
     7
176
     1
 62
   257
176
     1
 90
        1
176
     1
 90
        1
176
     1
 40
1.0
176
     1
 90
        8
176
     1
 62
     7
176
     1
 40
1.0
176
     1
 90
        1
176
     1
 90
        6
176
     1
 90
        2
176
     1
 62
     7
176
     1
 90
        5
176
     1
 90
        0
176
     1
 90
        0
176
     1
290
     0
176
     1
 90
        1
176
     1
 40
-50.0
176
     1
 90
        0
176
     1
290
     0
176
     1
290
     1
176
     1
290
     1
176
     1
290
     0
176
     1
290
     0
176
     1
290
     0
176
     1
290
     0
176
     1
290
     0
176
     1
290
     0
176
     1
 90
       50
176
     1
 40
0.0
176
     1
 40
1.0
176
     1
 90
        0
176
     1
 62
    18
420
        0
176
     1
 90
       50
176
     1
 90
        3
176
     1
 62
     5
420
      255
176
     1
290
     0
176
     1
 90
       50
176
     1
 90
       50
176
     1
 90
       50
176
     1
290
     0
176
     1
 90
       50
176
     1
 62
   256
176
     0
 40
1.0
176
     0
 90
        2
176
     1
  1
strokes_ogs.tif
176
     1
290
     0
176
     1
 40
1.0
176
     1
 40
1.0
176
     1
  0
VISUALSTYLE
  5
3D
102
{ACAD_REACTORS
330
2A
102
}
330
2A
100
AcDbVisualStyle
  2
EdgeColorOff
 70
    22
177
     3
291
     1
 70
    58
 90
        2
176
     0
 90
        2
176
     0
 90
        0
176
     0
 90
        0
176
     0
 40
0.6
176
     0
 40
30.0
176
     0
 62
     7
420
 16777215
176
     0
 90
        1
176
     0
 90
        4
176
     0
 62
     7
176
     0
 62
   257
176
     0
 90
        1
176
     0
 90
        1
176
     0
 40
1.0
176
     0
 90
        8
176
     2
 62
     7
176
     0
 40
1.0
176
     0
 90
        1
176
     0
 90
        6
176
     0
 90
        2
176
     0
 62
     7
176
     0
 90
        5
176
     0
 90
        0
176
     0
 90
        0
176
     0
290
     0
176
     0
 90
        1
176
     0
 40
0.0
176
     0
 90
        0
176
     0
290
     0
176
     0
290
     1
176
     0
290
     1
176
     0
290
     0
176
     0
290
     0
176
     0
290
     0
176
     0
290
     0
176
     0
290
     0
176
     0
290
     0
176
     0
 90
       50
176
     0
 40
0.0
176
     0
 40
1.0
176
     0
 90
        0
176
     0
 62
    18
420
        0
176
     0
 90
       50
176
     0
 90
        3
176
     0
 62
     5
420
      255
176
     0
290
     0
176
     0
 90
       50
176
     0
 90
       50
176
     0
 90
       50
176
     0
290
     0
176
     0
 90
       50
176
     0
 62
   256
176
     0
 40
1.0
176
     0
 90
        2
176
     0
  1
strokes_ogs.tif
176
     0
290
     0
176
     0
 40
1.0
176
     0
 40
1.0
176
     0
  0
VISUALSTYLE
  5
39
102
{ACAD_REACTORS
330
2A
102
}
330
2A
100
AcDbVisualStyle
  2
Facepattern
 70
    15
177
     3
291
     1
 70
    58
 90
        2
176
     1
 90
        2
176
     1
 90
        0
176
     1
 90
        0
176
     1
 40
0.6
176
     1
 40
30.0
176
     1
 62
     7
420
 16777215
176
     1
 90
        1
176
     1
 90
        4
176
     1
 62
     7
176
     1
 62
   257
176
     1
 90
        1
176
     1
 90
        1
176
     1
 40
1.0
176
     1
 90
        8
176
     1
 62
     7
176
     1
 40
1.0
176
     1
 90
        1
176
     1
 90
        6
176
     1
 90
        2
176
     1
 62
     7
176
     1
 90
        5
176
     1
 90
        0
176
     1
 90
        0
176
     1
290
     0
176
     1
 90
        1
176
     1
 40
0.0
176
     1
 90
        0
176
     1
290
     0
176
     1
290
     1
176
     1
290
     1
176
     1
290
     0
176
     1
290
     0
176
     1
290
     0
176
     1
290
     0
176
     1
290
     0
176
     1
290
     0
176
     1
 90
       50
176
     1
 40
0.0
176
     1
 40
1.0
176
     1
 90
        0
176
     1
 62
    18
420
        0
176
     1
 90
       50
176
     1
 90
        3
176
     1
 62
     5
420
      255
176
     1
290
     0
176
     1
 90
       50
176
     1
 90
       50
176
     1
 90
       50
176
     1
290
     0
176
     1
 90
       50
176
     1
 62
   256
176
     0
 40
1.0
176
     0
 90
        2
176
     1
  1
strokes_ogs.tif
176
     1
290
     0
176
     1
 40
1.0
176
     1
 40
1.0
176
     1
  0
VISUALSTYLE
  5
2B
102
{ACAD_REACTORS
330
2A
102
}
330
2A
100
AcDbVisualStyle
  2
Flat
 70
     0
177
     3
291
     1
 70
    58
 90
        2
176
     1
 90
        1
176
     1
 90
        1
176
     1
 90
        2
176
     1
 40
0.6
176
     1
 40
30.0
176
     1
 62
     7
420
 16777215
176
     1
 90
        0
176
     1
 90
        0
176
     1
 62
     7
176
     1
 62
   257
176
     1
 90
        1
176
     1
 90
        1
176
     1
 40
1.0
176
     1
 90
        8
176
     1
 62
     7
176
     1
 40
1.0
176
     1
 90
        1
176
     1
 90
        6
176
     1
 90
        2
176
     1
 62
     7
176
     1
 90
        5
176
     1
 90
        0
176
     1
 90
        0
176
     1
290
     0
176
     1
 90
       13
176
     1
 40
0.0
176
     1
 90
        0
176
     1
290
     0
176
     1
290
     1
176
     1
290
     1
176
     1
290
     0
176
     1
290
     0
176
     1
290
     0
176
     1
290
     0
176
     1
290
     0
176
     1
290
     0
176
     1
 90
       50
176
     1
 40
0.0
176
     1
 40
1.0
176
     1
 90
        0
176
     1
 62
    18
420
        0
176
     1
 90
       50
176
     1
 90
        3
176
     1
 62
     5
420
      255
176
     1
290
     0
176
     1
 90
       50
176
     1
 90
       50
176
     1
 90
       50
176
     1
290
     0
176
     1
 90
       50
176
     1
 62
   256
176
     0
 40
1.0
176
     0
 90
        2
176
     1
  1
strokes_ogs.tif
176
     1
290
     0
176
     1
 40
1.0
176
     1
 40
1.0
176
     1
  0
VISUALSTYLE
  5
2C
102
{ACAD_REACTORS
330
2A
102
}
330
2A
100
AcDbVisualStyle
  2
FlatWithEdges
 70
     1
177
     3
291
     1
 70
    58
 90
        2
176
     1
 90
        1
176
     1
 90
        1
176
     1
 90
        2
176
     1
 40
0.6
176
     1
 40
30.0
176
     1
 62
     7
420
 16777215
176
     1
 90
        1
176
     1
 90
        0
176
     1
 62
     7
176
     1
 62
   257
176
     1
 90
        1
176
     1
 90
        1
176
     1
 40
1.0
176
     1
 90
        0
176
     1
 62
   257
176
     1
 40
1.0
176
     1
 90
        1
176
     1
 90
        6
176
     1
 90
        2
176
     1
 62
     7
176
     1
 90
        5
176
     1
 90
        0
176
     1
 90
        0
176
     1
290
     0
176
     1
 90
       13
176
     1
 40
0.0
176
     1
 90
        0
176
     1
290
     0
176
     1
290
     1
176
     1
290
     1
176
     1
290
     0
176
     1
290
     0
176
     1
290
     0
176
     1
290
     0
176
     1
290
     0
176
     1
290
     0
176
     1
 90
       50
176
     1
 40
0.0
176
     1
 40
1.0
176
     1
 90
        0
176
     1
 62
    18
420
        0
176
     1
 90
       50
176
     1
 90
        3
176
     1
 62
     5
420
      255
176
     1
290
     0
176
     1
 90
       50
176
     1
 90
       50
176
     1
 90
       50
176
     1
290
     0
176
     1
 90
       50
176
     1
 62
   256
176
     0
 40
1.0
176
     0
 90
        2
176
     1
  1
strokes_ogs.tif
176
     1
290
     0
176
     1
 40
1.0
176
     1
 40
1.0
176
     1
  0
VISUALSTYLE
  5
2D
102
{ACAD_REACTORS
330
2A
102
}
330
2A
100
AcDbVisualStyle
  2
Gouraud
 70
     2
177
     3
291
     1
 70
    58
 90
        2
176
     1
 90
        2
176
     1
 90
        1
176
     1
 90
        2
176
     1
 40
0.6
176
     1
 40
30.0
176
     1
 62
     7
420
 16777215
176
     1
 90
        0
176
     1
 90
        0
176
     1
 62
     7
176
     1
 62
   257
176
     1
 90
        1
176
     1
 90
        1
176
     1
 40
1.0
176
     1
 90
        0
176
     1
 62
     7
176
     1
 40
1.0
176
     1
 90
        1
176
     1
 90
        6
176
     1
 90
        2
176
     1
 62
     7
176
     1
 90
        5
176
     1
 90
        0
176
     1
 90
        0
176
     1
290
     0
176
     1
 90
       13
176
     1
 40
0.0
176
     1
 90
        0
176
     1
290
     0
176
     1
290
     1
176
     1
290
     1
176
     1
290
     0
176
     1
290
     0
176
     1
290
     0
176
     1
290
     0
176
     1
290
     0
176
     1
290
     0
176
     1
 90
       50
176
     1
 40
0.0
176
     1
 40
1.0
176
     1
 90
        0
176
     1
 62
    18
420
        0
176
     1
 90
       50
176
     1
 90
        3
176
     1
 62
     5
420
      255
176
     1
290
     0
176
     1
 90
       50
176
     1
 90
       50
176
     1
 90
       50
176
     1
290
     0
176
     1
 90
       50
176
     1
 62
   256
176
     0
 40
1.0
176
     0
 90
        2
176
     1
  1
strokes_ogs.tif
176
     1
290
     0
176
     1
 40
1.0
176
     1
 40
1.0
176
     1
  0
VISUALSTYLE
  5
2E
102
{ACAD_REACTORS
330
2A
102
}
330
2A
100
AcDbVisualStyle
  2
GouraudWithEdges
 70
     3
177
     3
291
     1
 70
    58
 90
        2
176
     1
 90
        2
176
     1
 90
        1
176
     1
 90
        2
176
     1
 40
0.6
176
     1
 40
30.0
176
     1
 62
     7
420
 16777215
176
     1
 90
        1
176
     1
 90
        0
176
     1
 62
     7
176
     1
 62
   257
176
     1
 90
        1
176
     1
 90
        1
176
     1
 40
1.0
176
     1
 90
        0
176
     1
 62
   257
176
     1
 40
1.0
176
     1
 90
        1
176
     1
 90
        6
176
     1
 90
        2
176
     1
 62
     7
176
     1
 90
        5
176
     1
 90
        0
176
     1
 90
        0
176
     1
290
     0
176
     1
 90
       13
176
     1
 40
0.0
176
     1
 90
        0
176
     1
290
     0
176
     1
290
     1
176
     1
290
     1
176
     1
290
     0
176
     1
290
     0
176
     1
290
     0
176
     1
290
     0
176
     1
290
     0
176
     1
290
     0
176
     1
 90
       50
176
     1
 40
0.0
176
     1
 40
1.0
176
     1
 90
        0
176
     1
 62
    18
420
        0
176
     1
 90
       50
176
     1
 90
        3
176
     1
 62
     5
420
      255
176
     1
290
     0
176
     1
 90
       50
176
     1
 90
       50
176
     1
 90
       50
176
     1
290
     0
176
     1
 90
       50
176
     1
 62
   256
176
     0
 40
1.0
176
     0
 90
        2
176
     1
  1
strokes_ogs.tif
176
     1
290
     0
176
     1
 40
1.0
176
     1
 40
1.0
176
     1
  0
VISUALSTYLE
  5
31
102
{ACAD_REACTORS
330
2A
102
}
330
2A
100
AcDbVisualStyle
  2
Hidden
 70
     6
177
     3
291
     0
 70
    58
 90
        1
176
     1
 90
        2
176
     1
 90
        2
176
     1
 90
        0
176
     1
 40
0.6
176
     1
 40
30.0
176
     1
 62
     7
420
 16777215
176
     1
 90
        2
176
     1
 90
        2
176
     1
 62
     7
176
     1
 62
   257
176
     1
 90
        2
176
     1
 90
        1
176
     1
 40
40.0
176
     1
 90
        0
176
     1
 62
   257
176
     1
 40
1.0
176
     1
 90
        1
176
     1
 90
        6
176
     1
 90
        2
176
     1
 62
     7
176
     1
 90
        3
176
     1
 90
        0
176
     1
 90
        0
176
     1
290
     0
176
     1
 90
        1
176
     1
 40
0.0
176
     1
 90
        0
176
     1
290
     0
176
     1
290
     1
176
     1
290
     1
176
     1
290
     0
176
     1
290
     0
176
     1
290
     0
176
     1
290
     0
176
     1
290
     0
176
     1
290
     0
176
     1
 90
       50
176
     1
 40
0.0
176
     1
 40
1.0
176
     1
 90
        0
176
     1
 62
    18
420
        0
176
     1
 90
       50
176
     1
 90
        3
176
     1
 62
     5
420
      255
176
     1
290
     0
176
     1
 90
       50
176
     1
 90
       50
176
     1
 90
       50
176
     1
290
     0
176
     1
 90
       50
176
     1
 62
   256
176
     0
 40
1.0
176
     0
 90
        2
176
     1
  1
strokes_ogs.tif
176
     1
290
     0
176
     1
 40
1.0
176
     1
 40
1.0
176
     1
  0
VISUALSTYLE
  5
3B
102
{ACAD_REACTORS
330
2A
102
}
330
2A
100
AcDbVisualStyle
  2
JitterOff
 70
    20
177
     3
291
     1
 70
    58
 90
        2
176
     0
 90
        2
176
     0
 90
        0
176
     0
 90
        0
176
     0
 40
0.6
176
     0
 40
30.0
176
     0
 62
     7
420
 16777215
176
     0
 90
        1
176
     0
 90
        4
176
     0
 62
     7
176
     0
 62
   257
176
     0
 90
        1
176
     0
 90
        1
176
     0
 40
1.0
176
     0
 90
       10
176
     2
 62
     7
176
     0
 40
1.0
176
     0
 90
        1
176
     0
 90
        6
176
     0
 90
        2
176
     0
 62
     7
176
     0
 90
        5
176
     0
 90
        0
176
     0
 90
        0
176
     0
290
     0
176
     0
 90
        1
176
     0
 40
0.0
176
     0
 90
        0
176
     0
290
     0
176
     0
290
     1
176
     0
290
     1
176
     0
290
     0
176
     0
290
     0
176
     0
290
     0
176
     0
290
     0
176
     0
290
     0
176
     0
290
     0
176
     0
 90
       50
176
     0
 40
0.0
176
     0
 40
1.0
176
     0
 90
        0
176
     0
 62
    18
420
        0
176
     0
 90
       50
176
     0
 90
        3
176
     0
 62
     5
420
      255
176
     0
290
     0
176
     0
 90
       50
176
     0
 90
       50
176
     0
 90
       50
176
     0
290
     0
176
     0
 90
       50
176
     0
 62
   256
176
     0
 40
1.0
176
     0
 90
        2
176
     0
  1
strokes_ogs.tif
176
     0
290
     0
176
     0
 40
1.0
176
     0
 40
1.0
176
     0
  0
VISUALSTYLE
  5
38
102
{ACAD_REACTORS
330
2A
102
}
330
2A
100
AcDbVisualStyle
  2
Linepattern
 70
    14
177
     3
291
     1
 70
    58
 90
        2
176
     1
 90
        2
176
     1
 90
        0
176
     1
 90
        0
176
     1
 40
0.6
176
     1
 40
30.0
176
     1
 62
     7
420
 16777215
176
     1
 90
        1
176
     1
 90
        4
176
     1
 62
     7
176
     1
 62
   257
176
     1
 90
        7
176
     1
 90
        7
176
     1
 40
1.0
176
     1
 90
        8
176
     1
 62
     7
176
     1
 40
1.0
176
     1
 90
        1
176
     1
 90
        6
176
     1
 90
        2
176
     1
 62
     7
176
     1
 90
        5
176
     1
 90
        0
176
     1
 90
        0
176
     1
290
     0
176
     1
 90
        1
176
     1
 40
0.0
176
     1
 90
        0
176
     1
290
     0
176
     1
290
     1
176
     1
290
     1
176
     1
290
     0
176
     1
290
     0
176
     1
290
     0
176
     1
290
     0
176
     1
290
     0
176
     1
290
     0
176
     1
 90
       50
176
     1
 40
0.0
176
     1
 40
1.0
176
     1
 90
        0
176
     1
 62
    18
420
        0
176
     1
 90
       50
176
     1
 90
        3
176
     1
 62
     5
420
      255
176
     1
290
     0
176
     1
 90
       50
176
     1
 90
       50
176
     1
 90
       50
176
     1
290
     0
176
     1
 90
       50
176
     1
 62
   256
176
     0
 40
1.0
176
     0
 90
        2
176
     1
  1
strokes_ogs.tif
176
     1
290
     0
176
     1
 40
1.0
176
     1
 40
1.0
176
     1
  0
VISUALSTYLE
  5
3C
102
{ACAD_REACTORS
330
2A
102
}
330
2A
100
AcDbVisualStyle
  2
OverhangOff
 70
    21
177
     3
291
     1
 70
    58
 90
        2
176
     0
 90
        2
176
     0
 90
        0
176
     0
 90
        0
176
     0
 40
0.6
176
     0
 40
30.0
176
     0
 62
     7
420
 16777215
176
     0
 90
        1
176
     0
 90
        4
176
     0
 62
     7
176
     0
 62
   257
176
     0
 90
        1
176
     0
 90
        1
176
     0
 40
1.0
176
     0
 90
        9
176
     2
 62
     7
176
     0
 40
1.0
176
     0
 90
        1
176
     0
 90
        6
176
     0
 90
        2
176
     0
 62
     7
176
     0
 90
        5
176
     0
 90
        0
176
     0
 90
        0
176
     0
290
     0
176
     0
 90
        1
176
     0
 40
0.0
176
     0
 90
        0
176
     0
290
     0
176
     0
290
     1
176
     0
290
     1
176
     0
290
     0
176
     0
290
     0
176
     0
290
     0
176
     0
290
     0
176
     0
290
     0
176
     0
290
     0
176
     0
 90
       50
176
     0
 40
0.0
176
     0
 40
1.0
176
     0
 90
        0
176
     0
 62
    18
420
        0
176
     0
 90
       50
176
     0
 90
        3
176
     0
 62
     5
420
      255
176
     0
290
     0
176
     0
 90
       50
176
     0
 90
       50
176
     0
 90
       50
176
     0
290
     0
176
     0
 90
       50
176
     0
 62
   256
176
     0
 40
1.0
176
     0
 90
        2
176
     0
  1
strokes_ogs.tif
176
     0
290
     0
176
     0
 40
1.0
176
     0
 40
1.0
176
     0
  0
VISUALSTYLE
  5
33
102
{ACAD_REACTORS
330
2A
102
}
330
2A
100
AcDbVisualStyle
  2
Realistic
 70
     8
177
     3
291
     0
 70
    58
 90
        2
176
     1
 90
        3
176
     1
 90
        0
176
     1
 90
        2
176
     1
 40
0.6
176
     1
 40
30.0
176
     1
 62
     7
420
 16777215
176
     1
 90
        0
176
     1
 90
        0
176
     1
 62
     7
176
     1
 62
   257
176
     1
 90
        1
176
     1
 90
        1
176
     1
 40
1.0
176
     1
 90
        8
176
     1
 62
   257
176
     1
 40
1.0
176
     1
 90
        1
176
     1
 90
        6
176
     1
 90
        2
176
     1
 62
     7
176
     1
 90
        3
176
     1
 90
        0
176
     1
 90
        0
176
     1
290
     0
176
     1
 90
       13
176
     1
 40
0.0
176
     1
 90
        0
176
     1
290
     0
176
     1
290
     1
176
     1
290
     1
176
     1
290
     0
176
     1
290
     0
176
     1
290
     0
176
     1
290
     0
176
     1
290
     0
176
     1
290
     0
176
     1
 90
       50
176
     1
 40
0.0
176
     1
 40
1.0
176
     1
 90
        0
176
     1
 62
    18
420
        0
176
     1
 90
       50
176
     1
 90
        3
176
     1
 62
     5
420
      255
176
     1
290
     0
176
     1
 90
       50
176
     1
 90
       50
176
     1
 90
       50
176
     1
290
     0
176
     1
 90
       50
176
     1
 62
   256
176
     0
 40
1.0
176
     0
 90
        2
176
     1
  1
strokes_ogs.tif
176
     1
290
     0
176
     1
 40
1.0
176
     1
 40
1.0
176
     1
  0
VISUALSTYLE
  5
42
102
{ACAD_REACTORS
330
2A
102
}
330
2A
100
AcDbVisualStyle
  2
Shaded
 70
    27
177
     3
291
     0
 70
    58
 90
        2
176
     1
 90
        2
176
     1
 90
        1
176
     1
 90
        2
176
     1
 40
0.6
176
     1
 40
30.0
176
     1
 62
     7
420
 16777215
176
     1
 90
        0
176
     1
 90
        4
176
     1
 62
     7
176
     1
 62
   257
176
     1
 90
        1
176
     1
 90
        1
176
     1
 40
1.0
176
     1
 90
        8
176
     1
 62
   257
176
     1
 40
1.0
176
     1
 90
        1
176
     1
 90
        6
176
     1
 90
        2
176
     1
 62
     8
420
  7895160
176
     1
 90
        3
176
     1
 90
        0
176
     1
 90
        0
176
     1
290
     0
176
     1
 90
        5
176
     1
 40
0.0
176
     1
 90
        0
176
     1
290
     0
176
     1
290
     1
176
     1
290
     1
176
     1
290
     0
176
     1
290
     0
176
     1
290
     0
176
     1
290
     0
176
     1
290
     0
176
     1
290
     0
176
     1
 90
       50
176
     1
 40
0.0
176
     1
 40
1.0
176
     1
 90
        0
176
     1
 62
    18
420
        0
176
     1
 90
       50
176
     1
 90
        3
176
     1
 62
     5
420
      255
176
     1
290
     0
176
     1
 90
       50
176
     1
 90
       50
176
     1
 90
       50
176
     1
290
     0
176
     1
 90
       50
176
     1
 62
   256
176
     0
 40
1.0
176
     0
 90
        2
176
     1
  1
strokes_ogs.tif
176
     1
290
     0
176
     1
 40
1.0
176
     1
 40
1.0
176
     1
  0
VISUALSTYLE
  5
41
102
{ACAD_REACTORS
330
2A
102
}
330
2A
100
AcDbVisualStyle
  2
Shaded with edges
 70
    26
177
     3
291
     0
 70
    58
 90
        2
176
     1
 90
        2
176
     1
 90
        1
176
     1
 90
        2
176
     1
 40
0.6
176
     1
 40
30.0
176
     1
 62
     7
420
 16777215
176
     1
 90
        1
176
     1
 90
       10
176
     1
 62
     7
176
     1
 62
   257
176
     1
 90
        2
176
     1
 90
        1
176
     1
 40
1.0
176
     1
 90
        8
176
     1
 62
   257
176
     1
 40
1.0
176
     1
 90
        1
176
     1
 90
        6
176
     1
 90
        2
176
     1
 62
     7
176
     1
 90
        3
176
     1
 90
        0
176
     1
 90
        0
176
     1
290
     0
176
     1
 90
        5
176
     1
 40
0.0
176
     1
 90
        0
176
     1
290
     0
176
     1
290
     1
176
     1
290
     1
176
     1
290
     0
176
     1
290
     0
176
     1
290
     0
176
     1
290
     0
176
     1
290
     0
176
     1
290
     0
176
     1
 90
       50
176
     1
 40
0.0
176
     1
 40
1.0
176
     1
 90
        0
176
     1
 62
    18
420
        0
176
     1
 90
       50
176
     1
 90
        3
176
     1
 62
     5
420
      255
176
     1
290
     0
176
     1
 90
       50
176
     1
 90
       50
176
     1
 90
       50
176
     1
290
     0
176
     1
 90
       50
176
     1
 62
   256
176
     0
 40
1.0
176
     0
 90
        2
176
     1
  1
strokes_ogs.tif
176
     1
290
     0
176
     1
 40
1.0
176
     1
 40
1.0
176
     1
  0
VISUALSTYLE
  5
3E
102
{ACAD_REACTORS
330
2A
102
}
330
2A
100
AcDbVisualStyle
  2
Shades of Gray
 70
    23
177
     3
291
     0
 70
    58
 90
        2
176
     1
 90
        2
176
     1
 90
        3
176
     1
 90
        0
176
     1
 40
0.6
176
     1
 40
30.0
176
     1
 62
     7
420
 16777215
176
     1
 90
        2
176
     1
 90
        2
176
     1
 62
     7
176
     1
 62
     7
176
     1
 90
        1
176
     1
 90
        1
176
     1
 40
40.0
176
     1
 90
        8
176
     1
 62
     7
176
     1
 40
1.0
176
     1
 90
        1
176
     1
 90
        6
176
     1
 90
        2
176
     1
 62
     7
176
     1
 90
        3
176
     1
 90
        0
176
     1
 90
        0
176
     1
290
     0
176
     1
 90
        1
176
     1
 40
0.0
176
     1
 90
        0
176
     1
290
     0
176
     1
290
     1
176
     1
290
     1
176
     1
290
     0
176
     1
290
     0
176
     1
290
     0
176
     1
290
     0
176
     1
290
     0
176
     1
290
     0
176
     1
 90
       50
176
     1
 40
0.0
176
     1
 40
1.0
176
     1
 90
        0
176
     1
 62
    18
420
        0
176
     1
 90
       50
176
     1
 90
        3
176
     1
 62
     5
420
      255
176
     1
290
     0
176
     1
 90
       50
176
     1
 90
       50
176
     1
 90
       50
176
     1
290
     0
176
     1
 90
       50
176
     1
 62
   256
176
     0
 40
1.0
176
     0
 90
        2
176
     1
  1
strokes_ogs.tif
176
     1
290
     0
176
     1
 40
1.0
176
     1
 40
1.0
176
     1
  0
VISUALSTYLE
  5
3F
102
{ACAD_REACTORS
330
2A
102
}
330
2A
100
AcDbVisualStyle
  2
Sketchy
 70
    24
177
     3
291
     0
 70
    58
 90
        1
176
     1
 90
        2
176
     1
 90
        2
176
     1
 90
        0
176
     1
 40
0.6
176
     1
 40
30.0
176
     1
 62
     7
420
 16777215
176
     1
 90
        2
176
     1
 90
        2
176
     1
 62
     7
176
     1
 62
     7
176
     1
 90
        1
176
     1
 90
        1
176
     1
 40
40.0
176
     1
 90
       11
176
     1
 62
     7
176
     1
 40
1.0
176
     1
 90
        1
176
     1
 90
        6
176
     1
 90
        2
176
     1
 62
     7
176
     1
 90
        6
176
     1
 90
        0
176
     1
 90
        0
176
     1
290
     0
176
     1
 90
        1
176
     1
 40
0.0
176
     1
 90
        0
176
     1
290
     0
176
     1
290
     1
176
     1
290
     1
176
     1
290
     0
176
     1
290
     0
176
     1
290
     0
176
     1
290
     0
176
     1
290
     0
176
     1
290
     0
176
     1
 90
       50
176
     1
 40
0.0
176
     1
 40
1.0
176
     1
 90
        0
176
     1
 62
    18
420
        0
176
     1
 90
       50
176
     1
 90
        3
176
     1
 62
     5
420
      255
176
     1
290
     0
176
     1
 90
       50
176
     1
 90
       50
176
     1
 90
       50
176
     1
290
     0
176
     1
 90
       50
176
     1
 62
   256
176
     0
 40
1.0
176
     0
 90
        2
176
     1
  1
strokes_ogs.tif
176
     1
290
     0
176
     1
 40
1.0
176
     1
 40
1.0
176
     1
  0
VISUALSTYLE
  5
37
102
{ACAD_REACTORS
330
2A
102
}
330
2A
100
AcDbVisualStyle
  2
Thicken
 70
    13
177
     3
291
     1
 70
    58
 90
        2
176
     1
 90
        2
176
     1
 90
        0
176
     1
 90
        0
176
     1
 40
0.6
176
     1
 40
30.0
176
     1
 62
     7
420
 16777215
176
     1
 90
        1
176
     1
 90
        4
176
     1
 62
     7
176
     1
 62
   257
176
     1
 90
        1
176
     1
 90
        1
176
     1
 40
1.0
176
     1
 90
       12
176
     1
 62
     7
176
     1
 40
1.0
176
     1
 90
        1
176
     1
 90
        6
176
     1
 90
        2
176
     1
 62
     7
176
     1
 90
        5
176
     1
 90
        0
176
     1
 90
        0
176
     1
290
     0
176
     1
 90
        1
176
     1
 40
0.0
176
     1
 90
        0
176
     1
290
     0
176
     1
290
     1
176
     1
290
     1
176
     1
290
     0
176
     1
290
     0
176
     1
290
     0
176
     1
290
     0
176
     1
290
     0
176
     1
290
     0
176
     1
 90
       50
176
     1
 40
0.0
176
     1
 40
1.0
176
     1
 90
        0
176
     1
 62
    18
420
        0
176
     1
 90
       50
176
     1
 90
        3
176
     1
 62
     5
420
      255
176
     1
290
     0
176
     1
 90
       50
176
     1
 90
       50
176
     1
 90
       50
176
     1
290
     0
176
     1
 90
       50
176
     1
 62
   256
176
     0
 40
1.0
176
     0
 90
        2
176
     1
  1
strokes_ogs.tif
176
     1
290
     0
176
     1
 40
1.0
176
     1
 40
1.0
176
     1
  0
VISUALSTYLE
  5
30
102
{ACAD_REACTORS
330
2A
102
}
330
2A
100
AcDbVisualStyle
  2
Wireframe
 70
     5
177
     3
291
     0
 70
    58
 90
        0
176
     1
 90
        2
176
     1
 90
        0
176
     1
 90
        0
176
     1
 40
0.6
176
     1
 40
30.0
176
     1
 62
     7
420
 16777215
176
     1
 90
        1
176
     1
 90
        4
176
     1
 62
     7
176
     1
 62
   257
176
     1
 90
        1
176
     1
 90
        1
176
     1
 40
1.0
176
     1
 90
        0
176
     1
 62
   257
176
     1
 40
1.0
176
     1
 90
        1
176
     1
 90
        6
176
     1
 90
        2
176
     1
 62
     7
176
     1
 90
        3
176
     1
 90
        0
176
     1
 90
        0
176
     1
290
     0
176
     1
 90
        1
176
     1
 40
0.0
176
     1
 90
        0
176
     1
290
     0
176
     1
290
     1
176
     1
290
     1
176
     1
290
     0
176
     1
290
     0
176
     1
290
     0
176
     1
290
     0
176
     1
290
     0
176
     1
290
     0
176
     1
 90
       50
176
     1
 40
0.0
176
     1
 40
1.0
176
     1
 90
        0
176
     1
 62
    18
420
        0
176
     1
 90
       50
176
     1
 90
        3
176
     1
 62
     5
420
      255
176
     1
290
     0
176
     1
 90
       50
176
     1
 90
       50
176
     1
 90
       50
176
     1
290
     0
176
     1
 90
       50
176
     1
 62
   256
176
     0
 40
1.0
176
     0
 90
        2
176
     1
  1
strokes_ogs.tif
176
     1
290
     0
176
     1
 40
1.0
176
     1
 40
1.0
176
     1
  0
VISUALSTYLE
  5
40
102
{ACAD_REACTORS
330
2A
102
}
330
2A
100
AcDbVisualStyle
  2
X-Ray
 70
    25
177
     3
291
     0
 70
    58
 90
        2
176
     1
 90
        2
176
     1
 90
        1
176
     1
 90
        1
176
     1
 40
0.5
176
     1
 40
30.0
176
     1
 62
     7
420
 16777215
176
     1
 90
        1
176
     1
 90
        0
176
     1
 62
     7
176
     1
 62
   257
176
     1
 90
        1
176
     1
 90
        1
176
     1
 40
1.0
176
     1
 90
        8
176
     1
 62
     7
176
     1
 40
1.0
176
     1
 90
        1
176
     1
 90
        6
176
     1
 90
        2
176
     1
 62
     7
176
     1
 90
        3
176
     1
 90
        0
176
     1
 90
        0
176
     1
290
     0
176
     1
 90
       13
176
     1
 40
0.0
176
     1
 90
        0
176
     1
290
     0
176
     1
290
     1
176
     1
290
     1
176
     1
290
     0
176
     1
290
     0
176
     1
290
     0
176
     1
290
     0
176
     1
290
     0
176
     1
290
     0
176
     1
 90
       50
176
     1
 40
0.0
176
     1
 40
1.0
176
     1
 90
        0
176
     1
 62
    18
420
        0
176
     1
 90
       50
176
     1
 90
        3
176
     1
 62
     5
420
      255
176
     1
290
     0
176
     1
 90
       50
176
     1
 90
       50
176
     1
 90
       50
176
     1
290
     0
176
     1
 90
       50
176
     1
 62
   256
176
     0
 40
1.0
176
     0
 90
        2
176
     1
  1
strokes_ogs.tif
176
     1
290
     0
176
     1
 40
1.0
176
     1
 40
1.0
176
     1
  0
DICTIONARYVAR
  5
217
102
{ACAD_REACTORS
330
216
102
}
330
216
100
DictionaryVariables
280
     0
  1
1:1
  0
DICTIONARYVAR
  5
21F
102
{ACAD_REACTORS
330
216
102
}
330
216
100
DictionaryVariables
280
     0
  1
3.500000
  0
DICTIONARYVAR
  5
220
102
{ACAD_REACTORS
330
216
102
}
330
216
100
DictionaryVariables
280
     0
  1
acadiso.lin
  0
DICTIONARYVAR
  5
21C
102
{ACAD_REACTORS
330
216
102
}
330
216
100
DictionaryVariables
280
     0
  1
Standard
  0
DICTIONARYVAR
  5
21B
102
{ACAD_REACTORS
330
216
102
}
330
216
100
DictionaryVariables
280
     0
  1
Standard
  0
DICTIONARY
  5
218
330
6A
100
AcDbDictionary
280
     1
281
     1
  3
ACAD_ROUNDTRIP_2008_TABLESTYLE_CELLSTYLEMAP
360
219
  0
CELLSTYLEMAP
  5
219
102
{ACAD_REACTORS
330
218
102
}
330
218
100
AcDbCellStyleMap
 90
        3
300
CELLSTYLE
  1
TABLEFORMAT_BEGIN
 90
        5
170
     1
 91
        0
 92
    32768
 62
   257
 93
        1
300
CONTENTFORMAT
  1
CONTENTFORMAT_BEGIN
 90
        0
 91
        0
 92
        4
 93
        0
300

 40
0.0
140
1.0
 94
        5
 62
     0
340
11
144
6.0
309
CONTENTFORMAT_END
171
     1
301
MARGIN
  1
CELLMARGIN_BEGIN
 40
1.5
 40
1.5
 40
1.5
 40
1.5
 40
1.5
 40
1.5
309
CELLMARGIN_END
 94
        6
 95
        1
302
GRIDFORMAT
  1
GRIDFORMAT_BEGIN
 90
        0
 91
        1
 62
     0
 92
       -2
340
14
 93
        0
 40
0.045
309
GRIDFORMAT_END
 95
        2
302
GRIDFORMAT
  1
GRIDFORMAT_BEGIN
 90
        0
 91
        1
 62
     0
 92
       -2
340
14
 93
        0
 40
0.045
309
GRIDFORMAT_END
 95
        4
302
GRIDFORMAT
  1
GRIDFORMAT_BEGIN
 90
        0
 91
        1
 62
     0
 92
       -2
340
14
 93
        0
 40
0.045
309
GRIDFORMAT_END
 95
        8
302
GRIDFORMAT
  1
GRIDFORMAT_BEGIN
 90
        0
 91
        1
 62
     0
 92
       -2
340
14
 93
        0
 40
0.045
309
GRIDFORMAT_END
 95
       16
302
GRIDFORMAT
  1
GRIDFORMAT_BEGIN
 90
        0
 91
        1
 62
     0
 92
       -2
340
14
 93
        0
 40
0.045
309
GRIDFORMAT_END
 95
       32
302
GRIDFORMAT
  1
GRIDFORMAT_BEGIN
 90
        0
 91
        1
 62
     0
 92
       -2
340
14
 93
        0
 40
0.045
309
GRIDFORMAT_END
309
TABLEFORMAT_END
  1
CELLSTYLE_BEGIN
 90
        1
 91
        1
300
_TITLE
309
CELLSTYLE_END
300
CELLSTYLE
  1
TABLEFORMAT_BEGIN
 90
        5
170
     1
 91
        0
 92
        0
 62
   257
 93
        1
300
CONTENTFORMAT
  1
CONTENTFORMAT_BEGIN
 90
        0
 91
        0
 92
        4
 93
        0
300

 40
0.0
140
1.0
 94
        5
 62
     0
340
11
144
4.5
309
CONTENTFORMAT_END
171
     1
301
MARGIN
  1
CELLMARGIN_BEGIN
 40
1.5
 40
1.5
 40
1.5
 40
1.5
 40
1.5
 40
1.5
309
CELLMARGIN_END
 94
        6
 95
        1
302
GRIDFORMAT
  1
GRIDFORMAT_BEGIN
 90
        0
 91
        1
 62
     0
 92
       -2
340
14
 93
        0
 40
0.045
309
GRIDFORMAT_END
 95
        2
302
GRIDFORMAT
  1
GRIDFORMAT_BEGIN
 90
        0
 91
        1
 62
     0
 92
       -2
340
14
 93
        0
 40
0.045
309
GRIDFORMAT_END
 95
        4
302
GRIDFORMAT
  1
GRIDFORMAT_BEGIN
 90
        0
 91
        1
 62
     0
 92
       -2
340
14
 93
        0
 40
0.045
309
GRIDFORMAT_END
 95
        8
302
GRIDFORMAT
  1
GRIDFORMAT_BEGIN
 90
        0
 91
        1
 62
     0
 92
       -2
340
14
 93
        0
 40
0.045
309
GRIDFORMAT_END
 95
       16
302
GRIDFORMAT
  1
GRIDFORMAT_BEGIN
 90
        0
 91
        1
 62
     0
 92
       -2
340
14
 93
        0
 40
0.045
309
GRIDFORMAT_END
 95
       32
302
GRIDFORMAT
  1
GRIDFORMAT_BEGIN
 90
        0
 91
        1
 62
     0
 92
       -2
340
14
 93
        0
 40
0.045
309
GRIDFORMAT_END
309
TABLEFORMAT_END
  1
CELLSTYLE_BEGIN
 90
        2
 91
        1
300
_HEADER
309
CELLSTYLE_END
300
CELLSTYLE
  1
TABLEFORMAT_BEGIN
 90
        5
170
     1
 91
        0
 92
        0
 62
   257
 93
        1
300
CONTENTFORMAT
  1
CONTENTFORMAT_BEGIN
 90
        0
 91
        0
 92
        4
 93
        0
300

 40
0.0
140
1.0
 94
        2
 62
     0
340
11
144
4.5
309
CONTENTFORMAT_END
171
     1
301
MARGIN
  1
CELLMARGIN_BEGIN
 40
1.5
 40
1.5
 40
1.5
 40
1.5
 40
1.5
 40
1.5
309
CELLMARGIN_END
 94
        6
 95
        1
302
GRIDFORMAT
  1
GRIDFORMAT_BEGIN
 90
        0
 91
        1
 62
     0
 92
       -2
340
14
 93
        0
 40
0.045
309
GRIDFORMAT_END
 95
        2
302
GRIDFORMAT
  1
GRIDFORMAT_BEGIN
 90
        0
 91
        1
 62
     0
 92
       -2
340
14
 93
        0
 40
0.045
309
GRIDFORMAT_END
 95
        4
302
GRIDFORMAT
  1
GRIDFORMAT_BEGIN
 90
        0
 91
        1
 62
     0
 92
       -2
340
14
 93
        0
 40
0.045
309
GRIDFORMAT_END
 95
        8
302
GRIDFORMAT
  1
GRIDFORMAT_BEGIN
 90
        0
 91
        1
 62
     0
 92
       -2
340
14
 93
        0
 40
0.045
309
GRIDFORMAT_END
 95
       16
302
GRIDFORMAT
  1
GRIDFORMAT_BEGIN
 90
        0
 91
        1
 62
     0
 92
       -2
340
14
 93
        0
 40
0.045
309
GRIDFORMAT_END
 95
       32
302
GRIDFORMAT
  1
GRIDFORMAT_BEGIN
 90
        0
 91
        1
 62
     0
 92
       -2
340
14
 93
        0
 40
0.045
309
GRIDFORMAT_END
309
TABLEFORMAT_END
  1
CELLSTYLE_BEGIN
 90
        3
 91
        2
300
_DATA
309
CELLSTYLE_END
  0
ENDSEC
  0
EOF
