  0
SECTION
  2
HEADER
  9
$ACADVER
  1
AC1027
  9
$ACADMAINTVER
 70
   105
  9
$DWGCODEPAGE
  3
ANSI_932
  9
$REQUIREDVERSIONS
160
                 0
  9
$INSBASE
 10
0.0
 20
0.0
 30
0.0
  9
$EXTMIN
 10
10.0
 20
10.0
 30
0.0
  9
$EXTMAX
 10
410.0
 20
287.0
 30
0.0
  9
$LIMMIN
 10
10.0
 20
10.0
  9
$LIMMAX
 10
410.0
 20
287.0
  9
$ORTHOMODE
 70
     0
  9
$REGENMODE
 70
     1
  9
$FILLMODE
 70
     1
  9
$QTEXTMODE
 70
     0
  9
$MIRRTEXT
 70
     1
  9
$LTSCALE
 40
1.0
  9
$ATTMODE
 70
     1
  9
$TEXTSIZE
 40
2.5
  9
$TRACEWID
 40
1.0
  9
$TEXTSTYLE
  7
Standard
  9
$CLAYER
  8
0
  9
$CELTYPE
  6
ByLayer
  9
$CECOLOR
 62
   256
  9
$CELTSCALE
 40
1.0
  9
$DISPSILH
 70
     0
  9
$DIMSCALE
 40
1.0
  9
$DIMASZ
 40
2.5
  9
$DIMEXO
 40
0.625
  9
$DIMDLI
 40
3.75
  9
$DIMRND
 40
0.0
  9
$DIMDLE
 40
0.0
  9
$DIMEXE
 40
1.25
  9
$DIMTP
 40
0.0
  9
$DIMTM
 40
0.0
  9
$DIMTXT
 40
2.5
  9
$DIMCEN
 40
2.5
  9
$DIMTSZ
 40
0.0
  9
$DIMTOL
 70
     0
  9
$DIMLIM
 70
     0
  9
$DIMTIH
 70
     0
  9
$DIMTOH
 70
     0
  9
$DIMSE1
 70
     0
  9
$DIMSE2
 70
     0
  9
$DIMTAD
 70
     1
  9
$DIMZIN
 70
     8
  9
$DIMBLK
  1

  9
$DIMASO
 70
     1
  9
$DIMSHO
 70
     1
  9
$DIMPOST
  1

  9
$DIMAPOST
  1

  9
$DIMALT
 70
     0
  9
$DIMALTD
 70
     3
  9
$DIMALTF
 40
0.03937007874016
  9
$DIMLFAC
 40
1.0
  9
$DIMTOFL
 70
     1
  9
$DIMTVP
 40
0.0
  9
$DIMTIX
 70
     0
  9
$DIMSOXD
 70
     0
  9
$DIMSAH
 70
     0
  9
$DIMBLK1
  1

  9
$DIMBLK2
  1

  9
$DIMSTYLE
  2
ISO-25
  9
$DIMCLRD
 70
     0
  9
$DIMCLRE
 70
     0
  9
$DIMCLRT
 70
     0
  9
$DIMTFAC
 40
1.0
  9
$DIMGAP
 40
0.625
  9
$DIMJUST
 70
     0
  9
$DIMSD1
 70
     0
  9
$DIMSD2
 70
     0
  9
$DIMTOLJ
 70
     0
  9
$DIMTZIN
 70
     8
  9
$DIMALTZ
 70
     0
  9
$DIMALTTZ
 70
     0
  9
$DIMUPT
 70
     0
  9
$DIMDEC
 70
     2
  9
$DIMTDEC
 70
     2
  9
$DIMALTU
 70
     2
  9
$DIMALTTD
 70
     3
  9
$DIMTXSTY
  7
Standard
  9
$DIMAUNIT
 70
     0
  9
$DIMADEC
 70
     0
  9
$DIMALTRND
 40
0.0
  9
$DIMAZIN
 70
     0
  9
$DIMDSEP
 70
    44
  9
$DIMATFIT
 70
     3
  9
$DIMFRAC
 70
     0
  9
$DIMLDRBLK
  1

  9
$DIMLUNIT
 70
     2
  9
$DIMLWD
 70
    -2
  9
$DIMLWE
 70
    -2
  9
$DIMTMOVE
 70
     0
  9
$DIMFXL
 40
1.0
  9
$DIMFXLON
 70
     0
  9
$DIMJOGANG
 40
0.7853981633974483
  9
$DIMTFILL
 70
     0
  9
$DIMTFILLCLR
 70
     0
  9
$DIMARCSYM
 70
     0
  9
$DIMLTYPE
  6

  9
$DIMLTEX1
  6

  9
$DIMLTEX2
  6

  9
$DIMTXTDIRECTION
 70
     0
  9
$LUNITS
 70
     2
  9
$LUPREC
 70
     4
  9
$SKETCHINC
 40
1.0
  9
$FILLETRAD
 40
10.0
  9
$AUNITS
 70
     0
  9
$AUPREC
 70
     0
  9
$MENU
  1
.
  9
$ELEVATION
 40
0.0
  9
$PELEVATION
 40
0.0
  9
$THICKNESS
 40
0.0
  9
$LIMCHECK
 70
     0
  9
$CHAMFERA
 40
0.0
  9
$CHAMFERB
 40
0.0
  9
$CHAMFERC
 40
0.0
  9
$CHAMFERD
 40
0.0
  9
$SKPOLY
 70
     0
  9
$TDCREATE
 40
2460851.758978276
  9
$TDUCREATE
 40
2460851.383978276
  9
$TDUPDATE
 40
2460851.758981945
  9
$TDUUPDATE
 40
2460851.383981945
  9
$TDINDWG
 40
0.0000000116
  9
$TDUSRTIMER
 40
0.0000000116
  9
$USRTIMER
 70
     1
  9
$ANGBASE
 50
0.0
  9
$ANGDIR
 70
     0
  9
$PDMODE
 70
     0
  9
$PDSIZE
 40
0.0
  9
$PLINEWID
 40
0.0
  9
$SPLFRAME
 70
     0
  9
$SPLINETYPE
 70
     6
  9
$SPLINESEGS
 70
     8
  9
$HANDSEED
  5
14A
  9
$SURFTAB1
 70
     6
  9
$SURFTAB2
 70
     6
  9
$SURFTYPE
 70
     6
  9
$SURFU
 70
     6
  9
$SURFV
 70
     6
  9
$UCSBASE
  2

  9
$UCSNAME
  2

  9
$UCSORG
 10
0.0
 20
0.0
 30
0.0
  9
$UCSXDIR
 10
1.0
 20
0.0
 30
0.0
  9
$UCSYDIR
 10
0.0
 20
1.0
 30
0.0
  9
$UCSORTHOREF
  2

  9
$UCSORTHOVIEW
 70
     0
  9
$UCSORGTOP
 10
0.0
 20
0.0
 30
0.0
  9
$UCSORGBOTTOM
 10
0.0
 20
0.0
 30
0.0
  9
$UCSORGLEFT
 10
0.0
 20
0.0
 30
0.0
  9
$UCSORGRIGHT
 10
0.0
 20
0.0
 30
0.0
  9
$UCSORGFRONT
 10
0.0
 20
0.0
 30
0.0
  9
$UCSORGBACK
 10
0.0
 20
0.0
 30
0.0
  9
$PUCSBASE
  2

  9
$PUCSNAME
  2

  9
$PUCSORG
 10
0.0
 20
0.0
 30
0.0
  9
$PUCSXDIR
 10
1.0
 20
0.0
 30
0.0
  9
$PUCSYDIR
 10
0.0
 20
1.0
 30
0.0
  9
$PUCSORTHOREF
  2

  9
$PUCSORTHOVIEW
 70
     0
  9
$PUCSORGTOP
 10
0.0
 20
0.0
 30
0.0
  9
$PUCSORGBOTTOM
 10
0.0
 20
0.0
 30
0.0
  9
$PUCSORGLEFT
 10
0.0
 20
0.0
 30
0.0
  9
$PUCSORGRIGHT
 10
0.0
 20
0.0
 30
0.0
  9
$PUCSORGFRONT
 10
0.0
 20
0.0
 30
0.0
  9
$PUCSORGBACK
 10
0.0
 20
0.0
 30
0.0
  9
$USERI1
 70
     0
  9
$USERI2
 70
     0
  9
$USERI3
 70
     0
  9
$USERI4
 70
     0
  9
$USERI5
 70
     0
  9
$USERR1
 40
0.0
  9
$USERR2
 40
0.0
  9
$USERR3
 40
0.0
  9
$USERR4
 40
0.0
  9
$USERR5
 40
0.0
  9
$WORLDVIEW
 70
     1
  9
$SHADEDGE
 70
     3
  9
$SHADEDIF
 70
    70
  9
$TILEMODE
 70
     1
  9
$MAXACTVP
 70
    64
  9
$PINSBASE
 10
0.0
 20
0.0
 30
0.0
  9
$PLIMCHECK
 70
     0
  9
$PEXTMIN
 10
1.000000000000000E+20
 20
1.000000000000000E+20
 30
1.000000000000000E+20
  9
$PEXTMAX
 10
-1.000000000000000E+20
 20
-1.000000000000000E+20
 30
-1.000000000000000E+20
  9
$PLIMMIN
 10
0.0
 20
0.0
  9
$PLIMMAX
 10
420.0
 20
297.0
  9
$UNITMODE
 70
     0
  9
$VISRETAIN
 70
     1
  9
$PLINEGEN
 70
     0
  9
$PSLTSCALE
 70
     1
  9
$TREEDEPTH
 70
  3020
  9
$CMLSTYLE
  2
Standard
  9
$CMLJUST
 70
     0
  9
$CMLSCALE
 40
20.0
  9
$PROXYGRAPHICS
 70
     1
  9
$MEASUREMENT
 70
     1
  9
$CELWEIGHT
370
    -1
  9
$ENDCAPS
280
     0
  9
$JOINSTYLE
280
     0
  9
$LWDISPLAY
290
     0
  9
$INSUNITS
 70
     4
  9
$HYPERLINKBASE
  1

  9
$STYLESHEET
  1

  9
$XEDIT
290
     1
  9
$CEPSNTYPE
380
     0
  9
$PSTYLEMODE
290
     1
  9
$FINGERPRINTGUID
  2
{747f44dc-63e4-4078-bf09-9b918f3b608b}
  9
$VERSIONGUID
  2
{FAEB1C32-E019-11D5-929B-00C0DF256EC4}
  9
$EXTNAMES
290
     1
  9
$PSVPSCALE
 40
0.0
  9
$OLESTARTUP
290
     0
  9
$SORTENTS
280
   127
  9
$INDEXCTL
280
     0
  9
$HIDETEXT
280
     1
  9
$XCLIPFRAME
280
     2
  9
$HALOGAP
280
     0
  9
$OBSCOLOR
 70
   257
  9
$OBSLTYPE
280
     0
  9
$INTERSECTIONDISPLAY
280
     0
  9
$INTERSECTIONCOLOR
 70
   257
  9
$DIMASSOC
280
     2
  9
$PROJECTNAME
  1

  9
$CAMERADISPLAY
290
     0
  9
$LENSLENGTH
 40
50.0
  9
$CAMERAHEIGHT
 40
0.0
  9
$STEPSPERSEC
 40
2.0
  9
$STEPSIZE
 40
6.0
  9
$3DDWFPREC
 40
2.0
  9
$PSOLWIDTH
 40
5.0
  9
$PSOLHEIGHT
 40
80.0
  9
$LOFTANG1
 40
1.570796326794897
  9
$LOFTANG2
 40
1.570796326794897
  9
$LOFTMAG1
 40
0.0
  9
$LOFTMAG2
 40
0.0
  9
$LOFTPARAM
 70
     7
  9
$LOFTNORMALS
280
     1
  9
$LATITUDE
 40
37.795
  9
$LONGITUDE
 40
-122.394
  9
$NORTHDIRECTION
 40
0.0
  9
$TIMEZONE
 70
 -8000
  9
$LIGHTGLYPHDISPLAY
280
     1
  9
$TILEMODELIGHTSYNCH
280
     1
  9
$CMATERIAL
347
44
  9
$SOLIDHIST
280
     0
  9
$SHOWHIST
280
     1
  9
$DWFFRAME
280
     2
  9
$DGNFRAME
280
     2
  9
$REALWORLDSCALE
290
     1
  9
$INTERFERECOLOR
 62
   256
  9
$CSHADOW
280
     0
  9
$SHADOWPLANELOCATION
 40
0.0
  0
ENDSEC
  0
SECTION
  2
CLASSES
  0
CLASS
  1
ACDBDICTIONARYWDFLT
  2
AcDbDictionaryWithDefault
  3
ObjectDBX Classes
 90
        0
 91
        3
280
     0
281
     0
  0
CLASS
  1
VISUALSTYLE
  2
AcDbVisualStyle
  3
ObjectDBX Classes
 90
     4095
 91
        3
280
     0
281
     0
  0
CLASS
  1
MATERIAL
  2
AcDbMaterial
  3
ObjectDBX Classes
 90
     1153
 91
        3
280
     0
281
     0
  0
CLASS
  1
SCALE
  2
AcDbScale
  3
ObjectDBX Classes
 90
     1153
 91
        3
280
     0
281
     0
  0
CLASS
  1
TABLESTYLE
  2
AcDbTableStyle
  3
ObjectDBX Classes
 90
     4095
 91
        3
280
     0
281
     0
  0
CLASS
  1
MLEADERSTYLE
  2
AcDbMLeaderStyle
  3
ACDB_MLEADERSTYLE_CLASS
 90
     4095
 91
        3
280
     0
281
     0
  0
CLASS
  1
SUN
  2
AcDbSun
  3
SCENEOE
 90
     1153
 91
        3
280
     0
281
     0
  0
CLASS
  1
DICTIONARYVAR
  2
AcDbDictionaryVar
  3
ObjectDBX Classes
 90
        0
 91
        3
280
     0
281
     0
  0
CLASS
  1
CELLSTYLEMAP
  2
AcDbCellStyleMap
  3
ObjectDBX Classes
 90
     1152
 91
        3
280
     0
281
     0
  0
ENDSEC
  0
SECTION
  2
TABLES
  0
TABLE
  2
VPORT
  5
8
330
0
100
AcDbSymbolTable
 70
     1
  0
VPORT
  5
29
330
8
100
AcDbSymbolTableRecord
100
AcDbViewportTableRecord
  2
*Active
 70
     0
 10
0.0
 20
0.0
 11
1.0
 21
1.0
 12
210.0
 22
148.5
 13
0.0
 23
0.0
 14
10.0
 24
10.0
 15
10.0
 25
10.0
 16
0.0
 26
0.0
 36
1.0
 17
0.0
 27
0.0
 37
0.0
 40
282.54
 41
1.444043321299639
 42
50.0
 43
0.0
 44
0.0
 50
0.0
 51
0.0
 71
     0
 72
   100
 73
     1
 74
     3
 75
     0
 76
     0
 77
     0
 78
     0
281
     0
 65
     1
110
0.0
120
0.0
130
0.0
111
1.0
121
0.0
131
0.0
112
0.0
122
1.0
132
0.0
 79
     0
146
0.0
348
2F
 60
     3
 61
     5
292
     1
282
     1
141
0.0
142
0.0
 63
   250
361
6D
  0
ENDTAB
  0
TABLE
  2
LTYPE
  5
5
330
0
100
AcDbSymbolTable
 70
     3
  0
LTYPE
  5
14
330
5
100
AcDbSymbolTableRecord
100
AcDbLinetypeTableRecord
  2
ByBlock
 70
     0
  3

 72
    65
 73
     0
 40
0.0
  0
LTYPE
  5
15
330
5
100
AcDbSymbolTableRecord
100
AcDbLinetypeTableRecord
  2
ByLayer
 70
     0
  3

 72
    65
 73
     0
 40
0.0
  0
LTYPE
  5
16
330
5
100
AcDbSymbolTableRecord
100
AcDbLinetypeTableRecord
  2
Continuous
 70
     0
  3
Solid line
 72
    65
 73
     0
 40
0.0
  0
LTYPE
  5
6E
330
5
100
AcDbSymbolTableRecord
100
AcDbLinetypeTableRecord
  2
dotted
 70
     0
  3
_   _   _   _   _   _   _   _
 72
    65
 73
     2
 40
1.8
 49
0.25
 74
     4
 75
     0
340
0
 46
1.0
 50
0.0
 44
0.0
 45
0.0
 49
-1.5
 74
     4
 75
     0
340
0
 46
1.0
 50
0.0
 44
0.0
 45
0.0
  0
LTYPE
  5
6F
330
5
100
AcDbSymbolTableRecord
100
AcDbLinetypeTableRecord
  2
chain
 70
     0
  3
_____ __ _____ __ _____
 72
    65
 73
     4
 40
18.5
 49
12.0
 74
     4
 75
     0
340
0
 46
1.0
 50
0.0
 44
0.0
 45
0.0
 49
-1.5
 74
     4
 75
     0
340
0
 46
1.0
 50
0.0
 44
0.0
 45
0.0
 49
3.5
 74
     4
 75
     0
340
0
 46
1.0
 50
0.0
 44
0.0
 45
0.0
 49
-1.5
 74
     4
 75
     0
340
0
 46
1.0
 50
0.0
 44
0.0
 45
0.0
  0
ENDTAB
  0
TABLE
  2
LAYER
  5
2
330
0
100
AcDbSymbolTable
 70
     5
  0
LAYER
  5
10
330
2
100
AcDbSymbolTableRecord
100
AcDbLayerTableRecord
  2
0
 70
     0
 62
     7
  6
Continuous
370
    -3
390
F
347
46
348
0
  0
LAYER
  5
70
330
2
100
AcDbSymbolTableRecord
100
AcDbLayerTableRecord
  2
LAYER1
 70
     0
 62
    14
  6
Continuous
370
    -3
390
F
347
46
348
0
  0
LAYER
  5
71
330
2
100
AcDbSymbolTableRecord
100
AcDbLayerTableRecord
  2
LAYER5
 70
     0
 62
   214
  6
Continuous
370
    -3
390
F
347
46
348
0
  0
LAYER
  5
72
330
2
100
AcDbSymbolTableRecord
100
AcDbLayerTableRecord
  2
LAYER6
 70
     0
 62
   252
  6
Continuous
370
    -3
390
F
347
46
348
0
  0
LAYER
  5
73
330
2
100
AcDbSymbolTableRecord
100
AcDbLayerTableRecord
  2
LAYER7
 70
     0
 62
    16
  6
Continuous
370
    -3
390
F
347
46
348
0
  0
ENDTAB
  0
TABLE
  2
STYLE
  5
3
330
0
100
AcDbSymbolTable
 70
     3
  0
STYLE
  5
11
330
3
100
AcDbSymbolTableRecord
100
AcDbTextStyleTableRecord
  2
Standard
 70
     0
 40
0.0
 41
1.0
 50
0.0
 71
     0
 42
2.5
  3
txt
  4

  0
STYLE
  5
74
330
3
100
AcDbSymbolTableRecord
100
AcDbTextStyleTableRecord
  2
STANDARD-FC
 70
     0
 40
0.0
 41
1.0
 50
0.0
 71
     0
 42
2.5
  3
txt
  4
bigfont
  0
STYLE
  5
75
330
3
100
AcDbSymbolTableRecord
100
AcDbTextStyleTableRecord
  2
ＭＳ ゴシック
 70
     0
 40
0.0
 41
1.0
 50
0.0
 71
     0
 42
2.5
  3
msgothic.ttc
  4

1001
ACAD
1000
MS Gothic
1071
    32817
  0
ENDTAB
  0
TABLE
  2
VIEW
  5
6
330
0
100
AcDbSymbolTable
 70
     0
  0
ENDTAB
  0
TABLE
  2
UCS
  5
7
330
0
100
AcDbSymbolTable
 70
     0
  0
ENDTAB
  0
TABLE
  2
APPID
  5
9
330
0
100
AcDbSymbolTable
 70
     1
  0
APPID
  5
12
330
9
100
AcDbSymbolTableRecord
100
AcDbRegAppTableRecord
  2
ACAD
 70
     0
  0
ENDTAB
  0
TABLE
  2
DIMSTYLE
  5
A
330
0
100
AcDbSymbolTable
 70
     1
100
AcDbDimStyleTable
  0
DIMSTYLE
105
27
330
A
100
AcDbSymbolTableRecord
100
AcDbDimStyleTableRecord
  2
ISO-25
 70
     0
 41
2.5
 42
0.625
 43
3.75
 44
1.25
 73
     0
 74
     0
 77
     1
 78
     8
140
2.5
141
2.5
143
0.03937007874016
147
0.625
171
     3
172
     1
178
     0
271
     2
272
     2
274
     3
278
    44
283
     0
284
     8
340
11
  0
ENDTAB
  0
TABLE
  2
BLOCK_RECORD
  5
1
330
0
100
AcDbSymbolTable
 70
     4
  0
BLOCK_RECORD
  5
1F
330
1
100
AcDbSymbolTableRecord
100
AcDbBlockTableRecord
  2
*Model_Space
340
22
 70
     0
280
     1
281
     0
  0
BLOCK_RECORD
  5
1B
330
1
100
AcDbSymbolTableRecord
100
AcDbBlockTableRecord
  2
*Paper_Space
340
1E
 70
     0
280
     1
281
     0
  0
BLOCK_RECORD
  5
23
330
1
100
AcDbSymbolTableRecord
100
AcDbBlockTableRecord
  2
*Paper_Space0
340
26
 70
     0
280
     1
281
     0
  0
BLOCK_RECORD
  5
76
330
1
100
AcDbSymbolTableRecord
100
AcDbBlockTableRecord
  2
FcPack%d0
340
0
102
{BLKREFS
331
E0
102
}
 70
     0
280
     1
281
     0
  0
BLOCK_RECORD
  5
FD
330
1
100
AcDbSymbolTableRecord
100
AcDbBlockTableRecord
  2
FcPack%d1
340
0
102
{BLKREFS
331
118
102
}
 70
     0
280
     1
281
     0
  0
BLOCK_RECORD
  5
137
330
1
100
AcDbSymbolTableRecord
100
AcDbBlockTableRecord
  2
FcPack%d2
340
0
102
{BLKREFS
331
13C
102
}
 70
     0
280
     1
281
     0
  0
ENDTAB
  0
ENDSEC
  0
SECTION
  2
BLOCKS
  0
BLOCK
  5
20
330
1F
100
AcDbEntity
  8
0
100
AcDbBlockBegin
  2
*Model_Space
 70
     0
 10
0.0
 20
0.0
 30
0.0
  3
*Model_Space
  1

  0
ENDBLK
  5
21
330
1F
100
AcDbEntity
  8
0
100
AcDbBlockEnd
  0
BLOCK
  5
1C
330
1B
100
AcDbEntity
 67
     1
  8
0
100
AcDbBlockBegin
  2
*Paper_Space
 70
     0
 10
0.0
 20
0.0
 30
0.0
  3
*Paper_Space
  1

  0
ENDBLK
  5
1D
330
1B
100
AcDbEntity
 67
     1
  8
0
100
AcDbBlockEnd
  0
BLOCK
  5
24
330
23
100
AcDbEntity
  8
0
100
AcDbBlockBegin
  2
*Paper_Space0
 70
     0
 10
0.0
 20
0.0
 30
0.0
  3
*Paper_Space0
  1

  0
ENDBLK
  5
25
330
23
100
AcDbEntity
  8
0
100
AcDbBlockEnd
  0
BLOCK
  5
77
330
76
100
AcDbEntity
  8
0
100
AcDbBlockBegin
  2
FcPack%d0
 70
     0
 10
0.0
 20
0.0
 30
0.0
  3
FcPack%d0
  1

  0
LINE
  5
79
330
76
100
AcDbEntity
  8
LAYER6
  6
chain
 62
     6
370
    13
100
AcDbLine
 10
-43.7278753896054
 20
89.916280115716
 30
0.0
 11
-94.87214983358645
 21
91.86071190473524
 31
0.0
  0
LINE
  5
7A
330
76
100
AcDbEntity
  8
LAYER6
  6
Continuous
 62
     1
370
    13
100
AcDbLine
 10
-42.96805307125101
 20
109.9018416551007
 30
0.0
 11
-94.11232751523205
 21
111.8462734441199
 31
0.0
  0
LINE
  5
7B
330
76
100
AcDbEntity
  8
LAYER6
  6
Continuous
 62
     1
370
    13
100
AcDbLine
 10
-44.48769770795982
 20
69.93071857633134
 30
0.0
 11
-95.63197215194087
 21
71.87515036535058
 31
0.0
  0
LINE
  5
7C
330
76
100
AcDbEntity
  8
LAYER6
  6
chain
 62
     6
370
    13
100
AcDbLine
 10
19.29259250055688
 20
87.62289651878234
 30
0.0
 11
-43.7603489693505
 21
89.91748829563426
 31
0.0
  0
LINE
  5
7D
330
76
100
AcDbEntity
  8
LAYER6
  6
Continuous
 62
     1
370
    13
100
AcDbLine
 10
20.0199412391662
 20
107.6096662380853
 30
0.0
 11
-43.03300023074118
 21
109.9042580149372
 31
0.0
  0
LINE
  5
7E
330
76
100
AcDbEntity
  8
LAYER6
  6
Continuous
 62
     1
370
    13
100
AcDbLine
 10
18.56524376194756
 20
67.63612679947943
 30
0.0
 11
-44.48769770795982
 21
69.93071857633137
 31
0.0
  0
CIRCLE
  5
7F
330
76
100
AcDbEntity
  8
LAYER6
  6
Continuous
 62
     1
370
    13
100
AcDbCircle
 10
8.571858902323413
 20
67.99980116878316
 30
0.0
 40
0.4
  0
CIRCLE
  5
80
330
76
100
AcDbEntity
  8
LAYER6
  6
Continuous
 62
     1
370
    13
100
AcDbCircle
 10
10.02655637948743
 20
107.9733406073909
 30
0.0
 40
0.4
  0
LINE
  5
81
330
76
100
AcDbEntity
  8
LAYER6
  6
Continuous
 62
     1
370
    13
100
AcDbLine
 10
8.571858902323413
 20
67.99980116878316
 30
0.0
 11
10.02655637948743
 21
107.9733406073909
 31
0.0
  0
TEXT
  5
82
330
76
100
AcDbEntity
  8
LAYER6
  6
Continuous
 62
     2
370
    13
100
AcDbText
 10
11.3141570635861
 20
84.65987247715121
 30
0.0
 40
2.0
  1
4.000
 50
87.91583976490176
  7
ＭＳ ゴシック
 72
     1
 11
9.433718601116334
 21
87.98167583107632
 31
0.0
100
AcDbText
 73
     3
  0
TEXT
  5
83
330
76
100
AcDbEntity
  8
LAYER6
  6
Continuous
 62
     2
370
    13
100
AcDbText
 10
14.47451017384585
 20
81.96819233844667
 30
0.0
 40
2.24
  1
道路幅員
 50
87.91583976490166
  7
ＭＳ ゴシック
 72
     1
 11
12.44787537423725
 21
87.87198611344776
 31
0.0
100
AcDbText
 73
     3
  0
LINE
  5
84
330
76
100
AcDbEntity
  8
LAYER6
  6
Continuous
 62
     1
370
    13
100
AcDbLine
 10
-57.47618840435581
 20
70.18950980880982
 30
0.0
 11
-52.47618840435581
 21
70.18950980880982
 31
0.0
  0
TEXT
  5
85
330
76
100
AcDbEntity
  8
LAYER6
  6
Continuous
 62
     1
370
    13
100
AcDbText
 10
-131.2048926722203
 20
80.65267908736055
 30
0.0
 40
2.16
  1
真北
  7
ＭＳ ゴシック
 72
     1
 11
-128.3958392771971
 21
80.2579598176344
 31
0.0
100
AcDbText
 73
     1
  0
LINE
  5
86
330
76
100
AcDbEntity
  8
LAYER6
  6
Continuous
 62
     1
370
    13
100
AcDbLine
 10
-129.4236869546038
 20
78.90348279173162
 30
0.0
 11
-139.8175443003484
 21
47.48146835918408
 31
0.0
  0
LINE
  5
87
330
76
100
AcDbEntity
  8
LAYER6
  6
Continuous
 62
     1
370
    13
100
AcDbLine
 10
-129.4236869546038
 20
78.90348279173162
 30
0.0
 11
-133.8160914311965
 21
74.20611859894282
 31
0.0
  0
LINE
  5
88
330
76
100
AcDbEntity
  8
LAYER6
  6
Continuous
 62
     1
370
    13
100
AcDbLine
 10
-133.8160914311965
 20
74.20611859894285
 30
0.0
 11
-129.2726175709139
 21
72.70321625450538
 31
0.0
  0
LINE
  5
89
330
76
100
AcDbEntity
  8
LAYER6
  6
Continuous
 62
     1
370
    13
100
AcDbLine
 10
-141.0700959070937
 20
64.38928443154236
 30
0.0
 11
-129.7106295747771
 21
60.63177000373074
 31
0.0
  0
CIRCLE
  5
8A
330
76
100
AcDbEntity
  8
LAYER6
  6
Continuous
 62
     3
370
    13
100
AcDbCircle
 10
-75.64641061255625
 20
71.11532804699618
 30
0.0
 40
0.4
  0
LINE
  5
8B
330
76
100
AcDbEntity
  8
LAYER6
  6
Continuous
 62
     3
370
    13
100
AcDbLine
 10
-75.64641061255625
 20
71.11532804699618
 30
0.0
 11
-77.87616894014634
 21
-72.54727056156364
 31
0.0
  0
CIRCLE
  5
8C
330
76
100
AcDbEntity
  8
LAYER6
  6
Continuous
 62
     3
370
    13
100
AcDbCircle
 10
-77.87616894014633
 20
-72.54727056156362
 30
0.0
 40
0.4
  0
LINE
  5
8D
330
76
100
AcDbEntity
  8
LAYER6
  6
Continuous
 62
     3
370
    13
100
AcDbLine
 10
-77.87616894014633
 20
-72.54727056156362
 30
0.0
 11
-72.28502803131855
 21
-72.4721484134815
 31
0.0
  0
CIRCLE
  5
8E
330
76
100
AcDbEntity
  8
LAYER6
  6
Continuous
 62
     3
370
    13
100
AcDbCircle
 10
-72.28502803131855
 20
-72.4721484134815
 30
0.0
 40
0.4
  0
LINE
  5
8F
330
76
100
AcDbEntity
  8
LAYER6
  6
Continuous
 62
     3
370
    13
100
AcDbLine
 10
-72.28502803131855
 20
-72.4721484134815
 30
0.0
 11
-1.421525957352344
 21
-72.8678425185436
 31
0.0
  0
CIRCLE
  5
90
330
76
100
AcDbEntity
  8
LAYER6
  6
Continuous
 62
     3
370
    13
100
AcDbCircle
 10
-1.421525957352372
 20
-72.86784251854361
 30
0.0
 40
0.4
  0
LINE
  5
91
330
76
100
AcDbEntity
  8
LAYER6
  6
Continuous
 62
     3
370
    13
100
AcDbLine
 10
-1.421525957352372
 20
-72.86784251854361
 30
0.0
 11
-1.421525957355357
 21
68.36347553808879
 31
0.0
  0
CIRCLE
  5
92
330
76
100
AcDbEntity
  8
LAYER6
  6
Continuous
 62
     3
370
    13
100
AcDbCircle
 10
-1.421525957355357
 20
68.36347553808878
 30
0.0
 40
0.4
  0
LINE
  5
93
330
76
100
AcDbEntity
  8
LAYER6
  6
Continuous
 62
     3
370
    13
100
AcDbLine
 10
-1.421525957355357
 20
68.36347553808878
 30
0.0
 11
-44.48769770795985
 21
69.93071857633137
 31
0.0
  0
CIRCLE
  5
94
330
76
100
AcDbEntity
  8
LAYER6
  6
Continuous
 62
     3
370
    13
100
AcDbCircle
 10
-44.48769770795982
 20
69.93071857633134
 30
0.0
 40
0.4
  0
LINE
  5
95
330
76
100
AcDbEntity
  8
LAYER6
  6
Continuous
 62
     3
370
    13
100
AcDbLine
 10
-44.48769770795982
 20
69.93071857633134
 30
0.0
 11
-75.64641061255624
 21
71.11532804699618
 31
0.0
  0
TEXT
  5
96
330
76
100
AcDbEntity
  8
LAYER6
  6
Continuous
 62
     2
370
    13
100
AcDbText
 10
-77.18727310014945
 20
-4.611292597920293
 30
0.0
 40
2.0
  1
14.367
 50
89.11079511547867
  7
ＭＳ ゴシック
 72
     1
 11
-76.76128977635129
 21
-0.7159712572837265
 31
0.0
100
AcDbText
 73
     1
  0
TEXT
  5
97
330
76
100
AcDbEntity
  8
LAYER6
  6
Continuous
 62
     2
370
    13
100
AcDbText
 10
-74.48384587743192
 20
-8.03492716524375
 30
0.0
 40
2.24
  1
隣地境界線
 50
89.11079511547872
  7
ＭＳ ゴシック
 72
     1
 11
-76.61055593078825
 21
-0.7183107670144668
 31
0.0
100
AcDbText
 73
     3
  0
TEXT
  5
98
330
76
100
AcDbEntity
  8
LAYER6
  6
Continuous
 62
     2
370
    13
100
AcDbText
 10
-78.30284653458605
 20
-74.68779603422885
 30
0.0
 40
2.0
  1
0.559
 50
0.7697754587967052
  7
ＭＳ ゴシック
 72
     1
 11
-75.07879017348617
 21
-72.64429733989721
 31
0.0
100
AcDbText
 73
     3
  0
TEXT
  5
99
330
76
100
AcDbEntity
  8
LAYER6
  6
Continuous
 62
     2
370
    13
100
AcDbText
 10
-68.55689427500401
 20
-72.2561595820567
 30
0.0
 40
2.24
  1
隣地境界線
 50
0.769775458796749
  7
ＭＳ ゴシック
 72
     1
 11
-61.26932117109354
 21
-72.56761974678756
 31
0.0
100
AcDbText
 73
     1
  0
TEXT
  5
9A
330
76
100
AcDbEntity
  8
LAYER6
  6
Continuous
 62
     2
370
    13
100
AcDbText
 10
-40.11636470539263
 20
-74.78640801635133
 30
0.0
 40
2.0
  1
7.086
 50
359.6800699103656
  7
ＭＳ ゴシック
 72
     1
 11
-36.85402857441092
 21
-72.80459336765811
 31
0.0
100
AcDbText
 73
     3
  0
TEXT
  5
9B
330
76
100
AcDbEntity
  8
LAYER6
  6
Continuous
 62
     2
370
    13
100
AcDbText
 10
-44.13360881777793
 20
-72.21999799977056
 30
0.0
 40
2.24
  1
隣地境界線
 50
359.6800699103655
  7
ＭＳ ゴシック
 72
     1
 11
-36.85327699433545
 21
-72.66999546601257
 31
0.0
100
AcDbText
 73
     1
  0
TEXT
  5
9C
330
76
100
AcDbEntity
  8
LAYER6
  6
Continuous
 62
     2
370
    13
100
AcDbText
 10
0.7130740426462097
 20
-6.153646538870616
 30
0.0
 40
2.0
  1
14.123
 50
90.00000000000132
  7
ＭＳ ゴシック
 72
     1
 11
-1.286925957353879
 21
-2.252183490227421
 31
0.0
100
AcDbText
 73
     3
  0
TEXT
  5
9D
330
76
100
AcDbEntity
  8
LAYER6
  6
Continuous
 62
     2
370
    13
100
AcDbText
 10
-1.830864459291929
 20
-9.534914514361482
 30
0.0
 40
2.24
  1
隣地境界線
 50
90.00000000000118
  7
ＭＳ ゴシック
 72
     1
 11
-1.421525957353851
 21
-2.252183490227424
 31
0.0
100
AcDbText
 73
     1
  0
TEXT
  5
9E
330
76
100
AcDbEntity
  8
LAYER6
  6
Continuous
 62
     2
370
    13
100
AcDbText
 10
-26.19038871258821
 20
69.63057460129497
 30
0.0
 40
2.0
  1
4.309
 50
357.9158397648233
  7
ＭＳ ゴシック
 72
     1
 11
-22.95461183265758
 21
69.14709705721009
 31
0.0
100
AcDbText
 73
     1
  0
TEXT
  5
9F
330
76
100
AcDbEntity
  8
LAYER6
  6
Continuous
 62
     2
370
    13
100
AcDbText
 10
-30.31947075058351
 20
67.02278083441372
 30
0.0
 40
2.24
  1
道路境界線
 50
357.9158397648233
  7
ＭＳ ゴシック
 72
     1
 11
-22.96009429650975
 21
68.99644478177389
 31
0.0
100
AcDbText
 73
     3
  0
TEXT
  5
A0
330
76
100
AcDbEntity
  8
LAYER6
  6
Continuous
 62
     2
370
    13
100
AcDbText
 10
-63.30204121379705
 20
71.01175771372984
 30
0.0
 40
2.0
  1
3.118
 50
357.8227454369642
  7
ＭＳ ゴシック
 72
     1
 11
-60.06705416025803
 21
70.52302331166374
 31
0.0
100
AcDbText
 73
     1
  0
TEXT
  5
A1
330
76
100
AcDbEntity
  8
LAYER6
  6
Continuous
 62
     2
370
    13
100
AcDbText
 10
-53.72670317117221
 20
67.39522064184524
 30
0.0
 40
2.24
  1
道路境界線
 50
357.8227454369642
  7
ＭＳ ゴシック
 72
     1
 11
-46.36412961863567
 21
69.35692445572086
 31
0.0
100
AcDbText
 73
     3
  0
LINE
  5
A2
330
76
100
AcDbEntity
  8
LAYER6
  6
Continuous
 62
     3
370
    13
100
AcDbLine
 10
48.67009590709355
 20
-108.9662734441198
 30
0.0
 11
48.67009590709355
 21
-68.96627344411985
 31
0.0
  0
LINE
  5
A3
330
76
100
AcDbEntity
  8
LAYER6
  6
Continuous
 62
     3
370
    13
100
AcDbLine
 10
48.67009590709355
 20
-68.96627344411985
 30
0.0
 11
141.0700959070935
 21
-68.96627344411985
 31
0.0
  0
LINE
  5
A4
330
76
100
AcDbEntity
  8
LAYER6
  6
Continuous
 62
     3
370
    13
100
AcDbLine
 10
141.0700959070935
 20
-68.96627344411985
 30
0.0
 11
141.0700959070935
 21
-108.9662734441198
 31
0.0
  0
LINE
  5
A5
330
76
100
AcDbEntity
  8
LAYER6
  6
Continuous
 62
     3
370
    13
100
AcDbLine
 10
141.0700959070935
 20
-108.9662734441198
 30
0.0
 11
48.67009590709353
 21
-108.9662734441198
 31
0.0
  0
LINE
  5
A6
330
76
100
AcDbEntity
  8
LAYER6
  6
Continuous
 62
     1
370
    13
100
AcDbLine
 10
59.47009590709357
 20
-104.9662734441198
 30
0.0
 11
59.47009590709357
 21
-72.96627344411985
 31
0.0
  0
LINE
  5
A7
330
76
100
AcDbEntity
  8
LAYER6
  6
Continuous
 62
     1
370
    13
100
AcDbLine
 10
79.87009590709354
 20
-104.9662734441198
 30
0.0
 11
79.87009590709354
 21
-72.96627344411985
 31
0.0
  0
LINE
  5
A8
330
76
100
AcDbEntity
  8
LAYER6
  6
Continuous
 62
     1
370
    13
100
AcDbLine
 10
100.2700959070935
 20
-104.9662734441198
 30
0.0
 11
100.2700959070935
 21
-72.96627344411985
 31
0.0
  0
LINE
  5
A9
330
76
100
AcDbEntity
  8
LAYER6
  6
Continuous
 62
     1
370
    13
100
AcDbLine
 10
120.6700959070935
 20
-104.9662734441198
 30
0.0
 11
120.6700959070935
 21
-72.96627344411985
 31
0.0
  0
LINE
  5
AA
330
76
100
AcDbEntity
  8
LAYER6
  6
Continuous
 62
     1
370
    13
100
AcDbLine
 10
48.67009590709355
 20
-72.96627344411985
 30
0.0
 11
141.0700959070935
 21
-72.96627344411985
 31
0.0
  0
LINE
  5
AB
330
76
100
AcDbEntity
  8
LAYER6
  6
Continuous
 62
     1
370
    13
100
AcDbLine
 10
48.67009590709355
 20
-76.96627344411985
 30
0.0
 11
141.0700959070935
 21
-76.96627344411985
 31
0.0
  0
LINE
  5
AC
330
76
100
AcDbEntity
  8
LAYER6
  6
Continuous
 62
     1
370
    13
100
AcDbLine
 10
48.67009590709355
 20
-80.96627344411985
 30
0.0
 11
141.0700959070935
 21
-80.96627344411985
 31
0.0
  0
LINE
  5
AD
330
76
100
AcDbEntity
  8
LAYER6
  6
Continuous
 62
     1
370
    13
100
AcDbLine
 10
48.67009590709355
 20
-84.96627344411985
 30
0.0
 11
141.0700959070935
 21
-84.96627344411985
 31
0.0
  0
LINE
  5
AE
330
76
100
AcDbEntity
  8
LAYER6
  6
Continuous
 62
     1
370
    13
100
AcDbLine
 10
48.67009590709355
 20
-88.96627344411986
 30
0.0
 11
141.0700959070935
 21
-88.96627344411986
 31
0.0
  0
LINE
  5
AF
330
76
100
AcDbEntity
  8
LAYER6
  6
Continuous
 62
     1
370
    13
100
AcDbLine
 10
48.67009590709355
 20
-92.96627344411985
 30
0.0
 11
141.0700959070935
 21
-92.96627344411985
 31
0.0
  0
LINE
  5
B0
330
76
100
AcDbEntity
  8
LAYER6
  6
Continuous
 62
     1
370
    13
100
AcDbLine
 10
48.67009590709355
 20
-96.96627344411985
 30
0.0
 11
141.0700959070935
 21
-96.96627344411985
 31
0.0
  0
LINE
  5
B1
330
76
100
AcDbEntity
  8
LAYER6
  6
Continuous
 62
     1
370
    13
100
AcDbLine
 10
48.67009590709355
 20
-100.9662734441198
 30
0.0
 11
141.0700959070935
 21
-100.9662734441198
 31
0.0
  0
LINE
  5
B2
330
76
100
AcDbEntity
  8
LAYER6
  6
Continuous
 62
     1
370
    13
100
AcDbLine
 10
48.67009590709355
 20
-104.9662734441198
 30
0.0
 11
141.0700959070935
 21
-104.9662734441198
 31
0.0
  0
TEXT
  5
B3
330
76
100
AcDbEntity
  8
LAYER6
  6
Continuous
 62
     1
370
    13
100
AcDbText
 10
75.51883918582311
 20
-72.61541187102993
 30
0.0
 40
1.92
  1
敷 地 面 積（ 直 角 座 標 法 ）
  7
ＭＳ ゴシック
 72
     1
 11
94.87009590709359
 21
-72.96627344411985
 31
0.0
100
AcDbText
 73
     1
  0
TEXT
  5
B4
330
76
100
AcDbEntity
  8
LAYER6
  6
Continuous
 62
     1
370
    13
100
AcDbText
 10
50.94892546817894
 20
-76.61541187102993
 30
0.0
 40
1.92
  1
番 号
  7
ＭＳ ゴシック
 72
     1
 11
54.07009590709353
 21
-76.96627344411985
 31
0.0
100
AcDbText
 73
     1
  0
TEXT
  5
B5
330
76
100
AcDbEntity
  8
LAYER6
  6
Continuous
 62
     1
370
    13
100
AcDbText
 10
62.80352094148142
 20
-76.61541187102993
 30
0.0
 40
1.92
  1
X 座 標 (m)
  7
ＭＳ ゴシック
 72
     1
 11
69.67009590709353
 21
-76.96627344411985
 31
0.0
100
AcDbText
 73
     1
  0
TEXT
  5
B6
330
76
100
AcDbEntity
  8
LAYER6
  6
Continuous
 62
     1
370
    13
100
AcDbText
 10
83.20352094148149
 20
-76.61541187102993
 30
0.0
 40
1.92
  1
Y 座 標 (m)
  7
ＭＳ ゴシック
 72
     1
 11
90.07009590709359
 21
-76.96627344411985
 31
0.0
100
AcDbText
 73
     1
  0
TEXT
  5
B7
330
76
100
AcDbEntity
  8
LAYER6
  6
Continuous
 62
     1
370
    13
100
AcDbText
 10
102.3550527659156
 20
-76.61541187102993
 30
0.0
 40
1.92
  1
X(n+1)-X(n-1)
  7
ＭＳ ゴシック
 72
     1
 11
110.4700959070935
 21
-76.96627344411985
 31
0.0
100
AcDbText
 73
     1
  0
TEXT
  5
B8
330
76
100
AcDbEntity
  8
LAYER6
  6
Continuous
 62
     1
370
    13
100
AcDbText
 10
122.7550527659156
 20
-76.61541187102993
 30
0.0
 40
1.92
  1
倍 面 積 (㎡)
  7
ＭＳ ゴシック
 72
     1
 11
130.8700959070935
 21
-76.96627344411985
 31
0.0
100
AcDbText
 73
     1
  0
TEXT
  5
B9
330
76
100
AcDbEntity
  8
LAYER6
  6
Continuous
 62
     1
370
    13
100
AcDbText
 10
50.94892546817894
 20
-104.6154118710299
 30
0.0
 40
1.92
  1
基 準
  7
ＭＳ ゴシック
 72
     1
 11
54.07009590709353
 21
-104.9662734441198
 31
0.0
100
AcDbText
 73
     1
  0
TEXT
  5
BA
330
76
100
AcDbEntity
  8
LAYER6
  6
Continuous
 62
     1
370
    13
100
AcDbText
 10
102.9792868536985
 20
-104.6154118710299
 30
0.0
 40
1.92
  1
倍 面 積  計
  7
ＭＳ ゴシック
 72
     1
 11
110.4700959070935
 21
-104.9662734441198
 31
0.0
100
AcDbText
 73
     1
  0
TEXT
  5
BB
330
76
100
AcDbEntity
  8
LAYER6
  6
Continuous
 62
     1
370
    13
100
AcDbText
 10
54.28235050256686
 20
-108.6154118710299
 30
0.0
 40
1.92
  1
敷 地 面 積 (㎡)
  7
ＭＳ ゴシック
 72
     1
 11
64.27009590709355
 21
-108.9662734441198
 31
0.0
100
AcDbText
 73
     1
  0
TEXT
  5
BC
330
76
100
AcDbEntity
  8
LAYER6
  6
Continuous
 62
     1
370
    13
100
AcDbText
 10
57.27009590709358
 20
-80.61541187102993
 30
0.0
 40
1.92
  1
1
  7
ＭＳ ゴシック
 11
57.27009590709358
 21
-80.96627344411985
 31
0.0
100
AcDbText
 73
     1
  0
TEXT
  5
BD
330
76
100
AcDbEntity
  8
LAYER6
  6
Continuous
 62
     1
370
    13
100
AcDbText
 10
71.37928685369852
 20
-80.61541187102993
 30
0.0
 40
1.92
  1
-6.126
  7
ＭＳ ゴシック
 72
     2
 11
78.87009590709354
 21
-80.96627344411985
 31
0.0
100
AcDbText
 73
     1
  0
TEXT
  5
BE
330
76
100
AcDbEntity
  8
LAYER6
  6
Continuous
 62
     1
370
    13
100
AcDbText
 10
93.02775502926437
 20
-80.61541187102993
 30
0.0
 40
1.92
  1
7.777
  7
ＭＳ ゴシック
 72
     2
 11
99.27009590709355
 21
-80.96627344411985
 31
0.0
100
AcDbText
 73
     1
  0
TEXT
  5
BF
330
76
100
AcDbEntity
  8
LAYER6
  6
Continuous
 62
     1
370
    13
100
AcDbText
 10
57.27009590709358
 20
-84.61541187102993
 30
0.0
 40
1.92
  1
2
  7
ＭＳ ゴシック
 11
57.27009590709358
 21
-84.96627344411985
 31
0.0
100
AcDbText
 73
     1
  0
TEXT
  5
C0
330
76
100
AcDbEntity
  8
LAYER6
  6
Continuous
 62
     1
370
    13
100
AcDbText
 10
71.37928685369852
 20
-84.61541187102993
 30
0.0
 40
1.92
  1
-6.349
  7
ＭＳ ゴシック
 72
     2
 11
78.87009590709354
 21
-84.96627344411985
 31
0.0
100
AcDbText
 73
     1
  0
TEXT
  5
C1
330
76
100
AcDbEntity
  8
LAYER6
  6
Continuous
 62
     1
370
    13
100
AcDbText
 10
91.77928685369847
 20
-84.61541187102993
 30
0.0
 40
1.92
  1
-6.588
  7
ＭＳ ゴシック
 72
     2
 11
99.27009590709349
 21
-84.96627344411985
 31
0.0
100
AcDbText
 73
     1
  0
TEXT
  5
C2
330
76
100
AcDbEntity
  8
LAYER6
  6
Continuous
 62
     1
370
    13
100
AcDbText
 10
57.27009590709358
 20
-88.61541187102995
 30
0.0
 40
1.92
  1
3
  7
ＭＳ ゴシック
 11
57.27009590709358
 21
-88.96627344411986
 31
0.0
100
AcDbText
 73
     1
  0
TEXT
  5
C3
330
76
100
AcDbEntity
  8
LAYER6
  6
Continuous
 62
     1
370
    13
100
AcDbText
 10
71.37928685369852
 20
-88.61541187102995
 30
0.0
 40
1.92
  1
-5.790
  7
ＭＳ ゴシック
 72
     2
 11
78.87009590709354
 21
-88.96627344411986
 31
0.0
100
AcDbText
 73
     1
  0
TEXT
  5
C4
330
76
100
AcDbEntity
  8
LAYER6
  6
Continuous
 62
     1
370
    13
100
AcDbText
 10
91.77928685369847
 20
-88.61541187102995
 30
0.0
 40
1.92
  1
-6.581
  7
ＭＳ ゴシック
 72
     2
 11
99.27009590709349
 21
-88.96627344411986
 31
0.0
100
AcDbText
 73
     1
  0
TEXT
  5
C5
330
76
100
AcDbEntity
  8
LAYER6
  6
Continuous
 62
     1
370
    13
100
AcDbText
 10
57.27009590709358
 20
-92.61541187102993
 30
0.0
 40
1.92
  1
4
  7
ＭＳ ゴシック
 11
57.27009590709358
 21
-92.96627344411985
 31
0.0
100
AcDbText
 73
     1
  0
TEXT
  5
C6
330
76
100
AcDbEntity
  8
LAYER6
  6
Continuous
 62
     1
370
    13
100
AcDbText
 10
72.62775502926436
 20
-92.61541187102993
 30
0.0
 40
1.92
  1
1.295
  7
ＭＳ ゴシック
 72
     2
 11
78.87009590709354
 21
-92.96627344411985
 31
0.0
100
AcDbText
 73
     1
  0
TEXT
  5
C7
330
76
100
AcDbEntity
  8
LAYER6
  6
Continuous
 62
     1
370
    13
100
AcDbText
 10
91.77928685369847
 20
-92.61541187102993
 30
0.0
 40
1.92
  1
-6.620
  7
ＭＳ ゴシック
 72
     2
 11
99.27009590709349
 21
-92.96627344411985
 31
0.0
100
AcDbText
 73
     1
  0
TEXT
  5
C8
330
76
100
AcDbEntity
  8
LAYER6
  6
Continuous
 62
     1
370
    13
100
AcDbText
 10
57.27009590709358
 20
-96.61541187102993
 30
0.0
 40
1.92
  1
5
  7
ＭＳ ゴシック
 11
57.27009590709358
 21
-96.96627344411985
 31
0.0
100
AcDbText
 73
     1
  0
TEXT
  5
C9
330
76
100
AcDbEntity
  8
LAYER6
  6
Continuous
 62
     1
370
    13
100
AcDbText
 10
72.62775502926436
 20
-96.61541187102993
 30
0.0
 40
1.92
  1
1.295
  7
ＭＳ ゴシック
 72
     2
 11
78.87009590709354
 21
-96.96627344411985
 31
0.0
100
AcDbText
 73
     1
  0
TEXT
  5
CA
330
76
100
AcDbEntity
  8
LAYER6
  6
Continuous
 62
     1
370
    13
100
AcDbText
 10
93.02775502926437
 20
-96.61541187102993
 30
0.0
 40
1.92
  1
7.502
  7
ＭＳ ゴシック
 72
     2
 11
99.27009590709355
 21
-96.96627344411985
 31
0.0
100
AcDbText
 73
     1
  0
TEXT
  5
CB
330
76
100
AcDbEntity
  8
LAYER6
  6
Continuous
 62
     1
370
    13
100
AcDbText
 10
57.27009590709358
 20
-100.6154118710299
 30
0.0
 40
1.92
  1
6
  7
ＭＳ ゴシック
 11
57.27009590709358
 21
-100.9662734441198
 31
0.0
100
AcDbText
 73
     1
  0
TEXT
  5
CC
330
76
100
AcDbEntity
  8
LAYER6
  6
Continuous
 62
     1
370
    13
100
AcDbText
 10
71.37928685369852
 20
-100.6154118710299
 30
0.0
 40
1.92
  1
-3.010
  7
ＭＳ ゴシック
 72
     2
 11
78.87009590709354
 21
-100.9662734441198
 31
0.0
100
AcDbText
 73
     1
  0
TEXT
  5
CD
330
76
100
AcDbEntity
  8
LAYER6
  6
Continuous
 62
     1
370
    13
100
AcDbText
 10
93.02775502926437
 20
-100.6154118710299
 30
0.0
 40
1.92
  1
7.658
  7
ＭＳ ゴシック
 72
     2
 11
99.27009590709355
 21
-100.9662734441198
 31
0.0
100
AcDbText
 73
     1
  0
TEXT
  5
CE
330
76
100
AcDbEntity
  8
LAYER6
  6
Continuous
 62
     1
370
    13
100
AcDbText
 10
71.37928685369852
 20
-104.6154118710299
 30
0.0
 40
1.92
  1
20.124
  7
ＭＳ ゴシック
 72
     2
 11
78.87009590709354
 21
-104.9662734441198
 31
0.0
100
AcDbText
 73
     1
  0
TEXT
  5
CF
330
76
100
AcDbEntity
  8
LAYER6
  6
Continuous
 62
     1
370
    13
100
AcDbText
 10
91.77928685369847
 20
-104.6154118710299
 30
0.0
 40
1.92
  1
15.013
  7
ＭＳ ゴシック
 72
     2
 11
99.27009590709349
 21
-104.9662734441198
 31
0.0
100
AcDbText
 73
     1
  0
TEXT
  5
D0
330
76
100
AcDbEntity
  8
LAYER6
  6
Continuous
 62
     1
370
    13
100
AcDbText
 10
112.1792868536986
 20
-80.61541187102993
 30
0.0
 40
1.92
  1
-3.339
  7
ＭＳ ゴシック
 72
     2
 11
119.6700959070936
 21
-80.96627344411985
 31
0.0
100
AcDbText
 73
     1
  0
TEXT
  5
D1
330
76
100
AcDbEntity
  8
LAYER6
  6
Continuous
 62
     1
370
    13
100
AcDbText
 10
127.5854141514351
 20
-80.61541187102993
 30
0.0
 40
1.92
  1
-25.967403
  7
ＭＳ ゴシック
 72
     2
 11
140.0700959070935
 21
-80.96627344411985
 31
0.0
100
AcDbText
 73
     1
  0
TEXT
  5
D2
330
76
100
AcDbEntity
  8
LAYER6
  6
Continuous
 62
     1
370
    13
100
AcDbText
 10
113.4277550292643
 20
-84.61541187102993
 30
0.0
 40
1.92
  1
0.336
  7
ＭＳ ゴシック
 72
     2
 11
119.6700959070935
 21
-84.96627344411985
 31
0.0
100
AcDbText
 73
     1
  0
TEXT
  5
D3
330
76
100
AcDbEntity
  8
LAYER6
  6
Continuous
 62
     1
370
    13
100
AcDbText
 10
128.833882327001
 20
-84.61541187102993
 30
0.0
 40
1.92
  1
-2.213568
  7
ＭＳ ゴシック
 72
     2
 11
140.0700959070936
 21
-84.96627344411985
 31
0.0
100
AcDbText
 73
     1
  0
TEXT
  5
D4
330
76
100
AcDbEntity
  8
LAYER6
  6
Continuous
 62
     1
370
    13
100
AcDbText
 10
113.4277550292643
 20
-88.61541187102995
 30
0.0
 40
1.92
  1
7.644
  7
ＭＳ ゴシック
 72
     2
 11
119.6700959070935
 21
-88.96627344411986
 31
0.0
100
AcDbText
 73
     1
  0
TEXT
  5
D5
330
76
100
AcDbEntity
  8
LAYER6
  6
Continuous
 62
     1
370
    13
100
AcDbText
 10
127.5854141514351
 20
-88.61541187102995
 30
0.0
 40
1.92
  1
-50.305164
  7
ＭＳ ゴシック
 72
     2
 11
140.0700959070935
 21
-88.96627344411986
 31
0.0
100
AcDbText
 73
     1
  0
TEXT
  5
D6
330
76
100
AcDbEntity
  8
LAYER6
  6
Continuous
 62
     1
370
    13
100
AcDbText
 10
113.4277550292643
 20
-92.61541187102993
 30
0.0
 40
1.92
  1
7.085
  7
ＭＳ ゴシック
 72
     2
 11
119.6700959070935
 21
-92.96627344411985
 31
0.0
100
AcDbText
 73
     1
  0
TEXT
  5
D7
330
76
100
AcDbEntity
  8
LAYER6
  6
Continuous
 62
     1
370
    13
100
AcDbText
 10
127.5854141514351
 20
-92.61541187102993
 30
0.0
 40
1.92
  1
-46.902700
  7
ＭＳ ゴシック
 72
     2
 11
140.0700959070935
 21
-92.96627344411985
 31
0.0
100
AcDbText
 73
     1
  0
TEXT
  5
D8
330
76
100
AcDbEntity
  8
LAYER6
  6
Continuous
 62
     1
370
    13
100
AcDbText
 10
112.1792868536986
 20
-96.61541187102993
 30
0.0
 40
1.92
  1
-4.305
  7
ＭＳ ゴシック
 72
     2
 11
119.6700959070936
 21
-96.96627344411985
 31
0.0
100
AcDbText
 73
     1
  0
TEXT
  5
D9
330
76
100
AcDbEntity
  8
LAYER6
  6
Continuous
 62
     1
370
    13
100
AcDbText
 10
127.5854141514351
 20
-96.61541187102993
 30
0.0
 40
1.92
  1
-32.296110
  7
ＭＳ ゴシック
 72
     2
 11
140.0700959070935
 21
-96.96627344411985
 31
0.0
100
AcDbText
 73
     1
  0
TEXT
  5
DA
330
76
100
AcDbEntity
  8
LAYER6
  6
Continuous
 62
     1
370
    13
100
AcDbText
 10
112.1792868536986
 20
-100.6154118710299
 30
0.0
 40
1.92
  1
-7.421
  7
ＭＳ ゴシック
 72
     2
 11
119.6700959070936
 21
-100.9662734441198
 31
0.0
100
AcDbText
 73
     1
  0
TEXT
  5
DB
330
76
100
AcDbEntity
  8
LAYER6
  6
Continuous
 62
     1
370
    13
100
AcDbText
 10
127.5854141514351
 20
-100.6154118710299
 30
0.0
 40
1.92
  1
-56.830018
  7
ＭＳ ゴシック
 72
     2
 11
140.0700959070935
 21
-100.9662734441198
 31
0.0
100
AcDbText
 73
     1
  0
TEXT
  5
DC
330
76
100
AcDbEntity
  8
LAYER6
  6
Continuous
 62
     1
370
    13
100
AcDbText
 10
126.3369459758694
 20
-104.6154118710299
 30
0.0
 40
1.92
  1
-214.514963
  7
ＭＳ ゴシック
 72
     2
 11
140.0700959070936
 21
-104.9662734441198
 31
0.0
100
AcDbText
 73
     1
  0
TEXT
  5
DD
330
76
100
AcDbEntity
  8
LAYER6
  6
Continuous
 62
     1
370
    13
100
AcDbText
 10
127.5854141514351
 20
-108.6154118710299
 30
0.0
 40
1.92
  1
107.25    
  7
ＭＳ ゴシック
 72
     2
 11
140.0700959070935
 21
-108.9662734441198
 31
0.0
100
AcDbText
 73
     1
  0
TEXT
  5
DE
330
76
100
AcDbEntity
  8
LAYER6
  6
Continuous
 62
     1
370
    13
100
AcDbText
 10
125.4700959070936
 20
-111.4954894441199
 30
0.0
 40
1.92
  1
丸め
  7
ＭＳ ゴシック
 11
125.4700959070936
 21
-109.5754894441199
 31
0.0
100
AcDbText
 73
     3
  0
TEXT
  5
DF
330
76
100
AcDbEntity
  8
LAYER6
  6
Continuous
 62
     1
370
    13
100
AcDbText
 10
131.4700959070936
 20
-111.4954894441199
 30
0.0
 40
1.92
  1
切り捨て
  7
ＭＳ ゴシック
 11
131.4700959070936
 21
-109.5754894441199
 31
0.0
100
AcDbText
 73
     3
  0
ENDBLK
  5
78
330
76
100
AcDbEntity
  8
0
100
AcDbBlockEnd
  0
BLOCK
  5
FE
330
FD
100
AcDbEntity
  8
0
100
AcDbBlockBegin
  2
FcPack%d1
 70
     0
 10
0.0
 20
0.0
 30
0.0
  3
FcPack%d1
  1

  0
LINE
  5
100
330
FD
100
AcDbEntity
  8
LAYER1
  6
Continuous
 62
     3
370
    13
100
AcDbLine
 10
-200.0
 20
138.5
 30
0.0
 11
-200.0
 21
-138.5
 31
0.0
  0
LINE
  5
101
330
FD
100
AcDbEntity
  8
LAYER1
  6
Continuous
 62
     3
370
    13
100
AcDbLine
 10
-200.0
 20
-138.5
 30
0.0
 11
200.0
 21
-138.5
 31
0.0
  0
LINE
  5
102
330
FD
100
AcDbEntity
  8
LAYER1
  6
Continuous
 62
     3
370
    13
100
AcDbLine
 10
200.0
 20
-138.5
 30
0.0
 11
200.0
 21
138.5
 31
0.0
  0
LINE
  5
103
330
FD
100
AcDbEntity
  8
LAYER1
  6
Continuous
 62
     3
370
    13
100
AcDbLine
 10
200.0
 20
138.5
 30
0.0
 11
-200.0
 21
138.5
 31
0.0
  0
LINE
  5
104
330
FD
100
AcDbEntity
  8
LAYER1
  6
Continuous
 62
     3
370
    13
100
AcDbLine
 10
-199.5
 20
138.0
 30
0.0
 11
-199.5
 21
-138.0
 31
0.0
  0
LINE
  5
105
330
FD
100
AcDbEntity
  8
LAYER1
  6
Continuous
 62
     3
370
    13
100
AcDbLine
 10
-199.5
 20
-138.0
 30
0.0
 11
199.5
 21
-138.0
 31
0.0
  0
LINE
  5
106
330
FD
100
AcDbEntity
  8
LAYER1
  6
Continuous
 62
     3
370
    13
100
AcDbLine
 10
199.5
 20
-138.0
 30
0.0
 11
199.5
 21
138.0
 31
0.0
  0
LINE
  5
107
330
FD
100
AcDbEntity
  8
LAYER1
  6
Continuous
 62
     3
370
    13
100
AcDbLine
 10
199.5
 20
138.0
 30
0.0
 11
-199.5
 21
138.0
 31
0.0
  0
LINE
  5
108
330
FD
100
AcDbEntity
  8
LAYER1
  6
Continuous
 62
     3
370
    13
100
AcDbLine
 10
199.0
 20
137.5
 30
0.0
 11
-199.0
 21
137.5
 31
0.0
  0
LINE
  5
109
330
FD
100
AcDbEntity
  8
LAYER1
  6
Continuous
 62
     3
370
    13
100
AcDbLine
 10
-199.0
 20
137.5
 30
0.0
 11
-199.0
 21
-137.5
 31
0.0
  0
LINE
  5
10A
330
FD
100
AcDbEntity
  8
LAYER1
  6
Continuous
 62
     3
370
    13
100
AcDbLine
 10
-199.0
 20
-137.5
 30
0.0
 11
199.0
 21
-137.5
 31
0.0
  0
LINE
  5
10B
330
FD
100
AcDbEntity
  8
LAYER1
  6
Continuous
 62
     3
370
    13
100
AcDbLine
 10
199.0
 20
-137.5
 30
0.0
 11
199.0
 21
137.5
 31
0.0
  0
LINE
  5
10C
330
FD
100
AcDbEntity
  8
LAYER1
  6
Continuous
 62
     3
370
    13
100
AcDbLine
 10
-199.0
 20
-117.5
 30
0.0
 11
199.0
 21
-117.5
 31
0.0
  0
LINE
  5
10D
330
FD
100
AcDbEntity
  8
LAYER1
  6
Continuous
 62
     3
370
    13
100
AcDbLine
 10
-199.0
 20
-117.0
 30
0.0
 11
199.0
 21
-117.0
 31
0.0
  0
LINE
  5
10E
330
FD
100
AcDbEntity
  8
LAYER1
  6
Continuous
 62
     3
370
    13
100
AcDbLine
 10
179.0
 20
-137.5
 30
0.0
 11
179.0
 21
-117.5
 31
0.0
  0
LINE
  5
10F
330
FD
100
AcDbEntity
  8
LAYER1
  6
Continuous
 62
     3
370
    13
100
AcDbLine
 10
96.0
 20
-137.5
 30
0.0
 11
96.0
 21
-117.5
 31
0.0
  0
LINE
  5
110
330
FD
100
AcDbEntity
  8
LAYER1
  6
Continuous
 62
     3
370
    13
100
AcDbLine
 10
71.0
 20
-137.5
 30
0.0
 11
71.0
 21
-117.5
 31
0.0
  0
LINE
  5
111
330
FD
100
AcDbEntity
  8
LAYER1
  6
Continuous
 62
     3
370
    13
100
AcDbLine
 10
46.0
 20
-137.5
 30
0.0
 11
46.0
 21
-117.5
 31
0.0
  0
LINE
  5
112
330
FD
100
AcDbEntity
  8
LAYER1
  6
Continuous
 62
     3
370
    13
100
AcDbLine
 10
21.0
 20
-137.5
 30
0.0
 11
21.0
 21
-117.5
 31
0.0
  0
LINE
  5
113
330
FD
100
AcDbEntity
  8
LAYER1
  6
Continuous
 62
     3
370
    13
100
AcDbLine
 10
-89.0
 20
-137.5
 30
0.0
 11
-89.0
 21
-117.5
 31
0.0
  0
LINE
  5
114
330
FD
100
AcDbEntity
  8
LAYER1
  6
Continuous
 62
     3
370
    13
100
AcDbLine
 10
96.0
 20
-129.5
 30
0.0
 11
179.0
 21
-129.5
 31
0.0
  0
LINE
  5
115
330
FD
100
AcDbEntity
  8
LAYER1
  6
Continuous
 62
     3
370
    13
100
AcDbLine
 10
21.0
 20
-131.5
 30
0.0
 11
96.0
 21
-131.5
 31
0.0
  0
LINE
  5
116
330
FD
100
AcDbEntity
  8
LAYER1
  6
Continuous
 62
     3
370
    13
100
AcDbLine
 10
21.0
 20
-127.5
 30
0.0
 11
-199.0
 21
-127.5
 31
0.0
  0
LINE
  5
117
330
FD
100
AcDbEntity
  8
LAYER1
  6
dotted
 62
     3
370
    13
100
AcDbLine
 10
-199.0
 20
-132.5
 30
0.0
 11
-89.0
 21
-132.5
 31
0.0
  0
ENDBLK
  5
FF
330
FD
100
AcDbEntity
  8
0
100
AcDbBlockEnd
  0
BLOCK
  5
138
330
137
100
AcDbEntity
  8
0
100
AcDbBlockBegin
  2
FcPack%d2
 70
     0
 10
0.0
 20
0.0
 30
0.0
  3
FcPack%d2
  1

  0
TEXT
  5
13A
330
137
100
AcDbEntity
  8
LAYER1
  6
Continuous
 62
     1
370
    13
100
AcDbText
 10
-18.90000000000001
 20
0.6593385019324074
 30
0.0
 40
2.24
  1
二級建築士事務所
  7
ＭＳ ゴシック
 11
-18.90000000000001
 21
0.2499999999941807
 31
0.0
100
AcDbText
 73
     1
  0
TEXT
  5
13B
330
137
100
AcDbEntity
  8
LAYER1
  6
Continuous
 62
     1
370
    13
100
AcDbText
 10
-18.90000000000001
 20
-2.640661498055951
 30
0.0
 40
2.24
  1
福岡県知事登録　第2-60683号
  7
ＭＳ ゴシック
 11
-18.90000000000001
 21
-3.049999999994178
 31
0.0
100
AcDbText
 73
     1
  0
ENDBLK
  5
139
330
137
100
AcDbEntity
  8
0
100
AcDbBlockEnd
  0
ENDSEC
  0
SECTION
  2
ENTITIES
  0
INSERT
  5
E0
330
1F
100
AcDbEntity
  8
LAYER6
  6
Continuous
 62
     1
370
    13
100
AcDbBlockReference
  2
FcPack%d0
 10
174.9672175697665
 20
169.4352635714033
 30
0.0
  0
TEXT
  5
E1
330
1F
100
AcDbEntity
  8
LAYER5
  6
Continuous
 62
     2
370
    13
100
AcDbText
 10
390.0
 20
27.43857696636239
 30
0.0
 40
2.4
  1
図
  7
ＭＳ ゴシック
 11
390.0
 21
27.0
 31
0.0
100
AcDbText
 73
     1
  0
TEXT
  5
E2
330
1F
100
AcDbEntity
  8
LAYER5
  6
Continuous
 62
     2
370
    13
100
AcDbText
 10
393.9
 20
27.43857696636239
 30
0.0
 40
2.4
  1
面
  7
ＭＳ ゴシック
 11
393.9
 21
27.0
 31
0.0
100
AcDbText
 73
     1
  0
TEXT
  5
E3
330
1F
100
AcDbEntity
  8
LAYER5
  6
Continuous
 62
     2
370
    13
100
AcDbText
 10
397.8
 20
27.43857696636239
 30
0.0
 40
2.4
  1
№
  7
ＭＳ ゴシック
 11
397.8
 21
27.0
 31
0.0
100
AcDbText
 73
     1
  0
TEXT
  5
E4
330
1F
100
AcDbEntity
  8
LAYER5
  6
Continuous
 62
     2
370
    13
100
AcDbText
 10
12.0
 20
17.43857696636239
 30
0.0
 40
2.4
  1
備
  7
ＭＳ ゴシック
 11
12.0
 21
17.0
 31
0.0
100
AcDbText
 73
     1
  0
TEXT
  5
E5
330
1F
100
AcDbEntity
  8
LAYER5
  6
Continuous
 62
     2
370
    13
100
AcDbText
 10
15.8125
 20
17.43857696636239
 30
0.0
 40
2.4
  1
考
  7
ＭＳ ゴシック
 11
15.8125
 21
17.0
 31
0.0
100
AcDbText
 73
     1
  0
TEXT
  5
E6
330
1F
100
AcDbEntity
  8
LAYER5
  6
Continuous
 62
     2
370
    13
100
AcDbText
 10
12.0
 20
27.43857696636239
 30
0.0
 40
2.4
  1
工
  7
ＭＳ ゴシック
 11
12.0
 21
27.0
 31
0.0
100
AcDbText
 73
     1
  0
TEXT
  5
E7
330
1F
100
AcDbEntity
  8
LAYER5
  6
Continuous
 62
     2
370
    13
100
AcDbText
 10
15.859375
 20
27.43857696636239
 30
0.0
 40
2.4
  1
事
  7
ＭＳ ゴシック
 11
15.859375
 21
27.0
 31
0.0
100
AcDbText
 73
     1
  0
TEXT
  5
E8
330
1F
100
AcDbEntity
  8
LAYER5
  6
Continuous
 62
     2
370
    13
100
AcDbText
 10
19.71875
 20
27.43857696636239
 30
0.0
 40
2.4
  1
名
  7
ＭＳ ゴシック
 11
19.71875
 21
27.0
 31
0.0
100
AcDbText
 73
     1
  0
TEXT
  5
E9
330
1F
100
AcDbEntity
  8
LAYER5
  6
Continuous
 62
     2
370
    13
100
AcDbText
 10
282.0
 20
27.43857696636239
 30
0.0
 40
2.4
  1
担
  7
ＭＳ ゴシック
 11
282.0
 21
27.0
 31
0.0
100
AcDbText
 73
     1
  0
TEXT
  5
EA
330
1F
100
AcDbEntity
  8
LAYER5
  6
Continuous
 62
     2
370
    13
100
AcDbText
 10
285.859375
 20
27.43857696636239
 30
0.0
 40
2.4
  1
当
  7
ＭＳ ゴシック
 11
285.859375
 21
27.0
 31
0.0
100
AcDbText
 73
     1
  0
TEXT
  5
EB
330
1F
100
AcDbEntity
  8
LAYER5
  6
Continuous
 62
     2
370
    13
100
AcDbText
 10
289.71875
 20
27.43857696636239
 30
0.0
 40
2.4
  1
者
  7
ＭＳ ゴシック
 11
289.71875
 21
27.0
 31
0.0
100
AcDbText
 73
     1
  0
TEXT
  5
EC
330
1F
100
AcDbEntity
  8
LAYER5
  6
Continuous
 62
     2
370
    13
100
AcDbText
 10
257.0
 20
27.43857696636239
 30
0.0
 40
2.4
  1
設
  7
ＭＳ ゴシック
 11
257.0
 21
27.0
 31
0.0
100
AcDbText
 73
     1
  0
TEXT
  5
ED
330
1F
100
AcDbEntity
  8
LAYER5
  6
Continuous
 62
     2
370
    13
100
AcDbText
 10
260.859375
 20
27.43857696636239
 30
0.0
 40
2.4
  1
計
  7
ＭＳ ゴシック
 11
260.859375
 21
27.0
 31
0.0
100
AcDbText
 73
     1
  0
TEXT
  5
EE
330
1F
100
AcDbEntity
  8
LAYER5
  6
Continuous
 62
     2
370
    13
100
AcDbText
 10
264.71875
 20
27.43857696636239
 30
0.0
 40
2.4
  1
者
  7
ＭＳ ゴシック
 11
264.71875
 21
27.0
 31
0.0
100
AcDbText
 73
     1
  0
TEXT
  5
EF
330
1F
100
AcDbEntity
  8
LAYER5
  6
Continuous
 62
     2
370
    13
100
AcDbText
 10
232.0
 20
27.43857696636239
 30
0.0
 40
2.4
  1
管
  7
ＭＳ ゴシック
 11
232.0
 21
27.0
 31
0.0
100
AcDbText
 73
     1
  0
TEXT
  5
F0
330
1F
100
AcDbEntity
  8
LAYER5
  6
Continuous
 62
     2
370
    13
100
AcDbText
 10
235.859375
 20
27.43857696636239
 30
0.0
 40
2.4
  1
理
  7
ＭＳ ゴシック
 11
235.859375
 21
27.0
 31
0.0
100
AcDbText
 73
     1
  0
TEXT
  5
F1
330
1F
100
AcDbEntity
  8
LAYER5
  6
Continuous
 62
     2
370
    13
100
AcDbText
 10
239.71875
 20
27.43857696636239
 30
0.0
 40
2.4
  1
者
  7
ＭＳ ゴシック
 11
239.71875
 21
27.0
 31
0.0
100
AcDbText
 73
     1
  0
TEXT
  5
F2
330
1F
100
AcDbEntity
  8
LAYER5
  6
Continuous
 62
     2
370
    13
100
AcDbText
 10
282.0
 20
14.29238464424159
 30
0.0
 40
1.6
  1
日
  7
ＭＳ ゴシック
 11
282.0
 21
14.0
 31
0.0
100
AcDbText
 73
     1
  0
TEXT
  5
F3
330
1F
100
AcDbEntity
  8
LAYER5
  6
Continuous
 62
     2
370
    13
100
AcDbText
 10
284.8125
 20
14.29238464424159
 30
0.0
 40
1.6
  1
付
  7
ＭＳ ゴシック
 11
284.8125
 21
14.0
 31
0.0
100
AcDbText
 73
     1
  0
TEXT
  5
F4
330
1F
100
AcDbEntity
  8
LAYER5
  6
Continuous
 62
     2
370
    13
100
AcDbText
 10
257.0
 20
14.29238464424159
 30
0.0
 40
1.6
  1
日
  7
ＭＳ ゴシック
 11
257.0
 21
14.0
 31
0.0
100
AcDbText
 73
     1
  0
TEXT
  5
F5
330
1F
100
AcDbEntity
  8
LAYER5
  6
Continuous
 62
     2
370
    13
100
AcDbText
 10
259.8125
 20
14.29238464424159
 30
0.0
 40
1.6
  1
付
  7
ＭＳ ゴシック
 11
259.8125
 21
14.0
 31
0.0
100
AcDbText
 73
     1
  0
TEXT
  5
F6
330
1F
100
AcDbEntity
  8
LAYER5
  6
Continuous
 62
     2
370
    13
100
AcDbText
 10
232.0
 20
14.29238464424159
 30
0.0
 40
1.6
  1
日
  7
ＭＳ ゴシック
 11
232.0
 21
14.0
 31
0.0
100
AcDbText
 73
     1
  0
TEXT
  5
F7
330
1F
100
AcDbEntity
  8
LAYER5
  6
Continuous
 62
     2
370
    13
100
AcDbText
 10
234.8125
 20
14.29238464424159
 30
0.0
 40
1.6
  1
付
  7
ＭＳ ゴシック
 11
234.8125
 21
14.0
 31
0.0
100
AcDbText
 73
     1
  0
TEXT
  5
F8
330
1F
100
AcDbEntity
  8
LAYER5
  6
Continuous
 62
     2
370
    13
100
AcDbText
 10
307.0
 20
27.43857696636239
 30
0.0
 40
2.4
  1
図
  7
ＭＳ ゴシック
 11
307.0
 21
27.0
 31
0.0
100
AcDbText
 73
     1
  0
TEXT
  5
F9
330
1F
100
AcDbEntity
  8
LAYER5
  6
Continuous
 62
     2
370
    13
100
AcDbText
 10
310.859375
 20
27.43857696636239
 30
0.0
 40
2.4
  1
面
  7
ＭＳ ゴシック
 11
310.859375
 21
27.0
 31
0.0
100
AcDbText
 73
     1
  0
TEXT
  5
FA
330
1F
100
AcDbEntity
  8
LAYER5
  6
Continuous
 62
     2
370
    13
100
AcDbText
 10
314.71875
 20
27.43857696636239
 30
0.0
 40
2.4
  1
名
  7
ＭＳ ゴシック
 11
314.71875
 21
27.0
 31
0.0
100
AcDbText
 73
     1
  0
TEXT
  5
FB
330
1F
100
AcDbEntity
  8
LAYER5
  6
Continuous
 62
     2
370
    13
100
AcDbText
 10
351.1875
 20
13.93857696636239
 30
0.0
 40
2.4
  1
縮
  7
ＭＳ ゴシック
 11
351.1875
 21
13.5
 31
0.0
100
AcDbText
 73
     1
  0
TEXT
  5
FC
330
1F
100
AcDbEntity
  8
LAYER5
  6
Continuous
 62
     2
370
    13
100
AcDbText
 10
355.0
 20
13.93857696636239
 30
0.0
 40
2.4
  1
尺
  7
ＭＳ ゴシック
 11
355.0
 21
13.5
 31
0.0
100
AcDbText
 73
     1
  0
INSERT
  5
118
330
1F
100
AcDbEntity
  8
LAYER1
  6
dotted
 62
     3
370
    13
100
AcDbBlockReference
  2
FcPack%d1
 10
210.0
 20
148.5
 30
0.0
  0
TEXT
  5
119
330
1F
100
AcDbEntity
  8
LAYER7
  6
Continuous
 62
     1
370
    13
100
AcDbText
 10
11.0
 20
24.71977484977919
 30
0.0
 40
2.894736842105264
  1
福
  7
ＭＳ ゴシック
 11
11.0
 21
24.19078947368421
 31
0.0
100
AcDbText
 73
     1
  0
TEXT
  5
11A
330
1F
100
AcDbEntity
  8
LAYER7
  6
Continuous
 62
     1
370
    13
100
AcDbText
 10
16.78947368421053
 20
24.71977484977919
 30
0.0
 40
2.894736842105264
  1
岡
  7
ＭＳ ゴシック
 11
16.78947368421053
 21
24.19078947368421
 31
0.0
100
AcDbText
 73
     1
  0
TEXT
  5
11B
330
1F
100
AcDbEntity
  8
LAYER7
  6
Continuous
 62
     1
370
    13
100
AcDbText
 10
22.57894736842105
 20
24.71977484977919
 30
0.0
 40
2.894736842105264
  1
市
  7
ＭＳ ゴシック
 11
22.57894736842105
 21
24.19078947368421
 31
0.0
100
AcDbText
 73
     1
  0
TEXT
  5
11C
330
1F
100
AcDbEntity
  8
LAYER7
  6
Continuous
 62
     1
370
    13
100
AcDbText
 10
28.36842105263158
 20
24.71977484977919
 30
0.0
 40
2.894736842105264
  1
早
  7
ＭＳ ゴシック
 11
28.36842105263158
 21
24.19078947368421
 31
0.0
100
AcDbText
 73
     1
  0
TEXT
  5
11D
330
1F
100
AcDbEntity
  8
LAYER7
  6
Continuous
 62
     1
370
    13
100
AcDbText
 10
34.15789473684211
 20
24.71977484977919
 30
0.0
 40
2.894736842105264
  1
良
  7
ＭＳ ゴシック
 11
34.15789473684211
 21
24.19078947368421
 31
0.0
100
AcDbText
 73
     1
  0
TEXT
  5
11E
330
1F
100
AcDbEntity
  8
LAYER7
  6
Continuous
 62
     1
370
    13
100
AcDbText
 10
39.94736842105264
 20
24.71977484977919
 30
0.0
 40
2.894736842105264
  1
区
  7
ＭＳ ゴシック
 11
39.94736842105264
 21
24.19078947368421
 31
0.0
100
AcDbText
 73
     1
  0
TEXT
  5
11F
330
1F
100
AcDbEntity
  8
LAYER7
  6
Continuous
 62
     1
370
    13
100
AcDbText
 10
45.73684210526316
 20
24.71977484977919
 30
0.0
 40
2.894736842105264
  1
飯
  7
ＭＳ ゴシック
 11
45.73684210526316
 21
24.19078947368421
 31
0.0
100
AcDbText
 73
     1
  0
TEXT
  5
120
330
1F
100
AcDbEntity
  8
LAYER7
  6
Continuous
 62
     1
370
    13
100
AcDbText
 10
51.52631578947369
 20
24.71977484977919
 30
0.0
 40
2.894736842105264
  1
倉
  7
ＭＳ ゴシック
 11
51.52631578947369
 21
24.19078947368421
 31
0.0
100
AcDbText
 73
     1
  0
TEXT
  5
121
330
1F
100
AcDbEntity
  8
LAYER7
  6
Continuous
 62
     1
370
    13
100
AcDbText
 10
57.31578947368422
 20
24.71977484977919
 30
0.0
 40
2.894736842105264
  1
8
  7
ＭＳ ゴシック
 11
57.31578947368422
 21
24.19078947368421
 31
0.0
100
AcDbText
 73
     1
  0
TEXT
  5
122
330
1F
100
AcDbEntity
  8
LAYER7
  6
Continuous
 62
     1
370
    13
100
AcDbText
 10
61.29605263157896
 20
24.71977484977919
 30
0.0
 40
2.894736842105264
  1
丁
  7
ＭＳ ゴシック
 11
61.29605263157896
 21
24.19078947368421
 31
0.0
100
AcDbText
 73
     1
  0
TEXT
  5
123
330
1F
100
AcDbEntity
  8
LAYER7
  6
Continuous
 62
     1
370
    13
100
AcDbText
 10
67.08552631578948
 20
24.71977484977919
 30
0.0
 40
2.894736842105264
  1
目
  7
ＭＳ ゴシック
 11
67.08552631578948
 21
24.19078947368421
 31
0.0
100
AcDbText
 73
     1
  0
TEXT
  5
124
330
1F
100
AcDbEntity
  8
LAYER7
  6
Continuous
 62
     1
370
    13
100
AcDbText
 10
72.87500000000001
 20
24.71977484977919
 30
0.0
 40
2.894736842105264
  1
1
  7
ＭＳ ゴシック
 11
72.87500000000001
 21
24.19078947368421
 31
0.0
100
AcDbText
 73
     1
  0
TEXT
  5
125
330
1F
100
AcDbEntity
  8
LAYER7
  6
Continuous
 62
     1
370
    13
100
AcDbText
 10
76.85526315789474
 20
24.71977484977919
 30
0.0
 40
2.894736842105264
  1
号
  7
ＭＳ ゴシック
 11
76.85526315789474
 21
24.19078947368421
 31
0.0
100
AcDbText
 73
     1
  0
TEXT
  5
126
330
1F
100
AcDbEntity
  8
LAYER7
  6
Continuous
 62
     1
370
    13
100
AcDbText
 10
82.64473684210527
 20
24.71977484977919
 30
0.0
 40
2.894736842105264
  1
地
  7
ＭＳ ゴシック
 11
82.64473684210527
 21
24.19078947368421
 31
0.0
100
AcDbText
 73
     1
  0
TEXT
  5
127
330
1F
100
AcDbEntity
  8
LAYER7
  6
Continuous
 62
     1
370
    13
100
AcDbText
 10
88.43421052631581
 20
24.71977484977919
 30
0.0
 40
2.894736842105264
  1
様
  7
ＭＳ ゴシック
 11
88.43421052631581
 21
24.19078947368421
 31
0.0
100
AcDbText
 73
     1
  0
TEXT
  5
128
330
1F
100
AcDbEntity
  8
LAYER7
  6
Continuous
 62
     1
370
    13
100
AcDbText
 10
94.22368421052634
 20
24.71977484977919
 30
0.0
 40
2.894736842105264
  1
邸
  7
ＭＳ ゴシック
 11
94.22368421052634
 21
24.19078947368421
 31
0.0
100
AcDbText
 73
     1
  0
TEXT
  5
129
330
1F
100
AcDbEntity
  8
LAYER7
  6
Continuous
 62
     1
370
    13
100
AcDbText
 10
100.0131578947369
 20
24.71977484977919
 30
0.0
 40
2.894736842105264
  1
新
  7
ＭＳ ゴシック
 11
100.0131578947369
 21
24.19078947368421
 31
0.0
100
AcDbText
 73
     1
  0
TEXT
  5
12A
330
1F
100
AcDbEntity
  8
LAYER7
  6
Continuous
 62
     1
370
    13
100
AcDbText
 10
105.8026315789474
 20
24.71977484977919
 30
0.0
 40
2.894736842105264
  1
築
  7
ＭＳ ゴシック
 11
105.8026315789474
 21
24.19078947368421
 31
0.0
100
AcDbText
 73
     1
  0
TEXT
  5
12B
330
1F
100
AcDbEntity
  8
LAYER7
  6
Continuous
 62
     1
370
    13
100
AcDbText
 10
111.5921052631579
 20
24.71977484977919
 30
0.0
 40
2.894736842105264
  1
工
  7
ＭＳ ゴシック
 11
111.5921052631579
 21
24.19078947368421
 31
0.0
100
AcDbText
 73
     1
  0
TEXT
  5
12C
330
1F
100
AcDbEntity
  8
LAYER7
  6
Continuous
 62
     1
370
    13
100
AcDbText
 10
117.3815789473685
 20
24.71977484977919
 30
0.0
 40
2.894736842105264
  1
事
  7
ＭＳ ゴシック
 11
117.3815789473685
 21
24.19078947368421
 31
0.0
100
AcDbText
 73
     1
  0
TEXT
  5
12D
330
1F
100
AcDbEntity
  8
LAYER7
  6
Continuous
 62
     1
370
    13
100
AcDbText
 10
397.75
 20
19.23096161060398
 30
0.0
 40
4.0
  1
2
  7
ＭＳ ゴシック
 11
397.75
 21
18.5
 31
0.0
100
AcDbText
 73
     1
  0
TEXT
  5
12E
330
1F
100
AcDbEntity
  8
LAYER7
  6
Continuous
 62
     1
370
    13
100
AcDbText
 10
341.167
 20
23.58476928848318
 30
0.0
 40
3.2
  1
配
  7
ＭＳ ゴシック
 11
341.167
 21
23.0
 31
0.0
100
AcDbText
 73
     1
  0
TEXT
  5
12F
330
1F
100
AcDbEntity
  8
LAYER7
  6
Continuous
 62
     1
370
    13
100
AcDbText
 10
345.5
 20
23.58476928848318
 30
0.0
 40
3.2
  1
置
  7
ＭＳ ゴシック
 11
345.5
 21
23.0
 31
0.0
100
AcDbText
 73
     1
  0
TEXT
  5
130
330
1F
100
AcDbEntity
  8
LAYER7
  6
Continuous
 62
     1
370
    13
100
AcDbText
 10
349.833
 20
23.58476928848318
 30
0.0
 40
3.2
  1
図
  7
ＭＳ ゴシック
 11
349.833
 21
23.0
 31
0.0
100
AcDbText
 73
     1
  0
TEXT
  5
131
330
1F
100
AcDbEntity
  8
LAYER7
  6
Continuous
 62
     1
370
    13
100
AcDbText
 10
370.624
 20
13.93857696636239
 30
0.0
 40
2.4
  1
1
  7
ＭＳ ゴシック
 11
370.624
 21
13.5
 31
0.0
100
AcDbText
 73
     1
  0
TEXT
  5
132
330
1F
100
AcDbEntity
  8
LAYER7
  6
Continuous
 62
     1
370
    13
100
AcDbText
 10
371.937
 20
13.93857696636239
 30
0.0
 40
2.4
  1
/
  7
ＭＳ ゴシック
 11
371.937
 21
13.5
 31
0.0
100
AcDbText
 73
     1
  0
TEXT
  5
133
330
1F
100
AcDbEntity
  8
LAYER7
  6
Continuous
 62
     1
370
    13
100
AcDbText
 10
373.25
 20
13.93857696636239
 30
0.0
 40
2.4
  1
1
  7
ＭＳ ゴシック
 11
373.25
 21
13.5
 31
0.0
100
AcDbText
 73
     1
  0
TEXT
  5
134
330
1F
100
AcDbEntity
  8
LAYER7
  6
Continuous
 62
     1
370
    13
100
AcDbText
 10
374.563
 20
13.93857696636239
 30
0.0
 40
2.4
  1
0
  7
ＭＳ ゴシック
 11
374.563
 21
13.5
 31
0.0
100
AcDbText
 73
     1
  0
TEXT
  5
135
330
1F
100
AcDbEntity
  8
LAYER7
  6
Continuous
 62
     1
370
    13
100
AcDbText
 10
375.876
 20
13.93857696636239
 30
0.0
 40
2.4
  1
0
  7
ＭＳ ゴシック
 11
375.876
 21
13.5
 31
0.0
100
AcDbText
 73
     1
  0
TEXT
  5
136
330
1F
100
AcDbEntity
  8
LAYER7
  6
Continuous
 62
     1
370
    13
100
AcDbText
 10
140.7499138406383
 20
23.52512726770282
 30
0.0
 40
4.0
  1
株式会社　M-style
  7
ＭＳ ゴシック
 11
140.7499138406383
 21
25.52512726770282
 31
0.0
100
AcDbText
 73
     2
  0
INSERT
  5
13C
330
1F
100
AcDbEntity
  8
LAYER1
  6
Continuous
 62
     1
370
    13
100
AcDbBlockReference
  2
FcPack%d2
 10
210.6792315379156
 20
25.89719575748422
 30
0.0
  0
TEXT
  5
13D
330
1F
100
AcDbEntity
  8
LAYER1
  6
Continuous
 62
     1
370
    13
100
AcDbText
 10
173.1575228964175
 20
14.83157110582059
 30
0.0
 40
2.24
  1
二級建築士　奈良県知事登録　第7593号
  7
ＭＳ ゴシック
 11
173.1575228964175
 21
14.42223260388236
 31
0.0
100
AcDbText
 73
     1
  0
TEXT
  5
13E
330
1F
100
AcDbEntity
  8
LAYER1
  6
Continuous
 62
     6
370
    13
100
AcDbText
 10
140.2122794320421
 20
15.03013392515667
 30
0.0
 40
2.24
  1
代表取締役　三宅正隆
  7
ＭＳ ゴシック
 11
140.2122794320421
 21
14.62079542321844
 31
0.0
100
AcDbText
 73
     1
  0
ENDSEC
  0
SECTION
  2
OBJECTS
  0
DICTIONARY
  5
C
330
0
100
AcDbDictionary
281
     1
  3
ACAD_DETAILVIEWSTYLE
350
146
  3
ACAD_GROUP
350
D
  3
ACAD_LAYOUT
350
1A
  3
ACAD_MATERIAL
350
43
  3
ACAD_MLEADERSTYLE
350
6B
  3
ACAD_MLINESTYLE
350
17
  3
ACAD_PLOTSETTINGS
350
19
  3
ACAD_PLOTSTYLENAME
350
E
  3
ACAD_SCALELIST
350
47
  3
ACAD_SECTIONVIEWSTYLE
350
147
  3
ACAD_TABLESTYLE
350
69
  3
ACAD_VISUALSTYLE
350
2A
  3
ACDB_RECOMPOSE_DATA
350
143
  3
AcDbVariableDictionary
350
13F
  0
SUN
  5
6D
330
29
100
AcDbSun
 90
        1
290
     0
 63
     7
421
 16777215
 40
1.0
291
     1
 91
  2455826
 92
 54000000
292
     0
 70
     2
 71
   256
280
     1
  0
DICTIONARY
  5
146
102
{ACAD_REACTORS
330
C
102
}
330
C
100
AcDbDictionary
281
     1
  0
DICTIONARY
  5
D
102
{ACAD_REACTORS
330
C
102
}
330
C
100
AcDbDictionary
281
     1
  0
DICTIONARY
  5
1A
102
{ACAD_REACTORS
330
C
102
}
330
C
100
AcDbDictionary
281
     1
  3
Layout1
350
1E
  3
Layout2
350
26
  3
Model
350
22
  0
DICTIONARY
  5
43
102
{ACAD_REACTORS
330
C
102
}
330
C
100
AcDbDictionary
281
     1
  3
ByBlock
350
45
  3
ByLayer
350
44
  3
Global
350
46
  0
DICTIONARY
  5
6B
102
{ACAD_REACTORS
330
C
102
}
330
C
100
AcDbDictionary
281
     1
  3
Standard
350
6C
  0
DICTIONARY
  5
17
102
{ACAD_REACTORS
330
C
102
}
330
C
100
AcDbDictionary
281
     1
  3
Standard
350
18
  0
DICTIONARY
  5
19
102
{ACAD_REACTORS
330
C
102
}
330
C
100
AcDbDictionary
281
     1
  0
ACDBDICTIONARYWDFLT
  5
E
102
{ACAD_REACTORS
330
C
102
}
330
C
100
AcDbDictionary
281
     1
  3
Normal
350
F
100
AcDbDictionaryWithDefault
340
F
  0
DICTIONARY
  5
47
102
{ACAD_REACTORS
330
C
102
}
330
C
100
AcDbDictionary
281
     1
  3
A0
350
48
  3
A1
350
49
  3
A2
350
4A
  3
A3
350
4B
  3
A4
350
4C
  3
A5
350
4D
  3
A6
350
4E
  3
A7
350
4F
  3
A8
350
50
  3
A9
350
51
  3
B0
350
52
  3
B1
350
53
  3
B2
350
54
  3
B3
350
55
  3
B4
350
56
  3
B5
350
57
  3
B6
350
58
  3
B7
350
59
  3
B8
350
5A
  3
B9
350
5B
  3
C0
350
5C
  3
C1
350
5D
  3
C2
350
5E
  3
C3
350
5F
  3
C4
350
60
  3
C5
350
61
  3
C6
350
62
  3
C7
350
63
  3
C8
350
64
  3
C9
350
65
  3
D0
350
66
  3
D1
350
67
  3
D2
350
68
  0
DICTIONARY
  5
147
102
{ACAD_REACTORS
330
C
102
}
330
C
100
AcDbDictionary
281
     1
  0
DICTIONARY
  5
69
102
{ACAD_REACTORS
330
C
102
}
330
C
100
AcDbDictionary
281
     1
  3
Standard
350
6A
  0
DICTIONARY
  5
2A
102
{ACAD_REACTORS
330
C
102
}
330
C
100
AcDbDictionary
281
     1
  3
2dWireframe
350
2F
  3
Basic
350
32
  3
Brighten
350
36
  3
ColorChange
350
3A
  3
Conceptual
350
34
  3
Dim
350
35
  3
EdgeColorOff
350
3D
  3
Facepattern
350
39
  3
Flat
350
2B
  3
FlatWithEdges
350
2C
  3
Gouraud
350
2D
  3
GouraudWithEdges
350
2E
  3
Hidden
350
31
  3
JitterOff
350
3B
  3
Linepattern
350
38
  3
OverhangOff
350
3C
  3
Realistic
350
33
  3
Shaded
350
42
  3
Shaded with edges
350
41
  3
Shades of Gray
350
3E
  3
Sketchy
350
3F
  3
Thicken
350
37
  3
Wireframe
350
30
  3
X-Ray
350
40
  0
XRECORD
  5
143
102
{ACAD_REACTORS
330
C
102
}
330
C
100
AcDbXrecord
280
     1
 90
        1
330
6A
  0
DICTIONARY
  5
13F
102
{ACAD_REACTORS
330
C
102
}
330
C
100
AcDbDictionary
281
     1
  3
CANNOSCALE
350
140
  3
CENTEREXE
350
148
  3
CENTERLTYPEFILE
350
149
  3
CMLEADERSTYLE
350
145
  3
CTABLESTYLE
350
144
  0
LAYOUT
  5
1E
102
{ACAD_REACTORS
330
1A
102
}
330
1A
100
AcDbPlotSettings
  1

  2
none_device
  4

  6

 40
0.0
 41
0.0
 42
0.0
 43
0.0
 44
0.0
 45
0.0
 46
0.0
 47
0.0
 48
0.0
 49
0.0
140
0.0
141
0.0
142
1.0
143
1.0
 70
   688
 72
     1
 73
     0
 74
     5
  7

 75
    16
 76
     0
 77
     2
 78
   300
147
1.0
148
0.0
149
0.0
100
AcDbLayout
  1
Layout1
 70
     1
 71
     1
 10
0.0
 20
0.0
 11
420.0
 21
297.0
 12
0.0
 22
0.0
 32
0.0
 14
1.000000000000000E+20
 24
1.000000000000000E+20
 34
1.000000000000000E+20
 15
-1.000000000000000E+20
 25
-1.000000000000000E+20
 35
-1.000000000000000E+20
146
0.0
 13
0.0
 23
0.0
 33
0.0
 16
1.0
 26
0.0
 36
0.0
 17
0.0
 27
1.0
 37
0.0
 76
     0
330
1B
  0
LAYOUT
  5
26
102
{ACAD_REACTORS
330
1A
102
}
330
1A
100
AcDbPlotSettings
  1

  2
none_device
  4

  6

 40
0.0
 41
0.0
 42
0.0
 43
0.0
 44
0.0
 45
0.0
 46
0.0
 47
0.0
 48
0.0
 49
0.0
140
0.0
141
0.0
142
1.0
143
1.0
 70
   688
 72
     1
 73
     0
 74
     5
  7

 75
    16
 76
     0
 77
     2
 78
   300
147
1.0
148
0.0
149
0.0
100
AcDbLayout
  1
Layout2
 70
     1
 71
     2
 10
0.0
 20
0.0
 11
0.0
 21
0.0
 12
0.0
 22
0.0
 32
0.0
 14
0.0
 24
0.0
 34
0.0
 15
0.0
 25
0.0
 35
0.0
146
0.0
 13
0.0
 23
0.0
 33
0.0
 16
1.0
 26
0.0
 36
0.0
 17
0.0
 27
1.0
 37
0.0
 76
     0
330
23
  0
LAYOUT
  5
22
102
{ACAD_REACTORS
330
1A
102
}
330
1A
100
AcDbPlotSettings
  1

  2
none_device
  4
Letter_(8.50_x_11.00_Inches)
  6

 40
6.35
 41
6.35
 42
6.35000508
 43
6.35000508
 44
215.9
 45
279.4
 46
0.0
 47
0.0
 48
0.0
 49
0.0
140
0.0
141
0.0
142
1.0
143
1.0
 70
  1712
 72
     1
 73
     0
 74
     0
  7

 75
     0
 76
     0
 77
     2
 78
   300
147
1.0
148
0.0
149
0.0
100
AcDbLayout
  1
Model
 70
     1
 71
     0
 10
10.0
 20
10.0
 11
410.0
 21
287.0
 12
0.0
 22
0.0
 32
0.0
 14
10.0
 24
10.0
 34
0.0
 15
410.0
 25
287.0
 35
0.0
146
0.0
 13
0.0
 23
0.0
 33
0.0
 16
1.0
 26
0.0
 36
0.0
 17
0.0
 27
1.0
 37
0.0
 76
     0
330
1F
331
29
  0
MATERIAL
  5
45
102
{ACAD_REACTORS
330
43
102
}
330
43
100
AcDbMaterial
  1
ByBlock
 72
     1
 94
      127
  0
MATERIAL
  5
44
102
{ACAD_REACTORS
330
43
102
}
330
43
100
AcDbMaterial
  1
ByLayer
 72
     1
 94
      127
  0
MATERIAL
  5
46
102
{ACAD_REACTORS
330
43
102
}
330
43
100
AcDbMaterial
  1
Global
 72
     1
 94
      127
  0
MLEADERSTYLE
  5
6C
102
{ACAD_REACTORS
330
6B
102
}
330
6B
100
AcDbMLeaderStyle
179
     2
170
     2
171
     1
172
     0
 90
        2
 40
0.0
 41
0.0
173
     1
 91
-1056964608
340
14
 92
       -2
290
     1
 42
2.0
291
     1
 43
8.0
  3
Standard
341
0
 44
4.0
300

342
11
174
     1
178
     6
175
     1
176
     0
 93
-1056964608
 45
4.0
292
     0
297
     0
 46
4.0
343
0
 94
-1056964608
 47
1.0
 49
1.0
140
1.0
293
     1
141
0.0
294
     1
177
     0
142
1.0
295
     0
296
     0
143
3.75
271
     0
272
     9
273
     9
298
     0
  0
MLINESTYLE
  5
18
102
{ACAD_REACTORS
330
17
102
}
330
17
100
AcDbMlineStyle
  2
Standard
 70
     0
  3

 62
   256
 51
90.0
 52
90.0
 71
     2
 49
0.5
 62
   256
  6
BYLAYER
 49
-0.5
 62
   256
  6
BYLAYER
  0
ACDBPLACEHOLDER
  5
F
102
{ACAD_REACTORS
330
E
102
}
330
E
  0
SCALE
  5
48
102
{ACAD_REACTORS
330
47
102
}
330
47
100
AcDbScale
 70
     0
300
1:1
140
1.0
141
1.0
290
     1
  0
SCALE
  5
49
102
{ACAD_REACTORS
330
47
102
}
330
47
100
AcDbScale
 70
     0
300
1:2
140
1.0
141
2.0
290
     0
  0
SCALE
  5
4A
102
{ACAD_REACTORS
330
47
102
}
330
47
100
AcDbScale
 70
     0
300
1:4
140
1.0
141
4.0
290
     0
  0
SCALE
  5
4B
102
{ACAD_REACTORS
330
47
102
}
330
47
100
AcDbScale
 70
     0
300
1:5
140
1.0
141
5.0
290
     0
  0
SCALE
  5
4C
102
{ACAD_REACTORS
330
47
102
}
330
47
100
AcDbScale
 70
     0
300
1:8
140
1.0
141
8.0
290
     0
  0
SCALE
  5
4D
102
{ACAD_REACTORS
330
47
102
}
330
47
100
AcDbScale
 70
     0
300
1:10
140
1.0
141
10.0
290
     0
  0
SCALE
  5
4E
102
{ACAD_REACTORS
330
47
102
}
330
47
100
AcDbScale
 70
     0
300
1:16
140
1.0
141
16.0
290
     0
  0
SCALE
  5
4F
102
{ACAD_REACTORS
330
47
102
}
330
47
100
AcDbScale
 70
     0
300
1:20
140
1.0
141
20.0
290
     0
  0
SCALE
  5
50
102
{ACAD_REACTORS
330
47
102
}
330
47
100
AcDbScale
 70
     0
300
1:30
140
1.0
141
30.0
290
     0
  0
SCALE
  5
51
102
{ACAD_REACTORS
330
47
102
}
330
47
100
AcDbScale
 70
     0
300
1:40
140
1.0
141
40.0
290
     0
  0
SCALE
  5
52
102
{ACAD_REACTORS
330
47
102
}
330
47
100
AcDbScale
 70
     0
300
1:50
140
1.0
141
50.0
290
     0
  0
SCALE
  5
53
102
{ACAD_REACTORS
330
47
102
}
330
47
100
AcDbScale
 70
     0
300
1:100
140
1.0
141
100.0
290
     0
  0
SCALE
  5
54
102
{ACAD_REACTORS
330
47
102
}
330
47
100
AcDbScale
 70
     0
300
2:1
140
2.0
141
1.0
290
     0
  0
SCALE
  5
55
102
{ACAD_REACTORS
330
47
102
}
330
47
100
AcDbScale
 70
     0
300
4:1
140
4.0
141
1.0
290
     0
  0
SCALE
  5
56
102
{ACAD_REACTORS
330
47
102
}
330
47
100
AcDbScale
 70
     0
300
8:1
140
8.0
141
1.0
290
     0
  0
SCALE
  5
57
102
{ACAD_REACTORS
330
47
102
}
330
47
100
AcDbScale
 70
     0
300
10:1
140
10.0
141
1.0
290
     0
  0
SCALE
  5
58
102
{ACAD_REACTORS
330
47
102
}
330
47
100
AcDbScale
 70
     0
300
100:1
140
100.0
141
1.0
290
     0
  0
SCALE
  5
59
102
{ACAD_REACTORS
330
47
102
}
330
47
100
AcDbScale
 70
     0
300
1/128" = 1'-0"
140
0.0078125
141
12.0
290
     0
  0
SCALE
  5
5A
102
{ACAD_REACTORS
330
47
102
}
330
47
100
AcDbScale
 70
     0
300
1/64" = 1'-0"
140
0.015625
141
12.0
290
     0
  0
SCALE
  5
5B
102
{ACAD_REACTORS
330
47
102
}
330
47
100
AcDbScale
 70
     0
300
1/32" = 1'-0"
140
0.03125
141
12.0
290
     0
  0
SCALE
  5
5C
102
{ACAD_REACTORS
330
47
102
}
330
47
100
AcDbScale
 70
     0
300
1/16" = 1'-0"
140
0.0625
141
12.0
290
     0
  0
SCALE
  5
5D
102
{ACAD_REACTORS
330
47
102
}
330
47
100
AcDbScale
 70
     0
300
3/32" = 1'-0"
140
0.09375
141
12.0
290
     0
  0
SCALE
  5
5E
102
{ACAD_REACTORS
330
47
102
}
330
47
100
AcDbScale
 70
     0
300
1/8" = 1'-0"
140
0.125
141
12.0
290
     0
  0
SCALE
  5
5F
102
{ACAD_REACTORS
330
47
102
}
330
47
100
AcDbScale
 70
     0
300
3/16" = 1'-0"
140
0.1875
141
12.0
290
     0
  0
SCALE
  5
60
102
{ACAD_REACTORS
330
47
102
}
330
47
100
AcDbScale
 70
     0
300
1/4" = 1'-0"
140
0.25
141
12.0
290
     0
  0
SCALE
  5
61
102
{ACAD_REACTORS
330
47
102
}
330
47
100
AcDbScale
 70
     0
300
3/8" = 1'-0"
140
0.375
141
12.0
290
     0
  0
SCALE
  5
62
102
{ACAD_REACTORS
330
47
102
}
330
47
100
AcDbScale
 70
     0
300
1/2" = 1'-0"
140
0.5
141
12.0
290
     0
  0
SCALE
  5
63
102
{ACAD_REACTORS
330
47
102
}
330
47
100
AcDbScale
 70
     0
300
3/4" = 1'-0"
140
0.75
141
12.0
290
     0
  0
SCALE
  5
64
102
{ACAD_REACTORS
330
47
102
}
330
47
100
AcDbScale
 70
     0
300
1" = 1'-0"
140
1.0
141
12.0
290
     0
  0
SCALE
  5
65
102
{ACAD_REACTORS
330
47
102
}
330
47
100
AcDbScale
 70
     0
300
1-1/2" = 1'-0"
140
1.5
141
12.0
290
     0
  0
SCALE
  5
66
102
{ACAD_REACTORS
330
47
102
}
330
47
100
AcDbScale
 70
     0
300
3" = 1'-0"
140
3.0
141
12.0
290
     0
  0
SCALE
  5
67
102
{ACAD_REACTORS
330
47
102
}
330
47
100
AcDbScale
 70
     0
300
6" = 1'-0"
140
6.0
141
12.0
290
     0
  0
SCALE
  5
68
102
{ACAD_REACTORS
330
47
102
}
330
47
100
AcDbScale
 70
     0
300
1'-0" = 1'-0"
140
12.0
141
12.0
290
     0
  0
TABLESTYLE
  5
6A
102
{ACAD_REACTORS
330
69
102
}
102
{ACAD_XDICTIONARY
360
141
102
}
330
69
100
AcDbTableStyle
  3
Standard
 70
     0
 71
     0
 40
0.06
 41
0.06
280
     0
281
     0
  7
Standard
140
4.5
170
     2
 62
     0
 63
   257
283
     0
 90
        4
 91
        0
  1

274
    -2
284
     1
 64
     0
275
    -2
285
     1
 65
     0
276
    -2
286
     1
 66
     0
277
    -2
287
     1
 67
     0
278
    -2
288
     1
 68
     0
279
    -2
289
     1
 69
     0
  7
Standard
140
6.0
170
     5
 62
     0
 63
   257
283
     0
 90
        4
 91
        0
  1

274
    -2
284
     1
 64
     0
275
    -2
285
     1
 65
     0
276
    -2
286
     1
 66
     0
277
    -2
287
     1
 67
     0
278
    -2
288
     1
 68
     0
279
    -2
289
     1
 69
     0
  7
Standard
140
4.5
170
     5
 62
     0
 63
   257
283
     0
 90
        4
 91
        0
  1

274
    -2
284
     1
 64
     0
275
    -2
285
     1
 65
     0
276
    -2
286
     1
 66
     0
277
    -2
287
     1
 67
     0
278
    -2
288
     1
 68
     0
279
    -2
289
     1
 69
     0
  0
VISUALSTYLE
  5
2F
102
{ACAD_REACTORS
330
2A
102
}
330
2A
100
AcDbVisualStyle
  2
2dWireframe
 70
     4
177
     3
291
     0
 70
    58
 90
        0
176
     1
 90
        2
176
     1
 90
        0
176
     1
 90
        0
176
     1
 40
0.6
176
     1
 40
30.0
176
     1
 62
     7
420
 16777215
176
     1
 90
        1
176
     1
 90
        4
176
     1
 62
     7
176
     1
 62
   257
176
     1
 90
        1
176
     1
 90
        1
176
     1
 40
1.0
176
     1
 90
        0
176
     1
 62
   257
176
     1
 40
1.0
176
     1
 90
        1
176
     1
 90
        6
176
     1
 90
        2
176
     1
 62
     7
176
     1
 90
        5
176
     1
 90
        0
176
     1
 90
        0
176
     1
290
     0
176
     1
 90
        1
176
     1
 40
0.0
176
     1
 90
        0
176
     1
290
     1
176
     1
290
     1
176
     1
290
     0
176
     1
290
     0
176
     1
290
     0
176
     1
290
     0
176
     1
290
     0
176
     1
290
     0
176
     1
290
     0
176
     1
 90
       50
176
     1
 40
0.0
176
     1
 40
1.0
176
     1
 90
        0
176
     1
 62
    18
420
        0
176
     1
 90
       50
176
     1
 90
        3
176
     1
 62
     5
420
      255
176
     1
290
     0
176
     1
 90
       50
176
     1
 90
       50
176
     1
 90
       50
176
     1
290
     0
176
     1
 90
       50
176
     1
 62
   256
176
     0
 40
1.0
176
     0
 90
        2
176
     1
  1
strokes_ogs.tif
176
     1
290
     0
176
     1
 40
1.0
176
     1
 40
1.0
176
     1
  0
VISUALSTYLE
  5
32
102
{ACAD_REACTORS
330
2A
102
}
330
2A
100
AcDbVisualStyle
  2
Basic
 70
     7
177
     3
291
     1
 70
    58
 90
        1
176
     1
 90
        0
176
     1
 90
        1
176
     1
 90
        0
176
     1
 40
0.6
176
     1
 40
30.0
176
     1
 62
     7
420
 16777215
176
     1
 90
        0
176
     1
 90
        4
176
     1
 62
     7
176
     1
 62
   257
176
     1
 90
        1
176
     1
 90
        1
176
     1
 40
1.0
176
     1
 90
        8
176
     1
 62
     7
176
     1
 40
1.0
176
     1
 90
        1
176
     1
 90
        6
176
     1
 90
        2
176
     1
 62
     7
176
     1
 90
        5
176
     1
 90
        0
176
     1
 90
        0
176
     1
290
     0
176
     1
 90
        1
176
     1
 40
0.0
176
     1
 90
        0
176
     1
290
     0
176
     1
290
     1
176
     1
290
     1
176
     1
290
     0
176
     1
290
     0
176
     1
290
     0
176
     1
290
     0
176
     1
290
     0
176
     1
290
     0
176
     1
 90
       50
176
     1
 40
0.0
176
     1
 40
1.0
176
     1
 90
        0
176
     1
 62
    18
420
        0
176
     1
 90
       50
176
     1
 90
        3
176
     1
 62
     5
420
      255
176
     1
290
     0
176
     1
 90
       50
176
     1
 90
       50
176
     1
 90
       50
176
     1
290
     0
176
     1
 90
       50
176
     1
 62
   256
176
     0
 40
1.0
176
     0
 90
        2
176
     1
  1
strokes_ogs.tif
176
     1
290
     0
176
     1
 40
1.0
176
     1
 40
1.0
176
     1
  0
VISUALSTYLE
  5
36
102
{ACAD_REACTORS
330
2A
102
}
330
2A
100
AcDbVisualStyle
  2
Brighten
 70
    12
177
     3
291
     1
 70
    58
 90
        2
176
     1
 90
        2
176
     1
 90
        0
176
     1
 90
        0
176
     1
 40
0.6
176
     1
 40
30.0
176
     1
 62
     7
420
 16777215
176
     1
 90
        1
176
     1
 90
        4
176
     1
 62
     7
176
     1
 62
   257
176
     1
 90
        1
176
     1
 90
        1
176
     1
 40
1.0
176
     1
 90
        8
176
     1
 62
     7
176
     1
 40
1.0
176
     1
 90
        1
176
     1
 90
        6
176
     1
 90
        2
176
     1
 62
     7
176
     1
 90
        5
176
     1
 90
        0
176
     1
 90
        0
176
     1
290
     0
176
     1
 90
        1
176
     1
 40
50.0
176
     1
 90
        0
176
     1
290
     0
176
     1
290
     1
176
     1
290
     1
176
     1
290
     0
176
     1
290
     0
176
     1
290
     0
176
     1
290
     0
176
     1
290
     0
176
     1
290
     0
176
     1
 90
       50
176
     1
 40
0.0
176
     1
 40
1.0
176
     1
 90
        0
176
     1
 62
    18
420
        0
176
     1
 90
       50
176
     1
 90
        3
176
     1
 62
     5
420
      255
176
     1
290
     0
176
     1
 90
       50
176
     1
 90
       50
176
     1
 90
       50
176
     1
290
     0
176
     1
 90
       50
176
     1
 62
   256
176
     0
 40
1.0
176
     0
 90
        2
176
     1
  1
strokes_ogs.tif
176
     1
290
     0
176
     1
 40
1.0
176
     1
 40
1.0
176
     1
  0
VISUALSTYLE
  5
3A
102
{ACAD_REACTORS
330
2A
102
}
330
2A
100
AcDbVisualStyle
  2
ColorChange
 70
    16
177
     3
291
     1
 70
    58
 90
        2
176
     1
 90
        2
176
     1
 90
        3
176
     1
 90
        0
176
     1
 40
0.6
176
     1
 40
30.0
176
     1
 62
     8
420
  8421504
176
     1
 90
        1
176
     1
 90
        4
176
     1
 62
     7
176
     1
 62
   257
176
     1
 90
        1
176
     1
 90
        1
176
     1
 40
1.0
176
     1
 90
        8
176
     1
 62
     8
420
  8421504
176
     1
 40
1.0
176
     1
 90
        1
176
     1
 90
        6
176
     1
 90
        2
176
     1
 62
     7
176
     1
 90
        5
176
     1
 90
        0
176
     1
 90
        0
176
     1
290
     0
176
     1
 90
        1
176
     1
 40
0.0
176
     1
 90
        0
176
     1
290
     0
176
     1
290
     1
176
     1
290
     1
176
     1
290
     0
176
     1
290
     0
176
     1
290
     0
176
     1
290
     0
176
     1
290
     0
176
     1
290
     0
176
     1
 90
       50
176
     1
 40
0.0
176
     1
 40
1.0
176
     1
 90
        0
176
     1
 62
    18
420
        0
176
     1
 90
       50
176
     1
 90
        3
176
     1
 62
     5
420
      255
176
     1
290
     0
176
     1
 90
       50
176
     1
 90
       50
176
     1
 90
       50
176
     1
290
     0
176
     1
 90
       50
176
     1
 62
   256
176
     0
 40
1.0
176
     0
 90
        2
176
     1
  1
strokes_ogs.tif
176
     1
290
     0
176
     1
 40
1.0
176
     1
 40
1.0
176
     1
  0
VISUALSTYLE
  5
34
102
{ACAD_REACTORS
330
2A
102
}
330
2A
100
AcDbVisualStyle
  2
Conceptual
 70
     9
177
     3
291
     0
 70
    58
 90
        3
176
     1
 90
        2
176
     1
 90
        0
176
     1
 90
        0
176
     1
 40
0.6
176
     1
 40
30.0
176
     1
 62
     7
420
 16777215
176
     1
 90
        2
176
     1
 90
        2
176
     1
 62
     7
176
     1
 62
   257
176
     1
 90
        1
176
     1
 90
        1
176
     1
 40
179.0
176
     1
 90
        8
176
     1
 62
     7
176
     1
 40
1.0
176
     1
 90
        1
176
     1
 90
        6
176
     1
 90
        2
176
     1
 62
     7
176
     1
 90
        3
176
     1
 90
        0
176
     1
 90
        0
176
     1
290
     0
176
     1
 90
        1
176
     1
 40
0.0
176
     1
 90
        0
176
     1
290
     0
176
     1
290
     1
176
     1
290
     1
176
     1
290
     0
176
     1
290
     0
176
     1
290
     0
176
     1
290
     0
176
     1
290
     0
176
     1
290
     0
176
     1
 90
       50
176
     1
 40
0.0
176
     1
 40
1.0
176
     1
 90
        0
176
     1
 62
    18
420
        0
176
     1
 90
       50
176
     1
 90
        3
176
     1
 62
     5
420
      255
176
     1
290
     0
176
     1
 90
       50
176
     1
 90
       50
176
     1
 90
       50
176
     1
290
     0
176
     1
 90
       50
176
     1
 62
   256
176
     0
 40
1.0
176
     0
 90
        2
176
     1
  1
strokes_ogs.tif
176
     1
290
     0
176
     1
 40
1.0
176
     1
 40
1.0
176
     1
  0
VISUALSTYLE
  5
35
102
{ACAD_REACTORS
330
2A
102
}
330
2A
100
AcDbVisualStyle
  2
Dim
 70
    11
177
     3
291
     1
 70
    58
 90
        2
176
     1
 90
        2
176
     1
 90
        0
176
     1
 90
        0
176
     1
 40
0.6
176
     1
 40
30.0
176
     1
 62
     7
420
 16777215
176
     1
 90
        1
176
     1
 90
        4
176
     1
 62
     7
176
     1
 62
   257
176
     1
 90
        1
176
     1
 90
        1
176
     1
 40
1.0
176
     1
 90
        8
176
     1
 62
     7
176
     1
 40
1.0
176
     1
 90
        1
176
     1
 90
        6
176
     1
 90
        2
176
     1
 62
     7
176
     1
 90
        5
176
     1
 90
        0
176
     1
 90
        0
176
     1
290
     0
176
     1
 90
        1
176
     1
 40
-50.0
176
     1
 90
        0
176
     1
290
     0
176
     1
290
     1
176
     1
290
     1
176
     1
290
     0
176
     1
290
     0
176
     1
290
     0
176
     1
290
     0
176
     1
290
     0
176
     1
290
     0
176
     1
 90
       50
176
     1
 40
0.0
176
     1
 40
1.0
176
     1
 90
        0
176
     1
 62
    18
420
        0
176
     1
 90
       50
176
     1
 90
        3
176
     1
 62
     5
420
      255
176
     1
290
     0
176
     1
 90
       50
176
     1
 90
       50
176
     1
 90
       50
176
     1
290
     0
176
     1
 90
       50
176
     1
 62
   256
176
     0
 40
1.0
176
     0
 90
        2
176
     1
  1
strokes_ogs.tif
176
     1
290
     0
176
     1
 40
1.0
176
     1
 40
1.0
176
     1
  0
VISUALSTYLE
  5
3D
102
{ACAD_REACTORS
330
2A
102
}
330
2A
100
AcDbVisualStyle
  2
EdgeColorOff
 70
    22
177
     3
291
     1
 70
    58
 90
        2
176
     0
 90
        2
176
     0
 90
        0
176
     0
 90
        0
176
     0
 40
0.6
176
     0
 40
30.0
176
     0
 62
     7
420
 16777215
176
     0
 90
        1
176
     0
 90
        4
176
     0
 62
     7
176
     0
 62
   257
176
     0
 90
        1
176
     0
 90
        1
176
     0
 40
1.0
176
     0
 90
        8
176
     2
 62
     7
176
     0
 40
1.0
176
     0
 90
        1
176
     0
 90
        6
176
     0
 90
        2
176
     0
 62
     7
176
     0
 90
        5
176
     0
 90
        0
176
     0
 90
        0
176
     0
290
     0
176
     0
 90
        1
176
     0
 40
0.0
176
     0
 90
        0
176
     0
290
     0
176
     0
290
     1
176
     0
290
     1
176
     0
290
     0
176
     0
290
     0
176
     0
290
     0
176
     0
290
     0
176
     0
290
     0
176
     0
290
     0
176
     0
 90
       50
176
     0
 40
0.0
176
     0
 40
1.0
176
     0
 90
        0
176
     0
 62
    18
420
        0
176
     0
 90
       50
176
     0
 90
        3
176
     0
 62
     5
420
      255
176
     0
290
     0
176
     0
 90
       50
176
     0
 90
       50
176
     0
 90
       50
176
     0
290
     0
176
     0
 90
       50
176
     0
 62
   256
176
     0
 40
1.0
176
     0
 90
        2
176
     0
  1
strokes_ogs.tif
176
     0
290
     0
176
     0
 40
1.0
176
     0
 40
1.0
176
     0
  0
VISUALSTYLE
  5
39
102
{ACAD_REACTORS
330
2A
102
}
330
2A
100
AcDbVisualStyle
  2
Facepattern
 70
    15
177
     3
291
     1
 70
    58
 90
        2
176
     1
 90
        2
176
     1
 90
        0
176
     1
 90
        0
176
     1
 40
0.6
176
     1
 40
30.0
176
     1
 62
     7
420
 16777215
176
     1
 90
        1
176
     1
 90
        4
176
     1
 62
     7
176
     1
 62
   257
176
     1
 90
        1
176
     1
 90
        1
176
     1
 40
1.0
176
     1
 90
        8
176
     1
 62
     7
176
     1
 40
1.0
176
     1
 90
        1
176
     1
 90
        6
176
     1
 90
        2
176
     1
 62
     7
176
     1
 90
        5
176
     1
 90
        0
176
     1
 90
        0
176
     1
290
     0
176
     1
 90
        1
176
     1
 40
0.0
176
     1
 90
        0
176
     1
290
     0
176
     1
290
     1
176
     1
290
     1
176
     1
290
     0
176
     1
290
     0
176
     1
290
     0
176
     1
290
     0
176
     1
290
     0
176
     1
290
     0
176
     1
 90
       50
176
     1
 40
0.0
176
     1
 40
1.0
176
     1
 90
        0
176
     1
 62
    18
420
        0
176
     1
 90
       50
176
     1
 90
        3
176
     1
 62
     5
420
      255
176
     1
290
     0
176
     1
 90
       50
176
     1
 90
       50
176
     1
 90
       50
176
     1
290
     0
176
     1
 90
       50
176
     1
 62
   256
176
     0
 40
1.0
176
     0
 90
        2
176
     1
  1
strokes_ogs.tif
176
     1
290
     0
176
     1
 40
1.0
176
     1
 40
1.0
176
     1
  0
VISUALSTYLE
  5
2B
102
{ACAD_REACTORS
330
2A
102
}
330
2A
100
AcDbVisualStyle
  2
Flat
 70
     0
177
     3
291
     1
 70
    58
 90
        2
176
     1
 90
        1
176
     1
 90
        1
176
     1
 90
        2
176
     1
 40
0.6
176
     1
 40
30.0
176
     1
 62
     7
420
 16777215
176
     1
 90
        0
176
     1
 90
        0
176
     1
 62
     7
176
     1
 62
   257
176
     1
 90
        1
176
     1
 90
        1
176
     1
 40
1.0
176
     1
 90
        8
176
     1
 62
     7
176
     1
 40
1.0
176
     1
 90
        1
176
     1
 90
        6
176
     1
 90
        2
176
     1
 62
     7
176
     1
 90
        5
176
     1
 90
        0
176
     1
 90
        0
176
     1
290
     0
176
     1
 90
       13
176
     1
 40
0.0
176
     1
 90
        0
176
     1
290
     0
176
     1
290
     1
176
     1
290
     1
176
     1
290
     0
176
     1
290
     0
176
     1
290
     0
176
     1
290
     0
176
     1
290
     0
176
     1
290
     0
176
     1
 90
       50
176
     1
 40
0.0
176
     1
 40
1.0
176
     1
 90
        0
176
     1
 62
    18
420
        0
176
     1
 90
       50
176
     1
 90
        3
176
     1
 62
     5
420
      255
176
     1
290
     0
176
     1
 90
       50
176
     1
 90
       50
176
     1
 90
       50
176
     1
290
     0
176
     1
 90
       50
176
     1
 62
   256
176
     0
 40
1.0
176
     0
 90
        2
176
     1
  1
strokes_ogs.tif
176
     1
290
     0
176
     1
 40
1.0
176
     1
 40
1.0
176
     1
  0
VISUALSTYLE
  5
2C
102
{ACAD_REACTORS
330
2A
102
}
330
2A
100
AcDbVisualStyle
  2
FlatWithEdges
 70
     1
177
     3
291
     1
 70
    58
 90
        2
176
     1
 90
        1
176
     1
 90
        1
176
     1
 90
        2
176
     1
 40
0.6
176
     1
 40
30.0
176
     1
 62
     7
420
 16777215
176
     1
 90
        1
176
     1
 90
        0
176
     1
 62
     7
176
     1
 62
   257
176
     1
 90
        1
176
     1
 90
        1
176
     1
 40
1.0
176
     1
 90
        0
176
     1
 62
   257
176
     1
 40
1.0
176
     1
 90
        1
176
     1
 90
        6
176
     1
 90
        2
176
     1
 62
     7
176
     1
 90
        5
176
     1
 90
        0
176
     1
 90
        0
176
     1
290
     0
176
     1
 90
       13
176
     1
 40
0.0
176
     1
 90
        0
176
     1
290
     0
176
     1
290
     1
176
     1
290
     1
176
     1
290
     0
176
     1
290
     0
176
     1
290
     0
176
     1
290
     0
176
     1
290
     0
176
     1
290
     0
176
     1
 90
       50
176
     1
 40
0.0
176
     1
 40
1.0
176
     1
 90
        0
176
     1
 62
    18
420
        0
176
     1
 90
       50
176
     1
 90
        3
176
     1
 62
     5
420
      255
176
     1
290
     0
176
     1
 90
       50
176
     1
 90
       50
176
     1
 90
       50
176
     1
290
     0
176
     1
 90
       50
176
     1
 62
   256
176
     0
 40
1.0
176
     0
 90
        2
176
     1
  1
strokes_ogs.tif
176
     1
290
     0
176
     1
 40
1.0
176
     1
 40
1.0
176
     1
  0
VISUALSTYLE
  5
2D
102
{ACAD_REACTORS
330
2A
102
}
330
2A
100
AcDbVisualStyle
  2
Gouraud
 70
     2
177
     3
291
     1
 70
    58
 90
        2
176
     1
 90
        2
176
     1
 90
        1
176
     1
 90
        2
176
     1
 40
0.6
176
     1
 40
30.0
176
     1
 62
     7
420
 16777215
176
     1
 90
        0
176
     1
 90
        0
176
     1
 62
     7
176
     1
 62
   257
176
     1
 90
        1
176
     1
 90
        1
176
     1
 40
1.0
176
     1
 90
        0
176
     1
 62
     7
176
     1
 40
1.0
176
     1
 90
        1
176
     1
 90
        6
176
     1
 90
        2
176
     1
 62
     7
176
     1
 90
        5
176
     1
 90
        0
176
     1
 90
        0
176
     1
290
     0
176
     1
 90
       13
176
     1
 40
0.0
176
     1
 90
        0
176
     1
290
     0
176
     1
290
     1
176
     1
290
     1
176
     1
290
     0
176
     1
290
     0
176
     1
290
     0
176
     1
290
     0
176
     1
290
     0
176
     1
290
     0
176
     1
 90
       50
176
     1
 40
0.0
176
     1
 40
1.0
176
     1
 90
        0
176
     1
 62
    18
420
        0
176
     1
 90
       50
176
     1
 90
        3
176
     1
 62
     5
420
      255
176
     1
290
     0
176
     1
 90
       50
176
     1
 90
       50
176
     1
 90
       50
176
     1
290
     0
176
     1
 90
       50
176
     1
 62
   256
176
     0
 40
1.0
176
     0
 90
        2
176
     1
  1
strokes_ogs.tif
176
     1
290
     0
176
     1
 40
1.0
176
     1
 40
1.0
176
     1
  0
VISUALSTYLE
  5
2E
102
{ACAD_REACTORS
330
2A
102
}
330
2A
100
AcDbVisualStyle
  2
GouraudWithEdges
 70
     3
177
     3
291
     1
 70
    58
 90
        2
176
     1
 90
        2
176
     1
 90
        1
176
     1
 90
        2
176
     1
 40
0.6
176
     1
 40
30.0
176
     1
 62
     7
420
 16777215
176
     1
 90
        1
176
     1
 90
        0
176
     1
 62
     7
176
     1
 62
   257
176
     1
 90
        1
176
     1
 90
        1
176
     1
 40
1.0
176
     1
 90
        0
176
     1
 62
   257
176
     1
 40
1.0
176
     1
 90
        1
176
     1
 90
        6
176
     1
 90
        2
176
     1
 62
     7
176
     1
 90
        5
176
     1
 90
        0
176
     1
 90
        0
176
     1
290
     0
176
     1
 90
       13
176
     1
 40
0.0
176
     1
 90
        0
176
     1
290
     0
176
     1
290
     1
176
     1
290
     1
176
     1
290
     0
176
     1
290
     0
176
     1
290
     0
176
     1
290
     0
176
     1
290
     0
176
     1
290
     0
176
     1
 90
       50
176
     1
 40
0.0
176
     1
 40
1.0
176
     1
 90
        0
176
     1
 62
    18
420
        0
176
     1
 90
       50
176
     1
 90
        3
176
     1
 62
     5
420
      255
176
     1
290
     0
176
     1
 90
       50
176
     1
 90
       50
176
     1
 90
       50
176
     1
290
     0
176
     1
 90
       50
176
     1
 62
   256
176
     0
 40
1.0
176
     0
 90
        2
176
     1
  1
strokes_ogs.tif
176
     1
290
     0
176
     1
 40
1.0
176
     1
 40
1.0
176
     1
  0
VISUALSTYLE
  5
31
102
{ACAD_REACTORS
330
2A
102
}
330
2A
100
AcDbVisualStyle
  2
Hidden
 70
     6
177
     3
291
     0
 70
    58
 90
        1
176
     1
 90
        2
176
     1
 90
        2
176
     1
 90
        0
176
     1
 40
0.6
176
     1
 40
30.0
176
     1
 62
     7
420
 16777215
176
     1
 90
        2
176
     1
 90
        2
176
     1
 62
     7
176
     1
 62
   257
176
     1
 90
        2
176
     1
 90
        1
176
     1
 40
40.0
176
     1
 90
        0
176
     1
 62
   257
176
     1
 40
1.0
176
     1
 90
        1
176
     1
 90
        6
176
     1
 90
        2
176
     1
 62
     7
176
     1
 90
        3
176
     1
 90
        0
176
     1
 90
        0
176
     1
290
     0
176
     1
 90
        1
176
     1
 40
0.0
176
     1
 90
        0
176
     1
290
     0
176
     1
290
     1
176
     1
290
     1
176
     1
290
     0
176
     1
290
     0
176
     1
290
     0
176
     1
290
     0
176
     1
290
     0
176
     1
290
     0
176
     1
 90
       50
176
     1
 40
0.0
176
     1
 40
1.0
176
     1
 90
        0
176
     1
 62
    18
420
        0
176
     1
 90
       50
176
     1
 90
        3
176
     1
 62
     5
420
      255
176
     1
290
     0
176
     1
 90
       50
176
     1
 90
       50
176
     1
 90
       50
176
     1
290
     0
176
     1
 90
       50
176
     1
 62
   256
176
     0
 40
1.0
176
     0
 90
        2
176
     1
  1
strokes_ogs.tif
176
     1
290
     0
176
     1
 40
1.0
176
     1
 40
1.0
176
     1
  0
VISUALSTYLE
  5
3B
102
{ACAD_REACTORS
330
2A
102
}
330
2A
100
AcDbVisualStyle
  2
JitterOff
 70
    20
177
     3
291
     1
 70
    58
 90
        2
176
     0
 90
        2
176
     0
 90
        0
176
     0
 90
        0
176
     0
 40
0.6
176
     0
 40
30.0
176
     0
 62
     7
420
 16777215
176
     0
 90
        1
176
     0
 90
        4
176
     0
 62
     7
176
     0
 62
   257
176
     0
 90
        1
176
     0
 90
        1
176
     0
 40
1.0
176
     0
 90
       10
176
     2
 62
     7
176
     0
 40
1.0
176
     0
 90
        1
176
     0
 90
        6
176
     0
 90
        2
176
     0
 62
     7
176
     0
 90
        5
176
     0
 90
        0
176
     0
 90
        0
176
     0
290
     0
176
     0
 90
        1
176
     0
 40
0.0
176
     0
 90
        0
176
     0
290
     0
176
     0
290
     1
176
     0
290
     1
176
     0
290
     0
176
     0
290
     0
176
     0
290
     0
176
     0
290
     0
176
     0
290
     0
176
     0
290
     0
176
     0
 90
       50
176
     0
 40
0.0
176
     0
 40
1.0
176
     0
 90
        0
176
     0
 62
    18
420
        0
176
     0
 90
       50
176
     0
 90
        3
176
     0
 62
     5
420
      255
176
     0
290
     0
176
     0
 90
       50
176
     0
 90
       50
176
     0
 90
       50
176
     0
290
     0
176
     0
 90
       50
176
     0
 62
   256
176
     0
 40
1.0
176
     0
 90
        2
176
     0
  1
strokes_ogs.tif
176
     0
290
     0
176
     0
 40
1.0
176
     0
 40
1.0
176
     0
  0
VISUALSTYLE
  5
38
102
{ACAD_REACTORS
330
2A
102
}
330
2A
100
AcDbVisualStyle
  2
Linepattern
 70
    14
177
     3
291
     1
 70
    58
 90
        2
176
     1
 90
        2
176
     1
 90
        0
176
     1
 90
        0
176
     1
 40
0.6
176
     1
 40
30.0
176
     1
 62
     7
420
 16777215
176
     1
 90
        1
176
     1
 90
        4
176
     1
 62
     7
176
     1
 62
   257
176
     1
 90
        7
176
     1
 90
        7
176
     1
 40
1.0
176
     1
 90
        8
176
     1
 62
     7
176
     1
 40
1.0
176
     1
 90
        1
176
     1
 90
        6
176
     1
 90
        2
176
     1
 62
     7
176
     1
 90
        5
176
     1
 90
        0
176
     1
 90
        0
176
     1
290
     0
176
     1
 90
        1
176
     1
 40
0.0
176
     1
 90
        0
176
     1
290
     0
176
     1
290
     1
176
     1
290
     1
176
     1
290
     0
176
     1
290
     0
176
     1
290
     0
176
     1
290
     0
176
     1
290
     0
176
     1
290
     0
176
     1
 90
       50
176
     1
 40
0.0
176
     1
 40
1.0
176
     1
 90
        0
176
     1
 62
    18
420
        0
176
     1
 90
       50
176
     1
 90
        3
176
     1
 62
     5
420
      255
176
     1
290
     0
176
     1
 90
       50
176
     1
 90
       50
176
     1
 90
       50
176
     1
290
     0
176
     1
 90
       50
176
     1
 62
   256
176
     0
 40
1.0
176
     0
 90
        2
176
     1
  1
strokes_ogs.tif
176
     1
290
     0
176
     1
 40
1.0
176
     1
 40
1.0
176
     1
  0
VISUALSTYLE
  5
3C
102
{ACAD_REACTORS
330
2A
102
}
330
2A
100
AcDbVisualStyle
  2
OverhangOff
 70
    21
177
     3
291
     1
 70
    58
 90
        2
176
     0
 90
        2
176
     0
 90
        0
176
     0
 90
        0
176
     0
 40
0.6
176
     0
 40
30.0
176
     0
 62
     7
420
 16777215
176
     0
 90
        1
176
     0
 90
        4
176
     0
 62
     7
176
     0
 62
   257
176
     0
 90
        1
176
     0
 90
        1
176
     0
 40
1.0
176
     0
 90
        9
176
     2
 62
     7
176
     0
 40
1.0
176
     0
 90
        1
176
     0
 90
        6
176
     0
 90
        2
176
     0
 62
     7
176
     0
 90
        5
176
     0
 90
        0
176
     0
 90
        0
176
     0
290
     0
176
     0
 90
        1
176
     0
 40
0.0
176
     0
 90
        0
176
     0
290
     0
176
     0
290
     1
176
     0
290
     1
176
     0
290
     0
176
     0
290
     0
176
     0
290
     0
176
     0
290
     0
176
     0
290
     0
176
     0
290
     0
176
     0
 90
       50
176
     0
 40
0.0
176
     0
 40
1.0
176
     0
 90
        0
176
     0
 62
    18
420
        0
176
     0
 90
       50
176
     0
 90
        3
176
     0
 62
     5
420
      255
176
     0
290
     0
176
     0
 90
       50
176
     0
 90
       50
176
     0
 90
       50
176
     0
290
     0
176
     0
 90
       50
176
     0
 62
   256
176
     0
 40
1.0
176
     0
 90
        2
176
     0
  1
strokes_ogs.tif
176
     0
290
     0
176
     0
 40
1.0
176
     0
 40
1.0
176
     0
  0
VISUALSTYLE
  5
33
102
{ACAD_REACTORS
330
2A
102
}
330
2A
100
AcDbVisualStyle
  2
Realistic
 70
     8
177
     3
291
     0
 70
    58
 90
        2
176
     1
 90
        3
176
     1
 90
        0
176
     1
 90
        2
176
     1
 40
0.6
176
     1
 40
30.0
176
     1
 62
     7
420
 16777215
176
     1
 90
        0
176
     1
 90
        0
176
     1
 62
     7
176
     1
 62
   257
176
     1
 90
        1
176
     1
 90
        1
176
     1
 40
1.0
176
     1
 90
        8
176
     1
 62
   257
176
     1
 40
1.0
176
     1
 90
        1
176
     1
 90
        6
176
     1
 90
        2
176
     1
 62
     7
176
     1
 90
        3
176
     1
 90
        0
176
     1
 90
        0
176
     1
290
     0
176
     1
 90
       13
176
     1
 40
0.0
176
     1
 90
        0
176
     1
290
     0
176
     1
290
     1
176
     1
290
     1
176
     1
290
     0
176
     1
290
     0
176
     1
290
     0
176
     1
290
     0
176
     1
290
     0
176
     1
290
     0
176
     1
 90
       50
176
     1
 40
0.0
176
     1
 40
1.0
176
     1
 90
        0
176
     1
 62
    18
420
        0
176
     1
 90
       50
176
     1
 90
        3
176
     1
 62
     5
420
      255
176
     1
290
     0
176
     1
 90
       50
176
     1
 90
       50
176
     1
 90
       50
176
     1
290
     0
176
     1
 90
       50
176
     1
 62
   256
176
     0
 40
1.0
176
     0
 90
        2
176
     1
  1
strokes_ogs.tif
176
     1
290
     0
176
     1
 40
1.0
176
     1
 40
1.0
176
     1
  0
VISUALSTYLE
  5
42
102
{ACAD_REACTORS
330
2A
102
}
330
2A
100
AcDbVisualStyle
  2
Shaded
 70
    27
177
     3
291
     0
 70
    58
 90
        2
176
     1
 90
        2
176
     1
 90
        1
176
     1
 90
        2
176
     1
 40
0.6
176
     1
 40
30.0
176
     1
 62
     7
420
 16777215
176
     1
 90
        0
176
     1
 90
        4
176
     1
 62
     7
176
     1
 62
   257
176
     1
 90
        1
176
     1
 90
        1
176
     1
 40
1.0
176
     1
 90
        8
176
     1
 62
   257
176
     1
 40
1.0
176
     1
 90
        1
176
     1
 90
        6
176
     1
 90
        2
176
     1
 62
     8
420
  7895160
176
     1
 90
        3
176
     1
 90
        0
176
     1
 90
        0
176
     1
290
     0
176
     1
 90
        5
176
     1
 40
0.0
176
     1
 90
        0
176
     1
290
     0
176
     1
290
     1
176
     1
290
     1
176
     1
290
     0
176
     1
290
     0
176
     1
290
     0
176
     1
290
     0
176
     1
290
     0
176
     1
290
     0
176
     1
 90
       50
176
     1
 40
0.0
176
     1
 40
1.0
176
     1
 90
        0
176
     1
 62
    18
420
        0
176
     1
 90
       50
176
     1
 90
        3
176
     1
 62
     5
420
      255
176
     1
290
     0
176
     1
 90
       50
176
     1
 90
       50
176
     1
 90
       50
176
     1
290
     0
176
     1
 90
       50
176
     1
 62
   256
176
     0
 40
1.0
176
     0
 90
        2
176
     1
  1
strokes_ogs.tif
176
     1
290
     0
176
     1
 40
1.0
176
     1
 40
1.0
176
     1
  0
VISUALSTYLE
  5
41
102
{ACAD_REACTORS
330
2A
102
}
330
2A
100
AcDbVisualStyle
  2
Shaded with edges
 70
    26
177
     3
291
     0
 70
    58
 90
        2
176
     1
 90
        2
176
     1
 90
        1
176
     1
 90
        2
176
     1
 40
0.6
176
     1
 40
30.0
176
     1
 62
     7
420
 16777215
176
     1
 90
        1
176
     1
 90
       10
176
     1
 62
     7
176
     1
 62
   257
176
     1
 90
        2
176
     1
 90
        1
176
     1
 40
1.0
176
     1
 90
        8
176
     1
 62
   257
176
     1
 40
1.0
176
     1
 90
        1
176
     1
 90
        6
176
     1
 90
        2
176
     1
 62
     7
176
     1
 90
        3
176
     1
 90
        0
176
     1
 90
        0
176
     1
290
     0
176
     1
 90
        5
176
     1
 40
0.0
176
     1
 90
        0
176
     1
290
     0
176
     1
290
     1
176
     1
290
     1
176
     1
290
     0
176
     1
290
     0
176
     1
290
     0
176
     1
290
     0
176
     1
290
     0
176
     1
290
     0
176
     1
 90
       50
176
     1
 40
0.0
176
     1
 40
1.0
176
     1
 90
        0
176
     1
 62
    18
420
        0
176
     1
 90
       50
176
     1
 90
        3
176
     1
 62
     5
420
      255
176
     1
290
     0
176
     1
 90
       50
176
     1
 90
       50
176
     1
 90
       50
176
     1
290
     0
176
     1
 90
       50
176
     1
 62
   256
176
     0
 40
1.0
176
     0
 90
        2
176
     1
  1
strokes_ogs.tif
176
     1
290
     0
176
     1
 40
1.0
176
     1
 40
1.0
176
     1
  0
VISUALSTYLE
  5
3E
102
{ACAD_REACTORS
330
2A
102
}
330
2A
100
AcDbVisualStyle
  2
Shades of Gray
 70
    23
177
     3
291
     0
 70
    58
 90
        2
176
     1
 90
        2
176
     1
 90
        3
176
     1
 90
        0
176
     1
 40
0.6
176
     1
 40
30.0
176
     1
 62
     7
420
 16777215
176
     1
 90
        2
176
     1
 90
        2
176
     1
 62
     7
176
     1
 62
     7
176
     1
 90
        1
176
     1
 90
        1
176
     1
 40
40.0
176
     1
 90
        8
176
     1
 62
     7
176
     1
 40
1.0
176
     1
 90
        1
176
     1
 90
        6
176
     1
 90
        2
176
     1
 62
     7
176
     1
 90
        3
176
     1
 90
        0
176
     1
 90
        0
176
     1
290
     0
176
     1
 90
        1
176
     1
 40
0.0
176
     1
 90
        0
176
     1
290
     0
176
     1
290
     1
176
     1
290
     1
176
     1
290
     0
176
     1
290
     0
176
     1
290
     0
176
     1
290
     0
176
     1
290
     0
176
     1
290
     0
176
     1
 90
       50
176
     1
 40
0.0
176
     1
 40
1.0
176
     1
 90
        0
176
     1
 62
    18
420
        0
176
     1
 90
       50
176
     1
 90
        3
176
     1
 62
     5
420
      255
176
     1
290
     0
176
     1
 90
       50
176
     1
 90
       50
176
     1
 90
       50
176
     1
290
     0
176
     1
 90
       50
176
     1
 62
   256
176
     0
 40
1.0
176
     0
 90
        2
176
     1
  1
strokes_ogs.tif
176
     1
290
     0
176
     1
 40
1.0
176
     1
 40
1.0
176
     1
  0
VISUALSTYLE
  5
3F
102
{ACAD_REACTORS
330
2A
102
}
330
2A
100
AcDbVisualStyle
  2
Sketchy
 70
    24
177
     3
291
     0
 70
    58
 90
        1
176
     1
 90
        2
176
     1
 90
        2
176
     1
 90
        0
176
     1
 40
0.6
176
     1
 40
30.0
176
     1
 62
     7
420
 16777215
176
     1
 90
        2
176
     1
 90
        2
176
     1
 62
     7
176
     1
 62
     7
176
     1
 90
        1
176
     1
 90
        1
176
     1
 40
40.0
176
     1
 90
       11
176
     1
 62
     7
176
     1
 40
1.0
176
     1
 90
        1
176
     1
 90
        6
176
     1
 90
        2
176
     1
 62
     7
176
     1
 90
        6
176
     1
 90
        0
176
     1
 90
        0
176
     1
290
     0
176
     1
 90
        1
176
     1
 40
0.0
176
     1
 90
        0
176
     1
290
     0
176
     1
290
     1
176
     1
290
     1
176
     1
290
     0
176
     1
290
     0
176
     1
290
     0
176
     1
290
     0
176
     1
290
     0
176
     1
290
     0
176
     1
 90
       50
176
     1
 40
0.0
176
     1
 40
1.0
176
     1
 90
        0
176
     1
 62
    18
420
        0
176
     1
 90
       50
176
     1
 90
        3
176
     1
 62
     5
420
      255
176
     1
290
     0
176
     1
 90
       50
176
     1
 90
       50
176
     1
 90
       50
176
     1
290
     0
176
     1
 90
       50
176
     1
 62
   256
176
     0
 40
1.0
176
     0
 90
        2
176
     1
  1
strokes_ogs.tif
176
     1
290
     0
176
     1
 40
1.0
176
     1
 40
1.0
176
     1
  0
VISUALSTYLE
  5
37
102
{ACAD_REACTORS
330
2A
102
}
330
2A
100
AcDbVisualStyle
  2
Thicken
 70
    13
177
     3
291
     1
 70
    58
 90
        2
176
     1
 90
        2
176
     1
 90
        0
176
     1
 90
        0
176
     1
 40
0.6
176
     1
 40
30.0
176
     1
 62
     7
420
 16777215
176
     1
 90
        1
176
     1
 90
        4
176
     1
 62
     7
176
     1
 62
   257
176
     1
 90
        1
176
     1
 90
        1
176
     1
 40
1.0
176
     1
 90
       12
176
     1
 62
     7
176
     1
 40
1.0
176
     1
 90
        1
176
     1
 90
        6
176
     1
 90
        2
176
     1
 62
     7
176
     1
 90
        5
176
     1
 90
        0
176
     1
 90
        0
176
     1
290
     0
176
     1
 90
        1
176
     1
 40
0.0
176
     1
 90
        0
176
     1
290
     0
176
     1
290
     1
176
     1
290
     1
176
     1
290
     0
176
     1
290
     0
176
     1
290
     0
176
     1
290
     0
176
     1
290
     0
176
     1
290
     0
176
     1
 90
       50
176
     1
 40
0.0
176
     1
 40
1.0
176
     1
 90
        0
176
     1
 62
    18
420
        0
176
     1
 90
       50
176
     1
 90
        3
176
     1
 62
     5
420
      255
176
     1
290
     0
176
     1
 90
       50
176
     1
 90
       50
176
     1
 90
       50
176
     1
290
     0
176
     1
 90
       50
176
     1
 62
   256
176
     0
 40
1.0
176
     0
 90
        2
176
     1
  1
strokes_ogs.tif
176
     1
290
     0
176
     1
 40
1.0
176
     1
 40
1.0
176
     1
  0
VISUALSTYLE
  5
30
102
{ACAD_REACTORS
330
2A
102
}
330
2A
100
AcDbVisualStyle
  2
Wireframe
 70
     5
177
     3
291
     0
 70
    58
 90
        0
176
     1
 90
        2
176
     1
 90
        0
176
     1
 90
        0
176
     1
 40
0.6
176
     1
 40
30.0
176
     1
 62
     7
420
 16777215
176
     1
 90
        1
176
     1
 90
        4
176
     1
 62
     7
176
     1
 62
   257
176
     1
 90
        1
176
     1
 90
        1
176
     1
 40
1.0
176
     1
 90
        0
176
     1
 62
   257
176
     1
 40
1.0
176
     1
 90
        1
176
     1
 90
        6
176
     1
 90
        2
176
     1
 62
     7
176
     1
 90
        3
176
     1
 90
        0
176
     1
 90
        0
176
     1
290
     0
176
     1
 90
        1
176
     1
 40
0.0
176
     1
 90
        0
176
     1
290
     0
176
     1
290
     1
176
     1
290
     1
176
     1
290
     0
176
     1
290
     0
176
     1
290
     0
176
     1
290
     0
176
     1
290
     0
176
     1
290
     0
176
     1
 90
       50
176
     1
 40
0.0
176
     1
 40
1.0
176
     1
 90
        0
176
     1
 62
    18
420
        0
176
     1
 90
       50
176
     1
 90
        3
176
     1
 62
     5
420
      255
176
     1
290
     0
176
     1
 90
       50
176
     1
 90
       50
176
     1
 90
       50
176
     1
290
     0
176
     1
 90
       50
176
     1
 62
   256
176
     0
 40
1.0
176
     0
 90
        2
176
     1
  1
strokes_ogs.tif
176
     1
290
     0
176
     1
 40
1.0
176
     1
 40
1.0
176
     1
  0
VISUALSTYLE
  5
40
102
{ACAD_REACTORS
330
2A
102
}
330
2A
100
AcDbVisualStyle
  2
X-Ray
 70
    25
177
     3
291
     0
 70
    58
 90
        2
176
     1
 90
        2
176
     1
 90
        1
176
     1
 90
        1
176
     1
 40
0.5
176
     1
 40
30.0
176
     1
 62
     7
420
 16777215
176
     1
 90
        1
176
     1
 90
        0
176
     1
 62
     7
176
     1
 62
   257
176
     1
 90
        1
176
     1
 90
        1
176
     1
 40
1.0
176
     1
 90
        8
176
     1
 62
     7
176
     1
 40
1.0
176
     1
 90
        1
176
     1
 90
        6
176
     1
 90
        2
176
     1
 62
     7
176
     1
 90
        3
176
     1
 90
        0
176
     1
 90
        0
176
     1
290
     0
176
     1
 90
       13
176
     1
 40
0.0
176
     1
 90
        0
176
     1
290
     0
176
     1
290
     1
176
     1
290
     1
176
     1
290
     0
176
     1
290
     0
176
     1
290
     0
176
     1
290
     0
176
     1
290
     0
176
     1
290
     0
176
     1
 90
       50
176
     1
 40
0.0
176
     1
 40
1.0
176
     1
 90
        0
176
     1
 62
    18
420
        0
176
     1
 90
       50
176
     1
 90
        3
176
     1
 62
     5
420
      255
176
     1
290
     0
176
     1
 90
       50
176
     1
 90
       50
176
     1
 90
       50
176
     1
290
     0
176
     1
 90
       50
176
     1
 62
   256
176
     0
 40
1.0
176
     0
 90
        2
176
     1
  1
strokes_ogs.tif
176
     1
290
     0
176
     1
 40
1.0
176
     1
 40
1.0
176
     1
  0
DICTIONARYVAR
  5
140
102
{ACAD_REACTORS
330
13F
102
}
330
13F
100
DictionaryVariables
280
     0
  1
1:1
  0
DICTIONARYVAR
  5
148
102
{ACAD_REACTORS
330
13F
102
}
330
13F
100
DictionaryVariables
280
     0
  1
3.500000
  0
DICTIONARYVAR
  5
149
102
{ACAD_REACTORS
330
13F
102
}
330
13F
100
DictionaryVariables
280
     0
  1
acadiso.lin
  0
DICTIONARYVAR
  5
145
102
{ACAD_REACTORS
330
13F
102
}
330
13F
100
DictionaryVariables
280
     0
  1
Standard
  0
DICTIONARYVAR
  5
144
102
{ACAD_REACTORS
330
13F
102
}
330
13F
100
DictionaryVariables
280
     0
  1
Standard
  0
DICTIONARY
  5
141
330
6A
100
AcDbDictionary
280
     1
281
     1
  3
ACAD_ROUNDTRIP_2008_TABLESTYLE_CELLSTYLEMAP
360
142
  0
CELLSTYLEMAP
  5
142
102
{ACAD_REACTORS
330
141
102
}
330
141
100
AcDbCellStyleMap
 90
        3
300
CELLSTYLE
  1
TABLEFORMAT_BEGIN
 90
        5
170
     1
 91
        0
 92
    32768
 62
   257
 93
        1
300
CONTENTFORMAT
  1
CONTENTFORMAT_BEGIN
 90
        0
 91
        0
 92
        4
 93
        0
300

 40
0.0
140
1.0
 94
        5
 62
     0
340
11
144
6.0
309
CONTENTFORMAT_END
171
     1
301
MARGIN
  1
CELLMARGIN_BEGIN
 40
1.5
 40
1.5
 40
1.5
 40
1.5
 40
1.5
 40
1.5
309
CELLMARGIN_END
 94
        6
 95
        1
302
GRIDFORMAT
  1
GRIDFORMAT_BEGIN
 90
        0
 91
        1
 62
     0
 92
       -2
340
14
 93
        0
 40
0.045
309
GRIDFORMAT_END
 95
        2
302
GRIDFORMAT
  1
GRIDFORMAT_BEGIN
 90
        0
 91
        1
 62
     0
 92
       -2
340
14
 93
        0
 40
0.045
309
GRIDFORMAT_END
 95
        4
302
GRIDFORMAT
  1
GRIDFORMAT_BEGIN
 90
        0
 91
        1
 62
     0
 92
       -2
340
14
 93
        0
 40
0.045
309
GRIDFORMAT_END
 95
        8
302
GRIDFORMAT
  1
GRIDFORMAT_BEGIN
 90
        0
 91
        1
 62
     0
 92
       -2
340
14
 93
        0
 40
0.045
309
GRIDFORMAT_END
 95
       16
302
GRIDFORMAT
  1
GRIDFORMAT_BEGIN
 90
        0
 91
        1
 62
     0
 92
       -2
340
14
 93
        0
 40
0.045
309
GRIDFORMAT_END
 95
       32
302
GRIDFORMAT
  1
GRIDFORMAT_BEGIN
 90
        0
 91
        1
 62
     0
 92
       -2
340
14
 93
        0
 40
0.045
309
GRIDFORMAT_END
309
TABLEFORMAT_END
  1
CELLSTYLE_BEGIN
 90
        1
 91
        1
300
_TITLE
309
CELLSTYLE_END
300
CELLSTYLE
  1
TABLEFORMAT_BEGIN
 90
        5
170
     1
 91
        0
 92
        0
 62
   257
 93
        1
300
CONTENTFORMAT
  1
CONTENTFORMAT_BEGIN
 90
        0
 91
        0
 92
        4
 93
        0
300

 40
0.0
140
1.0
 94
        5
 62
     0
340
11
144
4.5
309
CONTENTFORMAT_END
171
     1
301
MARGIN
  1
CELLMARGIN_BEGIN
 40
1.5
 40
1.5
 40
1.5
 40
1.5
 40
1.5
 40
1.5
309
CELLMARGIN_END
 94
        6
 95
        1
302
GRIDFORMAT
  1
GRIDFORMAT_BEGIN
 90
        0
 91
        1
 62
     0
 92
       -2
340
14
 93
        0
 40
0.045
309
GRIDFORMAT_END
 95
        2
302
GRIDFORMAT
  1
GRIDFORMAT_BEGIN
 90
        0
 91
        1
 62
     0
 92
       -2
340
14
 93
        0
 40
0.045
309
GRIDFORMAT_END
 95
        4
302
GRIDFORMAT
  1
GRIDFORMAT_BEGIN
 90
        0
 91
        1
 62
     0
 92
       -2
340
14
 93
        0
 40
0.045
309
GRIDFORMAT_END
 95
        8
302
GRIDFORMAT
  1
GRIDFORMAT_BEGIN
 90
        0
 91
        1
 62
     0
 92
       -2
340
14
 93
        0
 40
0.045
309
GRIDFORMAT_END
 95
       16
302
GRIDFORMAT
  1
GRIDFORMAT_BEGIN
 90
        0
 91
        1
 62
     0
 92
       -2
340
14
 93
        0
 40
0.045
309
GRIDFORMAT_END
 95
       32
302
GRIDFORMAT
  1
GRIDFORMAT_BEGIN
 90
        0
 91
        1
 62
     0
 92
       -2
340
14
 93
        0
 40
0.045
309
GRIDFORMAT_END
309
TABLEFORMAT_END
  1
CELLSTYLE_BEGIN
 90
        2
 91
        1
300
_HEADER
309
CELLSTYLE_END
300
CELLSTYLE
  1
TABLEFORMAT_BEGIN
 90
        5
170
     1
 91
        0
 92
        0
 62
   257
 93
        1
300
CONTENTFORMAT
  1
CONTENTFORMAT_BEGIN
 90
        0
 91
        0
 92
        4
 93
        0
300

 40
0.0
140
1.0
 94
        2
 62
     0
340
11
144
4.5
309
CONTENTFORMAT_END
171
     1
301
MARGIN
  1
CELLMARGIN_BEGIN
 40
1.5
 40
1.5
 40
1.5
 40
1.5
 40
1.5
 40
1.5
309
CELLMARGIN_END
 94
        6
 95
        1
302
GRIDFORMAT
  1
GRIDFORMAT_BEGIN
 90
        0
 91
        1
 62
     0
 92
       -2
340
14
 93
        0
 40
0.045
309
GRIDFORMAT_END
 95
        2
302
GRIDFORMAT
  1
GRIDFORMAT_BEGIN
 90
        0
 91
        1
 62
     0
 92
       -2
340
14
 93
        0
 40
0.045
309
GRIDFORMAT_END
 95
        4
302
GRIDFORMAT
  1
GRIDFORMAT_BEGIN
 90
        0
 91
        1
 62
     0
 92
       -2
340
14
 93
        0
 40
0.045
309
GRIDFORMAT_END
 95
        8
302
GRIDFORMAT
  1
GRIDFORMAT_BEGIN
 90
        0
 91
        1
 62
     0
 92
       -2
340
14
 93
        0
 40
0.045
309
GRIDFORMAT_END
 95
       16
302
GRIDFORMAT
  1
GRIDFORMAT_BEGIN
 90
        0
 91
        1
 62
     0
 92
       -2
340
14
 93
        0
 40
0.045
309
GRIDFORMAT_END
 95
       32
302
GRIDFORMAT
  1
GRIDFORMAT_BEGIN
 90
        0
 91
        1
 62
     0
 92
       -2
340
14
 93
        0
 40
0.045
309
GRIDFORMAT_END
309
TABLEFORMAT_END
  1
CELLSTYLE_BEGIN
 90
        3
 91
        2
300
_DATA
309
CELLSTYLE_END
  0
ENDSEC
  0
EOF
